# Tiled2Unity generated file. Do not modify by hand.
# Wavefront file for 'icmc_mesh_0273.obj'

# Vertices (Count = 16)
v 0 -128 0
v -16 -128 0
v -16 -112 0
v 0 -112 0
v -16 -128 0
v -32 -128 0
v -32 -112 0
v -16 -112 0
v -32 -144 0
v -48 -144 0
v -48 -128 0
v -32 -128 0
v -32 -160 0
v -48 -160 0
v -48 -144 0
v -32 -144 0

# Texture cooridinates (Count = 12)
vt 0.75 0.3146853
vt 0.875 0.3146853
vt 0.875 0.3181818
vt 0.75 0.3181818
vt 1 0.3146853
vt 1 0.3181818
vt 0.875 0.3041958
vt 1 0.3041958
vt 1 0.3076923
vt 0.875 0.3076923
vt 0.875 0.3006993
vt 1 0.3006993

# Normal
vn 0 0 -1

# Mesh description
g icmc_mesh_0273

# Faces
f 1/1/1 2/2/1 3/3/1 4/4/1
f 5/2/1 6/5/1 7/6/1 8/3/1
f 9/7/1 10/8/1 11/9/1 12/10/1
f 13/11/1 14/12/1 15/8/1 16/7/1

