# Tiled2Unity generated file. Do not modify by hand.
# Wavefront file for 'icmc_mesh_0026.obj'

# Vertices (Count = 380)
v -95 -69 0
v -96 -69 0
v -96 -68 0
v -95 -68 0
v -95 -68 0
v -96 -68 0
v -96 -67 0
v -95 -67 0
v -17 -22 0
v -18 -22 0
v -18 -21 0
v -17 -21 0
v -111 -20 0
v -112 -20 0
v -112 -19 0
v -111 -19 0
v -106 -20 0
v -107 -20 0
v -107 -19 0
v -106 -19 0
v -101 -20 0
v -102 -20 0
v -102 -19 0
v -101 -19 0
v -96 -20 0
v -97 -20 0
v -97 -19 0
v -96 -19 0
v -89 -20 0
v -90 -20 0
v -90 -19 0
v -89 -19 0
v -84 -20 0
v -85 -20 0
v -85 -19 0
v -84 -19 0
v -79 -20 0
v -80 -20 0
v -80 -19 0
v -79 -19 0
v -74 -20 0
v -75 -20 0
v -75 -19 0
v -74 -19 0
v -69 -20 0
v -70 -20 0
v -70 -19 0
v -69 -19 0
v -64 -20 0
v -65 -20 0
v -65 -19 0
v -64 -19 0
v -59 -20 0
v -60 -20 0
v -60 -19 0
v -59 -19 0
v -54 -20 0
v -55 -20 0
v -55 -19 0
v -54 -19 0
v -49 -20 0
v -50 -20 0
v -50 -19 0
v -49 -19 0
v -44 -20 0
v -45 -20 0
v -45 -19 0
v -44 -19 0
v -41 -20 0
v -42 -20 0
v -42 -19 0
v -41 -19 0
v -35 -20 0
v -36 -20 0
v -36 -19 0
v -35 -19 0
v -32 -20 0
v -33 -20 0
v -33 -19 0
v -32 -19 0
v -27 -20 0
v -28 -20 0
v -28 -19 0
v -27 -19 0
v -22 -20 0
v -23 -20 0
v -23 -19 0
v -22 -19 0
v -17 -20 0
v -18 -20 0
v -18 -19 0
v -17 -19 0
v -12 -20 0
v -13 -20 0
v -13 -19 0
v -12 -19 0
v -7 -20 0
v -8 -20 0
v -8 -19 0
v -7 -19 0
v -2 -20 0
v -3 -20 0
v -3 -19 0
v -2 -19 0
v -111 -19 0
v -112 -19 0
v -112 -18 0
v -111 -18 0
v -106 -19 0
v -107 -19 0
v -107 -18 0
v -106 -18 0
v -101 -19 0
v -102 -19 0
v -102 -18 0
v -101 -18 0
v -96 -19 0
v -97 -19 0
v -97 -18 0
v -96 -18 0
v -89 -19 0
v -90 -19 0
v -90 -18 0
v -89 -18 0
v -84 -19 0
v -85 -19 0
v -85 -18 0
v -84 -18 0
v -79 -19 0
v -80 -19 0
v -80 -18 0
v -79 -18 0
v -74 -19 0
v -75 -19 0
v -75 -18 0
v -74 -18 0
v -69 -19 0
v -70 -19 0
v -70 -18 0
v -69 -18 0
v -64 -19 0
v -65 -19 0
v -65 -18 0
v -64 -18 0
v -59 -19 0
v -60 -19 0
v -60 -18 0
v -59 -18 0
v -54 -19 0
v -55 -19 0
v -55 -18 0
v -54 -18 0
v -49 -19 0
v -50 -19 0
v -50 -18 0
v -49 -18 0
v -44 -19 0
v -45 -19 0
v -45 -18 0
v -44 -18 0
v -41 -19 0
v -42 -19 0
v -42 -18 0
v -41 -18 0
v -35 -19 0
v -36 -19 0
v -36 -18 0
v -35 -18 0
v -32 -19 0
v -33 -19 0
v -33 -18 0
v -32 -18 0
v -27 -19 0
v -28 -19 0
v -28 -18 0
v -27 -18 0
v -22 -19 0
v -23 -19 0
v -23 -18 0
v -22 -18 0
v -17 -19 0
v -18 -19 0
v -18 -18 0
v -17 -18 0
v -12 -19 0
v -13 -19 0
v -13 -18 0
v -12 -18 0
v -7 -19 0
v -8 -19 0
v -8 -18 0
v -7 -18 0
v -2 -19 0
v -3 -19 0
v -3 -18 0
v -2 -18 0
v -112 -13 0
v -113 -13 0
v -113 -12 0
v -112 -12 0
v -107 -13 0
v -108 -13 0
v -108 -12 0
v -107 -12 0
v -102 -13 0
v -103 -13 0
v -103 -12 0
v -102 -12 0
v -97 -13 0
v -98 -13 0
v -98 -12 0
v -97 -12 0
v -92 -13 0
v -93 -13 0
v -93 -12 0
v -92 -12 0
v -87 -13 0
v -88 -13 0
v -88 -12 0
v -87 -12 0
v -82 -13 0
v -83 -13 0
v -83 -12 0
v -82 -12 0
v -77 -13 0
v -78 -13 0
v -78 -12 0
v -77 -12 0
v -72 -13 0
v -73 -13 0
v -73 -12 0
v -72 -12 0
v -67 -13 0
v -68 -13 0
v -68 -12 0
v -67 -12 0
v -62 -13 0
v -63 -13 0
v -63 -12 0
v -62 -12 0
v -57 -13 0
v -58 -13 0
v -58 -12 0
v -57 -12 0
v -52 -13 0
v -53 -13 0
v -53 -12 0
v -52 -12 0
v -47 -13 0
v -48 -13 0
v -48 -12 0
v -47 -12 0
v -42 -13 0
v -43 -13 0
v -43 -12 0
v -42 -12 0
v -37 -13 0
v -38 -13 0
v -38 -12 0
v -37 -12 0
v -32 -13 0
v -33 -13 0
v -33 -12 0
v -32 -12 0
v -27 -13 0
v -28 -13 0
v -28 -12 0
v -27 -12 0
v -22 -13 0
v -23 -13 0
v -23 -12 0
v -22 -12 0
v -17 -13 0
v -18 -13 0
v -18 -12 0
v -17 -12 0
v -12 -13 0
v -13 -13 0
v -13 -12 0
v -12 -12 0
v -7 -13 0
v -8 -13 0
v -8 -12 0
v -7 -12 0
v -2 -13 0
v -3 -13 0
v -3 -12 0
v -2 -12 0
v -112 -12 0
v -113 -12 0
v -113 -11 0
v -112 -11 0
v -107 -12 0
v -108 -12 0
v -108 -11 0
v -107 -11 0
v -102 -12 0
v -103 -12 0
v -103 -11 0
v -102 -11 0
v -97 -12 0
v -98 -12 0
v -98 -11 0
v -97 -11 0
v -92 -12 0
v -93 -12 0
v -93 -11 0
v -92 -11 0
v -87 -12 0
v -88 -12 0
v -88 -11 0
v -87 -11 0
v -82 -12 0
v -83 -12 0
v -83 -11 0
v -82 -11 0
v -77 -12 0
v -78 -12 0
v -78 -11 0
v -77 -11 0
v -72 -12 0
v -73 -12 0
v -73 -11 0
v -72 -11 0
v -67 -12 0
v -68 -12 0
v -68 -11 0
v -67 -11 0
v -62 -12 0
v -63 -12 0
v -63 -11 0
v -62 -11 0
v -57 -12 0
v -58 -12 0
v -58 -11 0
v -57 -11 0
v -52 -12 0
v -53 -12 0
v -53 -11 0
v -52 -11 0
v -47 -12 0
v -48 -12 0
v -48 -11 0
v -47 -11 0
v -42 -12 0
v -43 -12 0
v -43 -11 0
v -42 -11 0
v -37 -12 0
v -38 -12 0
v -38 -11 0
v -37 -11 0
v -32 -12 0
v -33 -12 0
v -33 -11 0
v -32 -11 0
v -27 -12 0
v -28 -12 0
v -28 -11 0
v -27 -11 0
v -22 -12 0
v -23 -12 0
v -23 -11 0
v -22 -11 0
v -17 -12 0
v -18 -12 0
v -18 -11 0
v -17 -11 0
v -12 -12 0
v -13 -12 0
v -13 -11 0
v -12 -11 0
v -7 -12 0
v -8 -12 0
v -8 -11 0
v -7 -11 0
v -2 -12 0
v -3 -12 0
v -3 -11 0
v -2 -11 0

# Texture cooridinates (Count = 10)
vt 0.5626374 0.8125
vt 0.5665446 0.8125
vt 0.5665446 0.8203125
vt 0.5626374 0.8203125
vt 0.5665446 0.828125
vt 0.5626374 0.828125
vt 0.9494506 0.875
vt 0.9533578 0.875
vt 0.9533578 0.8828125
vt 0.9494506 0.8828125

# Normal
vn 0 0 -1

# Mesh description
g icmc_mesh_0026

# Faces
f 1/1/1 2/2/1 3/3/1 4/4/1
f 5/4/1 6/3/1 7/5/1 8/6/1
f 9/7/1 10/8/1 11/9/1 12/10/1
f 13/1/1 14/2/1 15/3/1 16/4/1
f 17/1/1 18/2/1 19/3/1 20/4/1
f 21/1/1 22/2/1 23/3/1 24/4/1
f 25/1/1 26/2/1 27/3/1 28/4/1
f 29/1/1 30/2/1 31/3/1 32/4/1
f 33/1/1 34/2/1 35/3/1 36/4/1
f 37/1/1 38/2/1 39/3/1 40/4/1
f 41/1/1 42/2/1 43/3/1 44/4/1
f 45/1/1 46/2/1 47/3/1 48/4/1
f 49/1/1 50/2/1 51/3/1 52/4/1
f 53/1/1 54/2/1 55/3/1 56/4/1
f 57/1/1 58/2/1 59/3/1 60/4/1
f 61/1/1 62/2/1 63/3/1 64/4/1
f 65/1/1 66/2/1 67/3/1 68/4/1
f 69/1/1 70/2/1 71/3/1 72/4/1
f 73/1/1 74/2/1 75/3/1 76/4/1
f 77/1/1 78/2/1 79/3/1 80/4/1
f 81/1/1 82/2/1 83/3/1 84/4/1
f 85/1/1 86/2/1 87/3/1 88/4/1
f 89/1/1 90/2/1 91/3/1 92/4/1
f 93/1/1 94/2/1 95/3/1 96/4/1
f 97/1/1 98/2/1 99/3/1 100/4/1
f 101/1/1 102/2/1 103/3/1 104/4/1
f 105/4/1 106/3/1 107/5/1 108/6/1
f 109/4/1 110/3/1 111/5/1 112/6/1
f 113/4/1 114/3/1 115/5/1 116/6/1
f 117/4/1 118/3/1 119/5/1 120/6/1
f 121/4/1 122/3/1 123/5/1 124/6/1
f 125/4/1 126/3/1 127/5/1 128/6/1
f 129/4/1 130/3/1 131/5/1 132/6/1
f 133/4/1 134/3/1 135/5/1 136/6/1
f 137/4/1 138/3/1 139/5/1 140/6/1
f 141/4/1 142/3/1 143/5/1 144/6/1
f 145/4/1 146/3/1 147/5/1 148/6/1
f 149/4/1 150/3/1 151/5/1 152/6/1
f 153/4/1 154/3/1 155/5/1 156/6/1
f 157/4/1 158/3/1 159/5/1 160/6/1
f 161/4/1 162/3/1 163/5/1 164/6/1
f 165/4/1 166/3/1 167/5/1 168/6/1
f 169/4/1 170/3/1 171/5/1 172/6/1
f 173/4/1 174/3/1 175/5/1 176/6/1
f 177/4/1 178/3/1 179/5/1 180/6/1
f 181/4/1 182/3/1 183/5/1 184/6/1
f 185/4/1 186/3/1 187/5/1 188/6/1
f 189/4/1 190/3/1 191/5/1 192/6/1
f 193/4/1 194/3/1 195/5/1 196/6/1
f 197/1/1 198/2/1 199/3/1 200/4/1
f 201/1/1 202/2/1 203/3/1 204/4/1
f 205/1/1 206/2/1 207/3/1 208/4/1
f 209/1/1 210/2/1 211/3/1 212/4/1
f 213/1/1 214/2/1 215/3/1 216/4/1
f 217/1/1 218/2/1 219/3/1 220/4/1
f 221/1/1 222/2/1 223/3/1 224/4/1
f 225/1/1 226/2/1 227/3/1 228/4/1
f 229/1/1 230/2/1 231/3/1 232/4/1
f 233/1/1 234/2/1 235/3/1 236/4/1
f 237/1/1 238/2/1 239/3/1 240/4/1
f 241/1/1 242/2/1 243/3/1 244/4/1
f 245/1/1 246/2/1 247/3/1 248/4/1
f 249/1/1 250/2/1 251/3/1 252/4/1
f 253/1/1 254/2/1 255/3/1 256/4/1
f 257/1/1 258/2/1 259/3/1 260/4/1
f 261/1/1 262/2/1 263/3/1 264/4/1
f 265/1/1 266/2/1 267/3/1 268/4/1
f 269/1/1 270/2/1 271/3/1 272/4/1
f 273/1/1 274/2/1 275/3/1 276/4/1
f 277/1/1 278/2/1 279/3/1 280/4/1
f 281/1/1 282/2/1 283/3/1 284/4/1
f 285/1/1 286/2/1 287/3/1 288/4/1
f 289/4/1 290/3/1 291/5/1 292/6/1
f 293/4/1 294/3/1 295/5/1 296/6/1
f 297/4/1 298/3/1 299/5/1 300/6/1
f 301/4/1 302/3/1 303/5/1 304/6/1
f 305/4/1 306/3/1 307/5/1 308/6/1
f 309/4/1 310/3/1 311/5/1 312/6/1
f 313/4/1 314/3/1 315/5/1 316/6/1
f 317/4/1 318/3/1 319/5/1 320/6/1
f 321/4/1 322/3/1 323/5/1 324/6/1
f 325/4/1 326/3/1 327/5/1 328/6/1
f 329/4/1 330/3/1 331/5/1 332/6/1
f 333/4/1 334/3/1 335/5/1 336/6/1
f 337/4/1 338/3/1 339/5/1 340/6/1
f 341/4/1 342/3/1 343/5/1 344/6/1
f 345/4/1 346/3/1 347/5/1 348/6/1
f 349/4/1 350/3/1 351/5/1 352/6/1
f 353/4/1 354/3/1 355/5/1 356/6/1
f 357/4/1 358/3/1 359/5/1 360/6/1
f 361/4/1 362/3/1 363/5/1 364/6/1
f 365/4/1 366/3/1 367/5/1 368/6/1
f 369/4/1 370/3/1 371/5/1 372/6/1
f 373/4/1 374/3/1 375/5/1 376/6/1
f 377/4/1 378/3/1 379/5/1 380/6/1

