# Tiled2Unity generated file. Do not modify by hand.
# Wavefront file for 'icmc_mesh_0256.obj'

# Vertices (Count = 16)
v -144 -80 0
v -160 -80 0
v -160 -64 0
v -144 -64 0
v -144 -96 0
v -160 -96 0
v -160 -80 0
v -144 -80 0
v -144 -160 0
v -160 -160 0
v -160 -144 0
v -144 -144 0
v -144 -176 0
v -160 -176 0
v -160 -160 0
v -144 -160 0

# Texture cooridinates (Count = 6)
vt 0.75 0.3041958
vt 0.875 0.3041958
vt 0.875 0.3076923
vt 0.75 0.3076923
vt 0.75 0.3006993
vt 0.875 0.3006993

# Normal
vn 0 0 -1

# Mesh description
g icmc_mesh_0256

# Faces
f 1/1/1 2/2/1 3/3/1 4/4/1
f 5/5/1 6/6/1 7/2/1 8/1/1
f 9/1/1 10/2/1 11/3/1 12/4/1
f 13/5/1 14/6/1 15/2/1 16/1/1

