# Tiled2Unity generated file. Do not modify by hand.
# Wavefront file for 'icmc_mesh_0176.obj'

# Vertices (Count = 84)
v 0 -208 0
v -16 -208 0
v -16 -192 0
v 0 -192 0
v -16 -208 0
v -32 -208 0
v -32 -192 0
v -16 -192 0
v -32 -208 0
v -48 -208 0
v -48 -192 0
v -32 -192 0
v 0 -224 0
v -16 -224 0
v -16 -208 0
v 0 -208 0
v -16 -224 0
v -32 -224 0
v -32 -208 0
v -16 -208 0
v -32 -224 0
v -48 -224 0
v -48 -208 0
v -32 -208 0
v -80 -224 0
v -96 -224 0
v -96 -208 0
v -80 -208 0
v -96 -224 0
v -112 -224 0
v -112 -208 0
v -96 -208 0
v -112 -224 0
v -128 -224 0
v -128 -208 0
v -112 -208 0
v 0 -240 0
v -16 -240 0
v -16 -224 0
v 0 -224 0
v -16 -240 0
v -32 -240 0
v -32 -224 0
v -16 -224 0
v -32 -240 0
v -48 -240 0
v -48 -224 0
v -32 -224 0
v -80 -240 0
v -96 -240 0
v -96 -224 0
v -80 -224 0
v -96 -240 0
v -112 -240 0
v -112 -224 0
v -96 -224 0
v -112 -240 0
v -128 -240 0
v -128 -224 0
v -112 -224 0
v 0 -256 0
v -16 -256 0
v -16 -240 0
v 0 -240 0
v -16 -256 0
v -32 -256 0
v -32 -240 0
v -16 -240 0
v -32 -256 0
v -48 -256 0
v -48 -240 0
v -32 -240 0
v -80 -256 0
v -96 -256 0
v -96 -240 0
v -80 -240 0
v -96 -256 0
v -112 -256 0
v -112 -240 0
v -96 -240 0
v -112 -256 0
v -128 -256 0
v -128 -240 0
v -112 -240 0

# Texture cooridinates (Count = 32)
vt 0.01172161 0.96875
vt 0.01562882 0.96875
vt 0.01562882 0.9765625
vt 0.01172161 0.9765625
vt 0.01953602 0.96875
vt 0.01953602 0.9765625
vt 0.02344322 0.96875
vt 0.02344322 0.9765625
vt 0.01172161 0.9609375
vt 0.01562882 0.9609375
vt 0.01953602 0.9609375
vt 0.02344322 0.9609375
vt 0.01172161 0.9921875
vt 0.01562882 0.9921875
vt 0.01562882 1
vt 0.01172161 1
vt 0.01953602 0.9921875
vt 0.01953602 1
vt 0.02344322 0.9921875
vt 0.02344322 1
vt 0.01172161 0.953125
vt 0.01562882 0.953125
vt 0.01953602 0.953125
vt 0.02344322 0.953125
vt 0.01172161 0.984375
vt 0.01562882 0.984375
vt 0.01953602 0.984375
vt 0.02344322 0.984375
vt 0.01172161 0.9453125
vt 0.01562882 0.9453125
vt 0.01953602 0.9453125
vt 0.02344322 0.9453125

# Normal
vn 0 0 -1

# Mesh description
g icmc_mesh_0176

# Faces
f 1/1/1 2/2/1 3/3/1 4/4/1
f 5/2/1 6/5/1 7/6/1 8/3/1
f 9/5/1 10/7/1 11/8/1 12/6/1
f 13/9/1 14/10/1 15/2/1 16/1/1
f 17/10/1 18/11/1 19/5/1 20/2/1
f 21/11/1 22/12/1 23/7/1 24/5/1
f 25/13/1 26/14/1 27/15/1 28/16/1
f 29/14/1 30/17/1 31/18/1 32/15/1
f 33/17/1 34/19/1 35/20/1 36/18/1
f 37/21/1 38/22/1 39/10/1 40/9/1
f 41/22/1 42/23/1 43/11/1 44/10/1
f 45/23/1 46/24/1 47/12/1 48/11/1
f 49/25/1 50/26/1 51/14/1 52/13/1
f 53/26/1 54/27/1 55/17/1 56/14/1
f 57/27/1 58/28/1 59/19/1 60/17/1
f 61/29/1 62/30/1 63/22/1 64/21/1
f 65/30/1 66/31/1 67/23/1 68/22/1
f 69/31/1 70/32/1 71/24/1 72/23/1
f 73/4/1 74/3/1 75/26/1 76/25/1
f 77/3/1 78/6/1 79/27/1 80/26/1
f 81/6/1 82/8/1 83/28/1 84/27/1

