# Tiled2Unity generated file. Do not modify by hand.
# Wavefront file for 'icmc_mesh_0007.obj'

# Vertices (Count = 64)
v -95 -68 0
v -96 -68 0
v -96 -67 0
v -95 -67 0
v -95 -67 0
v -96 -67 0
v -96 -66 0
v -95 -66 0
v -94 -65 0
v -95 -65 0
v -95 -64 0
v -94 -64 0
v -94 -64 0
v -95 -64 0
v -95 -63 0
v -94 -63 0
v -94 -62 0
v -95 -62 0
v -95 -61 0
v -94 -61 0
v -94 -61 0
v -95 -61 0
v -95 -60 0
v -94 -60 0
v -94 -59 0
v -95 -59 0
v -95 -58 0
v -94 -58 0
v -94 -58 0
v -95 -58 0
v -95 -57 0
v -94 -57 0
v -93 -53 0
v -94 -53 0
v -94 -52 0
v -93 -52 0
v -99 -52 0
v -100 -52 0
v -100 -51 0
v -99 -51 0
v -93 -52 0
v -94 -52 0
v -94 -51 0
v -93 -51 0
v -99 -51 0
v -100 -51 0
v -100 -50 0
v -99 -50 0
v -113 -41 0
v -114 -41 0
v -114 -40 0
v -113 -40 0
v -113 -40 0
v -114 -40 0
v -114 -39 0
v -113 -39 0
v -110 -39 0
v -111 -39 0
v -111 -38 0
v -110 -38 0
v -110 -38 0
v -111 -38 0
v -111 -37 0
v -110 -37 0

# Texture cooridinates (Count = 10)
vt 0.8583333 0.6619048
vt 0.8666667 0.6619048
vt 0.8666667 0.6666666
vt 0.8583333 0.6666666
vt 0.8666667 0.6714286
vt 0.8583333 0.6714286
vt 0.8583333 0.6523809
vt 0.8666667 0.6523809
vt 0.8666667 0.6571429
vt 0.8583333 0.6571429

# Normal
vn 0 0 -1

# Mesh description
g icmc_mesh_0007

# Faces
f 1/1/1 2/2/1 3/3/1 4/4/1
f 5/4/1 6/3/1 7/5/1 8/6/1
f 9/1/1 10/2/1 11/3/1 12/4/1
f 13/4/1 14/3/1 15/5/1 16/6/1
f 17/1/1 18/2/1 19/3/1 20/4/1
f 21/4/1 22/3/1 23/5/1 24/6/1
f 25/7/1 26/8/1 27/9/1 28/10/1
f 29/10/1 30/9/1 31/2/1 32/1/1
f 33/7/1 34/8/1 35/9/1 36/10/1
f 37/1/1 38/2/1 39/3/1 40/4/1
f 41/10/1 42/9/1 43/2/1 44/1/1
f 45/4/1 46/3/1 47/5/1 48/6/1
f 49/1/1 50/2/1 51/3/1 52/4/1
f 53/4/1 54/3/1 55/5/1 56/6/1
f 57/1/1 58/2/1 59/3/1 60/4/1
f 61/4/1 62/3/1 63/5/1 64/6/1

