# Tiled2Unity generated file. Do not modify by hand.
# Wavefront file for 'icmc_mesh_0045.obj'

# Vertices (Count = 32)
v -33 -53 0
v -34 -53 0
v -34 -52 0
v -33 -52 0
v -23 -53 0
v -24 -53 0
v -24 -52 0
v -23 -52 0
v -85 -50 0
v -86 -50 0
v -86 -49 0
v -85 -49 0
v -80 -28 0
v -81 -28 0
v -81 -27 0
v -80 -27 0
v -77 -28 0
v -78 -28 0
v -78 -27 0
v -77 -27 0
v -74 -28 0
v -75 -28 0
v -75 -27 0
v -74 -27 0
v -69 -28 0
v -70 -28 0
v -70 -27 0
v -69 -27 0
v -3 -25 0
v -4 -25 0
v -4 -24 0
v -3 -24 0

# Texture cooridinates (Count = 12)
vt 0.9 0.9
vt 0.9166667 0.9
vt 0.9166667 0.9166667
vt 0.9 0.9166667
vt 0.9166667 0.55
vt 0.9333333 0.55
vt 0.9333333 0.5666667
vt 0.9166667 0.5666667
vt 0.85 0.8166667
vt 0.8666667 0.8166667
vt 0.8666667 0.8333333
vt 0.85 0.8333333

# Normal
vn 0 0 -1

# Mesh description
g icmc_mesh_0045

# Faces
f 1/1/1 2/2/1 3/3/1 4/4/1
f 5/1/1 6/2/1 7/3/1 8/4/1
f 9/5/1 10/6/1 11/7/1 12/8/1
f 13/9/1 14/10/1 15/11/1 16/12/1
f 17/9/1 18/10/1 19/11/1 20/12/1
f 21/9/1 22/10/1 23/11/1 24/12/1
f 25/9/1 26/10/1 27/11/1 28/12/1
f 29/1/1 30/2/1 31/3/1 32/4/1

