# Tiled2Unity generated file. Do not modify by hand.
# Wavefront file for 'icmc_mesh_0171.obj'

# Vertices (Count = 20)
v -144 -256 0
v -160 -256 0
v -160 -240 0
v -144 -240 0
v -160 -256 0
v -176 -256 0
v -176 -240 0
v -160 -240 0
v -176 -256 0
v -192 -256 0
v -192 -240 0
v -176 -240 0
v -192 -256 0
v -208 -256 0
v -208 -240 0
v -192 -240 0
v -208 -256 0
v -224 -256 0
v -224 -240 0
v -208 -240 0

# Texture cooridinates (Count = 4)
vt 0.875 0.8811189
vt 1 0.8811189
vt 1 0.8846154
vt 0.875 0.8846154

# Normal
vn 0 0 -1

# Mesh description
g icmc_mesh_0171

# Faces
f 1/1/1 2/2/1 3/3/1 4/4/1
f 5/1/1 6/2/1 7/3/1 8/4/1
f 9/1/1 10/2/1 11/3/1 12/4/1
f 13/1/1 14/2/1 15/3/1 16/4/1
f 17/1/1 18/2/1 19/3/1 20/4/1

