# Tiled2Unity generated file. Do not modify by hand.
# Wavefront file for 'icmc_mesh_0032.obj'

# Vertices (Count = 744)
v -90 -62 0
v -91 -62 0
v -91 -61 0
v -90 -61 0
v -89 -62 0
v -90 -62 0
v -90 -61 0
v -89 -61 0
v -88 -62 0
v -89 -62 0
v -89 -61 0
v -88 -61 0
v -86 -62 0
v -87 -62 0
v -87 -61 0
v -86 -61 0
v -85 -62 0
v -86 -62 0
v -86 -61 0
v -85 -61 0
v -90 -61 0
v -91 -61 0
v -91 -60 0
v -90 -60 0
v -89 -61 0
v -90 -61 0
v -90 -60 0
v -89 -60 0
v -88 -61 0
v -89 -61 0
v -89 -60 0
v -88 -60 0
v -86 -61 0
v -87 -61 0
v -87 -60 0
v -86 -60 0
v -85 -61 0
v -86 -61 0
v -86 -60 0
v -85 -60 0
v -90 -60 0
v -91 -60 0
v -91 -59 0
v -90 -59 0
v -89 -60 0
v -90 -60 0
v -90 -59 0
v -89 -59 0
v -88 -60 0
v -89 -60 0
v -89 -59 0
v -88 -59 0
v -86 -60 0
v -87 -60 0
v -87 -59 0
v -86 -59 0
v -85 -60 0
v -86 -60 0
v -86 -59 0
v -85 -59 0
v -90 -59 0
v -91 -59 0
v -91 -58 0
v -90 -58 0
v -89 -59 0
v -90 -59 0
v -90 -58 0
v -89 -58 0
v -88 -59 0
v -89 -59 0
v -89 -58 0
v -88 -58 0
v -93 -58 0
v -94 -58 0
v -94 -57 0
v -93 -57 0
v -92 -58 0
v -93 -58 0
v -93 -57 0
v -92 -57 0
v -90 -58 0
v -91 -58 0
v -91 -57 0
v -90 -57 0
v -89 -58 0
v -90 -58 0
v -90 -57 0
v -89 -57 0
v -88 -58 0
v -89 -58 0
v -89 -57 0
v -88 -57 0
v -86 -58 0
v -87 -58 0
v -87 -57 0
v -86 -57 0
v -85 -58 0
v -86 -58 0
v -86 -57 0
v -85 -57 0
v -93 -57 0
v -94 -57 0
v -94 -56 0
v -93 -56 0
v -92 -57 0
v -93 -57 0
v -93 -56 0
v -92 -56 0
v -90 -57 0
v -91 -57 0
v -91 -56 0
v -90 -56 0
v -89 -57 0
v -90 -57 0
v -90 -56 0
v -89 -56 0
v -88 -57 0
v -89 -57 0
v -89 -56 0
v -88 -56 0
v -86 -57 0
v -87 -57 0
v -87 -56 0
v -86 -56 0
v -85 -57 0
v -86 -57 0
v -86 -56 0
v -85 -56 0
v -93 -56 0
v -94 -56 0
v -94 -55 0
v -93 -55 0
v -92 -56 0
v -93 -56 0
v -93 -55 0
v -92 -55 0
v -90 -56 0
v -91 -56 0
v -91 -55 0
v -90 -55 0
v -89 -56 0
v -90 -56 0
v -90 -55 0
v -89 -55 0
v -88 -56 0
v -89 -56 0
v -89 -55 0
v -88 -55 0
v -86 -56 0
v -87 -56 0
v -87 -55 0
v -86 -55 0
v -85 -56 0
v -86 -56 0
v -86 -55 0
v -85 -55 0
v -92 -54 0
v -93 -54 0
v -93 -53 0
v -92 -53 0
v -86 -54 0
v -87 -54 0
v -87 -53 0
v -86 -53 0
v -92 -53 0
v -93 -53 0
v -93 -52 0
v -92 -52 0
v -86 -53 0
v -87 -53 0
v -87 -52 0
v -86 -52 0
v -92 -51 0
v -93 -51 0
v -93 -50 0
v -92 -50 0
v -86 -51 0
v -87 -51 0
v -87 -50 0
v -86 -50 0
v -70 -51 0
v -71 -51 0
v -71 -50 0
v -70 -50 0
v -92 -50 0
v -93 -50 0
v -93 -49 0
v -92 -49 0
v -86 -50 0
v -87 -50 0
v -87 -49 0
v -86 -49 0
v -70 -50 0
v -71 -50 0
v -71 -49 0
v -70 -49 0
v -70 -49 0
v -71 -49 0
v -71 -48 0
v -70 -48 0
v -70 -48 0
v -71 -48 0
v -71 -47 0
v -70 -47 0
v -70 -47 0
v -71 -47 0
v -71 -46 0
v -70 -46 0
v -21 -47 0
v -22 -47 0
v -22 -46 0
v -21 -46 0
v -20 -47 0
v -21 -47 0
v -21 -46 0
v -20 -46 0
v -70 -46 0
v -71 -46 0
v -71 -45 0
v -70 -45 0
v -21 -46 0
v -22 -46 0
v -22 -45 0
v -21 -45 0
v -20 -46 0
v -21 -46 0
v -21 -45 0
v -20 -45 0
v -70 -45 0
v -71 -45 0
v -71 -44 0
v -70 -44 0
v -70 -44 0
v -71 -44 0
v -71 -43 0
v -70 -43 0
v -60 -44 0
v -61 -44 0
v -61 -43 0
v -60 -43 0
v -59 -44 0
v -60 -44 0
v -60 -43 0
v -59 -43 0
v -58 -44 0
v -59 -44 0
v -59 -43 0
v -58 -43 0
v -57 -44 0
v -58 -44 0
v -58 -43 0
v -57 -43 0
v -70 -43 0
v -71 -43 0
v -71 -42 0
v -70 -42 0
v -60 -43 0
v -61 -43 0
v -61 -42 0
v -60 -42 0
v -59 -43 0
v -60 -43 0
v -60 -42 0
v -59 -42 0
v -58 -43 0
v -59 -43 0
v -59 -42 0
v -58 -42 0
v -57 -43 0
v -58 -43 0
v -58 -42 0
v -57 -42 0
v -70 -42 0
v -71 -42 0
v -71 -41 0
v -70 -41 0
v -57 -42 0
v -58 -42 0
v -58 -41 0
v -57 -41 0
v -70 -41 0
v -71 -41 0
v -71 -40 0
v -70 -40 0
v -57 -41 0
v -58 -41 0
v -58 -40 0
v -57 -40 0
v -70 -40 0
v -71 -40 0
v -71 -39 0
v -70 -39 0
v -41 -40 0
v -42 -40 0
v -42 -39 0
v -41 -39 0
v -45 -39 0
v -46 -39 0
v -46 -38 0
v -45 -38 0
v -41 -39 0
v -42 -39 0
v -42 -38 0
v -41 -38 0
v -52 -36 0
v -53 -36 0
v -53 -35 0
v -52 -35 0
v -50 -36 0
v -51 -36 0
v -51 -35 0
v -50 -35 0
v -48 -36 0
v -49 -36 0
v -49 -35 0
v -48 -35 0
v -47 -36 0
v -48 -36 0
v -48 -35 0
v -47 -35 0
v -45 -35 0
v -46 -35 0
v -46 -34 0
v -45 -34 0
v -45 -34 0
v -46 -34 0
v -46 -33 0
v -45 -33 0
v -45 -33 0
v -46 -33 0
v -46 -32 0
v -45 -32 0
v -43 -33 0
v -44 -33 0
v -44 -32 0
v -43 -32 0
v -45 -32 0
v -46 -32 0
v -46 -31 0
v -45 -31 0
v -43 -32 0
v -44 -32 0
v -44 -31 0
v -43 -31 0
v -78 -31 0
v -79 -31 0
v -79 -30 0
v -78 -30 0
v -76 -31 0
v -77 -31 0
v -77 -30 0
v -76 -30 0
v -74 -31 0
v -75 -31 0
v -75 -30 0
v -74 -30 0
v -45 -31 0
v -46 -31 0
v -46 -30 0
v -45 -30 0
v -78 -30 0
v -79 -30 0
v -79 -29 0
v -78 -29 0
v -77 -30 0
v -78 -30 0
v -78 -29 0
v -77 -29 0
v -75 -30 0
v -76 -30 0
v -76 -29 0
v -75 -29 0
v -74 -30 0
v -75 -30 0
v -75 -29 0
v -74 -29 0
v -45 -30 0
v -46 -30 0
v -46 -29 0
v -45 -29 0
v -78 -29 0
v -79 -29 0
v -79 -28 0
v -78 -28 0
v -77 -29 0
v -78 -29 0
v -78 -28 0
v -77 -28 0
v -75 -29 0
v -76 -29 0
v -76 -28 0
v -75 -28 0
v -74 -29 0
v -75 -29 0
v -75 -28 0
v -74 -28 0
v -87 -27 0
v -88 -27 0
v -88 -26 0
v -87 -26 0
v -86 -27 0
v -87 -27 0
v -87 -26 0
v -86 -26 0
v -84 -27 0
v -85 -27 0
v -85 -26 0
v -84 -26 0
v -83 -27 0
v -84 -27 0
v -84 -26 0
v -83 -26 0
v -81 -27 0
v -82 -27 0
v -82 -26 0
v -81 -26 0
v -80 -27 0
v -81 -27 0
v -81 -26 0
v -80 -26 0
v -75 -27 0
v -76 -27 0
v -76 -26 0
v -75 -26 0
v -43 -27 0
v -44 -27 0
v -44 -26 0
v -43 -26 0
v -87 -26 0
v -88 -26 0
v -88 -25 0
v -87 -25 0
v -86 -26 0
v -87 -26 0
v -87 -25 0
v -86 -25 0
v -84 -26 0
v -85 -26 0
v -85 -25 0
v -84 -25 0
v -83 -26 0
v -84 -26 0
v -84 -25 0
v -83 -25 0
v -81 -26 0
v -82 -26 0
v -82 -25 0
v -81 -25 0
v -80 -26 0
v -81 -26 0
v -81 -25 0
v -80 -25 0
v -75 -26 0
v -76 -26 0
v -76 -25 0
v -75 -25 0
v -45 -26 0
v -46 -26 0
v -46 -25 0
v -45 -25 0
v -43 -26 0
v -44 -26 0
v -44 -25 0
v -43 -25 0
v -87 -25 0
v -88 -25 0
v -88 -24 0
v -87 -24 0
v -86 -25 0
v -87 -25 0
v -87 -24 0
v -86 -24 0
v -84 -25 0
v -85 -25 0
v -85 -24 0
v -84 -24 0
v -83 -25 0
v -84 -25 0
v -84 -24 0
v -83 -24 0
v -81 -25 0
v -82 -25 0
v -82 -24 0
v -81 -24 0
v -80 -25 0
v -81 -25 0
v -81 -24 0
v -80 -24 0
v -75 -25 0
v -76 -25 0
v -76 -24 0
v -75 -24 0
v -45 -25 0
v -46 -25 0
v -46 -24 0
v -45 -24 0
v -37 -25 0
v -38 -25 0
v -38 -24 0
v -37 -24 0
v -35 -25 0
v -36 -25 0
v -36 -24 0
v -35 -24 0
v -30 -25 0
v -31 -25 0
v -31 -24 0
v -30 -24 0
v -28 -25 0
v -29 -25 0
v -29 -24 0
v -28 -24 0
v -23 -25 0
v -24 -25 0
v -24 -24 0
v -23 -24 0
v -20 -25 0
v -21 -25 0
v -21 -24 0
v -20 -24 0
v -12 -25 0
v -13 -25 0
v -13 -24 0
v -12 -24 0
v -11 -25 0
v -12 -25 0
v -12 -24 0
v -11 -24 0
v -10 -25 0
v -11 -25 0
v -11 -24 0
v -10 -24 0
v -9 -25 0
v -10 -25 0
v -10 -24 0
v -9 -24 0
v -8 -25 0
v -9 -25 0
v -9 -24 0
v -8 -24 0
v -87 -24 0
v -88 -24 0
v -88 -23 0
v -87 -23 0
v -86 -24 0
v -87 -24 0
v -87 -23 0
v -86 -23 0
v -84 -24 0
v -85 -24 0
v -85 -23 0
v -84 -23 0
v -83 -24 0
v -84 -24 0
v -84 -23 0
v -83 -23 0
v -81 -24 0
v -82 -24 0
v -82 -23 0
v -81 -23 0
v -80 -24 0
v -81 -24 0
v -81 -23 0
v -80 -23 0
v -75 -24 0
v -76 -24 0
v -76 -23 0
v -75 -23 0
v -87 -23 0
v -88 -23 0
v -88 -22 0
v -87 -22 0
v -86 -23 0
v -87 -23 0
v -87 -22 0
v -86 -22 0
v -84 -23 0
v -85 -23 0
v -85 -22 0
v -84 -22 0
v -83 -23 0
v -84 -23 0
v -84 -22 0
v -83 -22 0
v -81 -23 0
v -82 -23 0
v -82 -22 0
v -81 -22 0
v -80 -23 0
v -81 -23 0
v -81 -22 0
v -80 -22 0
v -87 -22 0
v -88 -22 0
v -88 -21 0
v -87 -21 0
v -86 -22 0
v -87 -22 0
v -87 -21 0
v -86 -21 0
v -84 -22 0
v -85 -22 0
v -85 -21 0
v -84 -21 0
v -83 -22 0
v -84 -22 0
v -84 -21 0
v -83 -21 0
v -81 -22 0
v -82 -22 0
v -82 -21 0
v -81 -21 0
v -80 -22 0
v -81 -22 0
v -81 -21 0
v -80 -21 0
v -103 -21 0
v -104 -21 0
v -104 -20 0
v -103 -20 0
v -102 -21 0
v -103 -21 0
v -103 -20 0
v -102 -20 0
v -103 -20 0
v -104 -20 0
v -104 -19 0
v -103 -19 0
v -102 -20 0
v -103 -20 0
v -103 -19 0
v -102 -19 0
v -45 -20 0
v -46 -20 0
v -46 -19 0
v -45 -19 0
v -7 -20 0
v -8 -20 0
v -8 -19 0
v -7 -19 0
v -107 -19 0
v -108 -19 0
v -108 -18 0
v -107 -18 0
v -106 -19 0
v -107 -19 0
v -107 -18 0
v -106 -18 0
v -105 -19 0
v -106 -19 0
v -106 -18 0
v -105 -18 0
v -103 -19 0
v -104 -19 0
v -104 -18 0
v -103 -18 0
v -45 -19 0
v -46 -19 0
v -46 -18 0
v -45 -18 0
v -12 -19 0
v -13 -19 0
v -13 -18 0
v -12 -18 0
v -11 -19 0
v -12 -19 0
v -12 -18 0
v -11 -18 0
v -10 -19 0
v -11 -19 0
v -11 -18 0
v -10 -18 0
v -9 -19 0
v -10 -19 0
v -10 -18 0
v -9 -18 0
v -8 -19 0
v -9 -19 0
v -9 -18 0
v -8 -18 0
v -7 -19 0
v -8 -19 0
v -8 -18 0
v -7 -18 0
v -106 -18 0
v -107 -18 0
v -107 -17 0
v -106 -17 0
v -105 -18 0
v -106 -18 0
v -106 -17 0
v -105 -17 0
v -103 -18 0
v -104 -18 0
v -104 -17 0
v -103 -17 0
v -12 -18 0
v -13 -18 0
v -13 -17 0
v -12 -17 0
v -11 -18 0
v -12 -18 0
v -12 -17 0
v -11 -17 0
v -7 -18 0
v -8 -18 0
v -8 -17 0
v -7 -17 0
v -44 -17 0
v -45 -17 0
v -45 -16 0
v -44 -16 0
v -43 -17 0
v -44 -17 0
v -44 -16 0
v -43 -16 0
v -42 -17 0
v -43 -17 0
v -43 -16 0
v -42 -16 0
v -44 -16 0
v -45 -16 0
v -45 -15 0
v -44 -15 0
v -43 -16 0
v -44 -16 0
v -44 -15 0
v -43 -15 0
v -42 -16 0
v -43 -16 0
v -43 -15 0
v -42 -15 0
v -44 -15 0
v -45 -15 0
v -45 -14 0
v -44 -14 0
v -43 -15 0
v -44 -15 0
v -44 -14 0
v -43 -14 0
v -42 -15 0
v -43 -15 0
v -43 -14 0
v -42 -14 0

# Texture cooridinates (Count = 176)
vt 0.9166667 0.7333333
vt 0.9333333 0.7333333
vt 0.9333333 0.75
vt 0.9166667 0.75
vt 0.9 0.7333333
vt 0.9 0.75
vt 0.8833333 0.7333333
vt 0.8833333 0.75
vt 0.7833334 0.75
vt 0.8 0.75
vt 0.8 0.7666667
vt 0.7833334 0.7666667
vt 0.7666667 0.75
vt 0.7666667 0.7666667
vt 0.9333333 0.7666667
vt 0.9166667 0.7666667
vt 0.9 0.7666667
vt 0.8833333 0.7666667
vt 0.8 0.7833333
vt 0.7833334 0.7833333
vt 0.7666667 0.7833333
vt 0.8 0.8
vt 0.7833334 0.8
vt 0.7666667 0.8
vt 0.8166667 0.75
vt 0.8333333 0.75
vt 0.8333333 0.7666667
vt 0.8166667 0.7666667
vt 0.8333333 0.7833333
vt 0.8166667 0.7833333
vt 0.8333333 0.8
vt 0.8166667 0.8
vt 0.9333333 0.7833333
vt 0.9166667 0.7833333
vt 0.9 0.7833333
vt 0.8833333 0.7833333
vt 0.7833334 0.9166667
vt 0.8 0.9166667
vt 0.8 0.9333333
vt 0.7833334 0.9333333
vt 0.8 0.95
vt 0.7833334 0.95
vt 0.7833334 0.8833333
vt 0.8 0.8833333
vt 0.8 0.9
vt 0.7833334 0.9
vt 0.9166667 0.6333333
vt 0.9333333 0.6333333
vt 0.9333333 0.65
vt 0.9166667 0.65
vt 0.9333333 0.7
vt 0.95 0.7
vt 0.95 0.7166667
vt 0.9333333 0.7166667
vt 0.9166667 0.7
vt 0.9166667 0.7166667
vt 0.95 0.7333333
vt 0.75 0.7
vt 0.7666667 0.7
vt 0.7666667 0.7166667
vt 0.75 0.7166667
vt 0.7333333 0.7
vt 0.7333333 0.7166667
vt 0.7166666 0.7
vt 0.7166666 0.7166667
vt 0.7666667 0.7333333
vt 0.75 0.7333333
vt 0.7333333 0.7333333
vt 0.7166666 0.7333333
vt 0.95 0.9166667
vt 0.9666666 0.9166667
vt 0.9666666 0.9333333
vt 0.95 0.9333333
vt 0.9666666 0.95
vt 0.95 0.95
vt 0.9 0.55
vt 0.9166667 0.55
vt 0.9166667 0.5666667
vt 0.9 0.5666667
vt 0.9333333 0.9666666
vt 0.95 0.9666666
vt 0.95 0.9833333
vt 0.9333333 0.9833333
vt 0.9833333 0.9166667
vt 0.9833333 0.9333333
vt 0.7166666 0.7666667
vt 0.7333333 0.7666667
vt 0.7333333 0.7833333
vt 0.7166666 0.7833333
vt 0.7166666 0.75
vt 0.7333333 0.75
vt 0.8833333 0.9166667
vt 0.9 0.9166667
vt 0.9 0.9333333
vt 0.8833333 0.9333333
vt 0.9 0.95
vt 0.8833333 0.95
vt 0.95 0.7833333
vt 0.9666666 0.7833333
vt 0.9666666 0.8
vt 0.95 0.8
vt 0.9333333 0.8
vt 0.9833333 0.95
vt 0.6833333 0.95
vt 0.7 0.95
vt 0.7 0.9666666
vt 0.6833333 0.9666666
vt 0.6666667 0.95
vt 0.6666667 0.9666666
vt 0.6333333 0.7833333
vt 0.65 0.7833333
vt 0.65 0.8
vt 0.6333333 0.8
vt 0.6166667 0.7833333
vt 0.6166667 0.8
vt 0.6833333 0.85
vt 0.7 0.85
vt 0.7 0.8666667
vt 0.6833333 0.8666667
vt 0.65 0.8166667
vt 0.6333333 0.8166667
vt 0.6166667 0.8166667
vt 0.7166666 0.9166667
vt 0.7333333 0.9166667
vt 0.7333333 0.9333333
vt 0.7166666 0.9333333
vt 0.65 0.8333333
vt 0.6333333 0.8333333
vt 0.6166667 0.8333333
vt 0.7333333 0.95
vt 0.7166666 0.95
vt 0.7166666 0.8833333
vt 0.7333333 0.8833333
vt 0.7333333 0.9
vt 0.7166666 0.9
vt 0.7166666 0.85
vt 0.7166666 0.8666667
vt 0.7 0.8833333
vt 0.7 0.7333333
vt 0.7 0.75
vt 0.9 0.7
vt 0.9 0.7166667
vt 0.85 0.95
vt 0.8666667 0.95
vt 0.8666667 0.9666666
vt 0.85 0.9666666
vt 0.8333333 0.95
vt 0.8333333 0.9666666
vt 0.8 0.6666666
vt 0.8166667 0.6666666
vt 0.8166667 0.6833333
vt 0.8 0.6833333
vt 0.7833334 0.6666666
vt 0.7833334 0.6833333
vt 0.7 0.7666667
vt 0.8666667 0.9833333
vt 0.85 0.9833333
vt 0.8333333 0.9833333
vt 0.8166667 0.7
vt 0.8 0.7
vt 0.7833334 0.7
vt 0.7 0.7833333
vt 0.9666666 0.6166667
vt 0.9833333 0.6166667
vt 0.9833333 0.6333333
vt 0.9666666 0.6333333
vt 0.95 0.6166667
vt 0.95 0.6333333
vt 0.9333333 0.6166667
vt 0.9833333 0.65
vt 0.9666666 0.65
vt 0.95 0.65
vt 0.9833333 0.6666666
vt 0.9666666 0.6666666
vt 0.95 0.6666666
vt 0.9333333 0.6666666

# Normal
vn 0 0 -1

# Mesh description
g icmc_mesh_0032

# Faces
f 1/1/1 2/2/1 3/3/1 4/4/1
f 5/5/1 6/1/1 7/4/1 8/6/1
f 9/7/1 10/5/1 11/6/1 12/8/1
f 13/9/1 14/10/1 15/11/1 16/12/1
f 17/13/1 18/9/1 19/12/1 20/14/1
f 21/4/1 22/3/1 23/15/1 24/16/1
f 25/6/1 26/4/1 27/16/1 28/17/1
f 29/8/1 30/6/1 31/17/1 32/18/1
f 33/12/1 34/11/1 35/19/1 36/20/1
f 37/14/1 38/12/1 39/20/1 40/21/1
f 41/4/1 42/3/1 43/15/1 44/16/1
f 45/6/1 46/4/1 47/16/1 48/17/1
f 49/8/1 50/6/1 51/17/1 52/18/1
f 53/20/1 54/19/1 55/22/1 56/23/1
f 57/21/1 58/20/1 59/23/1 60/24/1
f 61/4/1 62/3/1 63/15/1 64/16/1
f 65/6/1 66/4/1 67/16/1 68/17/1
f 69/8/1 70/6/1 71/17/1 72/18/1
f 73/25/1 74/26/1 75/27/1 76/28/1
f 77/10/1 78/25/1 79/28/1 80/11/1
f 81/4/1 82/3/1 83/15/1 84/16/1
f 85/6/1 86/4/1 87/16/1 88/17/1
f 89/8/1 90/6/1 91/17/1 92/18/1
f 93/9/1 94/10/1 95/11/1 96/12/1
f 97/13/1 98/9/1 99/12/1 100/14/1
f 101/28/1 102/27/1 103/29/1 104/30/1
f 105/11/1 106/28/1 107/30/1 108/19/1
f 109/4/1 110/3/1 111/15/1 112/16/1
f 113/6/1 114/4/1 115/16/1 116/17/1
f 117/8/1 118/6/1 119/17/1 120/18/1
f 121/12/1 122/11/1 123/19/1 124/20/1
f 125/14/1 126/12/1 127/20/1 128/21/1
f 129/30/1 130/29/1 131/31/1 132/32/1
f 133/19/1 134/30/1 135/32/1 136/22/1
f 137/16/1 138/15/1 139/33/1 140/34/1
f 141/17/1 142/16/1 143/34/1 144/35/1
f 145/18/1 146/17/1 147/35/1 148/36/1
f 149/20/1 150/19/1 151/22/1 152/23/1
f 153/21/1 154/20/1 155/23/1 156/24/1
f 157/37/1 158/38/1 159/39/1 160/40/1
f 161/37/1 162/38/1 163/39/1 164/40/1
f 165/40/1 166/39/1 167/41/1 168/42/1
f 169/40/1 170/39/1 171/41/1 172/42/1
f 173/43/1 174/44/1 175/45/1 176/46/1
f 177/43/1 178/44/1 179/45/1 180/46/1
f 181/47/1 182/48/1 183/49/1 184/50/1
f 185/46/1 186/45/1 187/38/1 188/37/1
f 189/46/1 190/45/1 191/38/1 192/37/1
f 193/47/1 194/48/1 195/49/1 196/50/1
f 197/47/1 198/48/1 199/49/1 200/50/1
f 201/47/1 202/48/1 203/49/1 204/50/1
f 205/47/1 206/48/1 207/49/1 208/50/1
f 209/51/1 210/52/1 211/53/1 212/54/1
f 213/55/1 214/51/1 215/54/1 216/56/1
f 217/47/1 218/48/1 219/49/1 220/50/1
f 221/54/1 222/53/1 223/57/1 224/2/1
f 225/56/1 226/54/1 227/2/1 228/1/1
f 229/47/1 230/48/1 231/49/1 232/50/1
f 233/47/1 234/48/1 235/49/1 236/50/1
f 237/58/1 238/59/1 239/60/1 240/61/1
f 241/62/1 242/58/1 243/61/1 244/63/1
f 245/62/1 246/58/1 247/61/1 248/63/1
f 249/64/1 250/62/1 251/63/1 252/65/1
f 253/47/1 254/48/1 255/49/1 256/50/1
f 257/61/1 258/60/1 259/66/1 260/67/1
f 261/63/1 262/61/1 263/67/1 264/68/1
f 265/63/1 266/61/1 267/67/1 268/68/1
f 269/65/1 270/63/1 271/68/1 272/69/1
f 273/47/1 274/48/1 275/49/1 276/50/1
f 277/70/1 278/71/1 279/72/1 280/73/1
f 281/47/1 282/48/1 283/49/1 284/50/1
f 285/73/1 286/72/1 287/74/1 288/75/1
f 289/47/1 290/48/1 291/49/1 292/50/1
f 293/70/1 294/71/1 295/72/1 296/73/1
f 297/76/1 298/77/1 299/78/1 300/79/1
f 301/73/1 302/72/1 303/74/1 304/75/1
f 305/80/1 306/81/1 307/82/1 308/83/1
f 309/80/1 310/81/1 311/82/1 312/83/1
f 313/80/1 314/81/1 315/82/1 316/83/1
f 317/80/1 318/81/1 319/82/1 320/83/1
f 321/71/1 322/84/1 323/85/1 324/72/1
f 325/86/1 326/87/1 327/88/1 328/89/1
f 329/90/1 330/91/1 331/87/1 332/86/1
f 333/92/1 334/93/1 335/94/1 336/95/1
f 337/86/1 338/87/1 339/88/1 340/89/1
f 341/95/1 342/94/1 343/96/1 344/97/1
f 345/90/1 346/91/1 347/87/1 348/86/1
f 349/90/1 350/91/1 351/87/1 352/86/1
f 353/90/1 354/91/1 355/87/1 356/86/1
f 357/71/1 358/84/1 359/85/1 360/72/1
f 361/98/1 362/99/1 363/100/1 364/101/1
f 365/33/1 366/98/1 367/101/1 368/102/1
f 369/98/1 370/99/1 371/100/1 372/101/1
f 373/33/1 374/98/1 375/101/1 376/102/1
f 377/72/1 378/85/1 379/103/1 380/74/1
f 381/104/1 382/105/1 383/106/1 384/107/1
f 385/108/1 386/104/1 387/107/1 388/109/1
f 389/104/1 390/105/1 391/106/1 392/107/1
f 393/108/1 394/104/1 395/107/1 396/109/1
f 397/110/1 398/111/1 399/112/1 400/113/1
f 401/114/1 402/110/1 403/113/1 404/115/1
f 405/110/1 406/111/1 407/112/1 408/113/1
f 409/114/1 410/110/1 411/113/1 412/115/1
f 413/110/1 414/111/1 415/112/1 416/113/1
f 417/114/1 418/110/1 419/113/1 420/115/1
f 421/116/1 422/117/1 423/118/1 424/119/1
f 425/92/1 426/93/1 427/94/1 428/95/1
f 429/113/1 430/112/1 431/120/1 432/121/1
f 433/115/1 434/113/1 435/121/1 436/122/1
f 437/113/1 438/112/1 439/120/1 440/121/1
f 441/115/1 442/113/1 443/121/1 444/122/1
f 445/113/1 446/112/1 447/120/1 448/121/1
f 449/115/1 450/113/1 451/121/1 452/122/1
f 453/123/1 454/124/1 455/125/1 456/126/1
f 457/71/1 458/84/1 459/85/1 460/72/1
f 461/95/1 462/94/1 463/96/1 464/97/1
f 465/121/1 466/120/1 467/127/1 468/128/1
f 469/122/1 470/121/1 471/128/1 472/129/1
f 473/121/1 474/120/1 475/127/1 476/128/1
f 477/122/1 478/121/1 479/128/1 480/129/1
f 481/121/1 482/120/1 483/127/1 484/128/1
f 485/122/1 486/121/1 487/128/1 488/129/1
f 489/123/1 490/124/1 491/125/1 492/126/1
f 493/72/1 494/85/1 495/103/1 496/74/1
f 497/80/1 498/81/1 499/82/1 500/83/1
f 501/80/1 502/81/1 503/82/1 504/83/1
f 505/80/1 506/81/1 507/82/1 508/83/1
f 509/80/1 510/81/1 511/82/1 512/83/1
f 513/80/1 514/81/1 515/82/1 516/83/1
f 517/80/1 518/81/1 519/82/1 520/83/1
f 521/80/1 522/81/1 523/82/1 524/83/1
f 525/80/1 526/81/1 527/82/1 528/83/1
f 529/80/1 530/81/1 531/82/1 532/83/1
f 533/80/1 534/81/1 535/82/1 536/83/1
f 537/80/1 538/81/1 539/82/1 540/83/1
f 541/110/1 542/111/1 543/112/1 544/113/1
f 545/114/1 546/110/1 547/113/1 548/115/1
f 549/110/1 550/111/1 551/112/1 552/113/1
f 553/114/1 554/110/1 555/113/1 556/115/1
f 557/110/1 558/111/1 559/112/1 560/113/1
f 561/114/1 562/110/1 563/113/1 564/115/1
f 565/126/1 566/125/1 567/130/1 568/131/1
f 569/113/1 570/112/1 571/120/1 572/121/1
f 573/115/1 574/113/1 575/121/1 576/122/1
f 577/113/1 578/112/1 579/120/1 580/121/1
f 581/115/1 582/113/1 583/121/1 584/122/1
f 585/113/1 586/112/1 587/120/1 588/121/1
f 589/115/1 590/113/1 591/121/1 592/122/1
f 593/121/1 594/120/1 595/127/1 596/128/1
f 597/122/1 598/121/1 599/128/1 600/129/1
f 601/121/1 602/120/1 603/127/1 604/128/1
f 605/122/1 606/121/1 607/128/1 608/129/1
f 609/121/1 610/120/1 611/127/1 612/128/1
f 613/122/1 614/121/1 615/128/1 616/129/1
f 617/132/1 618/133/1 619/134/1 620/135/1
f 621/117/1 622/136/1 623/137/1 624/118/1
f 625/135/1 626/134/1 627/124/1 628/123/1
f 629/118/1 630/137/1 631/132/1 632/138/1
f 633/71/1 634/84/1 635/85/1 636/72/1
f 637/139/1 638/69/1 639/90/1 640/140/1
f 641/141/1 642/55/1 643/56/1 644/142/1
f 645/143/1 646/144/1 647/145/1 648/146/1
f 649/147/1 650/143/1 651/146/1 652/148/1
f 653/123/1 654/124/1 655/125/1 656/126/1
f 657/72/1 658/85/1 659/103/1 660/74/1
f 661/149/1 662/150/1 663/151/1 664/152/1
f 665/153/1 666/149/1 667/152/1 668/154/1
f 669/141/1 670/55/1 671/56/1 672/142/1
f 673/104/1 674/105/1 675/106/1 676/107/1
f 677/108/1 678/104/1 679/107/1 680/109/1
f 681/140/1 682/90/1 683/86/1 684/155/1
f 685/146/1 686/145/1 687/156/1 688/157/1
f 689/148/1 690/146/1 691/157/1 692/158/1
f 693/126/1 694/125/1 695/130/1 696/131/1
f 697/152/1 698/151/1 699/159/1 700/160/1
f 701/154/1 702/152/1 703/160/1 704/161/1
f 705/155/1 706/86/1 707/89/1 708/162/1
f 709/163/1 710/164/1 711/165/1 712/166/1
f 713/167/1 714/163/1 715/166/1 716/168/1
f 717/169/1 718/167/1 719/168/1 720/48/1
f 721/166/1 722/165/1 723/170/1 724/171/1
f 725/168/1 726/166/1 727/171/1 728/172/1
f 729/48/1 730/168/1 731/172/1 732/49/1
f 733/171/1 734/170/1 735/173/1 736/174/1
f 737/172/1 738/171/1 739/174/1 740/175/1
f 741/49/1 742/172/1 743/175/1 744/176/1

