# Tiled2Unity generated file. Do not modify by hand.
# Wavefront file for 'icmc_mesh_0149.obj'

# Vertices (Count = 36)
v -112 -32 0
v -128 -32 0
v -128 -16 0
v -112 -16 0
v -144 -32 0
v -160 -32 0
v -160 -16 0
v -144 -16 0
v -160 -32 0
v -176 -32 0
v -176 -16 0
v -160 -16 0
v -176 -32 0
v -192 -32 0
v -192 -16 0
v -176 -16 0
v -192 -32 0
v -208 -32 0
v -208 -16 0
v -192 -16 0
v -208 -32 0
v -224 -32 0
v -224 -16 0
v -208 -16 0
v -224 -32 0
v -240 -32 0
v -240 -16 0
v -224 -16 0
v -240 -32 0
v -256 -32 0
v -256 -16 0
v -240 -16 0
v -112 -48 0
v -128 -48 0
v -128 -32 0
v -112 -32 0

# Texture cooridinates (Count = 10)
vt 0.8583333 0.6571429
vt 0.8666667 0.6571429
vt 0.8666667 0.6619048
vt 0.8583333 0.6619048
vt 0.625 0.2428572
vt 0.6333333 0.2428572
vt 0.6333333 0.247619
vt 0.625 0.247619
vt 0.8583333 0.6523809
vt 0.8666667 0.6523809

# Normal
vn 0 0 -1

# Mesh description
g icmc_mesh_0149

# Faces
f 1/1/1 2/2/1 3/3/1 4/4/1
f 5/5/1 6/6/1 7/7/1 8/8/1
f 9/5/1 10/6/1 11/7/1 12/8/1
f 13/5/1 14/6/1 15/7/1 16/8/1
f 17/5/1 18/6/1 19/7/1 20/8/1
f 21/5/1 22/6/1 23/7/1 24/8/1
f 25/5/1 26/6/1 27/7/1 28/8/1
f 29/5/1 30/6/1 31/7/1 32/8/1
f 33/9/1 34/10/1 35/2/1 36/1/1

