# Tiled2Unity generated file. Do not modify by hand.
# Wavefront file for 'icmc_mesh_0021.obj'

# Vertices (Count = 184)
v -108 -68 0
v -109 -68 0
v -109 -67 0
v -108 -67 0
v -108 -67 0
v -109 -67 0
v -109 -66 0
v -108 -66 0
v -59 -53 0
v -60 -53 0
v -60 -52 0
v -59 -52 0
v -47 -52 0
v -48 -52 0
v -48 -51 0
v -47 -51 0
v -14 -52 0
v -15 -52 0
v -15 -51 0
v -14 -51 0
v -13 -52 0
v -14 -52 0
v -14 -51 0
v -13 -51 0
v -47 -51 0
v -48 -51 0
v -48 -50 0
v -47 -50 0
v -62 -50 0
v -63 -50 0
v -63 -49 0
v -62 -49 0
v -61 -50 0
v -62 -50 0
v -62 -49 0
v -61 -49 0
v -9 -50 0
v -10 -50 0
v -10 -49 0
v -9 -49 0
v -63 -49 0
v -64 -49 0
v -64 -48 0
v -63 -48 0
v -62 -49 0
v -63 -49 0
v -63 -48 0
v -62 -48 0
v -61 -49 0
v -62 -49 0
v -62 -48 0
v -61 -48 0
v -60 -49 0
v -61 -49 0
v -61 -48 0
v -60 -48 0
v -6 -49 0
v -7 -49 0
v -7 -48 0
v -6 -48 0
v -69 -47 0
v -70 -47 0
v -70 -46 0
v -69 -46 0
v -69 -46 0
v -70 -46 0
v -70 -45 0
v -69 -45 0
v -17 -44 0
v -18 -44 0
v -18 -43 0
v -17 -43 0
v -64 -43 0
v -65 -43 0
v -65 -42 0
v -64 -42 0
v -17 -43 0
v -18 -43 0
v -18 -42 0
v -17 -42 0
v -64 -42 0
v -65 -42 0
v -65 -41 0
v -64 -41 0
v -47 -40 0
v -48 -40 0
v -48 -39 0
v -47 -39 0
v -47 -39 0
v -48 -39 0
v -48 -38 0
v -47 -38 0
v -50 -37 0
v -51 -37 0
v -51 -36 0
v -50 -36 0
v -49 -37 0
v -50 -37 0
v -50 -36 0
v -49 -36 0
v -7 -35 0
v -8 -35 0
v -8 -34 0
v -7 -34 0
v -100 -34 0
v -101 -34 0
v -101 -33 0
v -100 -33 0
v -7 -34 0
v -8 -34 0
v -8 -33 0
v -7 -33 0
v -100 -33 0
v -101 -33 0
v -101 -32 0
v -100 -32 0
v -36 -28 0
v -37 -28 0
v -37 -27 0
v -36 -27 0
v -36 -27 0
v -37 -27 0
v -37 -26 0
v -36 -26 0
v -14 -25 0
v -15 -25 0
v -15 -24 0
v -14 -24 0
v -14 -24 0
v -15 -24 0
v -15 -23 0
v -14 -23 0
v -14 -23 0
v -15 -23 0
v -15 -22 0
v -14 -22 0
v -14 -22 0
v -15 -22 0
v -15 -21 0
v -14 -21 0
v -60 -21 0
v -61 -21 0
v -61 -20 0
v -60 -20 0
v -94 -20 0
v -95 -20 0
v -95 -19 0
v -94 -19 0
v -60 -20 0
v -61 -20 0
v -61 -19 0
v -60 -19 0
v -14 -20 0
v -15 -20 0
v -15 -19 0
v -14 -19 0
v -94 -19 0
v -95 -19 0
v -95 -18 0
v -94 -18 0
v -100 -17 0
v -101 -17 0
v -101 -16 0
v -100 -16 0
v -100 -16 0
v -101 -16 0
v -101 -15 0
v -100 -15 0
v -10 -16 0
v -11 -16 0
v -11 -15 0
v -10 -15 0
v -17 -15 0
v -18 -15 0
v -18 -14 0
v -17 -14 0
v -10 -15 0
v -11 -15 0
v -11 -14 0
v -10 -14 0
v -17 -14 0
v -18 -14 0
v -18 -13 0
v -17 -13 0

# Texture cooridinates (Count = 48)
vt 0.975 0.447619
vt 0.9833333 0.447619
vt 0.9833333 0.452381
vt 0.975 0.452381
vt 0.9833333 0.4571428
vt 0.975 0.4571428
vt 0.3 0.7857143
vt 0.3083333 0.7857143
vt 0.3083333 0.7904762
vt 0.3 0.7904762
vt 0.2666667 0.7761905
vt 0.275 0.7761905
vt 0.275 0.7809524
vt 0.2666667 0.7809524
vt 0.275 0.7857143
vt 0.2833333 0.7857143
vt 0.2833333 0.7904762
vt 0.275 0.7904762
vt 0.2916667 0.7761905
vt 0.3 0.7761905
vt 0.3 0.7809524
vt 0.2916667 0.7809524
vt 0.3083333 0.7761905
vt 0.3083333 0.7809524
vt 0.2833333 0.7952381
vt 0.275 0.7952381
vt 0.2666667 0.7904762
vt 0.2666667 0.7952381
vt 0.825 0.4380952
vt 0.8333333 0.4380952
vt 0.8333333 0.4428571
vt 0.825 0.4428571
vt 0.8333333 0.447619
vt 0.825 0.447619
vt 0.8416666 0.6714286
vt 0.85 0.6714286
vt 0.85 0.6761905
vt 0.8416666 0.6761905
vt 0.825 0.6714286
vt 0.8333333 0.6714286
vt 0.8333333 0.6761905
vt 0.825 0.6761905
vt 0.9666666 0.6238095
vt 0.975 0.6238095
vt 0.975 0.6285714
vt 0.9666666 0.6285714
vt 0.975 0.6333333
vt 0.9666666 0.6333333

# Normal
vn 0 0 -1

# Mesh description
g icmc_mesh_0021

# Faces
f 1/1/1 2/2/1 3/3/1 4/4/1
f 5/4/1 6/3/1 7/5/1 8/6/1
f 9/7/1 10/8/1 11/9/1 12/10/1
f 13/1/1 14/2/1 15/3/1 16/4/1
f 17/11/1 18/12/1 19/13/1 20/14/1
f 21/7/1 22/8/1 23/9/1 24/10/1
f 25/4/1 26/3/1 27/5/1 28/6/1
f 29/15/1 30/16/1 31/17/1 32/18/1
f 33/15/1 34/16/1 35/17/1 36/18/1
f 37/19/1 38/20/1 39/21/1 40/22/1
f 41/20/1 42/23/1 43/24/1 44/21/1
f 45/18/1 46/17/1 47/25/1 48/26/1
f 49/18/1 50/17/1 51/25/1 52/26/1
f 53/27/1 54/18/1 55/26/1 56/28/1
f 57/7/1 58/8/1 59/9/1 60/10/1
f 61/1/1 62/2/1 63/3/1 64/4/1
f 65/4/1 66/3/1 67/5/1 68/6/1
f 69/1/1 70/2/1 71/3/1 72/4/1
f 73/29/1 74/30/1 75/31/1 76/32/1
f 77/4/1 78/3/1 79/5/1 80/6/1
f 81/32/1 82/31/1 83/33/1 84/34/1
f 85/1/1 86/2/1 87/3/1 88/4/1
f 89/4/1 90/3/1 91/5/1 92/6/1
f 93/35/1 94/36/1 95/37/1 96/38/1
f 97/39/1 98/40/1 99/41/1 100/42/1
f 101/1/1 102/2/1 103/3/1 104/4/1
f 105/1/1 106/2/1 107/3/1 108/4/1
f 109/4/1 110/3/1 111/5/1 112/6/1
f 113/4/1 114/3/1 115/5/1 116/6/1
f 117/1/1 118/2/1 119/3/1 120/4/1
f 121/4/1 122/3/1 123/5/1 124/6/1
f 125/1/1 126/2/1 127/3/1 128/4/1
f 129/4/1 130/3/1 131/5/1 132/6/1
f 133/43/1 134/44/1 135/45/1 136/46/1
f 137/46/1 138/45/1 139/47/1 140/48/1
f 141/1/1 142/2/1 143/3/1 144/4/1
f 145/29/1 146/30/1 147/31/1 148/32/1
f 149/4/1 150/3/1 151/5/1 152/6/1
f 153/43/1 154/44/1 155/45/1 156/46/1
f 157/32/1 158/31/1 159/33/1 160/34/1
f 161/1/1 162/2/1 163/3/1 164/4/1
f 165/4/1 166/3/1 167/5/1 168/6/1
f 169/43/1 170/44/1 171/45/1 172/46/1
f 173/1/1 174/2/1 175/3/1 176/4/1
f 177/46/1 178/45/1 179/47/1 180/48/1
f 181/4/1 182/3/1 183/5/1 184/6/1

