# Tiled2Unity generated file. Do not modify by hand.
# Wavefront file for 'icmc_mesh_0227.obj'

# Vertices (Count = 164)
v 0 -16 0
v -16 -16 0
v -16 0 0
v 0 0 0
v -16 -16 0
v -32 -16 0
v -32 0 0
v -16 0 0
v -32 -16 0
v -48 -16 0
v -48 0 0
v -32 0 0
v -48 -16 0
v -64 -16 0
v -64 0 0
v -48 0 0
v -64 -16 0
v -80 -16 0
v -80 0 0
v -64 0 0
v -80 -16 0
v -96 -16 0
v -96 0 0
v -80 0 0
v -96 -16 0
v -112 -16 0
v -112 0 0
v -96 0 0
v -112 -16 0
v -128 -16 0
v -128 0 0
v -112 0 0
v -128 -16 0
v -144 -16 0
v -144 0 0
v -128 0 0
v -144 -16 0
v -160 -16 0
v -160 0 0
v -144 0 0
v -208 -16 0
v -224 -16 0
v -224 0 0
v -208 0 0
v -144 -32 0
v -160 -32 0
v -160 -16 0
v -144 -16 0
v -208 -32 0
v -224 -32 0
v -224 -16 0
v -208 -16 0
v -224 -32 0
v -240 -32 0
v -240 -16 0
v -224 -16 0
v -240 -32 0
v -256 -32 0
v -256 -16 0
v -240 -16 0
v -144 -48 0
v -160 -48 0
v -160 -32 0
v -144 -32 0
v -208 -48 0
v -224 -48 0
v -224 -32 0
v -208 -32 0
v -224 -48 0
v -240 -48 0
v -240 -32 0
v -224 -32 0
v -240 -48 0
v -256 -48 0
v -256 -32 0
v -240 -32 0
v -144 -64 0
v -160 -64 0
v -160 -48 0
v -144 -48 0
v -144 -80 0
v -160 -80 0
v -160 -64 0
v -144 -64 0
v 0 -96 0
v -16 -96 0
v -16 -80 0
v 0 -80 0
v -16 -96 0
v -32 -96 0
v -32 -80 0
v -16 -80 0
v -32 -96 0
v -48 -96 0
v -48 -80 0
v -32 -80 0
v -48 -96 0
v -64 -96 0
v -64 -80 0
v -48 -80 0
v -64 -96 0
v -80 -96 0
v -80 -80 0
v -64 -80 0
v -80 -96 0
v -96 -96 0
v -96 -80 0
v -80 -80 0
v -96 -96 0
v -112 -96 0
v -112 -80 0
v -96 -80 0
v -112 -96 0
v -128 -96 0
v -128 -80 0
v -112 -80 0
v -128 -96 0
v -144 -96 0
v -144 -80 0
v -128 -80 0
v -144 -96 0
v -160 -96 0
v -160 -80 0
v -144 -80 0
v 0 -112 0
v -16 -112 0
v -16 -96 0
v 0 -96 0
v -16 -112 0
v -32 -112 0
v -32 -96 0
v -16 -96 0
v -32 -112 0
v -48 -112 0
v -48 -96 0
v -32 -96 0
v -48 -112 0
v -64 -112 0
v -64 -96 0
v -48 -96 0
v -64 -112 0
v -80 -112 0
v -80 -96 0
v -64 -96 0
v -80 -112 0
v -96 -112 0
v -96 -96 0
v -80 -96 0
v -96 -112 0
v -112 -112 0
v -112 -96 0
v -96 -96 0
v -112 -112 0
v -128 -112 0
v -128 -96 0
v -112 -96 0
v -128 -112 0
v -144 -112 0
v -144 -96 0
v -128 -96 0
v -144 -112 0
v -160 -112 0
v -160 -96 0
v -144 -96 0

# Texture cooridinates (Count = 16)
vt 0.3833333 0.8166667
vt 0.4 0.8166667
vt 0.4 0.8333333
vt 0.3833333 0.8333333
vt 0.4 0.85
vt 0.4166667 0.85
vt 0.4166667 0.8666667
vt 0.4 0.8666667
vt 0.3666667 0.85
vt 0.3833333 0.85
vt 0.3833333 0.8666667
vt 0.3666667 0.8666667
vt 0.3666667 0.8333333
vt 0.3666667 0.8166667
vt 0.4166667 0.8333333
vt 0.4166667 0.8166667

# Normal
vn 0 0 -1

# Mesh description
g icmc_mesh_0227

# Faces
f 1/1/1 2/2/1 3/3/1 4/4/1
f 5/1/1 6/2/1 7/3/1 8/4/1
f 9/1/1 10/2/1 11/3/1 12/4/1
f 13/1/1 14/2/1 15/3/1 16/4/1
f 17/1/1 18/2/1 19/3/1 20/4/1
f 21/1/1 22/2/1 23/3/1 24/4/1
f 25/1/1 26/2/1 27/3/1 28/4/1
f 29/1/1 30/2/1 31/3/1 32/4/1
f 33/1/1 34/2/1 35/3/1 36/4/1
f 37/5/1 38/6/1 39/7/1 40/8/1
f 41/9/1 42/10/1 43/11/1 44/12/1
f 45/5/1 46/6/1 47/7/1 48/8/1
f 49/13/1 50/4/1 51/10/1 52/9/1
f 53/4/1 54/3/1 55/5/1 56/10/1
f 57/4/1 58/3/1 59/5/1 60/10/1
f 61/5/1 62/6/1 63/7/1 64/8/1
f 65/14/1 66/1/1 67/4/1 68/13/1
f 69/1/1 70/2/1 71/3/1 72/4/1
f 73/1/1 74/2/1 75/3/1 76/4/1
f 77/5/1 78/6/1 79/7/1 80/8/1
f 81/5/1 82/6/1 83/7/1 84/8/1
f 85/4/1 86/3/1 87/5/1 88/10/1
f 89/4/1 90/3/1 91/5/1 92/10/1
f 93/4/1 94/3/1 95/5/1 96/10/1
f 97/4/1 98/3/1 99/5/1 100/10/1
f 101/4/1 102/3/1 103/5/1 104/10/1
f 105/4/1 106/3/1 107/5/1 108/10/1
f 109/4/1 110/3/1 111/5/1 112/10/1
f 113/4/1 114/3/1 115/5/1 116/10/1
f 117/4/1 118/3/1 119/5/1 120/10/1
f 121/3/1 122/15/1 123/6/1 124/5/1
f 125/1/1 126/2/1 127/3/1 128/4/1
f 129/1/1 130/2/1 131/3/1 132/4/1
f 133/1/1 134/2/1 135/3/1 136/4/1
f 137/1/1 138/2/1 139/3/1 140/4/1
f 141/1/1 142/2/1 143/3/1 144/4/1
f 145/1/1 146/2/1 147/3/1 148/4/1
f 149/1/1 150/2/1 151/3/1 152/4/1
f 153/1/1 154/2/1 155/3/1 156/4/1
f 157/1/1 158/2/1 159/3/1 160/4/1
f 161/2/1 162/16/1 163/15/1 164/3/1

