# Tiled2Unity generated file. Do not modify by hand.
# Wavefront file for 'icmc_mesh_0018.obj'

# Vertices (Count = 168)
v -45 -51 0
v -46 -51 0
v -46 -50 0
v -45 -50 0
v -43 -51 0
v -44 -51 0
v -44 -50 0
v -43 -50 0
v -41 -51 0
v -42 -51 0
v -42 -50 0
v -41 -50 0
v -39 -51 0
v -40 -51 0
v -40 -50 0
v -39 -50 0
v -34 -51 0
v -35 -51 0
v -35 -50 0
v -34 -50 0
v -32 -51 0
v -33 -51 0
v -33 -50 0
v -32 -50 0
v -30 -51 0
v -31 -51 0
v -31 -50 0
v -30 -50 0
v -28 -51 0
v -29 -51 0
v -29 -50 0
v -28 -50 0
v -23 -51 0
v -24 -51 0
v -24 -50 0
v -23 -50 0
v -22 -51 0
v -23 -51 0
v -23 -50 0
v -22 -50 0
v -21 -51 0
v -22 -51 0
v -22 -50 0
v -21 -50 0
v -20 -51 0
v -21 -51 0
v -21 -50 0
v -20 -50 0
v -45 -49 0
v -46 -49 0
v -46 -48 0
v -45 -48 0
v -43 -49 0
v -44 -49 0
v -44 -48 0
v -43 -48 0
v -41 -49 0
v -42 -49 0
v -42 -48 0
v -41 -48 0
v -39 -49 0
v -40 -49 0
v -40 -48 0
v -39 -48 0
v -34 -49 0
v -35 -49 0
v -35 -48 0
v -34 -48 0
v -32 -49 0
v -33 -49 0
v -33 -48 0
v -32 -48 0
v -30 -49 0
v -31 -49 0
v -31 -48 0
v -30 -48 0
v -28 -49 0
v -29 -49 0
v -29 -48 0
v -28 -48 0
v -23 -49 0
v -24 -49 0
v -24 -48 0
v -23 -48 0
v -22 -49 0
v -23 -49 0
v -23 -48 0
v -22 -48 0
v -21 -49 0
v -22 -49 0
v -22 -48 0
v -21 -48 0
v -20 -49 0
v -21 -49 0
v -21 -48 0
v -20 -48 0
v -60 -48 0
v -61 -48 0
v -61 -47 0
v -60 -47 0
v -57 -48 0
v -58 -48 0
v -58 -47 0
v -57 -47 0
v -41 -34 0
v -42 -34 0
v -42 -33 0
v -41 -33 0
v -45 -18 0
v -46 -18 0
v -46 -17 0
v -45 -17 0
v -44 -18 0
v -45 -18 0
v -45 -17 0
v -44 -17 0
v -43 -18 0
v -44 -18 0
v -44 -17 0
v -43 -17 0
v -42 -18 0
v -43 -18 0
v -43 -17 0
v -42 -17 0
v -41 -18 0
v -42 -18 0
v -42 -17 0
v -41 -17 0
v -45 -17 0
v -46 -17 0
v -46 -16 0
v -45 -16 0
v -44 -17 0
v -45 -17 0
v -45 -16 0
v -44 -16 0
v -43 -17 0
v -44 -17 0
v -44 -16 0
v -43 -16 0
v -42 -17 0
v -43 -17 0
v -43 -16 0
v -42 -16 0
v -41 -17 0
v -42 -17 0
v -42 -16 0
v -41 -16 0
v -45 -16 0
v -46 -16 0
v -46 -15 0
v -45 -15 0
v -44 -16 0
v -45 -16 0
v -45 -15 0
v -44 -15 0
v -43 -16 0
v -44 -16 0
v -44 -15 0
v -43 -15 0
v -42 -16 0
v -43 -16 0
v -43 -15 0
v -42 -15 0
v -41 -16 0
v -42 -16 0
v -42 -15 0
v -41 -15 0

# Texture cooridinates (Count = 33)
vt 0 0.3146853
vt 0.125 0.3146853
vt 0.125 0.3181818
vt 0 0.3181818
vt 0.5 0.3146853
vt 0.625 0.3146853
vt 0.625 0.3181818
vt 0.5 0.3181818
vt 0.875 0.4090909
vt 1 0.4090909
vt 1 0.4125874
vt 0.875 0.4125874
vt 0.75 0.4090909
vt 0.75 0.4125874
vt 0.625 0.4090909
vt 0.625 0.4125874
vt 0.5 0.4090909
vt 0.5 0.4125874
vt 0.75 0.3181818
vt 0.75 0.3216783
vt 0.625 0.3216783
vt 0.125 0.4545454
vt 0.25 0.4545454
vt 0.25 0.458042
vt 0.125 0.458042
vt 0.75 0.4965035
vt 0.875 0.4965035
vt 0.875 0.5
vt 0.75 0.5
vt 0.875 0.8811189
vt 1 0.8811189
vt 1 0.8846154
vt 0.875 0.8846154

# Normal
vn 0 0 -1

# Mesh description
g icmc_mesh_0018

# Faces
f 1/1/1 2/2/1 3/3/1 4/4/1
f 5/5/1 6/6/1 7/7/1 8/8/1
f 9/1/1 10/2/1 11/3/1 12/4/1
f 13/5/1 14/6/1 15/7/1 16/8/1
f 17/5/1 18/6/1 19/7/1 20/8/1
f 21/5/1 22/6/1 23/7/1 24/8/1
f 25/1/1 26/2/1 27/3/1 28/4/1
f 29/5/1 30/6/1 31/7/1 32/8/1
f 33/9/1 34/10/1 35/11/1 36/12/1
f 37/13/1 38/9/1 39/12/1 40/14/1
f 41/15/1 42/13/1 43/14/1 44/16/1
f 45/17/1 46/15/1 47/16/1 48/18/1
f 49/7/1 50/19/1 51/20/1 52/21/1
f 53/5/1 54/6/1 55/7/1 56/8/1
f 57/7/1 58/19/1 59/20/1 60/21/1
f 61/1/1 62/2/1 63/3/1 64/4/1
f 65/1/1 66/2/1 67/3/1 68/4/1
f 69/5/1 70/6/1 71/7/1 72/8/1
f 73/5/1 74/6/1 75/7/1 76/8/1
f 77/7/1 78/19/1 79/20/1 80/21/1
f 81/9/1 82/10/1 83/11/1 84/12/1
f 85/13/1 86/9/1 87/12/1 88/14/1
f 89/15/1 90/13/1 91/14/1 92/16/1
f 93/17/1 94/15/1 95/16/1 96/18/1
f 97/22/1 98/23/1 99/24/1 100/25/1
f 101/22/1 102/23/1 103/24/1 104/25/1
f 105/26/1 106/27/1 107/28/1 108/29/1
f 109/30/1 110/31/1 111/32/1 112/33/1
f 113/30/1 114/31/1 115/32/1 116/33/1
f 117/30/1 118/31/1 119/32/1 120/33/1
f 121/30/1 122/31/1 123/32/1 124/33/1
f 125/30/1 126/31/1 127/32/1 128/33/1
f 129/30/1 130/31/1 131/32/1 132/33/1
f 133/30/1 134/31/1 135/32/1 136/33/1
f 137/30/1 138/31/1 139/32/1 140/33/1
f 141/30/1 142/31/1 143/32/1 144/33/1
f 145/30/1 146/31/1 147/32/1 148/33/1
f 149/30/1 150/31/1 151/32/1 152/33/1
f 153/30/1 154/31/1 155/32/1 156/33/1
f 157/30/1 158/31/1 159/32/1 160/33/1
f 161/30/1 162/31/1 163/32/1 164/33/1
f 165/30/1 166/31/1 167/32/1 168/33/1

