# Tiled2Unity generated file. Do not modify by hand.
# Wavefront file for 'icmc_mesh_0178.obj'

# Vertices (Count = 24)
v -64 -256 0
v -80 -256 0
v -80 -240 0
v -64 -240 0
v -80 -256 0
v -96 -256 0
v -96 -240 0
v -80 -240 0
v -96 -256 0
v -112 -256 0
v -112 -240 0
v -96 -240 0
v -112 -256 0
v -128 -256 0
v -128 -240 0
v -112 -240 0
v -192 -256 0
v -208 -256 0
v -208 -240 0
v -192 -240 0
v -224 -256 0
v -240 -256 0
v -240 -240 0
v -224 -240 0

# Texture cooridinates (Count = 17)
vt 0.5 0.4125874
vt 0.625 0.4125874
vt 0.625 0.4160839
vt 0.5 0.4160839
vt 0.75 0.4125874
vt 0.75 0.4160839
vt 0.875 0.4125874
vt 0.875 0.4160839
vt 1 0.4125874
vt 1 0.4160839
vt 0.625 0.3216783
vt 0.75 0.3216783
vt 0.75 0.3251748
vt 0.625 0.3251748
vt 0.5 0.3181818
vt 0.625 0.3181818
vt 0.5 0.3216783

# Normal
vn 0 0 -1

# Mesh description
g icmc_mesh_0178

# Faces
f 1/1/1 2/2/1 3/3/1 4/4/1
f 5/2/1 6/5/1 7/6/1 8/3/1
f 9/5/1 10/7/1 11/8/1 12/6/1
f 13/7/1 14/9/1 15/10/1 16/8/1
f 17/11/1 18/12/1 19/13/1 20/14/1
f 21/15/1 22/16/1 23/11/1 24/17/1

