# Tiled2Unity generated file. Do not modify by hand.
# Wavefront file for 'icmc_mesh_0040.obj'

# Vertices (Count = 196)
v -95 -69 0
v -96 -69 0
v -96 -68 0
v -95 -68 0
v -95 -68 0
v -96 -68 0
v -96 -67 0
v -95 -67 0
v -17 -22 0
v -18 -22 0
v -18 -21 0
v -17 -21 0
v -111 -20 0
v -112 -20 0
v -112 -19 0
v -111 -19 0
v -106 -20 0
v -107 -20 0
v -107 -19 0
v -106 -19 0
v -101 -20 0
v -102 -20 0
v -102 -19 0
v -101 -19 0
v -96 -20 0
v -97 -20 0
v -97 -19 0
v -96 -19 0
v -89 -20 0
v -90 -20 0
v -90 -19 0
v -89 -19 0
v -84 -20 0
v -85 -20 0
v -85 -19 0
v -84 -19 0
v -79 -20 0
v -80 -20 0
v -80 -19 0
v -79 -19 0
v -74 -20 0
v -75 -20 0
v -75 -19 0
v -74 -19 0
v -69 -20 0
v -70 -20 0
v -70 -19 0
v -69 -19 0
v -64 -20 0
v -65 -20 0
v -65 -19 0
v -64 -19 0
v -59 -20 0
v -60 -20 0
v -60 -19 0
v -59 -19 0
v -54 -20 0
v -55 -20 0
v -55 -19 0
v -54 -19 0
v -49 -20 0
v -50 -20 0
v -50 -19 0
v -49 -19 0
v -44 -20 0
v -45 -20 0
v -45 -19 0
v -44 -19 0
v -41 -20 0
v -42 -20 0
v -42 -19 0
v -41 -19 0
v -35 -20 0
v -36 -20 0
v -36 -19 0
v -35 -19 0
v -32 -20 0
v -33 -20 0
v -33 -19 0
v -32 -19 0
v -27 -20 0
v -28 -20 0
v -28 -19 0
v -27 -19 0
v -22 -20 0
v -23 -20 0
v -23 -19 0
v -22 -19 0
v -17 -20 0
v -18 -20 0
v -18 -19 0
v -17 -19 0
v -12 -20 0
v -13 -20 0
v -13 -19 0
v -12 -19 0
v -7 -20 0
v -8 -20 0
v -8 -19 0
v -7 -19 0
v -2 -20 0
v -3 -20 0
v -3 -19 0
v -2 -19 0
v -112 -13 0
v -113 -13 0
v -113 -12 0
v -112 -12 0
v -107 -13 0
v -108 -13 0
v -108 -12 0
v -107 -12 0
v -102 -13 0
v -103 -13 0
v -103 -12 0
v -102 -12 0
v -97 -13 0
v -98 -13 0
v -98 -12 0
v -97 -12 0
v -92 -13 0
v -93 -13 0
v -93 -12 0
v -92 -12 0
v -87 -13 0
v -88 -13 0
v -88 -12 0
v -87 -12 0
v -82 -13 0
v -83 -13 0
v -83 -12 0
v -82 -12 0
v -77 -13 0
v -78 -13 0
v -78 -12 0
v -77 -12 0
v -72 -13 0
v -73 -13 0
v -73 -12 0
v -72 -12 0
v -67 -13 0
v -68 -13 0
v -68 -12 0
v -67 -12 0
v -62 -13 0
v -63 -13 0
v -63 -12 0
v -62 -12 0
v -57 -13 0
v -58 -13 0
v -58 -12 0
v -57 -12 0
v -52 -13 0
v -53 -13 0
v -53 -12 0
v -52 -12 0
v -47 -13 0
v -48 -13 0
v -48 -12 0
v -47 -12 0
v -42 -13 0
v -43 -13 0
v -43 -12 0
v -42 -12 0
v -37 -13 0
v -38 -13 0
v -38 -12 0
v -37 -12 0
v -32 -13 0
v -33 -13 0
v -33 -12 0
v -32 -12 0
v -27 -13 0
v -28 -13 0
v -28 -12 0
v -27 -12 0
v -22 -13 0
v -23 -13 0
v -23 -12 0
v -22 -12 0
v -17 -13 0
v -18 -13 0
v -18 -12 0
v -17 -12 0
v -12 -13 0
v -13 -13 0
v -13 -12 0
v -12 -12 0
v -7 -13 0
v -8 -13 0
v -8 -12 0
v -7 -12 0
v -2 -13 0
v -3 -13 0
v -3 -12 0
v -2 -12 0

# Texture cooridinates (Count = 10)
vt 0.5626374 0.8125
vt 0.5665446 0.8125
vt 0.5665446 0.8203125
vt 0.5626374 0.8203125
vt 0.5665446 0.828125
vt 0.5626374 0.828125
vt 0.9494506 0.875
vt 0.9533578 0.875
vt 0.9533578 0.8828125
vt 0.9494506 0.8828125

# Normal
vn 0 0 -1

# Mesh description
g icmc_mesh_0040

# Faces
f 1/1/1 2/2/1 3/3/1 4/4/1
f 5/4/1 6/3/1 7/5/1 8/6/1
f 9/7/1 10/8/1 11/9/1 12/10/1
f 13/1/1 14/2/1 15/3/1 16/4/1
f 17/1/1 18/2/1 19/3/1 20/4/1
f 21/1/1 22/2/1 23/3/1 24/4/1
f 25/1/1 26/2/1 27/3/1 28/4/1
f 29/1/1 30/2/1 31/3/1 32/4/1
f 33/1/1 34/2/1 35/3/1 36/4/1
f 37/1/1 38/2/1 39/3/1 40/4/1
f 41/1/1 42/2/1 43/3/1 44/4/1
f 45/1/1 46/2/1 47/3/1 48/4/1
f 49/1/1 50/2/1 51/3/1 52/4/1
f 53/1/1 54/2/1 55/3/1 56/4/1
f 57/1/1 58/2/1 59/3/1 60/4/1
f 61/1/1 62/2/1 63/3/1 64/4/1
f 65/1/1 66/2/1 67/3/1 68/4/1
f 69/1/1 70/2/1 71/3/1 72/4/1
f 73/1/1 74/2/1 75/3/1 76/4/1
f 77/1/1 78/2/1 79/3/1 80/4/1
f 81/1/1 82/2/1 83/3/1 84/4/1
f 85/1/1 86/2/1 87/3/1 88/4/1
f 89/1/1 90/2/1 91/3/1 92/4/1
f 93/1/1 94/2/1 95/3/1 96/4/1
f 97/1/1 98/2/1 99/3/1 100/4/1
f 101/1/1 102/2/1 103/3/1 104/4/1
f 105/1/1 106/2/1 107/3/1 108/4/1
f 109/1/1 110/2/1 111/3/1 112/4/1
f 113/1/1 114/2/1 115/3/1 116/4/1
f 117/1/1 118/2/1 119/3/1 120/4/1
f 121/1/1 122/2/1 123/3/1 124/4/1
f 125/1/1 126/2/1 127/3/1 128/4/1
f 129/1/1 130/2/1 131/3/1 132/4/1
f 133/1/1 134/2/1 135/3/1 136/4/1
f 137/1/1 138/2/1 139/3/1 140/4/1
f 141/1/1 142/2/1 143/3/1 144/4/1
f 145/1/1 146/2/1 147/3/1 148/4/1
f 149/1/1 150/2/1 151/3/1 152/4/1
f 153/1/1 154/2/1 155/3/1 156/4/1
f 157/1/1 158/2/1 159/3/1 160/4/1
f 161/1/1 162/2/1 163/3/1 164/4/1
f 165/1/1 166/2/1 167/3/1 168/4/1
f 169/1/1 170/2/1 171/3/1 172/4/1
f 173/1/1 174/2/1 175/3/1 176/4/1
f 177/1/1 178/2/1 179/3/1 180/4/1
f 181/1/1 182/2/1 183/3/1 184/4/1
f 185/1/1 186/2/1 187/3/1 188/4/1
f 189/1/1 190/2/1 191/3/1 192/4/1
f 193/1/1 194/2/1 195/3/1 196/4/1

