# Tiled2Unity generated file. Do not modify by hand.
# Wavefront file for 'icmc_mesh_0212.obj'

# Vertices (Count = 684)
v 0 -16 0
v -16 -16 0
v -16 0 0
v 0 0 0
v -16 -16 0
v -32 -16 0
v -32 0 0
v -16 0 0
v -32 -16 0
v -48 -16 0
v -48 0 0
v -32 0 0
v -48 -16 0
v -64 -16 0
v -64 0 0
v -48 0 0
v -64 -16 0
v -80 -16 0
v -80 0 0
v -64 0 0
v -80 -16 0
v -96 -16 0
v -96 0 0
v -80 0 0
v -96 -16 0
v -112 -16 0
v -112 0 0
v -96 0 0
v -112 -16 0
v -128 -16 0
v -128 0 0
v -112 0 0
v -128 -16 0
v -144 -16 0
v -144 0 0
v -128 0 0
v -144 -16 0
v -160 -16 0
v -160 0 0
v -144 0 0
v -224 -16 0
v -240 -16 0
v -240 0 0
v -224 0 0
v 0 -32 0
v -16 -32 0
v -16 -16 0
v 0 -16 0
v -16 -32 0
v -32 -32 0
v -32 -16 0
v -16 -16 0
v -32 -32 0
v -48 -32 0
v -48 -16 0
v -32 -16 0
v -48 -32 0
v -64 -32 0
v -64 -16 0
v -48 -16 0
v -64 -32 0
v -80 -32 0
v -80 -16 0
v -64 -16 0
v -80 -32 0
v -96 -32 0
v -96 -16 0
v -80 -16 0
v -96 -32 0
v -112 -32 0
v -112 -16 0
v -96 -16 0
v -112 -32 0
v -128 -32 0
v -128 -16 0
v -112 -16 0
v -128 -32 0
v -144 -32 0
v -144 -16 0
v -128 -16 0
v -144 -32 0
v -160 -32 0
v -160 -16 0
v -144 -16 0
v -224 -32 0
v -240 -32 0
v -240 -16 0
v -224 -16 0
v -144 -48 0
v -160 -48 0
v -160 -32 0
v -144 -32 0
v -224 -48 0
v -240 -48 0
v -240 -32 0
v -224 -32 0
v -240 -48 0
v -256 -48 0
v -256 -32 0
v -240 -32 0
v -80 -64 0
v -96 -64 0
v -96 -48 0
v -80 -48 0
v -96 -64 0
v -112 -64 0
v -112 -48 0
v -96 -48 0
v -112 -64 0
v -128 -64 0
v -128 -48 0
v -112 -48 0
v -128 -64 0
v -144 -64 0
v -144 -48 0
v -128 -48 0
v -144 -64 0
v -160 -64 0
v -160 -48 0
v -144 -48 0
v -224 -64 0
v -240 -64 0
v -240 -48 0
v -224 -48 0
v -240 -64 0
v -256 -64 0
v -256 -48 0
v -240 -48 0
v -80 -80 0
v -96 -80 0
v -96 -64 0
v -80 -64 0
v -96 -80 0
v -112 -80 0
v -112 -64 0
v -96 -64 0
v -112 -80 0
v -128 -80 0
v -128 -64 0
v -112 -64 0
v -128 -80 0
v -144 -80 0
v -144 -64 0
v -128 -64 0
v -144 -80 0
v -160 -80 0
v -160 -64 0
v -144 -64 0
v 0 -96 0
v -16 -96 0
v -16 -80 0
v 0 -80 0
v -16 -96 0
v -32 -96 0
v -32 -80 0
v -16 -80 0
v -32 -96 0
v -48 -96 0
v -48 -80 0
v -32 -80 0
v -48 -96 0
v -64 -96 0
v -64 -80 0
v -48 -80 0
v -64 -96 0
v -80 -96 0
v -80 -80 0
v -64 -80 0
v -80 -96 0
v -96 -96 0
v -96 -80 0
v -80 -80 0
v -128 -96 0
v -144 -96 0
v -144 -80 0
v -128 -80 0
v -144 -96 0
v -160 -96 0
v -160 -80 0
v -144 -80 0
v -160 -96 0
v -176 -96 0
v -176 -80 0
v -160 -80 0
v -176 -96 0
v -192 -96 0
v -192 -80 0
v -176 -80 0
v -192 -96 0
v -208 -96 0
v -208 -80 0
v -192 -80 0
v -208 -96 0
v -224 -96 0
v -224 -80 0
v -208 -80 0
v -224 -96 0
v -240 -96 0
v -240 -80 0
v -224 -80 0
v 0 -112 0
v -16 -112 0
v -16 -96 0
v 0 -96 0
v -16 -112 0
v -32 -112 0
v -32 -96 0
v -16 -96 0
v -32 -112 0
v -48 -112 0
v -48 -96 0
v -32 -96 0
v -48 -112 0
v -64 -112 0
v -64 -96 0
v -48 -96 0
v -64 -112 0
v -80 -112 0
v -80 -96 0
v -64 -96 0
v -80 -112 0
v -96 -112 0
v -96 -96 0
v -80 -96 0
v -128 -112 0
v -144 -112 0
v -144 -96 0
v -128 -96 0
v -144 -112 0
v -160 -112 0
v -160 -96 0
v -144 -96 0
v -160 -112 0
v -176 -112 0
v -176 -96 0
v -160 -96 0
v -176 -112 0
v -192 -112 0
v -192 -96 0
v -176 -96 0
v -192 -112 0
v -208 -112 0
v -208 -96 0
v -192 -96 0
v -208 -112 0
v -224 -112 0
v -224 -96 0
v -208 -96 0
v -224 -112 0
v -240 -112 0
v -240 -96 0
v -224 -96 0
v 0 -128 0
v -16 -128 0
v -16 -112 0
v 0 -112 0
v -80 -128 0
v -96 -128 0
v -96 -112 0
v -80 -112 0
v -128 -128 0
v -144 -128 0
v -144 -112 0
v -128 -112 0
v -144 -128 0
v -160 -128 0
v -160 -112 0
v -144 -112 0
v -160 -128 0
v -176 -128 0
v -176 -112 0
v -160 -112 0
v -176 -128 0
v -192 -128 0
v -192 -112 0
v -176 -112 0
v -192 -128 0
v -208 -128 0
v -208 -112 0
v -192 -112 0
v -208 -128 0
v -224 -128 0
v -224 -112 0
v -208 -112 0
v -224 -128 0
v -240 -128 0
v -240 -112 0
v -224 -112 0
v 0 -144 0
v -16 -144 0
v -16 -128 0
v 0 -128 0
v -80 -144 0
v -96 -144 0
v -96 -128 0
v -80 -128 0
v -128 -144 0
v -144 -144 0
v -144 -128 0
v -128 -128 0
v -144 -144 0
v -160 -144 0
v -160 -128 0
v -144 -128 0
v -160 -144 0
v -176 -144 0
v -176 -128 0
v -160 -128 0
v -176 -144 0
v -192 -144 0
v -192 -128 0
v -176 -128 0
v -192 -144 0
v -208 -144 0
v -208 -128 0
v -192 -128 0
v -208 -144 0
v -224 -144 0
v -224 -128 0
v -208 -128 0
v -224 -144 0
v -240 -144 0
v -240 -128 0
v -224 -128 0
v 0 -160 0
v -16 -160 0
v -16 -144 0
v 0 -144 0
v -16 -160 0
v -32 -160 0
v -32 -144 0
v -16 -144 0
v -32 -160 0
v -48 -160 0
v -48 -144 0
v -32 -144 0
v -48 -160 0
v -64 -160 0
v -64 -144 0
v -48 -144 0
v -64 -160 0
v -80 -160 0
v -80 -144 0
v -64 -144 0
v -80 -160 0
v -96 -160 0
v -96 -144 0
v -80 -144 0
v -128 -160 0
v -144 -160 0
v -144 -144 0
v -128 -144 0
v -144 -160 0
v -160 -160 0
v -160 -144 0
v -144 -144 0
v -160 -160 0
v -176 -160 0
v -176 -144 0
v -160 -144 0
v -192 -160 0
v -208 -160 0
v -208 -144 0
v -192 -144 0
v -208 -160 0
v -224 -160 0
v -224 -144 0
v -208 -144 0
v -224 -160 0
v -240 -160 0
v -240 -144 0
v -224 -144 0
v 0 -176 0
v -16 -176 0
v -16 -160 0
v 0 -160 0
v -16 -176 0
v -32 -176 0
v -32 -160 0
v -16 -160 0
v -32 -176 0
v -48 -176 0
v -48 -160 0
v -32 -160 0
v -48 -176 0
v -64 -176 0
v -64 -160 0
v -48 -160 0
v -64 -176 0
v -80 -176 0
v -80 -160 0
v -64 -160 0
v -80 -176 0
v -96 -176 0
v -96 -160 0
v -80 -160 0
v -128 -176 0
v -144 -176 0
v -144 -160 0
v -128 -160 0
v -144 -176 0
v -160 -176 0
v -160 -160 0
v -144 -160 0
v -160 -176 0
v -176 -176 0
v -176 -160 0
v -160 -160 0
v -192 -176 0
v -208 -176 0
v -208 -160 0
v -192 -160 0
v -208 -176 0
v -224 -176 0
v -224 -160 0
v -208 -160 0
v -224 -176 0
v -240 -176 0
v -240 -160 0
v -224 -160 0
v -128 -192 0
v -144 -192 0
v -144 -176 0
v -128 -176 0
v -144 -192 0
v -160 -192 0
v -160 -176 0
v -144 -176 0
v -160 -192 0
v -176 -192 0
v -176 -176 0
v -160 -176 0
v -192 -192 0
v -208 -192 0
v -208 -176 0
v -192 -176 0
v -208 -192 0
v -224 -192 0
v -224 -176 0
v -208 -176 0
v -224 -192 0
v -240 -192 0
v -240 -176 0
v -224 -176 0
v 0 -208 0
v -16 -208 0
v -16 -192 0
v 0 -192 0
v -16 -208 0
v -32 -208 0
v -32 -192 0
v -16 -192 0
v -32 -208 0
v -48 -208 0
v -48 -192 0
v -32 -192 0
v -48 -208 0
v -64 -208 0
v -64 -192 0
v -48 -192 0
v -64 -208 0
v -80 -208 0
v -80 -192 0
v -64 -192 0
v -80 -208 0
v -96 -208 0
v -96 -192 0
v -80 -192 0
v -96 -208 0
v -112 -208 0
v -112 -192 0
v -96 -192 0
v -112 -208 0
v -128 -208 0
v -128 -192 0
v -112 -192 0
v -128 -208 0
v -144 -208 0
v -144 -192 0
v -128 -192 0
v -144 -208 0
v -160 -208 0
v -160 -192 0
v -144 -192 0
v -160 -208 0
v -176 -208 0
v -176 -192 0
v -160 -192 0
v -176 -208 0
v -192 -208 0
v -192 -192 0
v -176 -192 0
v -192 -208 0
v -208 -208 0
v -208 -192 0
v -192 -192 0
v -208 -208 0
v -224 -208 0
v -224 -192 0
v -208 -192 0
v -224 -208 0
v -240 -208 0
v -240 -192 0
v -224 -192 0
v 0 -224 0
v -16 -224 0
v -16 -208 0
v 0 -208 0
v -16 -224 0
v -32 -224 0
v -32 -208 0
v -16 -208 0
v -32 -224 0
v -48 -224 0
v -48 -208 0
v -32 -208 0
v -48 -224 0
v -64 -224 0
v -64 -208 0
v -48 -208 0
v -64 -224 0
v -80 -224 0
v -80 -208 0
v -64 -208 0
v -80 -224 0
v -96 -224 0
v -96 -208 0
v -80 -208 0
v -96 -224 0
v -112 -224 0
v -112 -208 0
v -96 -208 0
v -112 -224 0
v -128 -224 0
v -128 -208 0
v -112 -208 0
v -128 -224 0
v -144 -224 0
v -144 -208 0
v -128 -208 0
v -144 -224 0
v -160 -224 0
v -160 -208 0
v -144 -208 0
v -160 -224 0
v -176 -224 0
v -176 -208 0
v -160 -208 0
v -176 -224 0
v -192 -224 0
v -192 -208 0
v -176 -208 0
v -192 -224 0
v -208 -224 0
v -208 -208 0
v -192 -208 0
v -208 -224 0
v -224 -224 0
v -224 -208 0
v -208 -208 0
v -224 -224 0
v -240 -224 0
v -240 -208 0
v -224 -208 0
v 0 -240 0
v -16 -240 0
v -16 -224 0
v 0 -224 0
v -16 -240 0
v -32 -240 0
v -32 -224 0
v -16 -224 0
v -32 -240 0
v -48 -240 0
v -48 -224 0
v -32 -224 0
v -48 -240 0
v -64 -240 0
v -64 -224 0
v -48 -224 0
v -64 -240 0
v -80 -240 0
v -80 -224 0
v -64 -224 0
v -80 -240 0
v -96 -240 0
v -96 -224 0
v -80 -224 0
v -96 -240 0
v -112 -240 0
v -112 -224 0
v -96 -224 0
v -112 -240 0
v -128 -240 0
v -128 -224 0
v -112 -224 0
v -128 -240 0
v -144 -240 0
v -144 -224 0
v -128 -224 0
v -144 -240 0
v -160 -240 0
v -160 -224 0
v -144 -224 0
v -160 -240 0
v -176 -240 0
v -176 -224 0
v -160 -224 0
v -176 -240 0
v -192 -240 0
v -192 -224 0
v -176 -224 0
v -192 -240 0
v -208 -240 0
v -208 -224 0
v -192 -224 0
v -208 -240 0
v -224 -240 0
v -224 -224 0
v -208 -224 0
v -224 -240 0
v -240 -240 0
v -240 -224 0
v -224 -224 0
v 0 -256 0
v -16 -256 0
v -16 -240 0
v 0 -240 0
v -16 -256 0
v -32 -256 0
v -32 -240 0
v -16 -240 0
v -32 -256 0
v -48 -256 0
v -48 -240 0
v -32 -240 0
v -48 -256 0
v -64 -256 0
v -64 -240 0
v -48 -240 0
v -64 -256 0
v -80 -256 0
v -80 -240 0
v -64 -240 0
v -80 -256 0
v -96 -256 0
v -96 -240 0
v -80 -240 0
v -96 -256 0
v -112 -256 0
v -112 -240 0
v -96 -240 0
v -112 -256 0
v -128 -256 0
v -128 -240 0
v -112 -240 0
v -128 -256 0
v -144 -256 0
v -144 -240 0
v -128 -240 0
v -144 -256 0
v -160 -256 0
v -160 -240 0
v -144 -240 0
v -160 -256 0
v -176 -256 0
v -176 -240 0
v -160 -240 0
v -176 -256 0
v -192 -256 0
v -192 -240 0
v -176 -240 0
v -192 -256 0
v -208 -256 0
v -208 -240 0
v -192 -240 0
v -208 -256 0
v -224 -256 0
v -224 -240 0
v -208 -240 0
v -224 -256 0
v -240 -256 0
v -240 -240 0
v -224 -240 0

# Texture cooridinates (Count = 79)
vt 0.3833333 0.7
vt 0.4 0.7
vt 0.4 0.7166667
vt 0.3833333 0.7166667
vt 0.3666667 0.85
vt 0.3833333 0.85
vt 0.3833333 0.8666667
vt 0.3666667 0.8666667
vt 0.3833333 0.6833333
vt 0.4 0.6833333
vt 0.4 0.65
vt 0.4166667 0.65
vt 0.4166667 0.6666666
vt 0.4 0.6666666
vt 0.3666667 0.8333333
vt 0.3833333 0.8333333
vt 0.4 0.8333333
vt 0.4 0.85
vt 0.3666667 0.7
vt 0.3666667 0.7166667
vt 0.4 0.6333333
vt 0.4166667 0.6333333
vt 0.3666667 0.8166667
vt 0.3833333 0.8166667
vt 0.4 0.8166667
vt 0.3666667 0.6833333
vt 0.4 0.6166667
vt 0.4166667 0.6166667
vt 0.4166667 0.8833333
vt 0.4333333 0.8833333
vt 0.4333333 0.9
vt 0.4166667 0.9
vt 0.2833333 0.9666666
vt 0.3 0.9666666
vt 0.3 0.9833333
vt 0.2833333 0.9833333
vt 0.4166667 0.8666667
vt 0.4333333 0.8666667
vt 0.4166667 0.85
vt 0.4 0.8666667
vt 0.2833333 0.95
vt 0.3 0.95
vt 0.4333333 0.85
vt 0.2833333 0.9333333
vt 0.3 0.9333333
vt 0.3833333 0.8
vt 0.4 0.8
vt 0.4166667 0.8
vt 0.4166667 0.8166667
vt 0.2833333 0.9166667
vt 0.3 0.9166667
vt 0.4333333 0.6333333
vt 0.4333333 0.65
vt 0.3833333 0.7833333
vt 0.4 0.7833333
vt 0.4166667 0.7833333
vt 0.4833333 0.65
vt 0.5 0.65
vt 0.5 0.6666666
vt 0.4833333 0.6666666
vt 0.5166667 0.65
vt 0.5166667 0.6666666
vt 0.4333333 0.6166667
vt 0.4 0.7666667
vt 0.4166667 0.7666667
vt 0.4833333 0.6333333
vt 0.5 0.6333333
vt 0.5166667 0.6333333
vt 0.3833333 0.7666667
vt 0.4 0.75
vt 0.4166667 0.75
vt 0.4833333 0.6166667
vt 0.5 0.6166667
vt 0.5166667 0.6166667
vt 0.3833333 0.75
vt 0.3166667 0.9666666
vt 0.3166667 0.9833333
vt 0.3166667 0.95
vt 0.4 0.8833333

# Normal
vn 0 0 -1

# Mesh description
g icmc_mesh_0212

# Faces
f 1/1/1 2/2/1 3/3/1 4/4/1
f 5/1/1 6/2/1 7/3/1 8/4/1
f 9/1/1 10/2/1 11/3/1 12/4/1
f 13/1/1 14/2/1 15/3/1 16/4/1
f 17/1/1 18/2/1 19/3/1 20/4/1
f 21/1/1 22/2/1 23/3/1 24/4/1
f 25/1/1 26/2/1 27/3/1 28/4/1
f 29/1/1 30/2/1 31/3/1 32/4/1
f 33/1/1 34/2/1 35/3/1 36/4/1
f 37/5/1 38/6/1 39/7/1 40/8/1
f 41/5/1 42/6/1 43/7/1 44/8/1
f 45/9/1 46/10/1 47/2/1 48/1/1
f 49/9/1 50/10/1 51/2/1 52/1/1
f 53/9/1 54/10/1 55/2/1 56/1/1
f 57/9/1 58/10/1 59/2/1 60/1/1
f 61/9/1 62/10/1 63/2/1 64/1/1
f 65/9/1 66/10/1 67/2/1 68/1/1
f 69/9/1 70/10/1 71/2/1 72/1/1
f 73/9/1 74/10/1 75/2/1 76/1/1
f 77/9/1 78/10/1 79/2/1 80/1/1
f 81/5/1 82/6/1 83/7/1 84/8/1
f 85/5/1 86/6/1 87/7/1 88/8/1
f 89/11/1 90/12/1 91/13/1 92/14/1
f 93/15/1 94/16/1 95/6/1 96/5/1
f 97/16/1 98/17/1 99/18/1 100/6/1
f 101/19/1 102/1/1 103/4/1 104/20/1
f 105/1/1 106/2/1 107/3/1 108/4/1
f 109/1/1 110/2/1 111/3/1 112/4/1
f 113/1/1 114/2/1 115/3/1 116/4/1
f 117/21/1 118/22/1 119/12/1 120/11/1
f 121/23/1 122/24/1 123/16/1 124/15/1
f 125/24/1 126/25/1 127/17/1 128/16/1
f 129/26/1 130/9/1 131/1/1 132/19/1
f 133/9/1 134/10/1 135/2/1 136/1/1
f 137/9/1 138/10/1 139/2/1 140/1/1
f 141/9/1 142/10/1 143/2/1 144/1/1
f 145/27/1 146/28/1 147/22/1 148/21/1
f 149/19/1 150/1/1 151/4/1 152/20/1
f 153/1/1 154/2/1 155/3/1 156/4/1
f 157/1/1 158/2/1 159/3/1 160/4/1
f 161/1/1 162/2/1 163/3/1 164/4/1
f 165/1/1 166/2/1 167/3/1 168/4/1
f 169/5/1 170/6/1 171/7/1 172/8/1
f 173/29/1 174/30/1 175/31/1 176/32/1
f 177/33/1 178/34/1 179/35/1 180/36/1
f 181/33/1 182/34/1 183/35/1 184/36/1
f 185/33/1 186/34/1 187/35/1 188/36/1
f 189/33/1 190/34/1 191/35/1 192/36/1
f 193/33/1 194/34/1 195/35/1 196/36/1
f 197/37/1 198/38/1 199/30/1 200/29/1
f 201/26/1 202/9/1 203/1/1 204/19/1
f 205/9/1 206/10/1 207/2/1 208/1/1
f 209/9/1 210/10/1 211/2/1 212/1/1
f 213/9/1 214/10/1 215/2/1 216/1/1
f 217/9/1 218/10/1 219/2/1 220/1/1
f 221/5/1 222/6/1 223/7/1 224/8/1
f 225/18/1 226/39/1 227/37/1 228/40/1
f 229/41/1 230/42/1 231/34/1 232/33/1
f 233/41/1 234/42/1 235/34/1 236/33/1
f 237/41/1 238/42/1 239/34/1 240/33/1
f 241/41/1 242/42/1 243/34/1 244/33/1
f 245/41/1 246/42/1 247/34/1 248/33/1
f 249/39/1 250/43/1 251/38/1 252/37/1
f 253/5/1 254/6/1 255/7/1 256/8/1
f 257/5/1 258/6/1 259/7/1 260/8/1
f 261/18/1 262/39/1 263/37/1 264/40/1
f 265/44/1 266/45/1 267/42/1 268/41/1
f 269/44/1 270/45/1 271/42/1 272/41/1
f 273/44/1 274/45/1 275/42/1 276/41/1
f 277/44/1 278/45/1 279/42/1 280/41/1
f 281/44/1 282/45/1 283/42/1 284/41/1
f 285/39/1 286/43/1 287/38/1 288/37/1
f 289/5/1 290/6/1 291/7/1 292/8/1
f 293/46/1 294/47/1 295/25/1 296/24/1
f 297/47/1 298/48/1 299/49/1 300/25/1
f 301/50/1 302/51/1 303/45/1 304/44/1
f 305/50/1 306/51/1 307/45/1 308/44/1
f 309/50/1 310/51/1 311/45/1 312/44/1
f 313/50/1 314/51/1 315/45/1 316/44/1
f 317/50/1 318/51/1 319/45/1 320/44/1
f 321/39/1 322/43/1 323/38/1 324/37/1
f 325/22/1 326/52/1 327/53/1 328/12/1
f 329/1/1 330/2/1 331/3/1 332/4/1
f 333/1/1 334/2/1 335/3/1 336/4/1
f 337/1/1 338/2/1 339/3/1 340/4/1
f 341/1/1 342/2/1 343/3/1 344/4/1
f 345/54/1 346/55/1 347/47/1 348/46/1
f 349/55/1 350/56/1 351/48/1 352/47/1
f 353/33/1 354/34/1 355/35/1 356/36/1
f 357/57/1 358/58/1 359/59/1 360/60/1
f 361/58/1 362/61/1 363/62/1 364/59/1
f 365/33/1 366/34/1 367/35/1 368/36/1
f 369/54/1 370/55/1 371/47/1 372/46/1
f 373/28/1 374/63/1 375/52/1 376/22/1
f 377/9/1 378/10/1 379/2/1 380/1/1
f 381/9/1 382/10/1 383/2/1 384/1/1
f 385/9/1 386/10/1 387/2/1 388/1/1
f 389/9/1 390/10/1 391/2/1 392/1/1
f 393/27/1 394/28/1 395/22/1 396/21/1
f 397/64/1 398/65/1 399/56/1 400/55/1
f 401/41/1 402/42/1 403/34/1 404/33/1
f 405/66/1 406/67/1 407/58/1 408/57/1
f 409/67/1 410/68/1 411/61/1 412/58/1
f 413/41/1 414/42/1 415/34/1 416/33/1
f 417/69/1 418/64/1 419/55/1 420/54/1
f 421/70/1 422/71/1 423/65/1 424/64/1
f 425/44/1 426/45/1 427/42/1 428/41/1
f 429/72/1 430/73/1 431/67/1 432/66/1
f 433/73/1 434/74/1 435/68/1 436/67/1
f 437/44/1 438/45/1 439/42/1 440/41/1
f 441/75/1 442/70/1 443/64/1 444/69/1
f 445/33/1 446/34/1 447/35/1 448/36/1
f 449/33/1 450/34/1 451/35/1 452/36/1
f 453/33/1 454/34/1 455/35/1 456/36/1
f 457/34/1 458/76/1 459/77/1 460/35/1
f 461/33/1 462/34/1 463/35/1 464/36/1
f 465/33/1 466/34/1 467/35/1 468/36/1
f 469/33/1 470/34/1 471/35/1 472/36/1
f 473/33/1 474/34/1 475/35/1 476/36/1
f 477/33/1 478/34/1 479/35/1 480/36/1
f 481/33/1 482/34/1 483/35/1 484/36/1
f 485/33/1 486/34/1 487/35/1 488/36/1
f 489/33/1 490/34/1 491/35/1 492/36/1
f 493/33/1 494/34/1 495/35/1 496/36/1
f 497/33/1 498/34/1 499/35/1 500/36/1
f 501/34/1 502/76/1 503/77/1 504/35/1
f 505/41/1 506/42/1 507/34/1 508/33/1
f 509/41/1 510/42/1 511/34/1 512/33/1
f 513/41/1 514/42/1 515/34/1 516/33/1
f 517/42/1 518/78/1 519/76/1 520/34/1
f 521/41/1 522/42/1 523/34/1 524/33/1
f 525/41/1 526/42/1 527/34/1 528/33/1
f 529/41/1 530/42/1 531/34/1 532/33/1
f 533/41/1 534/42/1 535/34/1 536/33/1
f 537/41/1 538/42/1 539/34/1 540/33/1
f 541/41/1 542/42/1 543/34/1 544/33/1
f 545/41/1 546/42/1 547/34/1 548/33/1
f 549/41/1 550/42/1 551/34/1 552/33/1
f 553/41/1 554/42/1 555/34/1 556/33/1
f 557/41/1 558/42/1 559/34/1 560/33/1
f 561/42/1 562/78/1 563/76/1 564/34/1
f 565/44/1 566/45/1 567/42/1 568/41/1
f 569/44/1 570/45/1 571/42/1 572/41/1
f 573/44/1 574/45/1 575/42/1 576/41/1
f 577/18/1 578/39/1 579/37/1 580/40/1
f 581/44/1 582/45/1 583/42/1 584/41/1
f 585/44/1 586/45/1 587/42/1 588/41/1
f 589/44/1 590/45/1 591/42/1 592/41/1
f 593/44/1 594/45/1 595/42/1 596/41/1
f 597/44/1 598/45/1 599/42/1 600/41/1
f 601/44/1 602/45/1 603/42/1 604/41/1
f 605/44/1 606/45/1 607/42/1 608/41/1
f 609/44/1 610/45/1 611/42/1 612/41/1
f 613/44/1 614/45/1 615/42/1 616/41/1
f 617/44/1 618/45/1 619/42/1 620/41/1
f 621/18/1 622/39/1 623/37/1 624/40/1
f 625/50/1 626/51/1 627/45/1 628/44/1
f 629/50/1 630/51/1 631/45/1 632/44/1
f 633/50/1 634/51/1 635/45/1 636/44/1
f 637/18/1 638/39/1 639/37/1 640/40/1
f 641/50/1 642/51/1 643/45/1 644/44/1
f 645/50/1 646/51/1 647/45/1 648/44/1
f 649/50/1 650/51/1 651/45/1 652/44/1
f 653/50/1 654/51/1 655/45/1 656/44/1
f 657/50/1 658/51/1 659/45/1 660/44/1
f 661/50/1 662/51/1 663/45/1 664/44/1
f 665/50/1 666/51/1 667/45/1 668/44/1
f 669/50/1 670/51/1 671/45/1 672/44/1
f 673/50/1 674/51/1 675/45/1 676/44/1
f 677/50/1 678/51/1 679/45/1 680/44/1
f 681/40/1 682/37/1 683/29/1 684/79/1

