# Tiled2Unity generated file. Do not modify by hand.
# Wavefront file for 'icmc_mesh_0272.obj'

# Vertices (Count = 8)
v -16 -80 0
v -32 -80 0
v -32 -64 0
v -16 -64 0
v -32 -80 0
v -48 -80 0
v -48 -64 0
v -32 -64 0

# Texture cooridinates (Count = 8)
vt 0.825 0.6714286
vt 0.8333333 0.6714286
vt 0.8333333 0.6761905
vt 0.825 0.6761905
vt 0.8416666 0.6714286
vt 0.85 0.6714286
vt 0.85 0.6761905
vt 0.8416666 0.6761905

# Normal
vn 0 0 -1

# Mesh description
g icmc_mesh_0272

# Faces
f 1/1/1 2/2/1 3/3/1 4/4/1
f 5/5/1 6/6/1 7/7/1 8/8/1

