# Tiled2Unity generated file. Do not modify by hand.
# Wavefront file for 'icmc_mesh_0370.obj'

# Vertices (Count = 20)
v -48 -208 0
v -64 -208 0
v -64 -192 0
v -48 -192 0
v -32 -224 0
v -48 -224 0
v -48 -208 0
v -32 -208 0
v -48 -224 0
v -64 -224 0
v -64 -208 0
v -48 -208 0
v -64 -224 0
v -80 -224 0
v -80 -208 0
v -64 -208 0
v -48 -240 0
v -64 -240 0
v -64 -224 0
v -48 -224 0

# Texture cooridinates (Count = 6)
vt 0.75 0.3076923
vt 0.875 0.3076923
vt 0.875 0.3111888
vt 0.75 0.3111888
vt 0.875 0.3146853
vt 0.75 0.3146853

# Normal
vn 0 0 -1

# Mesh description
g icmc_mesh_0370

# Faces
f 1/1/1 2/2/1 3/3/1 4/4/1
f 5/1/1 6/2/1 7/3/1 8/4/1
f 9/4/1 10/3/1 11/5/1 12/6/1
f 13/1/1 14/2/1 15/3/1 16/4/1
f 17/1/1 18/2/1 19/3/1 20/4/1

