# Tiled2Unity generated file. Do not modify by hand.
# Wavefront file for 'icmc_mesh_0109.obj'

# Vertices (Count = 28)
v -208 -64 0
v -224 -64 0
v -224 -48 0
v -208 -48 0
v -208 -80 0
v -224 -80 0
v -224 -64 0
v -208 -64 0
v -224 -160 0
v -240 -160 0
v -240 -144 0
v -224 -144 0
v -224 -176 0
v -240 -176 0
v -240 -160 0
v -224 -160 0
v -224 -208 0
v -240 -208 0
v -240 -192 0
v -224 -192 0
v -224 -224 0
v -240 -224 0
v -240 -208 0
v -224 -208 0
v -224 -256 0
v -240 -256 0
v -240 -240 0
v -224 -240 0

# Texture cooridinates (Count = 10)
vt 0.8583333 0.6571429
vt 0.8666667 0.6571429
vt 0.8666667 0.6619048
vt 0.8583333 0.6619048
vt 0.8583333 0.6523809
vt 0.8666667 0.6523809
vt 0.8583333 0.6666666
vt 0.8666667 0.6666666
vt 0.8666667 0.6714286
vt 0.8583333 0.6714286

# Normal
vn 0 0 -1

# Mesh description
g icmc_mesh_0109

# Faces
f 1/1/1 2/2/1 3/3/1 4/4/1
f 5/5/1 6/6/1 7/2/1 8/1/1
f 9/1/1 10/2/1 11/3/1 12/4/1
f 13/5/1 14/6/1 15/2/1 16/1/1
f 17/7/1 18/8/1 19/9/1 20/10/1
f 21/4/1 22/3/1 23/8/1 24/7/1
f 25/7/1 26/8/1 27/9/1 28/10/1

