# Tiled2Unity generated file. Do not modify by hand.
# Wavefront file for 'icmc_mesh_0098.obj'

# Vertices (Count = 16)
v 0 -160 0
v -16 -160 0
v -16 -144 0
v 0 -144 0
v -16 -160 0
v -32 -160 0
v -32 -144 0
v -16 -144 0
v -32 -160 0
v -48 -160 0
v -48 -144 0
v -32 -144 0
v -48 -160 0
v -64 -160 0
v -64 -144 0
v -48 -144 0

# Texture cooridinates (Count = 4)
vt 0.4 0.8166667
vt 0.4166667 0.8166667
vt 0.4166667 0.8333333
vt 0.4 0.8333333

# Normal
vn 0 0 -1

# Mesh description
g icmc_mesh_0098

# Faces
f 1/1/1 2/2/1 3/3/1 4/4/1
f 5/1/1 6/2/1 7/3/1 8/4/1
f 9/1/1 10/2/1 11/3/1 12/4/1
f 13/1/1 14/2/1 15/3/1 16/4/1

