# Tiled2Unity generated file. Do not modify by hand.
# Wavefront file for 'icmc_mesh_0117.obj'

# Vertices (Count = 52)
v -128 -224 0
v -144 -224 0
v -144 -208 0
v -128 -208 0
v -144 -224 0
v -160 -224 0
v -160 -208 0
v -144 -208 0
v -160 -224 0
v -176 -224 0
v -176 -208 0
v -160 -208 0
v -176 -224 0
v -192 -224 0
v -192 -208 0
v -176 -208 0
v -128 -240 0
v -144 -240 0
v -144 -224 0
v -128 -224 0
v -144 -240 0
v -160 -240 0
v -160 -224 0
v -144 -224 0
v -160 -240 0
v -176 -240 0
v -176 -224 0
v -160 -224 0
v -176 -240 0
v -192 -240 0
v -192 -224 0
v -176 -224 0
v -112 -256 0
v -128 -256 0
v -128 -240 0
v -112 -240 0
v -128 -256 0
v -144 -256 0
v -144 -240 0
v -128 -240 0
v -144 -256 0
v -160 -256 0
v -160 -240 0
v -144 -240 0
v -160 -256 0
v -176 -256 0
v -176 -240 0
v -160 -240 0
v -176 -256 0
v -192 -256 0
v -192 -240 0
v -176 -240 0

# Texture cooridinates (Count = 25)
vt 0.975 0.6285714
vt 0.9833333 0.6285714
vt 0.9833333 0.6333333
vt 0.975 0.6333333
vt 0.9333333 0.5571429
vt 0.9416667 0.5571429
vt 0.9416667 0.5619048
vt 0.9333333 0.5619048
vt 0.95 0.5571429
vt 0.95 0.5619048
vt 0.9583333 0.5571429
vt 0.9583333 0.5619048
vt 0.975 0.6238095
vt 0.9833333 0.6238095
vt 0.9333333 0.5523809
vt 0.9416667 0.5523809
vt 0.95 0.5523809
vt 0.9583333 0.5523809
vt 0.9333333 0.5428572
vt 0.9416667 0.5428572
vt 0.9416667 0.547619
vt 0.9333333 0.547619
vt 0.95 0.5428572
vt 0.95 0.547619
vt 0.9583333 0.547619

# Normal
vn 0 0 -1

# Mesh description
g icmc_mesh_0117

# Faces
f 1/1/1 2/2/1 3/3/1 4/4/1
f 5/5/1 6/6/1 7/7/1 8/8/1
f 9/6/1 10/9/1 11/10/1 12/7/1
f 13/9/1 14/11/1 15/12/1 16/10/1
f 17/13/1 18/14/1 19/2/1 20/1/1
f 21/15/1 22/16/1 23/6/1 24/5/1
f 25/16/1 26/17/1 27/9/1 28/6/1
f 29/17/1 30/18/1 31/11/1 32/9/1
f 33/19/1 34/20/1 35/21/1 36/22/1
f 37/20/1 38/23/1 39/24/1 40/21/1
f 41/22/1 42/21/1 43/16/1 44/15/1
f 45/21/1 46/24/1 47/17/1 48/16/1
f 49/24/1 50/25/1 51/18/1 52/17/1

