# Tiled2Unity generated file. Do not modify by hand.
# Wavefront file for 'icmc_mesh_0012.obj'

# Vertices (Count = 52)
v -93 -28 0
v -94 -28 0
v -94 -27 0
v -93 -27 0
v -92 -28 0
v -93 -28 0
v -93 -27 0
v -92 -27 0
v -91 -28 0
v -92 -28 0
v -92 -27 0
v -91 -27 0
v -90 -28 0
v -91 -28 0
v -91 -27 0
v -90 -27 0
v -89 -28 0
v -90 -28 0
v -90 -27 0
v -89 -27 0
v -93 -27 0
v -94 -27 0
v -94 -26 0
v -93 -26 0
v -93 -26 0
v -94 -26 0
v -94 -25 0
v -93 -25 0
v -93 -25 0
v -94 -25 0
v -94 -24 0
v -93 -24 0
v -93 -24 0
v -94 -24 0
v -94 -23 0
v -93 -23 0
v -93 -23 0
v -94 -23 0
v -94 -22 0
v -93 -22 0
v -93 -22 0
v -94 -22 0
v -94 -21 0
v -93 -21 0
v -93 -21 0
v -94 -21 0
v -94 -20 0
v -93 -20 0
v -93 -18 0
v -94 -18 0
v -94 -17 0
v -93 -17 0

# Texture cooridinates (Count = 12)
vt 0.9833333 0.6166667
vt 1 0.6166667
vt 1 0.6333333
vt 0.9833333 0.6333333
vt 0.9833333 0.6
vt 1 0.6
vt 0.9166667 0.6333333
vt 0.9333333 0.6333333
vt 0.9333333 0.65
vt 0.9166667 0.65
vt 0.9166667 0.6166667
vt 0.9333333 0.6166667

# Normal
vn 0 0 -1

# Mesh description
g icmc_mesh_0012

# Faces
f 1/1/1 2/2/1 3/3/1 4/4/1
f 5/5/1 6/6/1 7/2/1 8/1/1
f 9/5/1 10/6/1 11/2/1 12/1/1
f 13/5/1 14/6/1 15/2/1 16/1/1
f 17/5/1 18/6/1 19/2/1 20/1/1
f 21/7/1 22/8/1 23/9/1 24/10/1
f 25/7/1 26/8/1 27/9/1 28/10/1
f 29/7/1 30/8/1 31/9/1 32/10/1
f 33/7/1 34/8/1 35/9/1 36/10/1
f 37/7/1 38/8/1 39/9/1 40/10/1
f 41/7/1 42/8/1 43/9/1 44/10/1
f 45/7/1 46/8/1 47/9/1 48/10/1
f 49/11/1 50/12/1 51/8/1 52/7/1

