# Tiled2Unity generated file. Do not modify by hand.
# Wavefront file for 'icmc_mesh_0253.obj'

# Vertices (Count = 60)
v -176 -128 0
v -192 -128 0
v -192 -112 0
v -176 -112 0
v -176 -144 0
v -192 -144 0
v -192 -128 0
v -176 -128 0
v -176 -160 0
v -192 -160 0
v -192 -144 0
v -176 -144 0
v -176 -176 0
v -192 -176 0
v -192 -160 0
v -176 -160 0
v -160 -208 0
v -176 -208 0
v -176 -192 0
v -160 -192 0
v -176 -208 0
v -192 -208 0
v -192 -192 0
v -176 -192 0
v -208 -208 0
v -224 -208 0
v -224 -192 0
v -208 -192 0
v -224 -208 0
v -240 -208 0
v -240 -192 0
v -224 -192 0
v -160 -224 0
v -176 -224 0
v -176 -208 0
v -160 -208 0
v -176 -224 0
v -192 -224 0
v -192 -208 0
v -176 -208 0
v -208 -224 0
v -224 -224 0
v -224 -208 0
v -208 -208 0
v -224 -224 0
v -240 -224 0
v -240 -208 0
v -224 -208 0
v -160 -240 0
v -176 -240 0
v -176 -224 0
v -160 -224 0
v -192 -240 0
v -208 -240 0
v -208 -224 0
v -192 -224 0
v -224 -240 0
v -240 -240 0
v -240 -224 0
v -224 -224 0

# Texture cooridinates (Count = 26)
vt 0.7166666 0.9333333
vt 0.7333333 0.9333333
vt 0.7333333 0.95
vt 0.7166666 0.95
vt 0.7166666 0.9166667
vt 0.7333333 0.9166667
vt 0.6833333 0.85
vt 0.7 0.85
vt 0.7 0.8666667
vt 0.6833333 0.8666667
vt 0.6666667 0.95
vt 0.6833333 0.95
vt 0.6833333 0.9666666
vt 0.6666667 0.9666666
vt 0.7 0.95
vt 0.7 0.9666666
vt 0.9333333 0.7833333
vt 0.95 0.7833333
vt 0.95 0.8
vt 0.9333333 0.8
vt 0.9666666 0.7833333
vt 0.9666666 0.8
vt 0.7166666 0.75
vt 0.7333333 0.75
vt 0.7333333 0.7666667
vt 0.7166666 0.7666667

# Normal
vn 0 0 -1

# Mesh description
g icmc_mesh_0253

# Faces
f 1/1/1 2/2/1 3/3/1 4/4/1
f 5/5/1 6/6/1 7/2/1 8/1/1
f 9/5/1 10/6/1 11/2/1 12/1/1
f 13/7/1 14/8/1 15/9/1 16/10/1
f 17/11/1 18/12/1 19/13/1 20/14/1
f 21/12/1 22/15/1 23/16/1 24/13/1
f 25/11/1 26/12/1 27/13/1 28/14/1
f 29/12/1 30/15/1 31/16/1 32/13/1
f 33/17/1 34/18/1 35/19/1 36/20/1
f 37/18/1 38/21/1 39/22/1 40/19/1
f 41/17/1 42/18/1 43/19/1 44/20/1
f 45/18/1 46/21/1 47/22/1 48/19/1
f 49/23/1 50/24/1 51/25/1 52/26/1
f 53/23/1 54/24/1 55/25/1 56/26/1
f 57/23/1 58/24/1 59/25/1 60/26/1

