# Tiled2Unity generated file. Do not modify by hand.
# Wavefront file for 'icmc_mesh_0161.obj'

# Vertices (Count = 68)
v 0 -16 0
v -16 -16 0
v -16 0 0
v 0 0 0
v -80 -16 0
v -96 -16 0
v -96 0 0
v -80 0 0
v -112 -16 0
v -128 -16 0
v -128 0 0
v -112 0 0
v -128 -16 0
v -144 -16 0
v -144 0 0
v -128 0 0
v -48 -32 0
v -64 -32 0
v -64 -16 0
v -48 -16 0
v -112 -32 0
v -128 -32 0
v -128 -16 0
v -112 -16 0
v -128 -32 0
v -144 -32 0
v -144 -16 0
v -128 -16 0
v -32 -48 0
v -48 -48 0
v -48 -32 0
v -32 -32 0
v -112 -48 0
v -128 -48 0
v -128 -32 0
v -112 -32 0
v -128 -48 0
v -144 -48 0
v -144 -32 0
v -128 -32 0
v 0 -64 0
v -16 -64 0
v -16 -48 0
v 0 -48 0
v -16 -64 0
v -32 -64 0
v -32 -48 0
v -16 -48 0
v -64 -64 0
v -80 -64 0
v -80 -48 0
v -64 -48 0
v -128 -64 0
v -144 -64 0
v -144 -48 0
v -128 -48 0
v -16 -80 0
v -32 -80 0
v -32 -64 0
v -16 -64 0
v -80 -128 0
v -96 -128 0
v -96 -112 0
v -80 -112 0
v -32 -160 0
v -48 -160 0
v -48 -144 0
v -32 -144 0

# Texture cooridinates (Count = 35)
vt 0.8791209 0.9609375
vt 0.8830281 0.9609375
vt 0.8830281 0.96875
vt 0.8791209 0.96875
vt 0.8869353 0.9453125
vt 0.8908425 0.9453125
vt 0.8908425 0.953125
vt 0.8869353 0.953125
vt 0.9221001 0.7734375
vt 0.9260073 0.7734375
vt 0.9260073 0.78125
vt 0.9221001 0.78125
vt 0.9299145 0.7734375
vt 0.9338217 0.7734375
vt 0.9338217 0.78125
vt 0.9299145 0.78125
vt 0.01953602 0.9765625
vt 0.02344322 0.9765625
vt 0.02344322 0.984375
vt 0.01953602 0.984375
vt 0.8752137 0.953125
vt 0.8791209 0.953125
vt 0.8752137 0.9609375
vt 0.8908425 0.9609375
vt 0.8947497 0.9609375
vt 0.8947497 0.96875
vt 0.8908425 0.96875
vt 0 0.875
vt 0.003907204 0.875
vt 0.003907204 0.8828125
vt 0 0.8828125
vt 0.8830281 0.953125
vt 0.8869353 0.9609375
vt 0 0.8671875
vt 0.003907204 0.8671875

# Normal
vn 0 0 -1

# Mesh description
g icmc_mesh_0161

# Faces
f 1/1/1 2/2/1 3/3/1 4/4/1
f 5/5/1 6/6/1 7/7/1 8/8/1
f 9/9/1 10/10/1 11/11/1 12/12/1
f 13/13/1 14/14/1 15/15/1 16/16/1
f 17/17/1 18/18/1 19/19/1 20/20/1
f 21/9/1 22/10/1 23/11/1 24/12/1
f 25/13/1 26/14/1 27/15/1 28/16/1
f 29/21/1 30/22/1 31/1/1 32/23/1
f 33/9/1 34/10/1 35/11/1 36/12/1
f 37/13/1 38/14/1 39/15/1 40/16/1
f 41/24/1 42/25/1 43/26/1 44/27/1
f 45/28/1 46/29/1 47/30/1 48/31/1
f 49/32/1 50/8/1 51/33/1 52/2/1
f 53/13/1 54/14/1 55/15/1 56/16/1
f 57/34/1 58/35/1 59/29/1 60/28/1
f 61/1/1 62/2/1 63/3/1 64/4/1
f 65/1/1 66/2/1 67/3/1 68/4/1

