# Tiled2Unity generated file. Do not modify by hand.
# Wavefront file for 'icmc_mesh_0107.obj'

# Vertices (Count = 8)
v -16 -128 0
v -32 -128 0
v -32 -112 0
v -16 -112 0
v -16 -144 0
v -32 -144 0
v -32 -128 0
v -16 -128 0

# Texture cooridinates (Count = 6)
vt 0.8583333 0.6666666
vt 0.8666667 0.6666666
vt 0.8666667 0.6714286
vt 0.8583333 0.6714286
vt 0.8583333 0.6619048
vt 0.8666667 0.6619048

# Normal
vn 0 0 -1

# Mesh description
g icmc_mesh_0107

# Faces
f 1/1/1 2/2/1 3/3/1 4/4/1
f 5/5/1 6/6/1 7/2/1 8/1/1

