# Tiled2Unity generated file. Do not modify by hand.
# Wavefront file for 'icmc_mesh_0204.obj'

# Vertices (Count = 288)
v -48 -16 0
v -64 -16 0
v -64 0 0
v -48 0 0
v -64 -16 0
v -80 -16 0
v -80 0 0
v -64 0 0
v -80 -16 0
v -96 -16 0
v -96 0 0
v -80 0 0
v -96 -16 0
v -112 -16 0
v -112 0 0
v -96 0 0
v -112 -16 0
v -128 -16 0
v -128 0 0
v -112 0 0
v -128 -16 0
v -144 -16 0
v -144 0 0
v -128 0 0
v -144 -16 0
v -160 -16 0
v -160 0 0
v -144 0 0
v -160 -16 0
v -176 -16 0
v -176 0 0
v -160 0 0
v -176 -16 0
v -192 -16 0
v -192 0 0
v -176 0 0
v -192 -16 0
v -208 -16 0
v -208 0 0
v -192 0 0
v -208 -16 0
v -224 -16 0
v -224 0 0
v -208 0 0
v -224 -16 0
v -240 -16 0
v -240 0 0
v -224 0 0
v -240 -16 0
v -256 -16 0
v -256 0 0
v -240 0 0
v -48 -32 0
v -64 -32 0
v -64 -16 0
v -48 -16 0
v -64 -32 0
v -80 -32 0
v -80 -16 0
v -64 -16 0
v -80 -32 0
v -96 -32 0
v -96 -16 0
v -80 -16 0
v -96 -32 0
v -112 -32 0
v -112 -16 0
v -96 -16 0
v -112 -32 0
v -128 -32 0
v -128 -16 0
v -112 -16 0
v -128 -32 0
v -144 -32 0
v -144 -16 0
v -128 -16 0
v -144 -32 0
v -160 -32 0
v -160 -16 0
v -144 -16 0
v -160 -32 0
v -176 -32 0
v -176 -16 0
v -160 -16 0
v -176 -32 0
v -192 -32 0
v -192 -16 0
v -176 -16 0
v -192 -32 0
v -208 -32 0
v -208 -16 0
v -192 -16 0
v -208 -32 0
v -224 -32 0
v -224 -16 0
v -208 -16 0
v -224 -32 0
v -240 -32 0
v -240 -16 0
v -224 -16 0
v -240 -32 0
v -256 -32 0
v -256 -16 0
v -240 -16 0
v -48 -48 0
v -64 -48 0
v -64 -32 0
v -48 -32 0
v -64 -48 0
v -80 -48 0
v -80 -32 0
v -64 -32 0
v -80 -48 0
v -96 -48 0
v -96 -32 0
v -80 -32 0
v -96 -48 0
v -112 -48 0
v -112 -32 0
v -96 -32 0
v -112 -48 0
v -128 -48 0
v -128 -32 0
v -112 -32 0
v -128 -48 0
v -144 -48 0
v -144 -32 0
v -128 -32 0
v -144 -48 0
v -160 -48 0
v -160 -32 0
v -144 -32 0
v -160 -48 0
v -176 -48 0
v -176 -32 0
v -160 -32 0
v -192 -48 0
v -208 -48 0
v -208 -32 0
v -192 -32 0
v -208 -48 0
v -224 -48 0
v -224 -32 0
v -208 -32 0
v -224 -48 0
v -240 -48 0
v -240 -32 0
v -224 -32 0
v -240 -48 0
v -256 -48 0
v -256 -32 0
v -240 -32 0
v -48 -64 0
v -64 -64 0
v -64 -48 0
v -48 -48 0
v -160 -64 0
v -176 -64 0
v -176 -48 0
v -160 -48 0
v -48 -80 0
v -64 -80 0
v -64 -64 0
v -48 -64 0
v -160 -80 0
v -176 -80 0
v -176 -64 0
v -160 -64 0
v -48 -96 0
v -64 -96 0
v -64 -80 0
v -48 -80 0
v -160 -96 0
v -176 -96 0
v -176 -80 0
v -160 -80 0
v -48 -112 0
v -64 -112 0
v -64 -96 0
v -48 -96 0
v -160 -112 0
v -176 -112 0
v -176 -96 0
v -160 -96 0
v -48 -128 0
v -64 -128 0
v -64 -112 0
v -48 -112 0
v -64 -128 0
v -80 -128 0
v -80 -112 0
v -64 -112 0
v -80 -128 0
v -96 -128 0
v -96 -112 0
v -80 -112 0
v -96 -128 0
v -112 -128 0
v -112 -112 0
v -96 -112 0
v -112 -128 0
v -128 -128 0
v -128 -112 0
v -112 -112 0
v -128 -128 0
v -144 -128 0
v -144 -112 0
v -128 -112 0
v -144 -128 0
v -160 -128 0
v -160 -112 0
v -144 -112 0
v -160 -128 0
v -176 -128 0
v -176 -112 0
v -160 -112 0
v -176 -128 0
v -192 -128 0
v -192 -112 0
v -176 -112 0
v -192 -128 0
v -208 -128 0
v -208 -112 0
v -192 -112 0
v -208 -128 0
v -224 -128 0
v -224 -112 0
v -208 -112 0
v -224 -128 0
v -240 -128 0
v -240 -112 0
v -224 -112 0
v -240 -128 0
v -256 -128 0
v -256 -112 0
v -240 -112 0
v -48 -144 0
v -64 -144 0
v -64 -128 0
v -48 -128 0
v -64 -144 0
v -80 -144 0
v -80 -128 0
v -64 -128 0
v -80 -144 0
v -96 -144 0
v -96 -128 0
v -80 -128 0
v -96 -144 0
v -112 -144 0
v -112 -128 0
v -96 -128 0
v -112 -144 0
v -128 -144 0
v -128 -128 0
v -112 -128 0
v -128 -144 0
v -144 -144 0
v -144 -128 0
v -128 -128 0
v -144 -144 0
v -160 -144 0
v -160 -128 0
v -144 -128 0
v -160 -144 0
v -176 -144 0
v -176 -128 0
v -160 -128 0
v -176 -144 0
v -192 -144 0
v -192 -128 0
v -176 -128 0
v -192 -144 0
v -208 -144 0
v -208 -128 0
v -192 -128 0
v -208 -144 0
v -224 -144 0
v -224 -128 0
v -208 -128 0
v -224 -144 0
v -240 -144 0
v -240 -128 0
v -224 -128 0
v -240 -144 0
v -256 -144 0
v -256 -128 0
v -240 -128 0

# Texture cooridinates (Count = 32)
vt 0.2666667 0.9666666
vt 0.2833333 0.9666666
vt 0.2833333 0.9833333
vt 0.2666667 0.9833333
vt 0.3 0.9666666
vt 0.3 0.9833333
vt 0.3166667 0.9666666
vt 0.3166667 0.9833333
vt 0.2666667 0.95
vt 0.2833333 0.95
vt 0.3 0.95
vt 0.3166667 0.95
vt 0.3666667 0.8666667
vt 0.3833333 0.8666667
vt 0.3833333 0.8833333
vt 0.3666667 0.8833333
vt 0.2833333 0.9333333
vt 0.3 0.9333333
vt 0.4 0.85
vt 0.4166667 0.85
vt 0.4166667 0.8666667
vt 0.4 0.8666667
vt 0.3666667 0.85
vt 0.3833333 0.85
vt 0.3666667 0.8333333
vt 0.3833333 0.8333333
vt 0.4 0.8333333
vt 0.4166667 0.8333333
vt 0.3666667 0.8166667
vt 0.3833333 0.8166667
vt 0.4 0.8166667
vt 0.4166667 0.8166667

# Normal
vn 0 0 -1

# Mesh description
g icmc_mesh_0204

# Faces
f 1/1/1 2/2/1 3/3/1 4/4/1
f 5/2/1 6/5/1 7/6/1 8/3/1
f 9/2/1 10/5/1 11/6/1 12/3/1
f 13/2/1 14/5/1 15/6/1 16/3/1
f 17/2/1 18/5/1 19/6/1 20/3/1
f 21/2/1 22/5/1 23/6/1 24/3/1
f 25/2/1 26/5/1 27/6/1 28/3/1
f 29/5/1 30/7/1 31/8/1 32/6/1
f 33/2/1 34/5/1 35/6/1 36/3/1
f 37/2/1 38/5/1 39/6/1 40/3/1
f 41/2/1 42/5/1 43/6/1 44/3/1
f 45/2/1 46/5/1 47/6/1 48/3/1
f 49/2/1 50/5/1 51/6/1 52/3/1
f 53/9/1 54/10/1 55/2/1 56/1/1
f 57/10/1 58/11/1 59/5/1 60/2/1
f 61/10/1 62/11/1 63/5/1 64/2/1
f 65/10/1 66/11/1 67/5/1 68/2/1
f 69/10/1 70/11/1 71/5/1 72/2/1
f 73/10/1 74/11/1 75/5/1 76/2/1
f 77/10/1 78/11/1 79/5/1 80/2/1
f 81/11/1 82/12/1 83/7/1 84/5/1
f 85/10/1 86/11/1 87/5/1 88/2/1
f 89/10/1 90/11/1 91/5/1 92/2/1
f 93/10/1 94/11/1 95/5/1 96/2/1
f 97/10/1 98/11/1 99/5/1 100/2/1
f 101/10/1 102/11/1 103/5/1 104/2/1
f 105/13/1 106/14/1 107/15/1 108/16/1
f 109/17/1 110/18/1 111/11/1 112/10/1
f 113/17/1 114/18/1 115/11/1 116/10/1
f 117/17/1 118/18/1 119/11/1 120/10/1
f 121/17/1 122/18/1 123/11/1 124/10/1
f 125/17/1 126/18/1 127/11/1 128/10/1
f 129/17/1 130/18/1 131/11/1 132/10/1
f 133/19/1 134/20/1 135/21/1 136/22/1
f 137/17/1 138/18/1 139/11/1 140/10/1
f 141/17/1 142/18/1 143/11/1 144/10/1
f 145/17/1 146/18/1 147/11/1 148/10/1
f 149/17/1 150/18/1 151/11/1 152/10/1
f 153/13/1 154/14/1 155/15/1 156/16/1
f 157/19/1 158/20/1 159/21/1 160/22/1
f 161/13/1 162/14/1 163/15/1 164/16/1
f 165/19/1 166/20/1 167/21/1 168/22/1
f 169/13/1 170/14/1 171/15/1 172/16/1
f 173/19/1 174/20/1 175/21/1 176/22/1
f 177/23/1 178/24/1 179/14/1 180/13/1
f 181/19/1 182/20/1 183/21/1 184/22/1
f 185/25/1 186/26/1 187/24/1 188/23/1
f 189/26/1 190/27/1 191/19/1 192/24/1
f 193/26/1 194/27/1 195/19/1 196/24/1
f 197/26/1 198/27/1 199/19/1 200/24/1
f 201/26/1 202/27/1 203/19/1 204/24/1
f 205/26/1 206/27/1 207/19/1 208/24/1
f 209/26/1 210/27/1 211/19/1 212/24/1
f 213/27/1 214/28/1 215/20/1 216/19/1
f 217/26/1 218/27/1 219/19/1 220/24/1
f 221/26/1 222/27/1 223/19/1 224/24/1
f 225/26/1 226/27/1 227/19/1 228/24/1
f 229/26/1 230/27/1 231/19/1 232/24/1
f 233/26/1 234/27/1 235/19/1 236/24/1
f 237/29/1 238/30/1 239/26/1 240/25/1
f 241/30/1 242/31/1 243/27/1 244/26/1
f 245/30/1 246/31/1 247/27/1 248/26/1
f 249/30/1 250/31/1 251/27/1 252/26/1
f 253/30/1 254/31/1 255/27/1 256/26/1
f 257/30/1 258/31/1 259/27/1 260/26/1
f 261/30/1 262/31/1 263/27/1 264/26/1
f 265/31/1 266/32/1 267/28/1 268/27/1
f 269/30/1 270/31/1 271/27/1 272/26/1
f 273/30/1 274/31/1 275/27/1 276/26/1
f 277/30/1 278/31/1 279/27/1 280/26/1
f 281/30/1 282/31/1 283/27/1 284/26/1
f 285/30/1 286/31/1 287/27/1 288/26/1

