# Tiled2Unity generated file. Do not modify by hand.
# Wavefront file for 'icmc_mesh_0124.obj'

# Vertices (Count = 88)
v -112 -16 0
v -128 -16 0
v -128 0 0
v -112 0 0
v -112 -160 0
v -128 -160 0
v -128 -144 0
v -112 -144 0
v -128 -160 0
v -144 -160 0
v -144 -144 0
v -128 -144 0
v -144 -160 0
v -160 -160 0
v -160 -144 0
v -144 -144 0
v -112 -176 0
v -128 -176 0
v -128 -160 0
v -112 -160 0
v -128 -176 0
v -144 -176 0
v -144 -160 0
v -128 -160 0
v -144 -176 0
v -160 -176 0
v -160 -160 0
v -144 -160 0
v -112 -192 0
v -128 -192 0
v -128 -176 0
v -112 -176 0
v -128 -192 0
v -144 -192 0
v -144 -176 0
v -128 -176 0
v -144 -192 0
v -160 -192 0
v -160 -176 0
v -144 -176 0
v -224 -192 0
v -240 -192 0
v -240 -176 0
v -224 -176 0
v -240 -192 0
v -256 -192 0
v -256 -176 0
v -240 -176 0
v -112 -208 0
v -128 -208 0
v -128 -192 0
v -112 -192 0
v -128 -208 0
v -144 -208 0
v -144 -192 0
v -128 -192 0
v -144 -208 0
v -160 -208 0
v -160 -192 0
v -144 -192 0
v -208 -208 0
v -224 -208 0
v -224 -192 0
v -208 -192 0
v -224 -208 0
v -240 -208 0
v -240 -192 0
v -224 -192 0
v -240 -208 0
v -256 -208 0
v -256 -192 0
v -240 -192 0
v -224 -224 0
v -240 -224 0
v -240 -208 0
v -224 -208 0
v -240 -224 0
v -256 -224 0
v -256 -208 0
v -240 -208 0
v -112 -240 0
v -128 -240 0
v -128 -224 0
v -112 -224 0
v -176 -256 0
v -192 -256 0
v -192 -240 0
v -176 -240 0

# Texture cooridinates (Count = 42)
vt 0.2930403 0.8203125
vt 0.2969475 0.8203125
vt 0.2969475 0.828125
vt 0.2930403 0.828125
vt 0.02344322 0.9921875
vt 0.02735043 0.9921875
vt 0.02735043 1
vt 0.02344322 1
vt 0.03125763 0.9921875
vt 0.03125763 1
vt 0.03516484 0.9921875
vt 0.03516484 1
vt 0.02344322 0.984375
vt 0.02735043 0.984375
vt 0.03125763 0.984375
vt 0.03516484 0.984375
vt 0.02344322 0.9765625
vt 0.02735043 0.9765625
vt 0.03125763 0.9765625
vt 0.03516484 0.9765625
vt 0 0.9921875
vt 0.003907204 0.9921875
vt 0.003907204 1
vt 0 1
vt 0.007814408 0.9921875
vt 0.007814408 1
vt 0.02344322 0.96875
vt 0.02735043 0.96875
vt 0.613431 0.96875
vt 0.6173382 0.96875
vt 0.6173382 0.9765625
vt 0.613431 0.9765625
vt 0.8752137 0.9609375
vt 0.8791209 0.9609375
vt 0.8791209 0.96875
vt 0.8752137 0.96875
vt 0 0.984375
vt 0.003907204 0.984375
vt 0.007814408 0.984375
vt 0 0.9765625
vt 0.003907204 0.9765625
vt 0.007814408 0.9765625

# Normal
vn 0 0 -1

# Mesh description
g icmc_mesh_0124

# Faces
f 1/1/1 2/2/1 3/3/1 4/4/1
f 5/5/1 6/6/1 7/7/1 8/8/1
f 9/6/1 10/9/1 11/10/1 12/7/1
f 13/9/1 14/11/1 15/12/1 16/10/1
f 17/13/1 18/14/1 19/6/1 20/5/1
f 21/14/1 22/15/1 23/9/1 24/6/1
f 25/15/1 26/16/1 27/11/1 28/9/1
f 29/17/1 30/18/1 31/14/1 32/13/1
f 33/18/1 34/19/1 35/15/1 36/14/1
f 37/19/1 38/20/1 39/16/1 40/15/1
f 41/21/1 42/22/1 43/23/1 44/24/1
f 45/22/1 46/25/1 47/26/1 48/23/1
f 49/27/1 50/28/1 51/18/1 52/17/1
f 53/29/1 54/30/1 55/31/1 56/32/1
f 57/33/1 58/34/1 59/35/1 60/36/1
f 61/29/1 62/30/1 63/31/1 64/32/1
f 65/37/1 66/38/1 67/22/1 68/21/1
f 69/38/1 70/39/1 71/25/1 72/22/1
f 73/40/1 74/41/1 75/38/1 76/37/1
f 77/41/1 78/42/1 79/39/1 80/38/1
f 81/29/1 82/30/1 83/31/1 84/32/1
f 85/29/1 86/30/1 87/31/1 88/32/1

