# Tiled2Unity generated file. Do not modify by hand.
# Wavefront file for 'icmc_mesh_0185.obj'

# Vertices (Count = 12)
v -32 -16 0
v -48 -16 0
v -48 0 0
v -32 0 0
v -32 -32 0
v -48 -32 0
v -48 -16 0
v -32 -16 0
v -32 -48 0
v -48 -48 0
v -48 -32 0
v -32 -32 0

# Texture cooridinates (Count = 6)
vt 0.7166666 0.6
vt 0.7333333 0.6
vt 0.7333333 0.6166667
vt 0.7166666 0.6166667
vt 0.7333333 0.6333333
vt 0.7166666 0.6333333

# Normal
vn 0 0 -1

# Mesh description
g icmc_mesh_0185

# Faces
f 1/1/1 2/2/1 3/3/1 4/4/1
f 5/4/1 6/3/1 7/5/1 8/6/1
f 9/1/1 10/2/1 11/3/1 12/4/1

