# Tiled2Unity generated file. Do not modify by hand.
# Wavefront file for 'icmc_mesh_0223.obj'

# Vertices (Count = 152)
v -208 -16 0
v -224 -16 0
v -224 0 0
v -208 0 0
v -208 -32 0
v -224 -32 0
v -224 -16 0
v -208 -16 0
v -160 -48 0
v -176 -48 0
v -176 -32 0
v -160 -32 0
v -176 -48 0
v -192 -48 0
v -192 -32 0
v -176 -32 0
v -192 -48 0
v -208 -48 0
v -208 -32 0
v -192 -32 0
v -208 -48 0
v -224 -48 0
v -224 -32 0
v -208 -32 0
v -160 -64 0
v -176 -64 0
v -176 -48 0
v -160 -48 0
v -176 -64 0
v -192 -64 0
v -192 -48 0
v -176 -48 0
v -192 -64 0
v -208 -64 0
v -208 -48 0
v -192 -48 0
v -208 -64 0
v -224 -64 0
v -224 -48 0
v -208 -48 0
v -160 -80 0
v -176 -80 0
v -176 -64 0
v -160 -64 0
v -160 -96 0
v -176 -96 0
v -176 -80 0
v -160 -80 0
v -160 -112 0
v -176 -112 0
v -176 -96 0
v -160 -96 0
v -160 -128 0
v -176 -128 0
v -176 -112 0
v -160 -112 0
v -160 -144 0
v -176 -144 0
v -176 -128 0
v -160 -128 0
v -176 -144 0
v -192 -144 0
v -192 -128 0
v -176 -128 0
v -192 -144 0
v -208 -144 0
v -208 -128 0
v -192 -128 0
v -208 -144 0
v -224 -144 0
v -224 -128 0
v -208 -128 0
v -160 -160 0
v -176 -160 0
v -176 -144 0
v -160 -144 0
v -176 -160 0
v -192 -160 0
v -192 -144 0
v -176 -144 0
v -192 -160 0
v -208 -160 0
v -208 -144 0
v -192 -144 0
v -208 -160 0
v -224 -160 0
v -224 -144 0
v -208 -144 0
v -208 -176 0
v -224 -176 0
v -224 -160 0
v -208 -160 0
v -208 -192 0
v -224 -192 0
v -224 -176 0
v -208 -176 0
v -208 -208 0
v -224 -208 0
v -224 -192 0
v -208 -192 0
v -208 -224 0
v -224 -224 0
v -224 -208 0
v -208 -208 0
v -208 -240 0
v -224 -240 0
v -224 -224 0
v -208 -224 0
v 0 -256 0
v -16 -256 0
v -16 -240 0
v 0 -240 0
v -16 -256 0
v -32 -256 0
v -32 -240 0
v -16 -240 0
v -32 -256 0
v -48 -256 0
v -48 -240 0
v -32 -240 0
v -48 -256 0
v -64 -256 0
v -64 -240 0
v -48 -240 0
v -64 -256 0
v -80 -256 0
v -80 -240 0
v -64 -240 0
v -80 -256 0
v -96 -256 0
v -96 -240 0
v -80 -240 0
v -96 -256 0
v -112 -256 0
v -112 -240 0
v -96 -240 0
v -112 -256 0
v -128 -256 0
v -128 -240 0
v -112 -240 0
v -128 -256 0
v -144 -256 0
v -144 -240 0
v -128 -240 0
v -144 -256 0
v -160 -256 0
v -160 -240 0
v -144 -240 0
v -208 -256 0
v -224 -256 0
v -224 -240 0
v -208 -240 0

# Texture cooridinates (Count = 36)
vt 0.3666667 0.8666667
vt 0.3833333 0.8666667
vt 0.3833333 0.8833333
vt 0.3666667 0.8833333
vt 0.4 0.65
vt 0.4166667 0.65
vt 0.4166667 0.6666666
vt 0.4 0.6666666
vt 0.3666667 0.7
vt 0.3833333 0.7
vt 0.3833333 0.7166667
vt 0.3666667 0.7166667
vt 0.4 0.7
vt 0.4 0.7166667
vt 0.4 0.6333333
vt 0.4166667 0.6333333
vt 0.3666667 0.6833333
vt 0.3833333 0.6833333
vt 0.4 0.6833333
vt 0.4 0.6166667
vt 0.4166667 0.6166667
vt 0.3666667 0.85
vt 0.3833333 0.85
vt 0.3666667 0.8333333
vt 0.3833333 0.8333333
vt 0.4 0.8333333
vt 0.4 0.85
vt 0.35 0.75
vt 0.3666667 0.75
vt 0.3666667 0.7666667
vt 0.35 0.7666667
vt 0.3666667 0.8166667
vt 0.3833333 0.8166667
vt 0.4 0.8166667
vt 0.3666667 0.7833333
vt 0.35 0.7833333

# Normal
vn 0 0 -1

# Mesh description
g icmc_mesh_0223

# Faces
f 1/1/1 2/2/1 3/3/1 4/4/1
f 5/5/1 6/6/1 7/7/1 8/8/1
f 9/9/1 10/10/1 11/11/1 12/12/1
f 13/10/1 14/13/1 15/14/1 16/11/1
f 17/10/1 18/13/1 19/14/1 20/11/1
f 21/15/1 22/16/1 23/6/1 24/5/1
f 25/17/1 26/18/1 27/10/1 28/9/1
f 29/18/1 30/19/1 31/13/1 32/10/1
f 33/18/1 34/19/1 35/13/1 36/10/1
f 37/20/1 38/21/1 39/16/1 40/15/1
f 41/22/1 42/23/1 43/2/1 44/1/1
f 45/22/1 46/23/1 47/2/1 48/1/1
f 49/22/1 50/23/1 51/2/1 52/1/1
f 53/22/1 54/23/1 55/2/1 56/1/1
f 57/24/1 58/25/1 59/23/1 60/22/1
f 61/25/1 62/26/1 63/27/1 64/23/1
f 65/25/1 66/26/1 67/27/1 68/23/1
f 69/28/1 70/29/1 71/30/1 72/31/1
f 73/32/1 74/33/1 75/25/1 76/24/1
f 77/33/1 78/34/1 79/26/1 80/25/1
f 81/33/1 82/34/1 83/26/1 84/25/1
f 85/22/1 86/23/1 87/2/1 88/1/1
f 89/1/1 90/2/1 91/3/1 92/4/1
f 93/22/1 94/23/1 95/2/1 96/1/1
f 97/1/1 98/2/1 99/3/1 100/4/1
f 101/22/1 102/23/1 103/2/1 104/1/1
f 105/1/1 106/2/1 107/3/1 108/4/1
f 109/25/1 110/26/1 111/27/1 112/23/1
f 113/25/1 114/26/1 115/27/1 116/23/1
f 117/25/1 118/26/1 119/27/1 120/23/1
f 121/25/1 122/26/1 123/27/1 124/23/1
f 125/25/1 126/26/1 127/27/1 128/23/1
f 129/25/1 130/26/1 131/27/1 132/23/1
f 133/25/1 134/26/1 135/27/1 136/23/1
f 137/25/1 138/26/1 139/27/1 140/23/1
f 141/25/1 142/26/1 143/27/1 144/23/1
f 145/31/1 146/30/1 147/35/1 148/36/1
f 149/1/1 150/2/1 151/3/1 152/4/1

