# Tiled2Unity generated file. Do not modify by hand.
# Wavefront file for 'icmc_mesh_0051.obj'

# Vertices (Count = 180)
v -19 -41 0
v -20 -41 0
v -20 -40 0
v -19 -40 0
v -108 -30 0
v -109 -30 0
v -109 -29 0
v -108 -29 0
v -107 -30 0
v -108 -30 0
v -108 -29 0
v -107 -29 0
v -104 -30 0
v -105 -30 0
v -105 -29 0
v -104 -29 0
v -103 -30 0
v -104 -30 0
v -104 -29 0
v -103 -29 0
v -108 -28 0
v -109 -28 0
v -109 -27 0
v -108 -27 0
v -107 -28 0
v -108 -28 0
v -108 -27 0
v -107 -27 0
v -104 -28 0
v -105 -28 0
v -105 -27 0
v -104 -27 0
v -103 -28 0
v -104 -28 0
v -104 -27 0
v -103 -27 0
v -108 -26 0
v -109 -26 0
v -109 -25 0
v -108 -25 0
v -107 -26 0
v -108 -26 0
v -108 -25 0
v -107 -25 0
v -104 -26 0
v -105 -26 0
v -105 -25 0
v -104 -25 0
v -103 -26 0
v -104 -26 0
v -104 -25 0
v -103 -25 0
v -72 -26 0
v -73 -26 0
v -73 -25 0
v -72 -25 0
v -71 -26 0
v -72 -26 0
v -72 -25 0
v -71 -25 0
v -108 -24 0
v -109 -24 0
v -109 -23 0
v -108 -23 0
v -107 -24 0
v -108 -24 0
v -108 -23 0
v -107 -23 0
v -104 -24 0
v -105 -24 0
v -105 -23 0
v -104 -23 0
v -103 -24 0
v -104 -24 0
v -104 -23 0
v -103 -23 0
v -72 -24 0
v -73 -24 0
v -73 -23 0
v -72 -23 0
v -71 -24 0
v -72 -24 0
v -72 -23 0
v -71 -23 0
v -108 -22 0
v -109 -22 0
v -109 -21 0
v -108 -21 0
v -107 -22 0
v -108 -22 0
v -108 -21 0
v -107 -21 0
v -72 -22 0
v -73 -22 0
v -73 -21 0
v -72 -21 0
v -71 -22 0
v -72 -22 0
v -72 -21 0
v -71 -21 0
v -39 -22 0
v -40 -22 0
v -40 -21 0
v -39 -21 0
v -37 -22 0
v -38 -22 0
v -38 -21 0
v -37 -21 0
v -35 -22 0
v -36 -22 0
v -36 -21 0
v -35 -21 0
v -32 -22 0
v -33 -22 0
v -33 -21 0
v -32 -21 0
v -30 -22 0
v -31 -22 0
v -31 -21 0
v -30 -21 0
v -28 -22 0
v -29 -22 0
v -29 -21 0
v -28 -21 0
v -25 -22 0
v -26 -22 0
v -26 -21 0
v -25 -21 0
v -23 -22 0
v -24 -22 0
v -24 -21 0
v -23 -21 0
v -21 -22 0
v -22 -22 0
v -22 -21 0
v -21 -21 0
v -108 -20 0
v -109 -20 0
v -109 -19 0
v -108 -19 0
v -107 -20 0
v -108 -20 0
v -108 -19 0
v -107 -19 0
v -39 -20 0
v -40 -20 0
v -40 -19 0
v -39 -19 0
v -37 -20 0
v -38 -20 0
v -38 -19 0
v -37 -19 0
v -35 -20 0
v -36 -20 0
v -36 -19 0
v -35 -19 0
v -32 -20 0
v -33 -20 0
v -33 -19 0
v -32 -19 0
v -30 -20 0
v -31 -20 0
v -31 -19 0
v -30 -19 0
v -28 -20 0
v -29 -20 0
v -29 -19 0
v -28 -19 0
v -25 -20 0
v -26 -20 0
v -26 -19 0
v -25 -19 0
v -23 -20 0
v -24 -20 0
v -24 -19 0
v -23 -19 0
v -21 -20 0
v -22 -20 0
v -22 -19 0
v -21 -19 0

# Texture cooridinates (Count = 35)
vt 0.875 0.4160839
vt 1 0.4160839
vt 1 0.4195804
vt 0.875 0.4195804
vt 0.375 0.4055944
vt 0.5 0.4055944
vt 0.5 0.4090909
vt 0.375 0.4090909
vt 0.25 0.4055944
vt 0.25 0.4090909
vt 0.125 0.4055944
vt 0.125 0.4090909
vt 0 0.4055944
vt 0 0.4090909
vt 0.625 0.4055944
vt 0.75 0.4055944
vt 0.75 0.4090909
vt 0.625 0.4090909
vt 0.375 0.4125874
vt 0.5 0.4125874
vt 0.5 0.4160839
vt 0.375 0.4160839
vt 0.25 0.4125874
vt 0.25 0.4160839
vt 0.5 0.3181818
vt 0.625 0.3181818
vt 0.625 0.3216783
vt 0.5 0.3216783
vt 0 0.3181818
vt 0.125 0.3181818
vt 0.125 0.3216783
vt 0 0.3216783
vt 0.75 0.3216783
vt 0.75 0.3251748
vt 0.625 0.3251748

# Normal
vn 0 0 -1

# Mesh description
g icmc_mesh_0051

# Faces
f 1/1/1 2/2/1 3/3/1 4/4/1
f 5/5/1 6/6/1 7/7/1 8/8/1
f 9/9/1 10/5/1 11/8/1 12/10/1
f 13/5/1 14/6/1 15/7/1 16/8/1
f 17/9/1 18/5/1 19/8/1 20/10/1
f 21/11/1 22/9/1 23/10/1 24/12/1
f 25/13/1 26/11/1 27/12/1 28/14/1
f 29/15/1 30/16/1 31/17/1 32/18/1
f 33/6/1 34/15/1 35/18/1 36/7/1
f 37/19/1 38/20/1 39/21/1 40/22/1
f 41/23/1 42/19/1 43/22/1 44/24/1
f 45/19/1 46/20/1 47/21/1 48/22/1
f 49/23/1 50/19/1 51/22/1 52/24/1
f 53/5/1 54/6/1 55/7/1 56/8/1
f 57/9/1 58/5/1 59/8/1 60/10/1
f 61/5/1 62/6/1 63/7/1 64/8/1
f 65/9/1 66/5/1 67/8/1 68/10/1
f 69/11/1 70/9/1 71/10/1 72/12/1
f 73/13/1 74/11/1 75/12/1 76/14/1
f 77/15/1 78/16/1 79/17/1 80/18/1
f 81/6/1 82/15/1 83/18/1 84/7/1
f 85/11/1 86/9/1 87/10/1 88/12/1
f 89/13/1 90/11/1 91/12/1 92/14/1
f 93/19/1 94/20/1 95/21/1 96/22/1
f 97/23/1 98/19/1 99/22/1 100/24/1
f 101/25/1 102/26/1 103/27/1 104/28/1
f 105/25/1 106/26/1 107/27/1 108/28/1
f 109/29/1 110/30/1 111/31/1 112/32/1
f 113/27/1 114/33/1 115/34/1 116/35/1
f 117/29/1 118/30/1 119/31/1 120/32/1
f 121/25/1 122/26/1 123/27/1 124/28/1
f 125/25/1 126/26/1 127/27/1 128/28/1
f 129/27/1 130/33/1 131/34/1 132/35/1
f 133/25/1 134/26/1 135/27/1 136/28/1
f 137/19/1 138/20/1 139/21/1 140/22/1
f 141/23/1 142/19/1 143/22/1 144/24/1
f 145/25/1 146/26/1 147/27/1 148/28/1
f 149/25/1 150/26/1 151/27/1 152/28/1
f 153/27/1 154/33/1 155/34/1 156/35/1
f 157/27/1 158/33/1 159/34/1 160/35/1
f 161/25/1 162/26/1 163/27/1 164/28/1
f 165/25/1 166/26/1 167/27/1 168/28/1
f 169/25/1 170/26/1 171/27/1 172/28/1
f 173/29/1 174/30/1 175/31/1 176/32/1
f 177/25/1 178/26/1 179/27/1 180/28/1

