# Tiled2Unity generated file. Do not modify by hand.
# Wavefront file for 'icmc_mesh_0049.obj'

# Vertices (Count = 28)
v -35 -43 0
v -36 -43 0
v -36 -42 0
v -35 -42 0
v -30 -43 0
v -31 -43 0
v -31 -42 0
v -30 -42 0
v -39 -37 0
v -40 -37 0
v -40 -36 0
v -39 -36 0
v -39 -25 0
v -40 -25 0
v -40 -24 0
v -39 -24 0
v -32 -25 0
v -33 -25 0
v -33 -24 0
v -32 -24 0
v -25 -25 0
v -26 -25 0
v -26 -24 0
v -25 -24 0
v -69 -21 0
v -70 -21 0
v -70 -20 0
v -69 -20 0

# Texture cooridinates (Count = 4)
vt 0.125 0.7172093
vt 0.25 0.7172093
vt 0.25 0.7209302
vt 0.125 0.7209302

# Normal
vn 0 0 -1

# Mesh description
g icmc_mesh_0049

# Faces
f 1/1/1 2/2/1 3/3/1 4/4/1
f 5/1/1 6/2/1 7/3/1 8/4/1
f 9/1/1 10/2/1 11/3/1 12/4/1
f 13/1/1 14/2/1 15/3/1 16/4/1
f 17/1/1 18/2/1 19/3/1 20/4/1
f 21/1/1 22/2/1 23/3/1 24/4/1
f 25/1/1 26/2/1 27/3/1 28/4/1

