# Tiled2Unity generated file. Do not modify by hand.
# Wavefront file for 'icmc_mesh_0025.obj'

# Vertices (Count = 496)
v -21 -47 0
v -22 -47 0
v -22 -46 0
v -21 -46 0
v -19 -47 0
v -20 -47 0
v -20 -46 0
v -19 -46 0
v -21 -46 0
v -22 -46 0
v -22 -45 0
v -21 -45 0
v -19 -46 0
v -20 -46 0
v -20 -45 0
v -19 -45 0
v -33 -45 0
v -34 -45 0
v -34 -44 0
v -33 -44 0
v -33 -44 0
v -34 -44 0
v -34 -43 0
v -33 -43 0
v -40 -24 0
v -41 -24 0
v -41 -23 0
v -40 -23 0
v -36 -24 0
v -37 -24 0
v -37 -23 0
v -36 -23 0
v -40 -23 0
v -41 -23 0
v -41 -22 0
v -40 -22 0
v -36 -23 0
v -37 -23 0
v -37 -22 0
v -36 -22 0
v -112 -11 0
v -113 -11 0
v -113 -10 0
v -112 -10 0
v -111 -11 0
v -112 -11 0
v -112 -10 0
v -111 -10 0
v -110 -11 0
v -111 -11 0
v -111 -10 0
v -110 -10 0
v -106 -11 0
v -107 -11 0
v -107 -10 0
v -106 -10 0
v -105 -11 0
v -106 -11 0
v -106 -10 0
v -105 -10 0
v -104 -11 0
v -105 -11 0
v -105 -10 0
v -104 -10 0
v -100 -11 0
v -101 -11 0
v -101 -10 0
v -100 -10 0
v -99 -11 0
v -100 -11 0
v -100 -10 0
v -99 -10 0
v -98 -11 0
v -99 -11 0
v -99 -10 0
v -98 -10 0
v -94 -11 0
v -95 -11 0
v -95 -10 0
v -94 -10 0
v -93 -11 0
v -94 -11 0
v -94 -10 0
v -93 -10 0
v -92 -11 0
v -93 -11 0
v -93 -10 0
v -92 -10 0
v -88 -11 0
v -89 -11 0
v -89 -10 0
v -88 -10 0
v -87 -11 0
v -88 -11 0
v -88 -10 0
v -87 -10 0
v -86 -11 0
v -87 -11 0
v -87 -10 0
v -86 -10 0
v -82 -11 0
v -83 -11 0
v -83 -10 0
v -82 -10 0
v -81 -11 0
v -82 -11 0
v -82 -10 0
v -81 -10 0
v -80 -11 0
v -81 -11 0
v -81 -10 0
v -80 -10 0
v -76 -11 0
v -77 -11 0
v -77 -10 0
v -76 -10 0
v -75 -11 0
v -76 -11 0
v -76 -10 0
v -75 -10 0
v -74 -11 0
v -75 -11 0
v -75 -10 0
v -74 -10 0
v -70 -11 0
v -71 -11 0
v -71 -10 0
v -70 -10 0
v -69 -11 0
v -70 -11 0
v -70 -10 0
v -69 -10 0
v -68 -11 0
v -69 -11 0
v -69 -10 0
v -68 -10 0
v -64 -11 0
v -65 -11 0
v -65 -10 0
v -64 -10 0
v -63 -11 0
v -64 -11 0
v -64 -10 0
v -63 -10 0
v -62 -11 0
v -63 -11 0
v -63 -10 0
v -62 -10 0
v -58 -11 0
v -59 -11 0
v -59 -10 0
v -58 -10 0
v -57 -11 0
v -58 -11 0
v -58 -10 0
v -57 -10 0
v -56 -11 0
v -57 -11 0
v -57 -10 0
v -56 -10 0
v -52 -11 0
v -53 -11 0
v -53 -10 0
v -52 -10 0
v -51 -11 0
v -52 -11 0
v -52 -10 0
v -51 -10 0
v -50 -11 0
v -51 -11 0
v -51 -10 0
v -50 -10 0
v -46 -11 0
v -47 -11 0
v -47 -10 0
v -46 -10 0
v -45 -11 0
v -46 -11 0
v -46 -10 0
v -45 -10 0
v -44 -11 0
v -45 -11 0
v -45 -10 0
v -44 -10 0
v -40 -11 0
v -41 -11 0
v -41 -10 0
v -40 -10 0
v -39 -11 0
v -40 -11 0
v -40 -10 0
v -39 -10 0
v -38 -11 0
v -39 -11 0
v -39 -10 0
v -38 -10 0
v -34 -11 0
v -35 -11 0
v -35 -10 0
v -34 -10 0
v -33 -11 0
v -34 -11 0
v -34 -10 0
v -33 -10 0
v -32 -11 0
v -33 -11 0
v -33 -10 0
v -32 -10 0
v -28 -11 0
v -29 -11 0
v -29 -10 0
v -28 -10 0
v -27 -11 0
v -28 -11 0
v -28 -10 0
v -27 -10 0
v -26 -11 0
v -27 -11 0
v -27 -10 0
v -26 -10 0
v -22 -11 0
v -23 -11 0
v -23 -10 0
v -22 -10 0
v -21 -11 0
v -22 -11 0
v -22 -10 0
v -21 -10 0
v -20 -11 0
v -21 -11 0
v -21 -10 0
v -20 -10 0
v -16 -11 0
v -17 -11 0
v -17 -10 0
v -16 -10 0
v -15 -11 0
v -16 -11 0
v -16 -10 0
v -15 -10 0
v -14 -11 0
v -15 -11 0
v -15 -10 0
v -14 -10 0
v -10 -11 0
v -11 -11 0
v -11 -10 0
v -10 -10 0
v -9 -11 0
v -10 -11 0
v -10 -10 0
v -9 -10 0
v -8 -11 0
v -9 -11 0
v -9 -10 0
v -8 -10 0
v -4 -11 0
v -5 -11 0
v -5 -10 0
v -4 -10 0
v -3 -11 0
v -4 -11 0
v -4 -10 0
v -3 -10 0
v -2 -11 0
v -3 -11 0
v -3 -10 0
v -2 -10 0
v -112 -10 0
v -113 -10 0
v -113 -9 0
v -112 -9 0
v -111 -10 0
v -112 -10 0
v -112 -9 0
v -111 -9 0
v -110 -10 0
v -111 -10 0
v -111 -9 0
v -110 -9 0
v -106 -10 0
v -107 -10 0
v -107 -9 0
v -106 -9 0
v -105 -10 0
v -106 -10 0
v -106 -9 0
v -105 -9 0
v -104 -10 0
v -105 -10 0
v -105 -9 0
v -104 -9 0
v -100 -10 0
v -101 -10 0
v -101 -9 0
v -100 -9 0
v -99 -10 0
v -100 -10 0
v -100 -9 0
v -99 -9 0
v -98 -10 0
v -99 -10 0
v -99 -9 0
v -98 -9 0
v -94 -10 0
v -95 -10 0
v -95 -9 0
v -94 -9 0
v -93 -10 0
v -94 -10 0
v -94 -9 0
v -93 -9 0
v -92 -10 0
v -93 -10 0
v -93 -9 0
v -92 -9 0
v -88 -10 0
v -89 -10 0
v -89 -9 0
v -88 -9 0
v -87 -10 0
v -88 -10 0
v -88 -9 0
v -87 -9 0
v -86 -10 0
v -87 -10 0
v -87 -9 0
v -86 -9 0
v -82 -10 0
v -83 -10 0
v -83 -9 0
v -82 -9 0
v -81 -10 0
v -82 -10 0
v -82 -9 0
v -81 -9 0
v -80 -10 0
v -81 -10 0
v -81 -9 0
v -80 -9 0
v -76 -10 0
v -77 -10 0
v -77 -9 0
v -76 -9 0
v -75 -10 0
v -76 -10 0
v -76 -9 0
v -75 -9 0
v -74 -10 0
v -75 -10 0
v -75 -9 0
v -74 -9 0
v -70 -10 0
v -71 -10 0
v -71 -9 0
v -70 -9 0
v -69 -10 0
v -70 -10 0
v -70 -9 0
v -69 -9 0
v -68 -10 0
v -69 -10 0
v -69 -9 0
v -68 -9 0
v -64 -10 0
v -65 -10 0
v -65 -9 0
v -64 -9 0
v -63 -10 0
v -64 -10 0
v -64 -9 0
v -63 -9 0
v -62 -10 0
v -63 -10 0
v -63 -9 0
v -62 -9 0
v -58 -10 0
v -59 -10 0
v -59 -9 0
v -58 -9 0
v -57 -10 0
v -58 -10 0
v -58 -9 0
v -57 -9 0
v -56 -10 0
v -57 -10 0
v -57 -9 0
v -56 -9 0
v -52 -10 0
v -53 -10 0
v -53 -9 0
v -52 -9 0
v -51 -10 0
v -52 -10 0
v -52 -9 0
v -51 -9 0
v -50 -10 0
v -51 -10 0
v -51 -9 0
v -50 -9 0
v -46 -10 0
v -47 -10 0
v -47 -9 0
v -46 -9 0
v -45 -10 0
v -46 -10 0
v -46 -9 0
v -45 -9 0
v -44 -10 0
v -45 -10 0
v -45 -9 0
v -44 -9 0
v -40 -10 0
v -41 -10 0
v -41 -9 0
v -40 -9 0
v -39 -10 0
v -40 -10 0
v -40 -9 0
v -39 -9 0
v -38 -10 0
v -39 -10 0
v -39 -9 0
v -38 -9 0
v -34 -10 0
v -35 -10 0
v -35 -9 0
v -34 -9 0
v -33 -10 0
v -34 -10 0
v -34 -9 0
v -33 -9 0
v -32 -10 0
v -33 -10 0
v -33 -9 0
v -32 -9 0
v -28 -10 0
v -29 -10 0
v -29 -9 0
v -28 -9 0
v -27 -10 0
v -28 -10 0
v -28 -9 0
v -27 -9 0
v -26 -10 0
v -27 -10 0
v -27 -9 0
v -26 -9 0
v -22 -10 0
v -23 -10 0
v -23 -9 0
v -22 -9 0
v -21 -10 0
v -22 -10 0
v -22 -9 0
v -21 -9 0
v -20 -10 0
v -21 -10 0
v -21 -9 0
v -20 -9 0
v -16 -10 0
v -17 -10 0
v -17 -9 0
v -16 -9 0
v -15 -10 0
v -16 -10 0
v -16 -9 0
v -15 -9 0
v -14 -10 0
v -15 -10 0
v -15 -9 0
v -14 -9 0
v -10 -10 0
v -11 -10 0
v -11 -9 0
v -10 -9 0
v -9 -10 0
v -10 -10 0
v -10 -9 0
v -9 -9 0
v -8 -10 0
v -9 -10 0
v -9 -9 0
v -8 -9 0
v -4 -10 0
v -5 -10 0
v -5 -9 0
v -4 -9 0
v -3 -10 0
v -4 -10 0
v -4 -9 0
v -3 -9 0
v -2 -10 0
v -3 -10 0
v -3 -9 0
v -2 -9 0

# Texture cooridinates (Count = 21)
vt 0.975 0.6238095
vt 0.9833333 0.6238095
vt 0.9833333 0.6285714
vt 0.975 0.6285714
vt 0.9833333 0.6333333
vt 0.975 0.6333333
vt 0.9666666 0.6238095
vt 0.9666666 0.6285714
vt 0.9666666 0.6333333
vt 0.8416666 0.6523809
vt 0.85 0.6523809
vt 0.85 0.6571429
vt 0.8416666 0.6571429
vt 0.8333333 0.6523809
vt 0.8333333 0.6571429
vt 0.825 0.6523809
vt 0.825 0.6571429
vt 0.85 0.6619048
vt 0.8416666 0.6619048
vt 0.8333333 0.6619048
vt 0.825 0.6619048

# Normal
vn 0 0 -1

# Mesh description
g icmc_mesh_0025

# Faces
f 1/1/1 2/2/1 3/3/1 4/4/1
f 5/1/1 6/2/1 7/3/1 8/4/1
f 9/4/1 10/3/1 11/5/1 12/6/1
f 13/4/1 14/3/1 15/5/1 16/6/1
f 17/1/1 18/2/1 19/3/1 20/4/1
f 21/4/1 22/3/1 23/5/1 24/6/1
f 25/7/1 26/1/1 27/4/1 28/8/1
f 29/7/1 30/1/1 31/4/1 32/8/1
f 33/8/1 34/4/1 35/6/1 36/9/1
f 37/8/1 38/4/1 39/6/1 40/9/1
f 41/10/1 42/11/1 43/12/1 44/13/1
f 45/14/1 46/10/1 47/13/1 48/15/1
f 49/16/1 50/14/1 51/15/1 52/17/1
f 53/10/1 54/11/1 55/12/1 56/13/1
f 57/14/1 58/10/1 59/13/1 60/15/1
f 61/16/1 62/14/1 63/15/1 64/17/1
f 65/10/1 66/11/1 67/12/1 68/13/1
f 69/14/1 70/10/1 71/13/1 72/15/1
f 73/16/1 74/14/1 75/15/1 76/17/1
f 77/10/1 78/11/1 79/12/1 80/13/1
f 81/14/1 82/10/1 83/13/1 84/15/1
f 85/16/1 86/14/1 87/15/1 88/17/1
f 89/10/1 90/11/1 91/12/1 92/13/1
f 93/14/1 94/10/1 95/13/1 96/15/1
f 97/16/1 98/14/1 99/15/1 100/17/1
f 101/10/1 102/11/1 103/12/1 104/13/1
f 105/14/1 106/10/1 107/13/1 108/15/1
f 109/16/1 110/14/1 111/15/1 112/17/1
f 113/10/1 114/11/1 115/12/1 116/13/1
f 117/14/1 118/10/1 119/13/1 120/15/1
f 121/16/1 122/14/1 123/15/1 124/17/1
f 125/10/1 126/11/1 127/12/1 128/13/1
f 129/14/1 130/10/1 131/13/1 132/15/1
f 133/16/1 134/14/1 135/15/1 136/17/1
f 137/10/1 138/11/1 139/12/1 140/13/1
f 141/14/1 142/10/1 143/13/1 144/15/1
f 145/16/1 146/14/1 147/15/1 148/17/1
f 149/10/1 150/11/1 151/12/1 152/13/1
f 153/14/1 154/10/1 155/13/1 156/15/1
f 157/16/1 158/14/1 159/15/1 160/17/1
f 161/10/1 162/11/1 163/12/1 164/13/1
f 165/14/1 166/10/1 167/13/1 168/15/1
f 169/16/1 170/14/1 171/15/1 172/17/1
f 173/10/1 174/11/1 175/12/1 176/13/1
f 177/14/1 178/10/1 179/13/1 180/15/1
f 181/16/1 182/14/1 183/15/1 184/17/1
f 185/10/1 186/11/1 187/12/1 188/13/1
f 189/14/1 190/10/1 191/13/1 192/15/1
f 193/16/1 194/14/1 195/15/1 196/17/1
f 197/10/1 198/11/1 199/12/1 200/13/1
f 201/14/1 202/10/1 203/13/1 204/15/1
f 205/16/1 206/14/1 207/15/1 208/17/1
f 209/10/1 210/11/1 211/12/1 212/13/1
f 213/14/1 214/10/1 215/13/1 216/15/1
f 217/16/1 218/14/1 219/15/1 220/17/1
f 221/10/1 222/11/1 223/12/1 224/13/1
f 225/14/1 226/10/1 227/13/1 228/15/1
f 229/16/1 230/14/1 231/15/1 232/17/1
f 233/10/1 234/11/1 235/12/1 236/13/1
f 237/14/1 238/10/1 239/13/1 240/15/1
f 241/16/1 242/14/1 243/15/1 244/17/1
f 245/10/1 246/11/1 247/12/1 248/13/1
f 249/14/1 250/10/1 251/13/1 252/15/1
f 253/16/1 254/14/1 255/15/1 256/17/1
f 257/10/1 258/11/1 259/12/1 260/13/1
f 261/14/1 262/10/1 263/13/1 264/15/1
f 265/16/1 266/14/1 267/15/1 268/17/1
f 269/13/1 270/12/1 271/18/1 272/19/1
f 273/15/1 274/13/1 275/19/1 276/20/1
f 277/17/1 278/15/1 279/20/1 280/21/1
f 281/13/1 282/12/1 283/18/1 284/19/1
f 285/15/1 286/13/1 287/19/1 288/20/1
f 289/17/1 290/15/1 291/20/1 292/21/1
f 293/13/1 294/12/1 295/18/1 296/19/1
f 297/15/1 298/13/1 299/19/1 300/20/1
f 301/17/1 302/15/1 303/20/1 304/21/1
f 305/13/1 306/12/1 307/18/1 308/19/1
f 309/15/1 310/13/1 311/19/1 312/20/1
f 313/17/1 314/15/1 315/20/1 316/21/1
f 317/13/1 318/12/1 319/18/1 320/19/1
f 321/15/1 322/13/1 323/19/1 324/20/1
f 325/17/1 326/15/1 327/20/1 328/21/1
f 329/13/1 330/12/1 331/18/1 332/19/1
f 333/15/1 334/13/1 335/19/1 336/20/1
f 337/17/1 338/15/1 339/20/1 340/21/1
f 341/13/1 342/12/1 343/18/1 344/19/1
f 345/15/1 346/13/1 347/19/1 348/20/1
f 349/17/1 350/15/1 351/20/1 352/21/1
f 353/13/1 354/12/1 355/18/1 356/19/1
f 357/15/1 358/13/1 359/19/1 360/20/1
f 361/17/1 362/15/1 363/20/1 364/21/1
f 365/13/1 366/12/1 367/18/1 368/19/1
f 369/15/1 370/13/1 371/19/1 372/20/1
f 373/17/1 374/15/1 375/20/1 376/21/1
f 377/13/1 378/12/1 379/18/1 380/19/1
f 381/15/1 382/13/1 383/19/1 384/20/1
f 385/17/1 386/15/1 387/20/1 388/21/1
f 389/13/1 390/12/1 391/18/1 392/19/1
f 393/15/1 394/13/1 395/19/1 396/20/1
f 397/17/1 398/15/1 399/20/1 400/21/1
f 401/13/1 402/12/1 403/18/1 404/19/1
f 405/15/1 406/13/1 407/19/1 408/20/1
f 409/17/1 410/15/1 411/20/1 412/21/1
f 413/13/1 414/12/1 415/18/1 416/19/1
f 417/15/1 418/13/1 419/19/1 420/20/1
f 421/17/1 422/15/1 423/20/1 424/21/1
f 425/13/1 426/12/1 427/18/1 428/19/1
f 429/15/1 430/13/1 431/19/1 432/20/1
f 433/17/1 434/15/1 435/20/1 436/21/1
f 437/13/1 438/12/1 439/18/1 440/19/1
f 441/15/1 442/13/1 443/19/1 444/20/1
f 445/17/1 446/15/1 447/20/1 448/21/1
f 449/13/1 450/12/1 451/18/1 452/19/1
f 453/15/1 454/13/1 455/19/1 456/20/1
f 457/17/1 458/15/1 459/20/1 460/21/1
f 461/13/1 462/12/1 463/18/1 464/19/1
f 465/15/1 466/13/1 467/19/1 468/20/1
f 469/17/1 470/15/1 471/20/1 472/21/1
f 473/13/1 474/12/1 475/18/1 476/19/1
f 477/15/1 478/13/1 479/19/1 480/20/1
f 481/17/1 482/15/1 483/20/1 484/21/1
f 485/13/1 486/12/1 487/18/1 488/19/1
f 489/15/1 490/13/1 491/19/1 492/20/1
f 493/17/1 494/15/1 495/20/1 496/21/1

