# Tiled2Unity generated file. Do not modify by hand.
# Wavefront file for 'icmc_mesh_0267.obj'

# Vertices (Count = 32)
v -176 -16 0
v -192 -16 0
v -192 0 0
v -176 0 0
v -208 -16 0
v -224 -16 0
v -224 0 0
v -208 0 0
v -208 -32 0
v -224 -32 0
v -224 -16 0
v -208 -16 0
v -208 -48 0
v -224 -48 0
v -224 -32 0
v -208 -32 0
v -240 -64 0
v -256 -64 0
v -256 -48 0
v -240 -48 0
v -144 -112 0
v -160 -112 0
v -160 -96 0
v -144 -96 0
v -208 -112 0
v -224 -112 0
v -224 -96 0
v -208 -96 0
v -144 -128 0
v -160 -128 0
v -160 -112 0
v -144 -112 0

# Texture cooridinates (Count = 26)
vt 0.8833333 0.9166667
vt 0.9 0.9166667
vt 0.9 0.9333333
vt 0.8833333 0.9333333
vt 0.7166666 0.75
vt 0.7333333 0.75
vt 0.7333333 0.7666667
vt 0.7166666 0.7666667
vt 0.7333333 0.7833333
vt 0.7166666 0.7833333
vt 0.9666666 0.9166667
vt 0.9833333 0.9166667
vt 0.9833333 0.9333333
vt 0.9666666 0.9333333
vt 0.9333333 0.9666666
vt 0.95 0.9666666
vt 0.95 0.9833333
vt 0.9333333 0.9833333
vt 0.95 0.9333333
vt 0.9666666 0.95
vt 0.95 0.95
vt 0.9 0.55
vt 0.9166667 0.55
vt 0.9166667 0.5666667
vt 0.9 0.5666667
vt 0.95 0.9166667

# Normal
vn 0 0 -1

# Mesh description
g icmc_mesh_0267

# Faces
f 1/1/1 2/2/1 3/3/1 4/4/1
f 5/5/1 6/6/1 7/7/1 8/8/1
f 9/8/1 10/7/1 11/9/1 12/10/1
f 13/11/1 14/12/1 15/13/1 16/14/1
f 17/15/1 18/16/1 19/17/1 20/18/1
f 21/19/1 22/14/1 23/20/1 24/21/1
f 25/22/1 26/23/1 27/24/1 28/25/1
f 29/26/1 30/11/1 31/14/1 32/19/1

