# Tiled2Unity generated file. Do not modify by hand.
# Wavefront file for 'icmc_mesh_0166.obj'

# Vertices (Count = 12)
v -192 -192 0
v -208 -192 0
v -208 -176 0
v -192 -176 0
v -192 -208 0
v -208 -208 0
v -208 -192 0
v -192 -192 0
v -192 -256 0
v -208 -256 0
v -208 -240 0
v -192 -240 0

# Texture cooridinates (Count = 10)
vt 0.8583333 0.6571429
vt 0.8666667 0.6571429
vt 0.8666667 0.6619048
vt 0.8583333 0.6619048
vt 0.8583333 0.6523809
vt 0.8666667 0.6523809
vt 0.8583333 0.6666666
vt 0.8666667 0.6666666
vt 0.8666667 0.6714286
vt 0.8583333 0.6714286

# Normal
vn 0 0 -1

# Mesh description
g icmc_mesh_0166

# Faces
f 1/1/1 2/2/1 3/3/1 4/4/1
f 5/5/1 6/6/1 7/2/1 8/1/1
f 9/7/1 10/8/1 11/9/1 12/10/1

