# Tiled2Unity generated file. Do not modify by hand.
# Wavefront file for 'icmc_mesh_0027.obj'

# Vertices (Count = 16)
v -93 -64 0
v -94 -64 0
v -94 -63 0
v -93 -63 0
v -85 -42 0
v -86 -42 0
v -86 -41 0
v -85 -41 0
v -32 -42 0
v -33 -42 0
v -33 -41 0
v -32 -41 0
v -27 -42 0
v -28 -42 0
v -28 -41 0
v -27 -41 0

# Texture cooridinates (Count = 8)
vt 0.4 0.85
vt 0.4166667 0.85
vt 0.4166667 0.8666667
vt 0.4 0.8666667
vt 0.3833333 0.7
vt 0.4 0.7
vt 0.4 0.7166667
vt 0.3833333 0.7166667

# Normal
vn 0 0 -1

# Mesh description
g icmc_mesh_0027

# Faces
f 1/1/1 2/2/1 3/3/1 4/4/1
f 5/5/1 6/6/1 7/7/1 8/8/1
f 9/5/1 10/6/1 11/7/1 12/8/1
f 13/5/1 14/6/1 15/7/1 16/8/1

