# Tiled2Unity generated file. Do not modify by hand.
# Wavefront file for 'icmc_mesh_0023.obj'

# Vertices (Count = 120)
v -93 -52 0
v -94 -52 0
v -94 -51 0
v -93 -51 0
v -92 -52 0
v -93 -52 0
v -93 -51 0
v -92 -51 0
v -91 -52 0
v -92 -52 0
v -92 -51 0
v -91 -51 0
v -87 -52 0
v -88 -52 0
v -88 -51 0
v -87 -51 0
v -86 -52 0
v -87 -52 0
v -87 -51 0
v -86 -51 0
v -85 -52 0
v -86 -52 0
v -86 -51 0
v -85 -51 0
v -93 -49 0
v -94 -49 0
v -94 -48 0
v -93 -48 0
v -92 -49 0
v -93 -49 0
v -93 -48 0
v -92 -48 0
v -91 -49 0
v -92 -49 0
v -92 -48 0
v -91 -48 0
v -87 -49 0
v -88 -49 0
v -88 -48 0
v -87 -48 0
v -86 -49 0
v -87 -49 0
v -87 -48 0
v -86 -48 0
v -85 -49 0
v -86 -49 0
v -86 -48 0
v -85 -48 0
v -93 -46 0
v -94 -46 0
v -94 -45 0
v -93 -45 0
v -92 -46 0
v -93 -46 0
v -93 -45 0
v -92 -45 0
v -91 -46 0
v -92 -46 0
v -92 -45 0
v -91 -45 0
v -90 -46 0
v -91 -46 0
v -91 -45 0
v -90 -45 0
v -88 -46 0
v -89 -46 0
v -89 -45 0
v -88 -45 0
v -87 -46 0
v -88 -46 0
v -88 -45 0
v -87 -45 0
v -86 -46 0
v -87 -46 0
v -87 -45 0
v -86 -45 0
v -85 -46 0
v -86 -46 0
v -86 -45 0
v -85 -45 0
v -93 -44 0
v -94 -44 0
v -94 -43 0
v -93 -43 0
v -92 -44 0
v -93 -44 0
v -93 -43 0
v -92 -43 0
v -91 -44 0
v -92 -44 0
v -92 -43 0
v -91 -43 0
v -90 -44 0
v -91 -44 0
v -91 -43 0
v -90 -43 0
v -88 -44 0
v -89 -44 0
v -89 -43 0
v -88 -43 0
v -87 -44 0
v -88 -44 0
v -88 -43 0
v -87 -43 0
v -86 -44 0
v -87 -44 0
v -87 -43 0
v -86 -43 0
v -85 -44 0
v -86 -44 0
v -86 -43 0
v -85 -43 0
v -41 -32 0
v -42 -32 0
v -42 -31 0
v -41 -31 0
v -41 -27 0
v -42 -27 0
v -42 -26 0
v -41 -26 0

# Texture cooridinates (Count = 18)
vt 0.7666667 0.9666666
vt 0.7833334 0.9666666
vt 0.7833334 0.9833333
vt 0.7666667 0.9833333
vt 0.75 0.9666666
vt 0.75 0.9833333
vt 0.7333333 0.9666666
vt 0.7333333 0.9833333
vt 0.6 0.85
vt 0.6166667 0.85
vt 0.6166667 0.8666667
vt 0.6 0.8666667
vt 0.5833333 0.85
vt 0.5833333 0.8666667
vt 0.9666666 0.9333333
vt 0.9833333 0.9333333
vt 0.9833333 0.95
vt 0.9666666 0.95

# Normal
vn 0 0 -1

# Mesh description
g icmc_mesh_0023

# Faces
f 1/1/1 2/2/1 3/3/1 4/4/1
f 5/5/1 6/1/1 7/4/1 8/6/1
f 9/7/1 10/5/1 11/6/1 12/8/1
f 13/1/1 14/2/1 15/3/1 16/4/1
f 17/5/1 18/1/1 19/4/1 20/6/1
f 21/7/1 22/5/1 23/6/1 24/8/1
f 25/1/1 26/2/1 27/3/1 28/4/1
f 29/5/1 30/1/1 31/4/1 32/6/1
f 33/7/1 34/5/1 35/6/1 36/8/1
f 37/1/1 38/2/1 39/3/1 40/4/1
f 41/5/1 42/1/1 43/4/1 44/6/1
f 45/7/1 46/5/1 47/6/1 48/8/1
f 49/9/1 50/10/1 51/11/1 52/12/1
f 53/13/1 54/9/1 55/12/1 56/14/1
f 57/9/1 58/10/1 59/11/1 60/12/1
f 61/13/1 62/9/1 63/12/1 64/14/1
f 65/9/1 66/10/1 67/11/1 68/12/1
f 69/13/1 70/9/1 71/12/1 72/14/1
f 73/9/1 74/10/1 75/11/1 76/12/1
f 77/13/1 78/9/1 79/12/1 80/14/1
f 81/9/1 82/10/1 83/11/1 84/12/1
f 85/13/1 86/9/1 87/12/1 88/14/1
f 89/9/1 90/10/1 91/11/1 92/12/1
f 93/13/1 94/9/1 95/12/1 96/14/1
f 97/9/1 98/10/1 99/11/1 100/12/1
f 101/13/1 102/9/1 103/12/1 104/14/1
f 105/9/1 106/10/1 107/11/1 108/12/1
f 109/13/1 110/9/1 111/12/1 112/14/1
f 113/15/1 114/16/1 115/17/1 116/18/1
f 117/15/1 118/16/1 119/17/1 120/18/1

