# Tiled2Unity generated file. Do not modify by hand.
# Wavefront file for 'icmc_mesh_0022.obj'

# Vertices (Count = 748)
v -90 -62 0
v -91 -62 0
v -91 -61 0
v -90 -61 0
v -89 -62 0
v -90 -62 0
v -90 -61 0
v -89 -61 0
v -88 -62 0
v -89 -62 0
v -89 -61 0
v -88 -61 0
v -86 -62 0
v -87 -62 0
v -87 -61 0
v -86 -61 0
v -85 -62 0
v -86 -62 0
v -86 -61 0
v -85 -61 0
v -90 -61 0
v -91 -61 0
v -91 -60 0
v -90 -60 0
v -89 -61 0
v -90 -61 0
v -90 -60 0
v -89 -60 0
v -88 -61 0
v -89 -61 0
v -89 -60 0
v -88 -60 0
v -86 -61 0
v -87 -61 0
v -87 -60 0
v -86 -60 0
v -85 -61 0
v -86 -61 0
v -86 -60 0
v -85 -60 0
v -90 -60 0
v -91 -60 0
v -91 -59 0
v -90 -59 0
v -89 -60 0
v -90 -60 0
v -90 -59 0
v -89 -59 0
v -88 -60 0
v -89 -60 0
v -89 -59 0
v -88 -59 0
v -86 -60 0
v -87 -60 0
v -87 -59 0
v -86 -59 0
v -85 -60 0
v -86 -60 0
v -86 -59 0
v -85 -59 0
v -90 -59 0
v -91 -59 0
v -91 -58 0
v -90 -58 0
v -89 -59 0
v -90 -59 0
v -90 -58 0
v -89 -58 0
v -88 -59 0
v -89 -59 0
v -89 -58 0
v -88 -58 0
v -93 -58 0
v -94 -58 0
v -94 -57 0
v -93 -57 0
v -92 -58 0
v -93 -58 0
v -93 -57 0
v -92 -57 0
v -90 -58 0
v -91 -58 0
v -91 -57 0
v -90 -57 0
v -89 -58 0
v -90 -58 0
v -90 -57 0
v -89 -57 0
v -88 -58 0
v -89 -58 0
v -89 -57 0
v -88 -57 0
v -86 -58 0
v -87 -58 0
v -87 -57 0
v -86 -57 0
v -85 -58 0
v -86 -58 0
v -86 -57 0
v -85 -57 0
v -93 -57 0
v -94 -57 0
v -94 -56 0
v -93 -56 0
v -92 -57 0
v -93 -57 0
v -93 -56 0
v -92 -56 0
v -90 -57 0
v -91 -57 0
v -91 -56 0
v -90 -56 0
v -89 -57 0
v -90 -57 0
v -90 -56 0
v -89 -56 0
v -88 -57 0
v -89 -57 0
v -89 -56 0
v -88 -56 0
v -86 -57 0
v -87 -57 0
v -87 -56 0
v -86 -56 0
v -85 -57 0
v -86 -57 0
v -86 -56 0
v -85 -56 0
v -93 -56 0
v -94 -56 0
v -94 -55 0
v -93 -55 0
v -92 -56 0
v -93 -56 0
v -93 -55 0
v -92 -55 0
v -90 -56 0
v -91 -56 0
v -91 -55 0
v -90 -55 0
v -89 -56 0
v -90 -56 0
v -90 -55 0
v -89 -55 0
v -88 -56 0
v -89 -56 0
v -89 -55 0
v -88 -55 0
v -86 -56 0
v -87 -56 0
v -87 -55 0
v -86 -55 0
v -85 -56 0
v -86 -56 0
v -86 -55 0
v -85 -55 0
v -92 -54 0
v -93 -54 0
v -93 -53 0
v -92 -53 0
v -86 -54 0
v -87 -54 0
v -87 -53 0
v -86 -53 0
v -92 -53 0
v -93 -53 0
v -93 -52 0
v -92 -52 0
v -86 -53 0
v -87 -53 0
v -87 -52 0
v -86 -52 0
v -92 -51 0
v -93 -51 0
v -93 -50 0
v -92 -50 0
v -86 -51 0
v -87 -51 0
v -87 -50 0
v -86 -50 0
v -70 -51 0
v -71 -51 0
v -71 -50 0
v -70 -50 0
v -92 -50 0
v -93 -50 0
v -93 -49 0
v -92 -49 0
v -86 -50 0
v -87 -50 0
v -87 -49 0
v -86 -49 0
v -70 -50 0
v -71 -50 0
v -71 -49 0
v -70 -49 0
v -92 -49 0
v -93 -49 0
v -93 -48 0
v -92 -48 0
v -70 -49 0
v -71 -49 0
v -71 -48 0
v -70 -48 0
v -70 -48 0
v -71 -48 0
v -71 -47 0
v -70 -47 0
v -70 -47 0
v -71 -47 0
v -71 -46 0
v -70 -46 0
v -21 -47 0
v -22 -47 0
v -22 -46 0
v -21 -46 0
v -20 -47 0
v -21 -47 0
v -21 -46 0
v -20 -46 0
v -70 -46 0
v -71 -46 0
v -71 -45 0
v -70 -45 0
v -21 -46 0
v -22 -46 0
v -22 -45 0
v -21 -45 0
v -20 -46 0
v -21 -46 0
v -21 -45 0
v -20 -45 0
v -70 -45 0
v -71 -45 0
v -71 -44 0
v -70 -44 0
v -70 -44 0
v -71 -44 0
v -71 -43 0
v -70 -43 0
v -60 -44 0
v -61 -44 0
v -61 -43 0
v -60 -43 0
v -59 -44 0
v -60 -44 0
v -60 -43 0
v -59 -43 0
v -58 -44 0
v -59 -44 0
v -59 -43 0
v -58 -43 0
v -57 -44 0
v -58 -44 0
v -58 -43 0
v -57 -43 0
v -70 -43 0
v -71 -43 0
v -71 -42 0
v -70 -42 0
v -60 -43 0
v -61 -43 0
v -61 -42 0
v -60 -42 0
v -59 -43 0
v -60 -43 0
v -60 -42 0
v -59 -42 0
v -58 -43 0
v -59 -43 0
v -59 -42 0
v -58 -42 0
v -57 -43 0
v -58 -43 0
v -58 -42 0
v -57 -42 0
v -70 -42 0
v -71 -42 0
v -71 -41 0
v -70 -41 0
v -57 -42 0
v -58 -42 0
v -58 -41 0
v -57 -41 0
v -70 -41 0
v -71 -41 0
v -71 -40 0
v -70 -40 0
v -57 -41 0
v -58 -41 0
v -58 -40 0
v -57 -40 0
v -70 -40 0
v -71 -40 0
v -71 -39 0
v -70 -39 0
v -41 -40 0
v -42 -40 0
v -42 -39 0
v -41 -39 0
v -45 -39 0
v -46 -39 0
v -46 -38 0
v -45 -38 0
v -41 -39 0
v -42 -39 0
v -42 -38 0
v -41 -38 0
v -52 -36 0
v -53 -36 0
v -53 -35 0
v -52 -35 0
v -50 -36 0
v -51 -36 0
v -51 -35 0
v -50 -35 0
v -48 -36 0
v -49 -36 0
v -49 -35 0
v -48 -35 0
v -47 -36 0
v -48 -36 0
v -48 -35 0
v -47 -35 0
v -45 -35 0
v -46 -35 0
v -46 -34 0
v -45 -34 0
v -45 -34 0
v -46 -34 0
v -46 -33 0
v -45 -33 0
v -45 -33 0
v -46 -33 0
v -46 -32 0
v -45 -32 0
v -43 -33 0
v -44 -33 0
v -44 -32 0
v -43 -32 0
v -45 -32 0
v -46 -32 0
v -46 -31 0
v -45 -31 0
v -43 -32 0
v -44 -32 0
v -44 -31 0
v -43 -31 0
v -78 -31 0
v -79 -31 0
v -79 -30 0
v -78 -30 0
v -76 -31 0
v -77 -31 0
v -77 -30 0
v -76 -30 0
v -74 -31 0
v -75 -31 0
v -75 -30 0
v -74 -30 0
v -45 -31 0
v -46 -31 0
v -46 -30 0
v -45 -30 0
v -78 -30 0
v -79 -30 0
v -79 -29 0
v -78 -29 0
v -77 -30 0
v -78 -30 0
v -78 -29 0
v -77 -29 0
v -75 -30 0
v -76 -30 0
v -76 -29 0
v -75 -29 0
v -74 -30 0
v -75 -30 0
v -75 -29 0
v -74 -29 0
v -45 -30 0
v -46 -30 0
v -46 -29 0
v -45 -29 0
v -78 -29 0
v -79 -29 0
v -79 -28 0
v -78 -28 0
v -77 -29 0
v -78 -29 0
v -78 -28 0
v -77 -28 0
v -75 -29 0
v -76 -29 0
v -76 -28 0
v -75 -28 0
v -74 -29 0
v -75 -29 0
v -75 -28 0
v -74 -28 0
v -87 -27 0
v -88 -27 0
v -88 -26 0
v -87 -26 0
v -86 -27 0
v -87 -27 0
v -87 -26 0
v -86 -26 0
v -84 -27 0
v -85 -27 0
v -85 -26 0
v -84 -26 0
v -83 -27 0
v -84 -27 0
v -84 -26 0
v -83 -26 0
v -81 -27 0
v -82 -27 0
v -82 -26 0
v -81 -26 0
v -80 -27 0
v -81 -27 0
v -81 -26 0
v -80 -26 0
v -75 -27 0
v -76 -27 0
v -76 -26 0
v -75 -26 0
v -43 -27 0
v -44 -27 0
v -44 -26 0
v -43 -26 0
v -87 -26 0
v -88 -26 0
v -88 -25 0
v -87 -25 0
v -86 -26 0
v -87 -26 0
v -87 -25 0
v -86 -25 0
v -84 -26 0
v -85 -26 0
v -85 -25 0
v -84 -25 0
v -83 -26 0
v -84 -26 0
v -84 -25 0
v -83 -25 0
v -81 -26 0
v -82 -26 0
v -82 -25 0
v -81 -25 0
v -80 -26 0
v -81 -26 0
v -81 -25 0
v -80 -25 0
v -75 -26 0
v -76 -26 0
v -76 -25 0
v -75 -25 0
v -45 -26 0
v -46 -26 0
v -46 -25 0
v -45 -25 0
v -43 -26 0
v -44 -26 0
v -44 -25 0
v -43 -25 0
v -87 -25 0
v -88 -25 0
v -88 -24 0
v -87 -24 0
v -86 -25 0
v -87 -25 0
v -87 -24 0
v -86 -24 0
v -84 -25 0
v -85 -25 0
v -85 -24 0
v -84 -24 0
v -83 -25 0
v -84 -25 0
v -84 -24 0
v -83 -24 0
v -81 -25 0
v -82 -25 0
v -82 -24 0
v -81 -24 0
v -80 -25 0
v -81 -25 0
v -81 -24 0
v -80 -24 0
v -75 -25 0
v -76 -25 0
v -76 -24 0
v -75 -24 0
v -45 -25 0
v -46 -25 0
v -46 -24 0
v -45 -24 0
v -37 -25 0
v -38 -25 0
v -38 -24 0
v -37 -24 0
v -35 -25 0
v -36 -25 0
v -36 -24 0
v -35 -24 0
v -30 -25 0
v -31 -25 0
v -31 -24 0
v -30 -24 0
v -28 -25 0
v -29 -25 0
v -29 -24 0
v -28 -24 0
v -23 -25 0
v -24 -25 0
v -24 -24 0
v -23 -24 0
v -20 -25 0
v -21 -25 0
v -21 -24 0
v -20 -24 0
v -12 -25 0
v -13 -25 0
v -13 -24 0
v -12 -24 0
v -11 -25 0
v -12 -25 0
v -12 -24 0
v -11 -24 0
v -10 -25 0
v -11 -25 0
v -11 -24 0
v -10 -24 0
v -9 -25 0
v -10 -25 0
v -10 -24 0
v -9 -24 0
v -8 -25 0
v -9 -25 0
v -9 -24 0
v -8 -24 0
v -87 -24 0
v -88 -24 0
v -88 -23 0
v -87 -23 0
v -86 -24 0
v -87 -24 0
v -87 -23 0
v -86 -23 0
v -84 -24 0
v -85 -24 0
v -85 -23 0
v -84 -23 0
v -83 -24 0
v -84 -24 0
v -84 -23 0
v -83 -23 0
v -81 -24 0
v -82 -24 0
v -82 -23 0
v -81 -23 0
v -80 -24 0
v -81 -24 0
v -81 -23 0
v -80 -23 0
v -75 -24 0
v -76 -24 0
v -76 -23 0
v -75 -23 0
v -87 -23 0
v -88 -23 0
v -88 -22 0
v -87 -22 0
v -86 -23 0
v -87 -23 0
v -87 -22 0
v -86 -22 0
v -84 -23 0
v -85 -23 0
v -85 -22 0
v -84 -22 0
v -83 -23 0
v -84 -23 0
v -84 -22 0
v -83 -22 0
v -81 -23 0
v -82 -23 0
v -82 -22 0
v -81 -22 0
v -80 -23 0
v -81 -23 0
v -81 -22 0
v -80 -22 0
v -87 -22 0
v -88 -22 0
v -88 -21 0
v -87 -21 0
v -86 -22 0
v -87 -22 0
v -87 -21 0
v -86 -21 0
v -84 -22 0
v -85 -22 0
v -85 -21 0
v -84 -21 0
v -83 -22 0
v -84 -22 0
v -84 -21 0
v -83 -21 0
v -81 -22 0
v -82 -22 0
v -82 -21 0
v -81 -21 0
v -80 -22 0
v -81 -22 0
v -81 -21 0
v -80 -21 0
v -103 -21 0
v -104 -21 0
v -104 -20 0
v -103 -20 0
v -102 -21 0
v -103 -21 0
v -103 -20 0
v -102 -20 0
v -103 -20 0
v -104 -20 0
v -104 -19 0
v -103 -19 0
v -102 -20 0
v -103 -20 0
v -103 -19 0
v -102 -19 0
v -45 -20 0
v -46 -20 0
v -46 -19 0
v -45 -19 0
v -7 -20 0
v -8 -20 0
v -8 -19 0
v -7 -19 0
v -107 -19 0
v -108 -19 0
v -108 -18 0
v -107 -18 0
v -106 -19 0
v -107 -19 0
v -107 -18 0
v -106 -18 0
v -105 -19 0
v -106 -19 0
v -106 -18 0
v -105 -18 0
v -103 -19 0
v -104 -19 0
v -104 -18 0
v -103 -18 0
v -45 -19 0
v -46 -19 0
v -46 -18 0
v -45 -18 0
v -12 -19 0
v -13 -19 0
v -13 -18 0
v -12 -18 0
v -11 -19 0
v -12 -19 0
v -12 -18 0
v -11 -18 0
v -10 -19 0
v -11 -19 0
v -11 -18 0
v -10 -18 0
v -9 -19 0
v -10 -19 0
v -10 -18 0
v -9 -18 0
v -8 -19 0
v -9 -19 0
v -9 -18 0
v -8 -18 0
v -7 -19 0
v -8 -19 0
v -8 -18 0
v -7 -18 0
v -106 -18 0
v -107 -18 0
v -107 -17 0
v -106 -17 0
v -105 -18 0
v -106 -18 0
v -106 -17 0
v -105 -17 0
v -103 -18 0
v -104 -18 0
v -104 -17 0
v -103 -17 0
v -12 -18 0
v -13 -18 0
v -13 -17 0
v -12 -17 0
v -11 -18 0
v -12 -18 0
v -12 -17 0
v -11 -17 0
v -7 -18 0
v -8 -18 0
v -8 -17 0
v -7 -17 0
v -44 -17 0
v -45 -17 0
v -45 -16 0
v -44 -16 0
v -43 -17 0
v -44 -17 0
v -44 -16 0
v -43 -16 0
v -42 -17 0
v -43 -17 0
v -43 -16 0
v -42 -16 0
v -44 -16 0
v -45 -16 0
v -45 -15 0
v -44 -15 0
v -43 -16 0
v -44 -16 0
v -44 -15 0
v -43 -15 0
v -42 -16 0
v -43 -16 0
v -43 -15 0
v -42 -15 0
v -44 -15 0
v -45 -15 0
v -45 -14 0
v -44 -14 0
v -43 -15 0
v -44 -15 0
v -44 -14 0
v -43 -14 0
v -42 -15 0
v -43 -15 0
v -43 -14 0
v -42 -14 0

# Texture cooridinates (Count = 178)
vt 0.9166667 0.7333333
vt 0.9333333 0.7333333
vt 0.9333333 0.75
vt 0.9166667 0.75
vt 0.9 0.7333333
vt 0.9 0.75
vt 0.8833333 0.7333333
vt 0.8833333 0.75
vt 0.7833334 0.75
vt 0.8 0.75
vt 0.8 0.7666667
vt 0.7833334 0.7666667
vt 0.7666667 0.75
vt 0.7666667 0.7666667
vt 0.9333333 0.7666667
vt 0.9166667 0.7666667
vt 0.9 0.7666667
vt 0.8833333 0.7666667
vt 0.8 0.7833333
vt 0.7833334 0.7833333
vt 0.7666667 0.7833333
vt 0.8 0.8
vt 0.7833334 0.8
vt 0.7666667 0.8
vt 0.8166667 0.75
vt 0.8333333 0.75
vt 0.8333333 0.7666667
vt 0.8166667 0.7666667
vt 0.8333333 0.7833333
vt 0.8166667 0.7833333
vt 0.8333333 0.8
vt 0.8166667 0.8
vt 0.9333333 0.7833333
vt 0.9166667 0.7833333
vt 0.9 0.7833333
vt 0.8833333 0.7833333
vt 0.7833334 0.9166667
vt 0.8 0.9166667
vt 0.8 0.9333333
vt 0.7833334 0.9333333
vt 0.8 0.95
vt 0.7833334 0.95
vt 0.7833334 0.8833333
vt 0.8 0.8833333
vt 0.8 0.9
vt 0.7833334 0.9
vt 0.9166667 0.6333333
vt 0.9333333 0.6333333
vt 0.9333333 0.65
vt 0.9166667 0.65
vt 0.8833333 0.9
vt 0.9 0.9
vt 0.9 0.9166667
vt 0.8833333 0.9166667
vt 0.9333333 0.7
vt 0.95 0.7
vt 0.95 0.7166667
vt 0.9333333 0.7166667
vt 0.9166667 0.7
vt 0.9166667 0.7166667
vt 0.95 0.7333333
vt 0.75 0.7
vt 0.7666667 0.7
vt 0.7666667 0.7166667
vt 0.75 0.7166667
vt 0.7333333 0.7
vt 0.7333333 0.7166667
vt 0.7166666 0.7
vt 0.7166666 0.7166667
vt 0.7666667 0.7333333
vt 0.75 0.7333333
vt 0.7333333 0.7333333
vt 0.7166666 0.7333333
vt 0.95 0.9166667
vt 0.9666666 0.9166667
vt 0.9666666 0.9333333
vt 0.95 0.9333333
vt 0.9666666 0.95
vt 0.95 0.95
vt 0.9 0.55
vt 0.9166667 0.55
vt 0.9166667 0.5666667
vt 0.9 0.5666667
vt 0.9333333 0.9666666
vt 0.95 0.9666666
vt 0.95 0.9833333
vt 0.9333333 0.9833333
vt 0.9833333 0.9166667
vt 0.9833333 0.9333333
vt 0.7166666 0.7666667
vt 0.7333333 0.7666667
vt 0.7333333 0.7833333
vt 0.7166666 0.7833333
vt 0.7166666 0.75
vt 0.7333333 0.75
vt 0.9 0.9333333
vt 0.8833333 0.9333333
vt 0.9 0.95
vt 0.8833333 0.95
vt 0.95 0.7833333
vt 0.9666666 0.7833333
vt 0.9666666 0.8
vt 0.95 0.8
vt 0.9333333 0.8
vt 0.9833333 0.95
vt 0.6833333 0.95
vt 0.7 0.95
vt 0.7 0.9666666
vt 0.6833333 0.9666666
vt 0.6666667 0.95
vt 0.6666667 0.9666666
vt 0.6333333 0.7833333
vt 0.65 0.7833333
vt 0.65 0.8
vt 0.6333333 0.8
vt 0.6166667 0.7833333
vt 0.6166667 0.8
vt 0.6833333 0.85
vt 0.7 0.85
vt 0.7 0.8666667
vt 0.6833333 0.8666667
vt 0.65 0.8166667
vt 0.6333333 0.8166667
vt 0.6166667 0.8166667
vt 0.7166666 0.9166667
vt 0.7333333 0.9166667
vt 0.7333333 0.9333333
vt 0.7166666 0.9333333
vt 0.65 0.8333333
vt 0.6333333 0.8333333
vt 0.6166667 0.8333333
vt 0.7333333 0.95
vt 0.7166666 0.95
vt 0.7166666 0.8833333
vt 0.7333333 0.8833333
vt 0.7333333 0.9
vt 0.7166666 0.9
vt 0.7166666 0.85
vt 0.7166666 0.8666667
vt 0.7 0.8833333
vt 0.7 0.7333333
vt 0.7 0.75
vt 0.9 0.7
vt 0.9 0.7166667
vt 0.85 0.95
vt 0.8666667 0.95
vt 0.8666667 0.9666666
vt 0.85 0.9666666
vt 0.8333333 0.95
vt 0.8333333 0.9666666
vt 0.8 0.6666666
vt 0.8166667 0.6666666
vt 0.8166667 0.6833333
vt 0.8 0.6833333
vt 0.7833334 0.6666666
vt 0.7833334 0.6833333
vt 0.7 0.7666667
vt 0.8666667 0.9833333
vt 0.85 0.9833333
vt 0.8333333 0.9833333
vt 0.8166667 0.7
vt 0.8 0.7
vt 0.7833334 0.7
vt 0.7 0.7833333
vt 0.9666666 0.6166667
vt 0.9833333 0.6166667
vt 0.9833333 0.6333333
vt 0.9666666 0.6333333
vt 0.95 0.6166667
vt 0.95 0.6333333
vt 0.9333333 0.6166667
vt 0.9833333 0.65
vt 0.9666666 0.65
vt 0.95 0.65
vt 0.9833333 0.6666666
vt 0.9666666 0.6666666
vt 0.95 0.6666666
vt 0.9333333 0.6666666

# Normal
vn 0 0 -1

# Mesh description
g icmc_mesh_0022

# Faces
f 1/1/1 2/2/1 3/3/1 4/4/1
f 5/5/1 6/1/1 7/4/1 8/6/1
f 9/7/1 10/5/1 11/6/1 12/8/1
f 13/9/1 14/10/1 15/11/1 16/12/1
f 17/13/1 18/9/1 19/12/1 20/14/1
f 21/4/1 22/3/1 23/15/1 24/16/1
f 25/6/1 26/4/1 27/16/1 28/17/1
f 29/8/1 30/6/1 31/17/1 32/18/1
f 33/12/1 34/11/1 35/19/1 36/20/1
f 37/14/1 38/12/1 39/20/1 40/21/1
f 41/4/1 42/3/1 43/15/1 44/16/1
f 45/6/1 46/4/1 47/16/1 48/17/1
f 49/8/1 50/6/1 51/17/1 52/18/1
f 53/20/1 54/19/1 55/22/1 56/23/1
f 57/21/1 58/20/1 59/23/1 60/24/1
f 61/4/1 62/3/1 63/15/1 64/16/1
f 65/6/1 66/4/1 67/16/1 68/17/1
f 69/8/1 70/6/1 71/17/1 72/18/1
f 73/25/1 74/26/1 75/27/1 76/28/1
f 77/10/1 78/25/1 79/28/1 80/11/1
f 81/4/1 82/3/1 83/15/1 84/16/1
f 85/6/1 86/4/1 87/16/1 88/17/1
f 89/8/1 90/6/1 91/17/1 92/18/1
f 93/9/1 94/10/1 95/11/1 96/12/1
f 97/13/1 98/9/1 99/12/1 100/14/1
f 101/28/1 102/27/1 103/29/1 104/30/1
f 105/11/1 106/28/1 107/30/1 108/19/1
f 109/4/1 110/3/1 111/15/1 112/16/1
f 113/6/1 114/4/1 115/16/1 116/17/1
f 117/8/1 118/6/1 119/17/1 120/18/1
f 121/12/1 122/11/1 123/19/1 124/20/1
f 125/14/1 126/12/1 127/20/1 128/21/1
f 129/30/1 130/29/1 131/31/1 132/32/1
f 133/19/1 134/30/1 135/32/1 136/22/1
f 137/16/1 138/15/1 139/33/1 140/34/1
f 141/17/1 142/16/1 143/34/1 144/35/1
f 145/18/1 146/17/1 147/35/1 148/36/1
f 149/20/1 150/19/1 151/22/1 152/23/1
f 153/21/1 154/20/1 155/23/1 156/24/1
f 157/37/1 158/38/1 159/39/1 160/40/1
f 161/37/1 162/38/1 163/39/1 164/40/1
f 165/40/1 166/39/1 167/41/1 168/42/1
f 169/40/1 170/39/1 171/41/1 172/42/1
f 173/43/1 174/44/1 175/45/1 176/46/1
f 177/43/1 178/44/1 179/45/1 180/46/1
f 181/47/1 182/48/1 183/49/1 184/50/1
f 185/46/1 186/45/1 187/38/1 188/37/1
f 189/46/1 190/45/1 191/38/1 192/37/1
f 193/47/1 194/48/1 195/49/1 196/50/1
f 197/51/1 198/52/1 199/53/1 200/54/1
f 201/47/1 202/48/1 203/49/1 204/50/1
f 205/47/1 206/48/1 207/49/1 208/50/1
f 209/47/1 210/48/1 211/49/1 212/50/1
f 213/55/1 214/56/1 215/57/1 216/58/1
f 217/59/1 218/55/1 219/58/1 220/60/1
f 221/47/1 222/48/1 223/49/1 224/50/1
f 225/58/1 226/57/1 227/61/1 228/2/1
f 229/60/1 230/58/1 231/2/1 232/1/1
f 233/47/1 234/48/1 235/49/1 236/50/1
f 237/47/1 238/48/1 239/49/1 240/50/1
f 241/62/1 242/63/1 243/64/1 244/65/1
f 245/66/1 246/62/1 247/65/1 248/67/1
f 249/66/1 250/62/1 251/65/1 252/67/1
f 253/68/1 254/66/1 255/67/1 256/69/1
f 257/47/1 258/48/1 259/49/1 260/50/1
f 261/65/1 262/64/1 263/70/1 264/71/1
f 265/67/1 266/65/1 267/71/1 268/72/1
f 269/67/1 270/65/1 271/71/1 272/72/1
f 273/69/1 274/67/1 275/72/1 276/73/1
f 277/47/1 278/48/1 279/49/1 280/50/1
f 281/74/1 282/75/1 283/76/1 284/77/1
f 285/47/1 286/48/1 287/49/1 288/50/1
f 289/77/1 290/76/1 291/78/1 292/79/1
f 293/47/1 294/48/1 295/49/1 296/50/1
f 297/74/1 298/75/1 299/76/1 300/77/1
f 301/80/1 302/81/1 303/82/1 304/83/1
f 305/77/1 306/76/1 307/78/1 308/79/1
f 309/84/1 310/85/1 311/86/1 312/87/1
f 313/84/1 314/85/1 315/86/1 316/87/1
f 317/84/1 318/85/1 319/86/1 320/87/1
f 321/84/1 322/85/1 323/86/1 324/87/1
f 325/75/1 326/88/1 327/89/1 328/76/1
f 329/90/1 330/91/1 331/92/1 332/93/1
f 333/94/1 334/95/1 335/91/1 336/90/1
f 337/54/1 338/53/1 339/96/1 340/97/1
f 341/90/1 342/91/1 343/92/1 344/93/1
f 345/97/1 346/96/1 347/98/1 348/99/1
f 349/94/1 350/95/1 351/91/1 352/90/1
f 353/94/1 354/95/1 355/91/1 356/90/1
f 357/94/1 358/95/1 359/91/1 360/90/1
f 361/75/1 362/88/1 363/89/1 364/76/1
f 365/100/1 366/101/1 367/102/1 368/103/1
f 369/33/1 370/100/1 371/103/1 372/104/1
f 373/100/1 374/101/1 375/102/1 376/103/1
f 377/33/1 378/100/1 379/103/1 380/104/1
f 381/76/1 382/89/1 383/105/1 384/78/1
f 385/106/1 386/107/1 387/108/1 388/109/1
f 389/110/1 390/106/1 391/109/1 392/111/1
f 393/106/1 394/107/1 395/108/1 396/109/1
f 397/110/1 398/106/1 399/109/1 400/111/1
f 401/112/1 402/113/1 403/114/1 404/115/1
f 405/116/1 406/112/1 407/115/1 408/117/1
f 409/112/1 410/113/1 411/114/1 412/115/1
f 413/116/1 414/112/1 415/115/1 416/117/1
f 417/112/1 418/113/1 419/114/1 420/115/1
f 421/116/1 422/112/1 423/115/1 424/117/1
f 425/118/1 426/119/1 427/120/1 428/121/1
f 429/54/1 430/53/1 431/96/1 432/97/1
f 433/115/1 434/114/1 435/122/1 436/123/1
f 437/117/1 438/115/1 439/123/1 440/124/1
f 441/115/1 442/114/1 443/122/1 444/123/1
f 445/117/1 446/115/1 447/123/1 448/124/1
f 449/115/1 450/114/1 451/122/1 452/123/1
f 453/117/1 454/115/1 455/123/1 456/124/1
f 457/125/1 458/126/1 459/127/1 460/128/1
f 461/75/1 462/88/1 463/89/1 464/76/1
f 465/97/1 466/96/1 467/98/1 468/99/1
f 469/123/1 470/122/1 471/129/1 472/130/1
f 473/124/1 474/123/1 475/130/1 476/131/1
f 477/123/1 478/122/1 479/129/1 480/130/1
f 481/124/1 482/123/1 483/130/1 484/131/1
f 485/123/1 486/122/1 487/129/1 488/130/1
f 489/124/1 490/123/1 491/130/1 492/131/1
f 493/125/1 494/126/1 495/127/1 496/128/1
f 497/76/1 498/89/1 499/105/1 500/78/1
f 501/84/1 502/85/1 503/86/1 504/87/1
f 505/84/1 506/85/1 507/86/1 508/87/1
f 509/84/1 510/85/1 511/86/1 512/87/1
f 513/84/1 514/85/1 515/86/1 516/87/1
f 517/84/1 518/85/1 519/86/1 520/87/1
f 521/84/1 522/85/1 523/86/1 524/87/1
f 525/84/1 526/85/1 527/86/1 528/87/1
f 529/84/1 530/85/1 531/86/1 532/87/1
f 533/84/1 534/85/1 535/86/1 536/87/1
f 537/84/1 538/85/1 539/86/1 540/87/1
f 541/84/1 542/85/1 543/86/1 544/87/1
f 545/112/1 546/113/1 547/114/1 548/115/1
f 549/116/1 550/112/1 551/115/1 552/117/1
f 553/112/1 554/113/1 555/114/1 556/115/1
f 557/116/1 558/112/1 559/115/1 560/117/1
f 561/112/1 562/113/1 563/114/1 564/115/1
f 565/116/1 566/112/1 567/115/1 568/117/1
f 569/128/1 570/127/1 571/132/1 572/133/1
f 573/115/1 574/114/1 575/122/1 576/123/1
f 577/117/1 578/115/1 579/123/1 580/124/1
f 581/115/1 582/114/1 583/122/1 584/123/1
f 585/117/1 586/115/1 587/123/1 588/124/1
f 589/115/1 590/114/1 591/122/1 592/123/1
f 593/117/1 594/115/1 595/123/1 596/124/1
f 597/123/1 598/122/1 599/129/1 600/130/1
f 601/124/1 602/123/1 603/130/1 604/131/1
f 605/123/1 606/122/1 607/129/1 608/130/1
f 609/124/1 610/123/1 611/130/1 612/131/1
f 613/123/1 614/122/1 615/129/1 616/130/1
f 617/124/1 618/123/1 619/130/1 620/131/1
f 621/134/1 622/135/1 623/136/1 624/137/1
f 625/119/1 626/138/1 627/139/1 628/120/1
f 629/137/1 630/136/1 631/126/1 632/125/1
f 633/120/1 634/139/1 635/134/1 636/140/1
f 637/75/1 638/88/1 639/89/1 640/76/1
f 641/141/1 642/73/1 643/94/1 644/142/1
f 645/143/1 646/59/1 647/60/1 648/144/1
f 649/145/1 650/146/1 651/147/1 652/148/1
f 653/149/1 654/145/1 655/148/1 656/150/1
f 657/125/1 658/126/1 659/127/1 660/128/1
f 661/76/1 662/89/1 663/105/1 664/78/1
f 665/151/1 666/152/1 667/153/1 668/154/1
f 669/155/1 670/151/1 671/154/1 672/156/1
f 673/143/1 674/59/1 675/60/1 676/144/1
f 677/106/1 678/107/1 679/108/1 680/109/1
f 681/110/1 682/106/1 683/109/1 684/111/1
f 685/142/1 686/94/1 687/90/1 688/157/1
f 689/148/1 690/147/1 691/158/1 692/159/1
f 693/150/1 694/148/1 695/159/1 696/160/1
f 697/128/1 698/127/1 699/132/1 700/133/1
f 701/154/1 702/153/1 703/161/1 704/162/1
f 705/156/1 706/154/1 707/162/1 708/163/1
f 709/157/1 710/90/1 711/93/1 712/164/1
f 713/165/1 714/166/1 715/167/1 716/168/1
f 717/169/1 718/165/1 719/168/1 720/170/1
f 721/171/1 722/169/1 723/170/1 724/48/1
f 725/168/1 726/167/1 727/172/1 728/173/1
f 729/170/1 730/168/1 731/173/1 732/174/1
f 733/48/1 734/170/1 735/174/1 736/49/1
f 737/173/1 738/172/1 739/175/1 740/176/1
f 741/174/1 742/173/1 743/176/1 744/177/1
f 745/49/1 746/174/1 747/177/1 748/178/1

