# Tiled2Unity generated file. Do not modify by hand.
# Wavefront file for 'icmc_mesh_0322.obj'

# Vertices (Count = 8)
v -240 -224 0
v -256 -224 0
v -256 -208 0
v -240 -208 0
v -240 -240 0
v -256 -240 0
v -256 -224 0
v -240 -224 0

# Texture cooridinates (Count = 6)
vt 0.8666667 0.8166667
vt 0.8833333 0.8166667
vt 0.8833333 0.8333333
vt 0.8666667 0.8333333
vt 0.8666667 0.8
vt 0.8833333 0.8

# Normal
vn 0 0 -1

# Mesh description
g icmc_mesh_0322

# Faces
f 1/1/1 2/2/1 3/3/1 4/4/1
f 5/5/1 6/6/1 7/2/1 8/1/1

