# Tiled2Unity generated file. Do not modify by hand.
# Wavefront file for 'icmc_mesh_0376.obj'

# Vertices (Count = 40)
v -32 -16 0
v -48 -16 0
v -48 0 0
v -32 0 0
v -16 -32 0
v -32 -32 0
v -32 -16 0
v -16 -16 0
v -32 -32 0
v -48 -32 0
v -48 -16 0
v -32 -16 0
v -48 -32 0
v -64 -32 0
v -64 -16 0
v -48 -16 0
v -32 -48 0
v -48 -48 0
v -48 -32 0
v -32 -32 0
v -128 -48 0
v -144 -48 0
v -144 -32 0
v -128 -32 0
v -112 -64 0
v -128 -64 0
v -128 -48 0
v -112 -48 0
v -128 -64 0
v -144 -64 0
v -144 -48 0
v -128 -48 0
v -144 -64 0
v -160 -64 0
v -160 -48 0
v -144 -48 0
v -128 -80 0
v -144 -80 0
v -144 -64 0
v -128 -64 0

# Texture cooridinates (Count = 6)
vt 0.75 0.3076923
vt 0.875 0.3076923
vt 0.875 0.3111888
vt 0.75 0.3111888
vt 0.875 0.3146853
vt 0.75 0.3146853

# Normal
vn 0 0 -1

# Mesh description
g icmc_mesh_0376

# Faces
f 1/1/1 2/2/1 3/3/1 4/4/1
f 5/1/1 6/2/1 7/3/1 8/4/1
f 9/4/1 10/3/1 11/5/1 12/6/1
f 13/1/1 14/2/1 15/3/1 16/4/1
f 17/1/1 18/2/1 19/3/1 20/4/1
f 21/1/1 22/2/1 23/3/1 24/4/1
f 25/1/1 26/2/1 27/3/1 28/4/1
f 29/4/1 30/3/1 31/5/1 32/6/1
f 33/1/1 34/2/1 35/3/1 36/4/1
f 37/1/1 38/2/1 39/3/1 40/4/1

