# Tiled2Unity generated file. Do not modify by hand.
# Wavefront file for 'icmc_mesh_0158.obj'

# Vertices (Count = 128)
v 0 -80 0
v -16 -80 0
v -16 -64 0
v 0 -64 0
v -16 -80 0
v -32 -80 0
v -32 -64 0
v -16 -64 0
v -32 -80 0
v -48 -80 0
v -48 -64 0
v -32 -64 0
v -48 -80 0
v -64 -80 0
v -64 -64 0
v -48 -64 0
v -64 -80 0
v -80 -80 0
v -80 -64 0
v -64 -64 0
v -80 -80 0
v -96 -80 0
v -96 -64 0
v -80 -64 0
v -96 -80 0
v -112 -80 0
v -112 -64 0
v -96 -64 0
v -112 -80 0
v -128 -80 0
v -128 -64 0
v -112 -64 0
v -128 -80 0
v -144 -80 0
v -144 -64 0
v -128 -64 0
v -144 -80 0
v -160 -80 0
v -160 -64 0
v -144 -64 0
v -160 -80 0
v -176 -80 0
v -176 -64 0
v -160 -64 0
v -176 -80 0
v -192 -80 0
v -192 -64 0
v -176 -64 0
v -192 -80 0
v -208 -80 0
v -208 -64 0
v -192 -64 0
v -208 -80 0
v -224 -80 0
v -224 -64 0
v -208 -64 0
v -224 -80 0
v -240 -80 0
v -240 -64 0
v -224 -64 0
v -240 -80 0
v -256 -80 0
v -256 -64 0
v -240 -64 0
v 0 -96 0
v -16 -96 0
v -16 -80 0
v 0 -80 0
v -16 -96 0
v -32 -96 0
v -32 -80 0
v -16 -80 0
v -32 -96 0
v -48 -96 0
v -48 -80 0
v -32 -80 0
v -48 -96 0
v -64 -96 0
v -64 -80 0
v -48 -80 0
v -64 -96 0
v -80 -96 0
v -80 -80 0
v -64 -80 0
v -80 -96 0
v -96 -96 0
v -96 -80 0
v -80 -80 0
v -96 -96 0
v -112 -96 0
v -112 -80 0
v -96 -80 0
v -112 -96 0
v -128 -96 0
v -128 -80 0
v -112 -80 0
v -128 -96 0
v -144 -96 0
v -144 -80 0
v -128 -80 0
v -144 -96 0
v -160 -96 0
v -160 -80 0
v -144 -80 0
v -160 -96 0
v -176 -96 0
v -176 -80 0
v -160 -80 0
v -176 -96 0
v -192 -96 0
v -192 -80 0
v -176 -80 0
v -192 -96 0
v -208 -96 0
v -208 -80 0
v -192 -80 0
v -208 -96 0
v -224 -96 0
v -224 -80 0
v -208 -80 0
v -224 -96 0
v -240 -96 0
v -240 -80 0
v -224 -80 0
v -240 -96 0
v -256 -96 0
v -256 -80 0
v -240 -80 0

# Texture cooridinates (Count = 12)
vt 0.275 0.7761905
vt 0.2833333 0.7761905
vt 0.2833333 0.7809524
vt 0.275 0.7809524
vt 0.3 0.7761905
vt 0.3083333 0.7761905
vt 0.3083333 0.7809524
vt 0.3 0.7809524
vt 0.275 0.7714286
vt 0.2833333 0.7714286
vt 0.3 0.7714286
vt 0.3083333 0.7714286

# Normal
vn 0 0 -1

# Mesh description
g icmc_mesh_0158

# Faces
f 1/1/1 2/2/1 3/3/1 4/4/1
f 5/1/1 6/2/1 7/3/1 8/4/1
f 9/1/1 10/2/1 11/3/1 12/4/1
f 13/1/1 14/2/1 15/3/1 16/4/1
f 17/1/1 18/2/1 19/3/1 20/4/1
f 21/1/1 22/2/1 23/3/1 24/4/1
f 25/1/1 26/2/1 27/3/1 28/4/1
f 29/1/1 30/2/1 31/3/1 32/4/1
f 33/1/1 34/2/1 35/3/1 36/4/1
f 37/1/1 38/2/1 39/3/1 40/4/1
f 41/1/1 42/2/1 43/3/1 44/4/1
f 45/1/1 46/2/1 47/3/1 48/4/1
f 49/1/1 50/2/1 51/3/1 52/4/1
f 53/1/1 54/2/1 55/3/1 56/4/1
f 57/1/1 58/2/1 59/3/1 60/4/1
f 61/5/1 62/6/1 63/7/1 64/8/1
f 65/9/1 66/10/1 67/2/1 68/1/1
f 69/9/1 70/10/1 71/2/1 72/1/1
f 73/9/1 74/10/1 75/2/1 76/1/1
f 77/9/1 78/10/1 79/2/1 80/1/1
f 81/9/1 82/10/1 83/2/1 84/1/1
f 85/9/1 86/10/1 87/2/1 88/1/1
f 89/9/1 90/10/1 91/2/1 92/1/1
f 93/9/1 94/10/1 95/2/1 96/1/1
f 97/9/1 98/10/1 99/2/1 100/1/1
f 101/9/1 102/10/1 103/2/1 104/1/1
f 105/9/1 106/10/1 107/2/1 108/1/1
f 109/9/1 110/10/1 111/2/1 112/1/1
f 113/9/1 114/10/1 115/2/1 116/1/1
f 117/9/1 118/10/1 119/2/1 120/1/1
f 121/9/1 122/10/1 123/2/1 124/1/1
f 125/11/1 126/12/1 127/6/1 128/5/1

