# Tiled2Unity generated file. Do not modify by hand.
# Wavefront file for 'icmc_mesh_0190.obj'

# Vertices (Count = 12)
v -48 -48 0
v -64 -48 0
v -64 -32 0
v -48 -32 0
v -160 -48 0
v -176 -48 0
v -176 -32 0
v -160 -32 0
v -176 -48 0
v -192 -48 0
v -192 -32 0
v -176 -32 0

# Texture cooridinates (Count = 4)
vt 0.2833333 0.9333333
vt 0.3 0.9333333
vt 0.3 0.95
vt 0.2833333 0.95

# Normal
vn 0 0 -1

# Mesh description
g icmc_mesh_0190

# Faces
f 1/1/1 2/2/1 3/3/1 4/4/1
f 5/1/1 6/2/1 7/3/1 8/4/1
f 9/1/1 10/2/1 11/3/1 12/4/1

