# Tiled2Unity generated file. Do not modify by hand.
# Wavefront file for 'icmc_mesh_0252.obj'

# Vertices (Count = 36)
v -48 -64 0
v -64 -64 0
v -64 -48 0
v -48 -48 0
v -192 -64 0
v -208 -64 0
v -208 -48 0
v -192 -48 0
v -208 -64 0
v -224 -64 0
v -224 -48 0
v -208 -48 0
v -48 -80 0
v -64 -80 0
v -64 -64 0
v -48 -64 0
v -192 -80 0
v -208 -80 0
v -208 -64 0
v -192 -64 0
v -208 -80 0
v -224 -80 0
v -224 -64 0
v -208 -64 0
v -48 -96 0
v -64 -96 0
v -64 -80 0
v -48 -80 0
v -48 -112 0
v -64 -112 0
v -64 -96 0
v -48 -96 0
v -48 -128 0
v -64 -128 0
v -64 -112 0
v -48 -112 0

# Texture cooridinates (Count = 21)
vt 0.375 0.2762238
vt 0.5 0.2762238
vt 0.5 0.2797203
vt 0.375 0.2797203
vt 0.5 0.6573427
vt 0.625 0.6573427
vt 0.625 0.6608392
vt 0.5 0.6608392
vt 0.75 0.6573427
vt 0.75 0.6608392
vt 0.375 0.2727273
vt 0.5 0.2727273
vt 0.5 0.6538461
vt 0.625 0.6538461
vt 0.75 0.6538461
vt 0.875 0.3041958
vt 1 0.3041958
vt 1 0.3076923
vt 0.875 0.3076923
vt 0.875 0.3006993
vt 1 0.3006993

# Normal
vn 0 0 -1

# Mesh description
g icmc_mesh_0252

# Faces
f 1/1/1 2/2/1 3/3/1 4/4/1
f 5/5/1 6/6/1 7/7/1 8/8/1
f 9/6/1 10/9/1 11/10/1 12/7/1
f 13/11/1 14/12/1 15/2/1 16/1/1
f 17/13/1 18/14/1 19/6/1 20/5/1
f 21/14/1 22/15/1 23/9/1 24/6/1
f 25/16/1 26/17/1 27/18/1 28/19/1
f 29/20/1 30/21/1 31/17/1 32/16/1
f 33/11/1 34/12/1 35/2/1 36/1/1

