# Tiled2Unity generated file. Do not modify by hand.
# Wavefront file for 'icmc_mesh_0205.obj'

# Vertices (Count = 412)
v 0 -16 0
v -16 -16 0
v -16 0 0
v 0 0 0
v -16 -16 0
v -32 -16 0
v -32 0 0
v -16 0 0
v -32 -16 0
v -48 -16 0
v -48 0 0
v -32 0 0
v -48 -16 0
v -64 -16 0
v -64 0 0
v -48 0 0
v -64 -16 0
v -80 -16 0
v -80 0 0
v -64 0 0
v -80 -16 0
v -96 -16 0
v -96 0 0
v -80 0 0
v -96 -16 0
v -112 -16 0
v -112 0 0
v -96 0 0
v -112 -16 0
v -128 -16 0
v -128 0 0
v -112 0 0
v -128 -16 0
v -144 -16 0
v -144 0 0
v -128 0 0
v -224 -16 0
v -240 -16 0
v -240 0 0
v -224 0 0
v -240 -16 0
v -256 -16 0
v -256 0 0
v -240 0 0
v 0 -32 0
v -16 -32 0
v -16 -16 0
v 0 -16 0
v -16 -32 0
v -32 -32 0
v -32 -16 0
v -16 -16 0
v -32 -32 0
v -48 -32 0
v -48 -16 0
v -32 -16 0
v -48 -32 0
v -64 -32 0
v -64 -16 0
v -48 -16 0
v -64 -32 0
v -80 -32 0
v -80 -16 0
v -64 -16 0
v -80 -32 0
v -96 -32 0
v -96 -16 0
v -80 -16 0
v -96 -32 0
v -112 -32 0
v -112 -16 0
v -96 -16 0
v -112 -32 0
v -128 -32 0
v -128 -16 0
v -112 -16 0
v -128 -32 0
v -144 -32 0
v -144 -16 0
v -128 -16 0
v -224 -32 0
v -240 -32 0
v -240 -16 0
v -224 -16 0
v -240 -32 0
v -256 -32 0
v -256 -16 0
v -240 -16 0
v 0 -48 0
v -16 -48 0
v -16 -32 0
v 0 -32 0
v -16 -48 0
v -32 -48 0
v -32 -32 0
v -16 -32 0
v -48 -48 0
v -64 -48 0
v -64 -32 0
v -48 -32 0
v -64 -48 0
v -80 -48 0
v -80 -32 0
v -64 -32 0
v -80 -48 0
v -96 -48 0
v -96 -32 0
v -80 -32 0
v -96 -48 0
v -112 -48 0
v -112 -32 0
v -96 -32 0
v -112 -48 0
v -128 -48 0
v -128 -32 0
v -112 -32 0
v -128 -48 0
v -144 -48 0
v -144 -32 0
v -128 -32 0
v -224 -48 0
v -240 -48 0
v -240 -32 0
v -224 -32 0
v -16 -64 0
v -32 -64 0
v -32 -48 0
v -16 -48 0
v -128 -64 0
v -144 -64 0
v -144 -48 0
v -128 -48 0
v -224 -64 0
v -240 -64 0
v -240 -48 0
v -224 -48 0
v -16 -80 0
v -32 -80 0
v -32 -64 0
v -16 -64 0
v -128 -80 0
v -144 -80 0
v -144 -64 0
v -128 -64 0
v -224 -80 0
v -240 -80 0
v -240 -64 0
v -224 -64 0
v -16 -96 0
v -32 -96 0
v -32 -80 0
v -16 -80 0
v -128 -96 0
v -144 -96 0
v -144 -80 0
v -128 -80 0
v -224 -96 0
v -240 -96 0
v -240 -80 0
v -224 -80 0
v -16 -112 0
v -32 -112 0
v -32 -96 0
v -16 -96 0
v -128 -112 0
v -144 -112 0
v -144 -96 0
v -128 -96 0
v -224 -112 0
v -240 -112 0
v -240 -96 0
v -224 -96 0
v 0 -128 0
v -16 -128 0
v -16 -112 0
v 0 -112 0
v -16 -128 0
v -32 -128 0
v -32 -112 0
v -16 -112 0
v -32 -128 0
v -48 -128 0
v -48 -112 0
v -32 -112 0
v -48 -128 0
v -64 -128 0
v -64 -112 0
v -48 -112 0
v -64 -128 0
v -80 -128 0
v -80 -112 0
v -64 -112 0
v -80 -128 0
v -96 -128 0
v -96 -112 0
v -80 -112 0
v -96 -128 0
v -112 -128 0
v -112 -112 0
v -96 -112 0
v -112 -128 0
v -128 -128 0
v -128 -112 0
v -112 -112 0
v -128 -128 0
v -144 -128 0
v -144 -112 0
v -128 -112 0
v -224 -128 0
v -240 -128 0
v -240 -112 0
v -224 -112 0
v 0 -144 0
v -16 -144 0
v -16 -128 0
v 0 -128 0
v -16 -144 0
v -32 -144 0
v -32 -128 0
v -16 -128 0
v -32 -144 0
v -48 -144 0
v -48 -128 0
v -32 -128 0
v -48 -144 0
v -64 -144 0
v -64 -128 0
v -48 -128 0
v -64 -144 0
v -80 -144 0
v -80 -128 0
v -64 -128 0
v -80 -144 0
v -96 -144 0
v -96 -128 0
v -80 -128 0
v -96 -144 0
v -112 -144 0
v -112 -128 0
v -96 -128 0
v -112 -144 0
v -128 -144 0
v -128 -128 0
v -112 -128 0
v -128 -144 0
v -144 -144 0
v -144 -128 0
v -128 -128 0
v -224 -144 0
v -240 -144 0
v -240 -128 0
v -224 -128 0
v -224 -160 0
v -240 -160 0
v -240 -144 0
v -224 -144 0
v -240 -160 0
v -256 -160 0
v -256 -144 0
v -240 -144 0
v -144 -176 0
v -160 -176 0
v -160 -160 0
v -144 -160 0
v -224 -176 0
v -240 -176 0
v -240 -160 0
v -224 -160 0
v -240 -176 0
v -256 -176 0
v -256 -160 0
v -240 -160 0
v -144 -192 0
v -160 -192 0
v -160 -176 0
v -144 -176 0
v -16 -208 0
v -32 -208 0
v -32 -192 0
v -16 -192 0
v -32 -208 0
v -48 -208 0
v -48 -192 0
v -32 -192 0
v -48 -208 0
v -64 -208 0
v -64 -192 0
v -48 -192 0
v -64 -208 0
v -80 -208 0
v -80 -192 0
v -64 -192 0
v -80 -208 0
v -96 -208 0
v -96 -192 0
v -80 -192 0
v -96 -208 0
v -112 -208 0
v -112 -192 0
v -96 -192 0
v -112 -208 0
v -128 -208 0
v -128 -192 0
v -112 -192 0
v -128 -208 0
v -144 -208 0
v -144 -192 0
v -128 -192 0
v -144 -208 0
v -160 -208 0
v -160 -192 0
v -144 -192 0
v -16 -224 0
v -32 -224 0
v -32 -208 0
v -16 -208 0
v -32 -224 0
v -48 -224 0
v -48 -208 0
v -32 -208 0
v -48 -224 0
v -64 -224 0
v -64 -208 0
v -48 -208 0
v -64 -224 0
v -80 -224 0
v -80 -208 0
v -64 -208 0
v -80 -224 0
v -96 -224 0
v -96 -208 0
v -80 -208 0
v -96 -224 0
v -112 -224 0
v -112 -208 0
v -96 -208 0
v -112 -224 0
v -128 -224 0
v -128 -208 0
v -112 -208 0
v -128 -224 0
v -144 -224 0
v -144 -208 0
v -128 -208 0
v -144 -224 0
v -160 -224 0
v -160 -208 0
v -144 -208 0
v -224 -224 0
v -240 -224 0
v -240 -208 0
v -224 -208 0
v -240 -224 0
v -256 -224 0
v -256 -208 0
v -240 -208 0
v -16 -240 0
v -32 -240 0
v -32 -224 0
v -16 -224 0
v -144 -240 0
v -160 -240 0
v -160 -224 0
v -144 -224 0
v -224 -240 0
v -240 -240 0
v -240 -224 0
v -224 -224 0
v -240 -240 0
v -256 -240 0
v -256 -224 0
v -240 -224 0
v -16 -256 0
v -32 -256 0
v -32 -240 0
v -16 -240 0
v -32 -256 0
v -48 -256 0
v -48 -240 0
v -32 -240 0
v -48 -256 0
v -64 -256 0
v -64 -240 0
v -48 -240 0
v -64 -256 0
v -80 -256 0
v -80 -240 0
v -64 -240 0
v -80 -256 0
v -96 -256 0
v -96 -240 0
v -80 -240 0
v -96 -256 0
v -112 -256 0
v -112 -240 0
v -96 -240 0
v -112 -256 0
v -128 -256 0
v -128 -240 0
v -112 -240 0
v -128 -256 0
v -144 -256 0
v -144 -240 0
v -128 -240 0
v -144 -256 0
v -160 -256 0
v -160 -240 0
v -144 -240 0
v -224 -256 0
v -240 -256 0
v -240 -240 0
v -224 -240 0

# Texture cooridinates (Count = 46)
vt 0.2833333 0.9666666
vt 0.3 0.9666666
vt 0.3 0.9833333
vt 0.2833333 0.9833333
vt 0.3166667 0.9666666
vt 0.3166667 0.9833333
vt 0.4 0.85
vt 0.4166667 0.85
vt 0.4166667 0.8666667
vt 0.4 0.8666667
vt 0.3666667 0.85
vt 0.3833333 0.85
vt 0.3833333 0.8666667
vt 0.3666667 0.8666667
vt 0.3833333 0.7
vt 0.4 0.7
vt 0.4 0.7166667
vt 0.3833333 0.7166667
vt 0.2833333 0.95
vt 0.3 0.95
vt 0.3166667 0.95
vt 0.3666667 0.6833333
vt 0.3833333 0.6833333
vt 0.3666667 0.7
vt 0.4 0.6833333
vt 0.2833333 0.9333333
vt 0.3 0.9333333
vt 0.3833333 0.8333333
vt 0.4 0.8333333
vt 0.4166667 0.8333333
vt 0.3833333 0.8166667
vt 0.4 0.8166667
vt 0.4166667 0.8166667
vt 0.3666667 0.8333333
vt 0.3666667 0.8833333
vt 0.3833333 0.8833333
vt 0.3833333 0.9
vt 0.3666667 0.9
vt 0.3666667 0.8166667
vt 0.3666667 0.7166667
vt 0.4 0.65
vt 0.4166667 0.65
vt 0.4166667 0.6666666
vt 0.4 0.6666666
vt 0.2833333 0.9166667
vt 0.3 0.9166667

# Normal
vn 0 0 -1

# Mesh description
g icmc_mesh_0205

# Faces
f 1/1/1 2/2/1 3/3/1 4/4/1
f 5/2/1 6/5/1 7/6/1 8/3/1
f 9/1/1 10/2/1 11/3/1 12/4/1
f 13/1/1 14/2/1 15/3/1 16/4/1
f 17/1/1 18/2/1 19/3/1 20/4/1
f 21/1/1 22/2/1 23/3/1 24/4/1
f 25/1/1 26/2/1 27/3/1 28/4/1
f 29/1/1 30/2/1 31/3/1 32/4/1
f 33/7/1 34/8/1 35/9/1 36/10/1
f 37/11/1 38/12/1 39/13/1 40/14/1
f 41/15/1 42/16/1 43/17/1 44/18/1
f 45/19/1 46/20/1 47/2/1 48/1/1
f 49/20/1 50/21/1 51/5/1 52/2/1
f 53/19/1 54/20/1 55/2/1 56/1/1
f 57/19/1 58/20/1 59/2/1 60/1/1
f 61/19/1 62/20/1 63/2/1 64/1/1
f 65/19/1 66/20/1 67/2/1 68/1/1
f 69/19/1 70/20/1 71/2/1 72/1/1
f 73/19/1 74/20/1 75/2/1 76/1/1
f 77/20/1 78/21/1 79/5/1 80/2/1
f 81/22/1 82/23/1 83/15/1 84/24/1
f 85/23/1 86/25/1 87/16/1 88/15/1
f 89/26/1 90/27/1 91/20/1 92/19/1
f 93/7/1 94/8/1 95/9/1 96/10/1
f 97/26/1 98/27/1 99/20/1 100/19/1
f 101/26/1 102/27/1 103/20/1 104/19/1
f 105/26/1 106/27/1 107/20/1 108/19/1
f 109/26/1 110/27/1 111/20/1 112/19/1
f 113/26/1 114/27/1 115/20/1 116/19/1
f 117/7/1 118/8/1 119/9/1 120/10/1
f 121/11/1 122/12/1 123/13/1 124/14/1
f 125/7/1 126/8/1 127/9/1 128/10/1
f 129/7/1 130/8/1 131/9/1 132/10/1
f 133/11/1 134/12/1 135/13/1 136/14/1
f 137/7/1 138/8/1 139/9/1 140/10/1
f 141/7/1 142/8/1 143/9/1 144/10/1
f 145/11/1 146/12/1 147/13/1 148/14/1
f 149/7/1 150/8/1 151/9/1 152/10/1
f 153/7/1 154/8/1 155/9/1 156/10/1
f 157/11/1 158/12/1 159/13/1 160/14/1
f 161/7/1 162/8/1 163/9/1 164/10/1
f 165/7/1 166/8/1 167/9/1 168/10/1
f 169/11/1 170/12/1 171/13/1 172/14/1
f 173/28/1 174/29/1 175/7/1 176/12/1
f 177/29/1 178/30/1 179/8/1 180/7/1
f 181/28/1 182/29/1 183/7/1 184/12/1
f 185/28/1 186/29/1 187/7/1 188/12/1
f 189/28/1 190/29/1 191/7/1 192/12/1
f 193/28/1 194/29/1 195/7/1 196/12/1
f 197/28/1 198/29/1 199/7/1 200/12/1
f 201/28/1 202/29/1 203/7/1 204/12/1
f 205/29/1 206/30/1 207/8/1 208/7/1
f 209/11/1 210/12/1 211/13/1 212/14/1
f 213/31/1 214/32/1 215/29/1 216/28/1
f 217/32/1 218/33/1 219/30/1 220/29/1
f 221/31/1 222/32/1 223/29/1 224/28/1
f 225/31/1 226/32/1 227/29/1 228/28/1
f 229/31/1 230/32/1 231/29/1 232/28/1
f 233/31/1 234/32/1 235/29/1 236/28/1
f 237/31/1 238/32/1 239/29/1 240/28/1
f 241/31/1 242/32/1 243/29/1 244/28/1
f 245/32/1 246/33/1 247/30/1 248/29/1
f 249/11/1 250/12/1 251/13/1 252/14/1
f 253/34/1 254/28/1 255/12/1 256/11/1
f 257/28/1 258/29/1 259/7/1 260/12/1
f 261/35/1 262/36/1 263/37/1 264/38/1
f 265/39/1 266/31/1 267/28/1 268/34/1
f 269/31/1 270/32/1 271/29/1 272/28/1
f 273/14/1 274/13/1 275/36/1 276/35/1
f 277/24/1 278/15/1 279/18/1 280/40/1
f 281/15/1 282/16/1 283/17/1 284/18/1
f 285/15/1 286/16/1 287/17/1 288/18/1
f 289/15/1 290/16/1 291/17/1 292/18/1
f 293/15/1 294/16/1 295/17/1 296/18/1
f 297/15/1 298/16/1 299/17/1 300/18/1
f 301/15/1 302/16/1 303/17/1 304/18/1
f 305/15/1 306/16/1 307/17/1 308/18/1
f 309/11/1 310/12/1 311/13/1 312/14/1
f 313/22/1 314/23/1 315/15/1 316/24/1
f 317/23/1 318/25/1 319/16/1 320/15/1
f 321/23/1 322/25/1 323/16/1 324/15/1
f 325/23/1 326/25/1 327/16/1 328/15/1
f 329/23/1 330/25/1 331/16/1 332/15/1
f 333/23/1 334/25/1 335/16/1 336/15/1
f 337/23/1 338/25/1 339/16/1 340/15/1
f 341/23/1 342/25/1 343/16/1 344/15/1
f 345/11/1 346/12/1 347/13/1 348/14/1
f 349/24/1 350/15/1 351/18/1 352/40/1
f 353/15/1 354/16/1 355/17/1 356/18/1
f 357/11/1 358/12/1 359/13/1 360/14/1
f 361/14/1 362/13/1 363/36/1 364/35/1
f 365/22/1 366/23/1 367/15/1 368/24/1
f 369/23/1 370/25/1 371/16/1 372/15/1
f 373/41/1 374/42/1 375/43/1 376/44/1
f 377/45/1 378/46/1 379/27/1 380/26/1
f 381/45/1 382/46/1 383/27/1 384/26/1
f 385/45/1 386/46/1 387/27/1 388/26/1
f 389/45/1 390/46/1 391/27/1 392/26/1
f 393/45/1 394/46/1 395/27/1 396/26/1
f 397/45/1 398/46/1 399/27/1 400/26/1
f 401/45/1 402/46/1 403/27/1 404/26/1
f 405/11/1 406/12/1 407/13/1 408/14/1
f 409/11/1 410/12/1 411/13/1 412/14/1

