# Tiled2Unity generated file. Do not modify by hand.
# Wavefront file for 'icmc_mesh_0356.obj'

# Vertices (Count = 8)
v -64 -160 0
v -80 -160 0
v -80 -144 0
v -64 -144 0
v -64 -176 0
v -80 -176 0
v -80 -160 0
v -64 -160 0

# Texture cooridinates (Count = 6)
vt 0.9666666 0.6285714
vt 0.975 0.6285714
vt 0.975 0.6333333
vt 0.9666666 0.6333333
vt 0.9666666 0.6238095
vt 0.975 0.6238095

# Normal
vn 0 0 -1

# Mesh description
g icmc_mesh_0356

# Faces
f 1/1/1 2/2/1 3/3/1 4/4/1
f 5/5/1 6/6/1 7/2/1 8/1/1

