# Tiled2Unity generated file. Do not modify by hand.
# Wavefront file for 'icmc_mesh_0042.obj'

# Vertices (Count = 112)
v -36 -51 0
v -37 -51 0
v -37 -50 0
v -36 -50 0
v -36 -50 0
v -37 -50 0
v -37 -49 0
v -36 -49 0
v -40 -48 0
v -41 -48 0
v -41 -47 0
v -40 -47 0
v -39 -48 0
v -40 -48 0
v -40 -47 0
v -39 -47 0
v -40 -47 0
v -41 -47 0
v -41 -46 0
v -40 -46 0
v -39 -47 0
v -40 -47 0
v -40 -46 0
v -39 -46 0
v -38 -47 0
v -39 -47 0
v -39 -46 0
v -38 -46 0
v -37 -47 0
v -38 -47 0
v -38 -46 0
v -37 -46 0
v -16 -47 0
v -17 -47 0
v -17 -46 0
v -16 -46 0
v -15 -47 0
v -16 -47 0
v -16 -46 0
v -15 -46 0
v -38 -46 0
v -39 -46 0
v -39 -45 0
v -38 -45 0
v -37 -46 0
v -38 -46 0
v -38 -45 0
v -37 -45 0
v -16 -46 0
v -17 -46 0
v -17 -45 0
v -16 -45 0
v -15 -46 0
v -16 -46 0
v -16 -45 0
v -15 -45 0
v -7 -30 0
v -8 -30 0
v -8 -29 0
v -7 -29 0
v -6 -30 0
v -7 -30 0
v -7 -29 0
v -6 -29 0
v -4 -30 0
v -5 -30 0
v -5 -29 0
v -4 -29 0
v -3 -30 0
v -4 -30 0
v -4 -29 0
v -3 -29 0
v -80 -29 0
v -81 -29 0
v -81 -28 0
v -80 -28 0
v -77 -29 0
v -78 -29 0
v -78 -28 0
v -77 -28 0
v -74 -29 0
v -75 -29 0
v -75 -28 0
v -74 -28 0
v -69 -29 0
v -70 -29 0
v -70 -28 0
v -69 -28 0
v -7 -29 0
v -8 -29 0
v -8 -28 0
v -7 -28 0
v -6 -29 0
v -7 -29 0
v -7 -28 0
v -6 -28 0
v -4 -29 0
v -5 -29 0
v -5 -28 0
v -4 -28 0
v -3 -29 0
v -4 -29 0
v -4 -28 0
v -3 -28 0
v -4 -28 0
v -5 -28 0
v -5 -27 0
v -4 -27 0
v -3 -28 0
v -4 -28 0
v -4 -27 0
v -3 -27 0

# Texture cooridinates (Count = 44)
vt 0.9 0.8666667
vt 0.9166667 0.8666667
vt 0.9166667 0.8833333
vt 0.9 0.8833333
vt 0.9166667 0.9
vt 0.9 0.9
vt 0.8 0.6666666
vt 0.8166667 0.6666666
vt 0.8166667 0.6833333
vt 0.8 0.6833333
vt 0.7833334 0.6666666
vt 0.7833334 0.6833333
vt 0.8166667 0.7
vt 0.8 0.7
vt 0.7833334 0.7
vt 0.9333333 0.8666667
vt 0.95 0.8666667
vt 0.95 0.8833333
vt 0.9333333 0.8833333
vt 0.8833333 0.8
vt 0.9 0.8
vt 0.9 0.8166667
vt 0.8833333 0.8166667
vt 0.8666667 0.8
vt 0.8666667 0.8166667
vt 0.95 0.9
vt 0.9333333 0.9
vt 0.9 0.8333333
vt 0.8833333 0.8333333
vt 0.8666667 0.8333333
vt 0.6333333 0.8833333
vt 0.65 0.8833333
vt 0.65 0.9
vt 0.6333333 0.9
vt 0.6166667 0.8833333
vt 0.6166667 0.9
vt 0.85 0.8
vt 0.85 0.8166667
vt 0.65 0.9166667
vt 0.6333333 0.9166667
vt 0.6166667 0.9166667
vt 0.9166667 0.85
vt 0.9333333 0.85
vt 0.9 0.85

# Normal
vn 0 0 -1

# Mesh description
g icmc_mesh_0042

# Faces
f 1/1/1 2/2/1 3/3/1 4/4/1
f 5/4/1 6/3/1 7/5/1 8/6/1
f 9/7/1 10/8/1 11/9/1 12/10/1
f 13/11/1 14/7/1 15/10/1 16/12/1
f 17/10/1 18/9/1 19/13/1 20/14/1
f 21/12/1 22/10/1 23/14/1 24/15/1
f 25/16/1 26/17/1 27/18/1 28/19/1
f 29/2/1 30/16/1 31/19/1 32/3/1
f 33/20/1 34/21/1 35/22/1 36/23/1
f 37/24/1 38/20/1 39/23/1 40/25/1
f 41/19/1 42/18/1 43/26/1 44/27/1
f 45/3/1 46/19/1 47/27/1 48/5/1
f 49/23/1 50/22/1 51/28/1 52/29/1
f 53/25/1 54/23/1 55/29/1 56/30/1
f 57/31/1 58/32/1 59/33/1 60/34/1
f 61/35/1 62/31/1 63/34/1 64/36/1
f 65/31/1 66/32/1 67/33/1 68/34/1
f 69/35/1 70/31/1 71/34/1 72/36/1
f 73/37/1 74/24/1 75/25/1 76/38/1
f 77/37/1 78/24/1 79/25/1 80/38/1
f 81/37/1 82/24/1 83/25/1 84/38/1
f 85/37/1 86/24/1 87/25/1 88/38/1
f 89/34/1 90/33/1 91/39/1 92/40/1
f 93/36/1 94/34/1 95/40/1 96/41/1
f 97/34/1 98/33/1 99/39/1 100/40/1
f 101/36/1 102/34/1 103/40/1 104/41/1
f 105/42/1 106/43/1 107/16/1 108/2/1
f 109/44/1 110/42/1 111/2/1 112/1/1

