# Tiled2Unity generated file. Do not modify by hand.
# Wavefront file for 'icmc_mesh_0209.obj'

# Vertices (Count = 160)
v -80 -16 0
v -96 -16 0
v -96 0 0
v -80 0 0
v -96 -16 0
v -112 -16 0
v -112 0 0
v -96 0 0
v -112 -16 0
v -128 -16 0
v -128 0 0
v -112 0 0
v -128 -16 0
v -144 -16 0
v -144 0 0
v -128 0 0
v -144 -16 0
v -160 -16 0
v -160 0 0
v -144 0 0
v -160 -16 0
v -176 -16 0
v -176 0 0
v -160 0 0
v -176 -16 0
v -192 -16 0
v -192 0 0
v -176 0 0
v -192 -16 0
v -208 -16 0
v -208 0 0
v -192 0 0
v -208 -16 0
v -224 -16 0
v -224 0 0
v -208 0 0
v -224 -16 0
v -240 -16 0
v -240 0 0
v -224 0 0
v -240 -16 0
v -256 -16 0
v -256 0 0
v -240 0 0
v -80 -32 0
v -96 -32 0
v -96 -16 0
v -80 -16 0
v -208 -32 0
v -224 -32 0
v -224 -16 0
v -208 -16 0
v -80 -48 0
v -96 -48 0
v -96 -32 0
v -80 -32 0
v -208 -48 0
v -224 -48 0
v -224 -32 0
v -208 -32 0
v -80 -64 0
v -96 -64 0
v -96 -48 0
v -80 -48 0
v -208 -64 0
v -224 -64 0
v -224 -48 0
v -208 -48 0
v -80 -80 0
v -96 -80 0
v -96 -64 0
v -80 -64 0
v -208 -80 0
v -224 -80 0
v -224 -64 0
v -208 -64 0
v -208 -96 0
v -224 -96 0
v -224 -80 0
v -208 -80 0
v -80 -112 0
v -96 -112 0
v -96 -96 0
v -80 -96 0
v -208 -112 0
v -224 -112 0
v -224 -96 0
v -208 -96 0
v -80 -128 0
v -96 -128 0
v -96 -112 0
v -80 -112 0
v -208 -128 0
v -224 -128 0
v -224 -112 0
v -208 -112 0
v -80 -144 0
v -96 -144 0
v -96 -128 0
v -80 -128 0
v -208 -144 0
v -224 -144 0
v -224 -128 0
v -208 -128 0
v -80 -160 0
v -96 -160 0
v -96 -144 0
v -80 -144 0
v -208 -160 0
v -224 -160 0
v -224 -144 0
v -208 -144 0
v -80 -176 0
v -96 -176 0
v -96 -160 0
v -80 -160 0
v -208 -176 0
v -224 -176 0
v -224 -160 0
v -208 -160 0
v -80 -192 0
v -96 -192 0
v -96 -176 0
v -80 -176 0
v -208 -192 0
v -224 -192 0
v -224 -176 0
v -208 -176 0
v -80 -208 0
v -96 -208 0
v -96 -192 0
v -80 -192 0
v -208 -208 0
v -224 -208 0
v -224 -192 0
v -208 -192 0
v -80 -224 0
v -96 -224 0
v -96 -208 0
v -80 -208 0
v -208 -224 0
v -224 -224 0
v -224 -208 0
v -208 -208 0
v -80 -240 0
v -96 -240 0
v -96 -224 0
v -80 -224 0
v -208 -240 0
v -224 -240 0
v -224 -224 0
v -208 -224 0
v -80 -256 0
v -96 -256 0
v -96 -240 0
v -80 -240 0
v -208 -256 0
v -224 -256 0
v -224 -240 0
v -208 -240 0

# Texture cooridinates (Count = 24)
vt 0.3666667 0.6833333
vt 0.3833333 0.6833333
vt 0.3833333 0.7
vt 0.3666667 0.7
vt 0.4 0.6833333
vt 0.4 0.7
vt 0.4166667 0.6833333
vt 0.4166667 0.7
vt 0.3666667 0.8666667
vt 0.3833333 0.8666667
vt 0.3833333 0.8833333
vt 0.3666667 0.8833333
vt 0.4 0.8666667
vt 0.4166667 0.8666667
vt 0.4166667 0.8833333
vt 0.4 0.8833333
vt 0.3833333 0.6666666
vt 0.4 0.6666666
vt 0.3833333 0.65
vt 0.4 0.65
vt 0.3833333 0.9
vt 0.3666667 0.9
vt 0.4 0.85
vt 0.4166667 0.85

# Normal
vn 0 0 -1

# Mesh description
g icmc_mesh_0209

# Faces
f 1/1/1 2/2/1 3/3/1 4/4/1
f 5/2/1 6/5/1 7/6/1 8/3/1
f 9/2/1 10/5/1 11/6/1 12/3/1
f 13/2/1 14/5/1 15/6/1 16/3/1
f 17/2/1 18/5/1 19/6/1 20/3/1
f 21/2/1 22/5/1 23/6/1 24/3/1
f 25/2/1 26/5/1 27/6/1 28/3/1
f 29/2/1 30/5/1 31/6/1 32/3/1
f 33/5/1 34/7/1 35/8/1 36/6/1
f 37/2/1 38/5/1 39/6/1 40/3/1
f 41/2/1 42/5/1 43/6/1 44/3/1
f 45/9/1 46/10/1 47/11/1 48/12/1
f 49/13/1 50/14/1 51/15/1 52/16/1
f 53/9/1 54/10/1 55/11/1 56/12/1
f 57/13/1 58/14/1 59/15/1 60/16/1
f 61/17/1 62/18/1 63/5/1 64/2/1
f 65/13/1 66/14/1 67/15/1 68/16/1
f 69/19/1 70/20/1 71/18/1 72/17/1
f 73/13/1 74/14/1 75/15/1 76/16/1
f 77/13/1 78/14/1 79/15/1 80/16/1
f 81/12/1 82/11/1 83/21/1 84/22/1
f 85/13/1 86/14/1 87/15/1 88/16/1
f 89/9/1 90/10/1 91/11/1 92/12/1
f 93/23/1 94/24/1 95/14/1 96/13/1
f 97/9/1 98/10/1 99/11/1 100/12/1
f 101/23/1 102/24/1 103/14/1 104/13/1
f 105/9/1 106/10/1 107/11/1 108/12/1
f 109/23/1 110/24/1 111/14/1 112/13/1
f 113/9/1 114/10/1 115/11/1 116/12/1
f 117/23/1 118/24/1 119/14/1 120/13/1
f 121/9/1 122/10/1 123/11/1 124/12/1
f 125/23/1 126/24/1 127/14/1 128/13/1
f 129/9/1 130/10/1 131/11/1 132/12/1
f 133/23/1 134/24/1 135/14/1 136/13/1
f 137/9/1 138/10/1 139/11/1 140/12/1
f 141/23/1 142/24/1 143/14/1 144/13/1
f 145/9/1 146/10/1 147/11/1 148/12/1
f 149/23/1 150/24/1 151/14/1 152/13/1
f 153/9/1 154/10/1 155/11/1 156/12/1
f 157/23/1 158/24/1 159/14/1 160/13/1

