# Tiled2Unity generated file. Do not modify by hand.
# Wavefront file for 'icmc_mesh_0211.obj'

# Vertices (Count = 408)
v -224 -16 0
v -240 -16 0
v -240 0 0
v -224 0 0
v -240 -16 0
v -256 -16 0
v -256 0 0
v -240 0 0
v -224 -32 0
v -240 -32 0
v -240 -16 0
v -224 -16 0
v -240 -32 0
v -256 -32 0
v -256 -16 0
v -240 -16 0
v -224 -48 0
v -240 -48 0
v -240 -32 0
v -224 -32 0
v -224 -64 0
v -240 -64 0
v -240 -48 0
v -224 -48 0
v -224 -80 0
v -240 -80 0
v -240 -64 0
v -224 -64 0
v -32 -96 0
v -48 -96 0
v -48 -80 0
v -32 -80 0
v -48 -96 0
v -64 -96 0
v -64 -80 0
v -48 -80 0
v -64 -96 0
v -80 -96 0
v -80 -80 0
v -64 -80 0
v -80 -96 0
v -96 -96 0
v -96 -80 0
v -80 -80 0
v -96 -96 0
v -112 -96 0
v -112 -80 0
v -96 -80 0
v -112 -96 0
v -128 -96 0
v -128 -80 0
v -112 -80 0
v -128 -96 0
v -144 -96 0
v -144 -80 0
v -128 -80 0
v -144 -96 0
v -160 -96 0
v -160 -80 0
v -144 -80 0
v -160 -96 0
v -176 -96 0
v -176 -80 0
v -160 -80 0
v -176 -96 0
v -192 -96 0
v -192 -80 0
v -176 -80 0
v -192 -96 0
v -208 -96 0
v -208 -80 0
v -192 -80 0
v -208 -96 0
v -224 -96 0
v -224 -80 0
v -208 -80 0
v -224 -96 0
v -240 -96 0
v -240 -80 0
v -224 -80 0
v -240 -96 0
v -256 -96 0
v -256 -80 0
v -240 -80 0
v -32 -112 0
v -48 -112 0
v -48 -96 0
v -32 -96 0
v -48 -112 0
v -64 -112 0
v -64 -96 0
v -48 -96 0
v -64 -112 0
v -80 -112 0
v -80 -96 0
v -64 -96 0
v -80 -112 0
v -96 -112 0
v -96 -96 0
v -80 -96 0
v -96 -112 0
v -112 -112 0
v -112 -96 0
v -96 -96 0
v -112 -112 0
v -128 -112 0
v -128 -96 0
v -112 -96 0
v -128 -112 0
v -144 -112 0
v -144 -96 0
v -128 -96 0
v -144 -112 0
v -160 -112 0
v -160 -96 0
v -144 -96 0
v -160 -112 0
v -176 -112 0
v -176 -96 0
v -160 -96 0
v -176 -112 0
v -192 -112 0
v -192 -96 0
v -176 -96 0
v -192 -112 0
v -208 -112 0
v -208 -96 0
v -192 -96 0
v -208 -112 0
v -224 -112 0
v -224 -96 0
v -208 -96 0
v -224 -112 0
v -240 -112 0
v -240 -96 0
v -224 -96 0
v -240 -112 0
v -256 -112 0
v -256 -96 0
v -240 -96 0
v -32 -128 0
v -48 -128 0
v -48 -112 0
v -32 -112 0
v -112 -128 0
v -128 -128 0
v -128 -112 0
v -112 -112 0
v -176 -128 0
v -192 -128 0
v -192 -112 0
v -176 -112 0
v -32 -144 0
v -48 -144 0
v -48 -128 0
v -32 -128 0
v -112 -144 0
v -128 -144 0
v -128 -128 0
v -112 -128 0
v -176 -144 0
v -192 -144 0
v -192 -128 0
v -176 -128 0
v -224 -144 0
v -240 -144 0
v -240 -128 0
v -224 -128 0
v -32 -160 0
v -48 -160 0
v -48 -144 0
v -32 -144 0
v -112 -160 0
v -128 -160 0
v -128 -144 0
v -112 -144 0
v -176 -160 0
v -192 -160 0
v -192 -144 0
v -176 -144 0
v -192 -160 0
v -208 -160 0
v -208 -144 0
v -192 -144 0
v -208 -160 0
v -224 -160 0
v -224 -144 0
v -208 -144 0
v -224 -160 0
v -240 -160 0
v -240 -144 0
v -224 -144 0
v -240 -160 0
v -256 -160 0
v -256 -144 0
v -240 -144 0
v -32 -176 0
v -48 -176 0
v -48 -160 0
v -32 -160 0
v -112 -176 0
v -128 -176 0
v -128 -160 0
v -112 -160 0
v -176 -176 0
v -192 -176 0
v -192 -160 0
v -176 -160 0
v -192 -176 0
v -208 -176 0
v -208 -160 0
v -192 -160 0
v -208 -176 0
v -224 -176 0
v -224 -160 0
v -208 -160 0
v -224 -176 0
v -240 -176 0
v -240 -160 0
v -224 -160 0
v -240 -176 0
v -256 -176 0
v -256 -160 0
v -240 -160 0
v -32 -192 0
v -48 -192 0
v -48 -176 0
v -32 -176 0
v -112 -192 0
v -128 -192 0
v -128 -176 0
v -112 -176 0
v -32 -208 0
v -48 -208 0
v -48 -192 0
v -32 -192 0
v -112 -208 0
v -128 -208 0
v -128 -192 0
v -112 -192 0
v -128 -208 0
v -144 -208 0
v -144 -192 0
v -128 -192 0
v -144 -208 0
v -160 -208 0
v -160 -192 0
v -144 -192 0
v -160 -208 0
v -176 -208 0
v -176 -192 0
v -160 -192 0
v -176 -208 0
v -192 -208 0
v -192 -192 0
v -176 -192 0
v -192 -208 0
v -208 -208 0
v -208 -192 0
v -192 -192 0
v -208 -208 0
v -224 -208 0
v -224 -192 0
v -208 -192 0
v -224 -208 0
v -240 -208 0
v -240 -192 0
v -224 -192 0
v -240 -208 0
v -256 -208 0
v -256 -192 0
v -240 -192 0
v -32 -224 0
v -48 -224 0
v -48 -208 0
v -32 -208 0
v -112 -224 0
v -128 -224 0
v -128 -208 0
v -112 -208 0
v -128 -224 0
v -144 -224 0
v -144 -208 0
v -128 -208 0
v -144 -224 0
v -160 -224 0
v -160 -208 0
v -144 -208 0
v -160 -224 0
v -176 -224 0
v -176 -208 0
v -160 -208 0
v -176 -224 0
v -192 -224 0
v -192 -208 0
v -176 -208 0
v -192 -224 0
v -208 -224 0
v -208 -208 0
v -192 -208 0
v -208 -224 0
v -224 -224 0
v -224 -208 0
v -208 -208 0
v -224 -224 0
v -240 -224 0
v -240 -208 0
v -224 -208 0
v -240 -224 0
v -256 -224 0
v -256 -208 0
v -240 -208 0
v -32 -240 0
v -48 -240 0
v -48 -224 0
v -32 -224 0
v -112 -240 0
v -128 -240 0
v -128 -224 0
v -112 -224 0
v -128 -240 0
v -144 -240 0
v -144 -224 0
v -128 -224 0
v -144 -240 0
v -160 -240 0
v -160 -224 0
v -144 -224 0
v -160 -240 0
v -176 -240 0
v -176 -224 0
v -160 -224 0
v -176 -240 0
v -192 -240 0
v -192 -224 0
v -176 -224 0
v -192 -240 0
v -208 -240 0
v -208 -224 0
v -192 -224 0
v -208 -240 0
v -224 -240 0
v -224 -224 0
v -208 -224 0
v -224 -240 0
v -240 -240 0
v -240 -224 0
v -224 -224 0
v -240 -240 0
v -256 -240 0
v -256 -224 0
v -240 -224 0
v -32 -256 0
v -48 -256 0
v -48 -240 0
v -32 -240 0
v -48 -256 0
v -64 -256 0
v -64 -240 0
v -48 -240 0
v -64 -256 0
v -80 -256 0
v -80 -240 0
v -64 -240 0
v -80 -256 0
v -96 -256 0
v -96 -240 0
v -80 -240 0
v -96 -256 0
v -112 -256 0
v -112 -240 0
v -96 -240 0
v -112 -256 0
v -128 -256 0
v -128 -240 0
v -112 -240 0
v -128 -256 0
v -144 -256 0
v -144 -240 0
v -128 -240 0
v -144 -256 0
v -160 -256 0
v -160 -240 0
v -144 -240 0
v -160 -256 0
v -176 -256 0
v -176 -240 0
v -160 -240 0
v -176 -256 0
v -192 -256 0
v -192 -240 0
v -176 -240 0
v -192 -256 0
v -208 -256 0
v -208 -240 0
v -192 -240 0
v -208 -256 0
v -224 -256 0
v -224 -240 0
v -208 -240 0
v -224 -256 0
v -240 -256 0
v -240 -240 0
v -224 -240 0
v -240 -256 0
v -256 -256 0
v -256 -240 0
v -240 -240 0

# Texture cooridinates (Count = 62)
vt 0.2666667 0.9666666
vt 0.2833333 0.9666666
vt 0.2833333 0.9833333
vt 0.2666667 0.9833333
vt 0.3833333 0.7
vt 0.4 0.7
vt 0.4 0.7166667
vt 0.3833333 0.7166667
vt 0.3666667 0.6833333
vt 0.3833333 0.6833333
vt 0.3666667 0.7
vt 0.4 0.6833333
vt 0.3666667 0.85
vt 0.3833333 0.85
vt 0.3833333 0.8666667
vt 0.3666667 0.8666667
vt 0.3833333 0.8
vt 0.4 0.8
vt 0.4 0.8166667
vt 0.3833333 0.8166667
vt 0.3 0.9666666
vt 0.3166667 0.9666666
vt 0.3166667 0.9833333
vt 0.3 0.9833333
vt 0.4 0.85
vt 0.4166667 0.85
vt 0.4166667 0.8666667
vt 0.4 0.8666667
vt 0.3833333 0.8833333
vt 0.3666667 0.8833333
vt 0.3666667 0.6666666
vt 0.3833333 0.6666666
vt 0.3666667 0.65
vt 0.3833333 0.65
vt 0.3833333 0.7333333
vt 0.4 0.7333333
vt 0.4 0.75
vt 0.3833333 0.75
vt 0.4 0.8833333
vt 0.4166667 0.8833333
vt 0.4166667 0.9
vt 0.4 0.9
vt 0.4166667 0.6333333
vt 0.4333333 0.6333333
vt 0.4333333 0.65
vt 0.4166667 0.65
vt 0.4166667 0.6166667
vt 0.4333333 0.6166667
vt 0.4166667 0.8
vt 0.4166667 0.8166667
vt 0.4 0.7833333
vt 0.4166667 0.7833333
vt 0.4 0.7666667
vt 0.4166667 0.7666667
vt 0.2833333 0.95
vt 0.3 0.95
vt 0.3166667 0.95
vt 0.4166667 0.75
vt 0.2833333 0.9333333
vt 0.3 0.9333333
vt 0.2833333 0.9166667
vt 0.3 0.9166667

# Normal
vn 0 0 -1

# Mesh description
g icmc_mesh_0211

# Faces
f 1/1/1 2/2/1 3/3/1 4/4/1
f 5/5/1 6/6/1 7/7/1 8/8/1
f 9/9/1 10/10/1 11/5/1 12/11/1
f 13/10/1 14/12/1 15/6/1 16/5/1
f 17/13/1 18/14/1 19/15/1 20/16/1
f 21/13/1 22/14/1 23/15/1 24/16/1
f 25/17/1 26/18/1 27/19/1 28/20/1
f 29/1/1 30/2/1 31/3/1 32/4/1
f 33/5/1 34/6/1 35/7/1 36/8/1
f 37/5/1 38/6/1 39/7/1 40/8/1
f 41/5/1 42/6/1 43/7/1 44/8/1
f 45/5/1 46/6/1 47/7/1 48/8/1
f 49/21/1 50/22/1 51/23/1 52/24/1
f 53/5/1 54/6/1 55/7/1 56/8/1
f 57/5/1 58/6/1 59/7/1 60/8/1
f 61/5/1 62/6/1 63/7/1 64/8/1
f 65/1/1 66/2/1 67/3/1 68/4/1
f 69/5/1 70/6/1 71/7/1 72/8/1
f 73/5/1 74/6/1 75/7/1 76/8/1
f 77/5/1 78/6/1 79/7/1 80/8/1
f 81/5/1 82/6/1 83/7/1 84/8/1
f 85/13/1 86/14/1 87/15/1 88/16/1
f 89/10/1 90/12/1 91/6/1 92/5/1
f 93/10/1 94/12/1 95/6/1 96/5/1
f 97/10/1 98/12/1 99/6/1 100/5/1
f 101/10/1 102/12/1 103/6/1 104/5/1
f 105/25/1 106/26/1 107/27/1 108/28/1
f 109/10/1 110/12/1 111/6/1 112/5/1
f 113/10/1 114/12/1 115/6/1 116/5/1
f 117/10/1 118/12/1 119/6/1 120/5/1
f 121/13/1 122/14/1 123/15/1 124/16/1
f 125/10/1 126/12/1 127/6/1 128/5/1
f 129/10/1 130/12/1 131/6/1 132/5/1
f 133/10/1 134/12/1 135/6/1 136/5/1
f 137/10/1 138/12/1 139/6/1 140/5/1
f 141/16/1 142/15/1 143/29/1 144/30/1
f 145/31/1 146/32/1 147/10/1 148/9/1
f 149/13/1 150/14/1 151/15/1 152/16/1
f 153/16/1 154/15/1 155/29/1 156/30/1
f 157/33/1 158/34/1 159/32/1 160/31/1
f 161/13/1 162/14/1 163/15/1 164/16/1
f 165/35/1 166/36/1 167/37/1 168/38/1
f 169/16/1 170/15/1 171/29/1 172/30/1
f 173/39/1 174/40/1 175/41/1 176/42/1
f 177/43/1 178/44/1 179/45/1 180/46/1
f 181/5/1 182/6/1 183/7/1 184/8/1
f 185/5/1 186/6/1 187/7/1 188/8/1
f 189/5/1 190/6/1 191/7/1 192/8/1
f 193/5/1 194/6/1 195/7/1 196/8/1
f 197/16/1 198/15/1 199/29/1 200/30/1
f 201/28/1 202/27/1 203/40/1 204/39/1
f 205/47/1 206/48/1 207/44/1 208/43/1
f 209/10/1 210/12/1 211/6/1 212/5/1
f 213/10/1 214/12/1 215/6/1 216/5/1
f 217/10/1 218/12/1 219/6/1 220/5/1
f 221/10/1 222/12/1 223/6/1 224/5/1
f 225/16/1 226/15/1 227/29/1 228/30/1
f 229/18/1 230/49/1 231/50/1 232/19/1
f 233/13/1 234/14/1 235/15/1 236/16/1
f 237/51/1 238/52/1 239/49/1 240/18/1
f 241/2/1 242/21/1 243/24/1 244/3/1
f 245/21/1 246/22/1 247/23/1 248/24/1
f 249/2/1 250/21/1 251/24/1 252/3/1
f 253/2/1 254/21/1 255/24/1 256/3/1
f 257/2/1 258/21/1 259/24/1 260/3/1
f 261/2/1 262/21/1 263/24/1 264/3/1
f 265/2/1 266/21/1 267/24/1 268/3/1
f 269/2/1 270/21/1 271/24/1 272/3/1
f 273/13/1 274/14/1 275/15/1 276/16/1
f 277/53/1 278/54/1 279/52/1 280/51/1
f 281/55/1 282/56/1 283/21/1 284/2/1
f 285/56/1 286/57/1 287/22/1 288/21/1
f 289/55/1 290/56/1 291/21/1 292/2/1
f 293/55/1 294/56/1 295/21/1 296/2/1
f 297/55/1 298/56/1 299/21/1 300/2/1
f 301/55/1 302/56/1 303/21/1 304/2/1
f 305/55/1 306/56/1 307/21/1 308/2/1
f 309/55/1 310/56/1 311/21/1 312/2/1
f 313/16/1 314/15/1 315/29/1 316/30/1
f 317/37/1 318/58/1 319/54/1 320/53/1
f 321/59/1 322/60/1 323/56/1 324/55/1
f 325/25/1 326/26/1 327/27/1 328/28/1
f 329/59/1 330/60/1 331/56/1 332/55/1
f 333/59/1 334/60/1 335/56/1 336/55/1
f 337/59/1 338/60/1 339/56/1 340/55/1
f 341/59/1 342/60/1 343/56/1 344/55/1
f 345/59/1 346/60/1 347/56/1 348/55/1
f 349/59/1 350/60/1 351/56/1 352/55/1
f 353/16/1 354/15/1 355/29/1 356/30/1
f 357/61/1 358/62/1 359/60/1 360/59/1
f 361/61/1 362/62/1 363/60/1 364/59/1
f 365/61/1 366/62/1 367/60/1 368/59/1
f 369/61/1 370/62/1 371/60/1 372/59/1
f 373/61/1 374/62/1 375/60/1 376/59/1
f 377/61/1 378/62/1 379/60/1 380/59/1
f 381/25/1 382/26/1 383/27/1 384/28/1
f 385/61/1 386/62/1 387/60/1 388/59/1
f 389/61/1 390/62/1 391/60/1 392/59/1
f 393/61/1 394/62/1 395/60/1 396/59/1
f 397/61/1 398/62/1 399/60/1 400/59/1
f 401/61/1 402/62/1 403/60/1 404/59/1
f 405/61/1 406/62/1 407/60/1 408/59/1

