# Tiled2Unity generated file. Do not modify by hand.
# Wavefront file for 'icmc_mesh_0127.obj'

# Vertices (Count = 16)
v -112 -16 0
v -128 -16 0
v -128 0 0
v -112 0 0
v -128 -16 0
v -144 -16 0
v -144 0 0
v -128 0 0
v -32 -224 0
v -48 -224 0
v -48 -208 0
v -32 -208 0
v -192 -240 0
v -208 -240 0
v -208 -224 0
v -192 -224 0

# Texture cooridinates (Count = 10)
vt 0.9333333 0.5380952
vt 0.9416667 0.5380952
vt 0.9416667 0.5428572
vt 0.9333333 0.5428572
vt 0.95 0.5380952
vt 0.95 0.5428572
vt 0.8833333 0.5952381
vt 0.8916667 0.5952381
vt 0.8916667 0.6
vt 0.8833333 0.6

# Normal
vn 0 0 -1

# Mesh description
g icmc_mesh_0127

# Faces
f 1/1/1 2/2/1 3/3/1 4/4/1
f 5/2/1 6/5/1 7/6/1 8/3/1
f 9/7/1 10/8/1 11/9/1 12/10/1
f 13/7/1 14/8/1 15/9/1 16/10/1

