# Tiled2Unity generated file. Do not modify by hand.
# Wavefront file for 'icmc_mesh_0142.obj'

# Vertices (Count = 116)
v -64 -16 0
v -80 -16 0
v -80 0 0
v -64 0 0
v -80 -16 0
v -96 -16 0
v -96 0 0
v -80 0 0
v -96 -16 0
v -112 -16 0
v -112 0 0
v -96 0 0
v -224 -16 0
v -240 -16 0
v -240 0 0
v -224 0 0
v -240 -16 0
v -256 -16 0
v -256 0 0
v -240 0 0
v -64 -32 0
v -80 -32 0
v -80 -16 0
v -64 -16 0
v -80 -32 0
v -96 -32 0
v -96 -16 0
v -80 -16 0
v -112 -32 0
v -128 -32 0
v -128 -16 0
v -112 -16 0
v -224 -32 0
v -240 -32 0
v -240 -16 0
v -224 -16 0
v -64 -48 0
v -80 -48 0
v -80 -32 0
v -64 -32 0
v -80 -48 0
v -96 -48 0
v -96 -32 0
v -80 -32 0
v -96 -48 0
v -112 -48 0
v -112 -32 0
v -96 -32 0
v -208 -48 0
v -224 -48 0
v -224 -32 0
v -208 -32 0
v -64 -64 0
v -80 -64 0
v -80 -48 0
v -64 -48 0
v -80 -64 0
v -96 -64 0
v -96 -48 0
v -80 -48 0
v -96 -64 0
v -112 -64 0
v -112 -48 0
v -96 -48 0
v -112 -64 0
v -128 -64 0
v -128 -48 0
v -112 -48 0
v -192 -64 0
v -208 -64 0
v -208 -48 0
v -192 -48 0
v -64 -80 0
v -80 -80 0
v -80 -64 0
v -64 -64 0
v -80 -80 0
v -96 -80 0
v -96 -64 0
v -80 -64 0
v -96 -80 0
v -112 -80 0
v -112 -64 0
v -96 -64 0
v -192 -80 0
v -208 -80 0
v -208 -64 0
v -192 -64 0
v -16 -160 0
v -32 -160 0
v -32 -144 0
v -16 -144 0
v 0 -208 0
v -16 -208 0
v -16 -192 0
v 0 -192 0
v -16 -208 0
v -32 -208 0
v -32 -192 0
v -16 -192 0
v 0 -224 0
v -16 -224 0
v -16 -208 0
v 0 -208 0
v -16 -224 0
v -32 -224 0
v -32 -208 0
v -16 -208 0
v 0 -240 0
v -16 -240 0
v -16 -224 0
v 0 -224 0
v -16 -240 0
v -32 -240 0
v -32 -224 0
v -16 -224 0

# Texture cooridinates (Count = 47)
vt 0.01172161 0.9453125
vt 0.01562882 0.9453125
vt 0.01562882 0.953125
vt 0.01172161 0.953125
vt 0.01953602 0.9453125
vt 0.01953602 0.953125
vt 0.02344322 0.9453125
vt 0.02344322 0.953125
vt 0 0.9453125
vt 0.003907204 0.9453125
vt 0.003907204 0.953125
vt 0 0.953125
vt 0.007814408 0.9453125
vt 0.007814408 0.953125
vt 0.01172161 0.9375
vt 0.01562882 0.9375
vt 0.01953602 0.9375
vt 0.8908425 0.9296875
vt 0.8947497 0.9296875
vt 0.8947497 0.9375
vt 0.8908425 0.9375
vt 0 0.9375
vt 0.003907204 0.9375
vt 0 0.9921875
vt 0.003907204 0.9921875
vt 0.003907204 1
vt 0 1
vt 0.007814408 0.9921875
vt 0.007814408 1
vt 0.01172161 0.9921875
vt 0.01172161 1
vt 0.8791209 0.953125
vt 0.8830281 0.953125
vt 0.8830281 0.9609375
vt 0.8791209 0.9609375
vt 0 0.984375
vt 0.003907204 0.984375
vt 0.007814408 0.984375
vt 0.01172161 0.984375
vt 0.613431 0.96875
vt 0.6173382 0.96875
vt 0.6173382 0.9765625
vt 0.613431 0.9765625
vt 0 0.9765625
vt 0.003907204 0.9765625
vt 0.007814408 0.9765625
vt 0.01172161 0.9765625

# Normal
vn 0 0 -1

# Mesh description
g icmc_mesh_0142

# Faces
f 1/1/1 2/2/1 3/3/1 4/4/1
f 5/2/1 6/5/1 7/6/1 8/3/1
f 9/5/1 10/7/1 11/8/1 12/6/1
f 13/9/1 14/10/1 15/11/1 16/12/1
f 17/10/1 18/13/1 19/14/1 20/11/1
f 21/15/1 22/16/1 23/2/1 24/1/1
f 25/16/1 26/17/1 27/5/1 28/2/1
f 29/18/1 30/19/1 31/20/1 32/21/1
f 33/22/1 34/23/1 35/10/1 36/9/1
f 37/24/1 38/25/1 39/26/1 40/27/1
f 41/25/1 42/28/1 43/29/1 44/26/1
f 45/28/1 46/30/1 47/31/1 48/29/1
f 49/32/1 50/33/1 51/34/1 52/35/1
f 53/36/1 54/37/1 55/25/1 56/24/1
f 57/37/1 58/38/1 59/28/1 60/25/1
f 61/38/1 62/39/1 63/30/1 64/28/1
f 65/40/1 66/41/1 67/42/1 68/43/1
f 69/18/1 70/19/1 71/20/1 72/21/1
f 73/44/1 74/45/1 75/37/1 76/36/1
f 77/45/1 78/46/1 79/38/1 80/37/1
f 81/46/1 82/47/1 83/39/1 84/38/1
f 85/40/1 86/41/1 87/42/1 88/43/1
f 89/40/1 90/41/1 91/42/1 92/43/1
f 93/25/1 94/28/1 95/29/1 96/26/1
f 97/28/1 98/30/1 99/31/1 100/29/1
f 101/37/1 102/38/1 103/28/1 104/25/1
f 105/38/1 106/39/1 107/30/1 108/28/1
f 109/45/1 110/46/1 111/38/1 112/37/1
f 113/46/1 114/47/1 115/39/1 116/38/1

