# Tiled2Unity generated file. Do not modify by hand.
# Wavefront file for 'icmc_mesh_0159.obj'

# Vertices (Count = 104)
v -224 -16 0
v -240 -16 0
v -240 0 0
v -224 0 0
v -240 -16 0
v -256 -16 0
v -256 0 0
v -240 0 0
v -192 -32 0
v -208 -32 0
v -208 -16 0
v -192 -16 0
v -240 -32 0
v -256 -32 0
v -256 -16 0
v -240 -16 0
v -192 -48 0
v -208 -48 0
v -208 -32 0
v -192 -32 0
v -176 -64 0
v -192 -64 0
v -192 -48 0
v -176 -48 0
v -192 -64 0
v -208 -64 0
v -208 -48 0
v -192 -48 0
v -48 -80 0
v -64 -80 0
v -64 -64 0
v -48 -64 0
v -64 -80 0
v -80 -80 0
v -80 -64 0
v -64 -64 0
v -80 -80 0
v -96 -80 0
v -96 -64 0
v -80 -64 0
v -176 -80 0
v -192 -80 0
v -192 -64 0
v -176 -64 0
v -192 -80 0
v -208 -80 0
v -208 -64 0
v -192 -64 0
v -48 -96 0
v -64 -96 0
v -64 -80 0
v -48 -80 0
v -64 -96 0
v -80 -96 0
v -80 -80 0
v -64 -80 0
v -80 -96 0
v -96 -96 0
v -96 -80 0
v -80 -80 0
v -96 -96 0
v -112 -96 0
v -112 -80 0
v -96 -80 0
v -112 -96 0
v -128 -96 0
v -128 -80 0
v -112 -80 0
v -128 -96 0
v -144 -96 0
v -144 -80 0
v -128 -80 0
v -144 -96 0
v -160 -96 0
v -160 -80 0
v -144 -80 0
v -160 -96 0
v -176 -96 0
v -176 -80 0
v -160 -80 0
v -176 -96 0
v -192 -96 0
v -192 -80 0
v -176 -80 0
v -96 -112 0
v -112 -112 0
v -112 -96 0
v -96 -96 0
v -112 -112 0
v -128 -112 0
v -128 -96 0
v -112 -96 0
v -128 -112 0
v -144 -112 0
v -144 -96 0
v -128 -96 0
v -144 -112 0
v -160 -112 0
v -160 -96 0
v -144 -96 0
v -160 -112 0
v -176 -112 0
v -176 -96 0
v -160 -96 0

# Texture cooridinates (Count = 25)
vt 0.625 0.2428572
vt 0.6333333 0.2428572
vt 0.6333333 0.247619
vt 0.625 0.247619
vt 0.2833333 0.7809524
vt 0.2916667 0.7809524
vt 0.2916667 0.7857143
vt 0.2833333 0.7857143
vt 0.2833333 0.7714286
vt 0.2916667 0.7714286
vt 0.2916667 0.7761905
vt 0.2833333 0.7761905
vt 0.3 0.7761905
vt 0.3 0.7809524
vt 0.275 0.7761905
vt 0.275 0.7809524
vt 0.3083333 0.7761905
vt 0.3083333 0.7809524
vt 0.3 0.7714286
vt 0.275 0.7714286
vt 0.3083333 0.7714286
vt 0.3 0.7857143
vt 0.3083333 0.7857143
vt 0.3083333 0.7904762
vt 0.3 0.7904762

# Normal
vn 0 0 -1

# Mesh description
g icmc_mesh_0159

# Faces
f 1/1/1 2/2/1 3/3/1 4/4/1
f 5/1/1 6/2/1 7/3/1 8/4/1
f 9/5/1 10/6/1 11/7/1 12/8/1
f 13/9/1 14/10/1 15/11/1 16/12/1
f 17/5/1 18/6/1 19/7/1 20/8/1
f 21/11/1 22/13/1 23/14/1 24/6/1
f 25/12/1 26/11/1 27/6/1 28/5/1
f 29/11/1 30/13/1 31/14/1 32/6/1
f 33/15/1 34/12/1 35/5/1 36/16/1
f 37/13/1 38/17/1 39/18/1 40/14/1
f 41/10/1 42/19/1 43/13/1 44/11/1
f 45/9/1 46/10/1 47/11/1 48/12/1
f 49/10/1 50/19/1 51/13/1 52/11/1
f 53/20/1 54/9/1 55/12/1 56/15/1
f 57/19/1 58/21/1 59/17/1 60/13/1
f 61/11/1 62/13/1 63/14/1 64/6/1
f 65/15/1 66/12/1 67/5/1 68/16/1
f 69/15/1 70/12/1 71/5/1 72/16/1
f 73/13/1 74/17/1 75/18/1 76/14/1
f 77/22/1 78/23/1 79/24/1 80/25/1
f 81/14/1 82/18/1 83/23/1 84/22/1
f 85/10/1 86/19/1 87/13/1 88/11/1
f 89/20/1 90/9/1 91/12/1 92/15/1
f 93/20/1 94/9/1 95/12/1 96/15/1
f 97/19/1 98/21/1 99/17/1 100/13/1
f 101/14/1 102/18/1 103/23/1 104/22/1

