# Tiled2Unity generated file. Do not modify by hand.
# Wavefront file for 'icmc_mesh_0221.obj'

# Vertices (Count = 160)
v -144 -16 0
v -160 -16 0
v -160 0 0
v -144 0 0
v -144 -32 0
v -160 -32 0
v -160 -16 0
v -144 -16 0
v -144 -48 0
v -160 -48 0
v -160 -32 0
v -144 -32 0
v -96 -64 0
v -112 -64 0
v -112 -48 0
v -96 -48 0
v -112 -64 0
v -128 -64 0
v -128 -48 0
v -112 -48 0
v -128 -64 0
v -144 -64 0
v -144 -48 0
v -128 -48 0
v -144 -64 0
v -160 -64 0
v -160 -48 0
v -144 -48 0
v -96 -80 0
v -112 -80 0
v -112 -64 0
v -96 -64 0
v -112 -80 0
v -128 -80 0
v -128 -64 0
v -112 -64 0
v -128 -80 0
v -144 -80 0
v -144 -64 0
v -128 -64 0
v -144 -80 0
v -160 -80 0
v -160 -64 0
v -144 -64 0
v -96 -96 0
v -112 -96 0
v -112 -80 0
v -96 -80 0
v -96 -112 0
v -112 -112 0
v -112 -96 0
v -96 -96 0
v -96 -128 0
v -112 -128 0
v -112 -112 0
v -96 -112 0
v -96 -144 0
v -112 -144 0
v -112 -128 0
v -96 -128 0
v -96 -160 0
v -112 -160 0
v -112 -144 0
v -96 -144 0
v -96 -176 0
v -112 -176 0
v -112 -160 0
v -96 -160 0
v -112 -176 0
v -128 -176 0
v -128 -160 0
v -112 -160 0
v -128 -176 0
v -144 -176 0
v -144 -160 0
v -128 -160 0
v -144 -176 0
v -160 -176 0
v -160 -160 0
v -144 -160 0
v -160 -176 0
v -176 -176 0
v -176 -160 0
v -160 -160 0
v -176 -176 0
v -192 -176 0
v -192 -160 0
v -176 -160 0
v -192 -176 0
v -208 -176 0
v -208 -160 0
v -192 -160 0
v -208 -176 0
v -224 -176 0
v -224 -160 0
v -208 -160 0
v -224 -176 0
v -240 -176 0
v -240 -160 0
v -224 -160 0
v -240 -176 0
v -256 -176 0
v -256 -160 0
v -240 -160 0
v -96 -192 0
v -112 -192 0
v -112 -176 0
v -96 -176 0
v -112 -192 0
v -128 -192 0
v -128 -176 0
v -112 -176 0
v -128 -192 0
v -144 -192 0
v -144 -176 0
v -128 -176 0
v -144 -192 0
v -160 -192 0
v -160 -176 0
v -144 -176 0
v -160 -192 0
v -176 -192 0
v -176 -176 0
v -160 -176 0
v -176 -192 0
v -192 -192 0
v -192 -176 0
v -176 -176 0
v -192 -192 0
v -208 -192 0
v -208 -176 0
v -192 -176 0
v -208 -192 0
v -224 -192 0
v -224 -176 0
v -208 -176 0
v -224 -192 0
v -240 -192 0
v -240 -176 0
v -224 -176 0
v -240 -192 0
v -256 -192 0
v -256 -176 0
v -240 -176 0
v -208 -208 0
v -224 -208 0
v -224 -192 0
v -208 -192 0
v -208 -224 0
v -224 -224 0
v -224 -208 0
v -208 -208 0
v -208 -240 0
v -224 -240 0
v -224 -224 0
v -208 -224 0
v -208 -256 0
v -224 -256 0
v -224 -240 0
v -208 -240 0

# Texture cooridinates (Count = 30)
vt 0.3666667 0.85
vt 0.3833333 0.85
vt 0.3833333 0.8666667
vt 0.3666667 0.8666667
vt 0.3833333 0.8833333
vt 0.3666667 0.8833333
vt 0.4 0.65
vt 0.4166667 0.65
vt 0.4166667 0.6666666
vt 0.4 0.6666666
vt 0.3666667 0.7
vt 0.3833333 0.7
vt 0.3833333 0.7166667
vt 0.3666667 0.7166667
vt 0.4 0.7
vt 0.4 0.7166667
vt 0.4 0.6333333
vt 0.4166667 0.6333333
vt 0.3666667 0.6833333
vt 0.3833333 0.6833333
vt 0.4 0.6833333
vt 0.4 0.6166667
vt 0.4166667 0.6166667
vt 0.3666667 0.8333333
vt 0.3833333 0.8333333
vt 0.4 0.8333333
vt 0.4 0.85
vt 0.3666667 0.8166667
vt 0.3833333 0.8166667
vt 0.4 0.8166667

# Normal
vn 0 0 -1

# Mesh description
g icmc_mesh_0221

# Faces
f 1/1/1 2/2/1 3/3/1 4/4/1
f 5/4/1 6/3/1 7/5/1 8/6/1
f 9/7/1 10/8/1 11/9/1 12/10/1
f 13/11/1 14/12/1 15/13/1 16/14/1
f 17/12/1 18/15/1 19/16/1 20/13/1
f 21/12/1 22/15/1 23/16/1 24/13/1
f 25/17/1 26/18/1 27/8/1 28/7/1
f 29/19/1 30/20/1 31/12/1 32/11/1
f 33/20/1 34/21/1 35/15/1 36/12/1
f 37/20/1 38/21/1 39/15/1 40/12/1
f 41/22/1 42/23/1 43/18/1 44/17/1
f 45/4/1 46/3/1 47/5/1 48/6/1
f 49/4/1 50/3/1 51/5/1 52/6/1
f 53/4/1 54/3/1 55/5/1 56/6/1
f 57/4/1 58/3/1 59/5/1 60/6/1
f 61/1/1 62/2/1 63/3/1 64/4/1
f 65/24/1 66/25/1 67/2/1 68/1/1
f 69/25/1 70/26/1 71/27/1 72/2/1
f 73/25/1 74/26/1 75/27/1 76/2/1
f 77/25/1 78/26/1 79/27/1 80/2/1
f 81/25/1 82/26/1 83/27/1 84/2/1
f 85/25/1 86/26/1 87/27/1 88/2/1
f 89/25/1 90/26/1 91/27/1 92/2/1
f 93/4/1 94/3/1 95/5/1 96/6/1
f 97/25/1 98/26/1 99/27/1 100/2/1
f 101/25/1 102/26/1 103/27/1 104/2/1
f 105/28/1 106/29/1 107/25/1 108/24/1
f 109/29/1 110/30/1 111/26/1 112/25/1
f 113/29/1 114/30/1 115/26/1 116/25/1
f 117/29/1 118/30/1 119/26/1 120/25/1
f 121/29/1 122/30/1 123/26/1 124/25/1
f 125/29/1 126/30/1 127/26/1 128/25/1
f 129/29/1 130/30/1 131/26/1 132/25/1
f 133/1/1 134/2/1 135/3/1 136/4/1
f 137/29/1 138/30/1 139/26/1 140/25/1
f 141/29/1 142/30/1 143/26/1 144/25/1
f 145/4/1 146/3/1 147/5/1 148/6/1
f 149/1/1 150/2/1 151/3/1 152/4/1
f 153/1/1 154/2/1 155/3/1 156/4/1
f 157/1/1 158/2/1 159/3/1 160/4/1

