# Tiled2Unity generated file. Do not modify by hand.
# Wavefront file for 'icmc_mesh_0355.obj'

# Vertices (Count = 176)
v -176 -64 0
v -192 -64 0
v -192 -48 0
v -176 -48 0
v -192 -64 0
v -208 -64 0
v -208 -48 0
v -192 -48 0
v -176 -80 0
v -192 -80 0
v -192 -64 0
v -176 -64 0
v -192 -80 0
v -208 -80 0
v -208 -64 0
v -192 -64 0
v -176 -96 0
v -192 -96 0
v -192 -80 0
v -176 -80 0
v -192 -96 0
v -208 -96 0
v -208 -80 0
v -192 -80 0
v -176 -112 0
v -192 -112 0
v -192 -96 0
v -176 -96 0
v -192 -112 0
v -208 -112 0
v -208 -96 0
v -192 -96 0
v -112 -128 0
v -128 -128 0
v -128 -112 0
v -112 -112 0
v -128 -128 0
v -144 -128 0
v -144 -112 0
v -128 -112 0
v -176 -128 0
v -192 -128 0
v -192 -112 0
v -176 -112 0
v -192 -128 0
v -208 -128 0
v -208 -112 0
v -192 -112 0
v -96 -144 0
v -112 -144 0
v -112 -128 0
v -96 -128 0
v -112 -144 0
v -128 -144 0
v -128 -128 0
v -112 -128 0
v -128 -144 0
v -144 -144 0
v -144 -128 0
v -128 -128 0
v -176 -144 0
v -192 -144 0
v -192 -128 0
v -176 -128 0
v -192 -144 0
v -208 -144 0
v -208 -128 0
v -192 -128 0
v -112 -160 0
v -128 -160 0
v -128 -144 0
v -112 -144 0
v -128 -160 0
v -144 -160 0
v -144 -144 0
v -128 -144 0
v -176 -160 0
v -192 -160 0
v -192 -144 0
v -176 -144 0
v -192 -160 0
v -208 -160 0
v -208 -144 0
v -192 -144 0
v -96 -176 0
v -112 -176 0
v -112 -160 0
v -96 -160 0
v -112 -176 0
v -128 -176 0
v -128 -160 0
v -112 -160 0
v -128 -176 0
v -144 -176 0
v -144 -160 0
v -128 -160 0
v -176 -176 0
v -192 -176 0
v -192 -160 0
v -176 -160 0
v -192 -176 0
v -208 -176 0
v -208 -160 0
v -192 -160 0
v -112 -192 0
v -128 -192 0
v -128 -176 0
v -112 -176 0
v -128 -192 0
v -144 -192 0
v -144 -176 0
v -128 -176 0
v -176 -192 0
v -192 -192 0
v -192 -176 0
v -176 -176 0
v -192 -192 0
v -208 -192 0
v -208 -176 0
v -192 -176 0
v -96 -208 0
v -112 -208 0
v -112 -192 0
v -96 -192 0
v -112 -208 0
v -128 -208 0
v -128 -192 0
v -112 -192 0
v -128 -208 0
v -144 -208 0
v -144 -192 0
v -128 -192 0
v -176 -208 0
v -192 -208 0
v -192 -192 0
v -176 -192 0
v -192 -208 0
v -208 -208 0
v -208 -192 0
v -192 -192 0
v -112 -224 0
v -128 -224 0
v -128 -208 0
v -112 -208 0
v -128 -224 0
v -144 -224 0
v -144 -208 0
v -128 -208 0
v -176 -224 0
v -192 -224 0
v -192 -208 0
v -176 -208 0
v -192 -224 0
v -208 -224 0
v -208 -208 0
v -192 -208 0
v -96 -240 0
v -112 -240 0
v -112 -224 0
v -96 -224 0
v -112 -240 0
v -128 -240 0
v -128 -224 0
v -112 -224 0
v -128 -240 0
v -144 -240 0
v -144 -224 0
v -128 -224 0
v -176 -240 0
v -192 -240 0
v -192 -224 0
v -176 -224 0
v -192 -240 0
v -208 -240 0
v -208 -224 0
v -192 -224 0

# Texture cooridinates (Count = 31)
vt 0.25 0.4125874
vt 0.375 0.4125874
vt 0.375 0.4160839
vt 0.25 0.4160839
vt 0.5 0.4125874
vt 0.5 0.4160839
vt 0.25 0.4090909
vt 0.375 0.4090909
vt 0.5 0.4090909
vt 0 0.4055944
vt 0.125 0.4055944
vt 0.125 0.4090909
vt 0 0.4090909
vt 0.25 0.4055944
vt 0 0.4020979
vt 0.125 0.4020979
vt 0.25 0.4020979
vt 0.375 0.4055944
vt 0.5 0.4055944
vt 0.125 0.4370629
vt 0.25 0.4370629
vt 0.25 0.4405594
vt 0.125 0.4405594
vt 0.375 0.4020979
vt 0.5 0.4020979
vt 0.625 0.4055944
vt 0.625 0.4090909
vt 0.75 0.4055944
vt 0.75 0.4090909
vt 0.625 0.4020979
vt 0.75 0.4020979

# Normal
vn 0 0 -1

# Mesh description
g icmc_mesh_0355

# Faces
f 1/1/1 2/2/1 3/3/1 4/4/1
f 5/2/1 6/5/1 7/6/1 8/3/1
f 9/7/1 10/8/1 11/2/1 12/1/1
f 13/8/1 14/9/1 15/5/1 16/2/1
f 17/10/1 18/11/1 19/12/1 20/13/1
f 21/11/1 22/14/1 23/7/1 24/12/1
f 25/15/1 26/16/1 27/11/1 28/10/1
f 29/16/1 30/17/1 31/14/1 32/11/1
f 33/10/1 34/11/1 35/12/1 36/13/1
f 37/11/1 38/14/1 39/7/1 40/12/1
f 41/14/1 42/18/1 43/8/1 44/7/1
f 45/18/1 46/19/1 47/9/1 48/8/1
f 49/20/1 50/21/1 51/22/1 52/23/1
f 53/15/1 54/16/1 55/11/1 56/10/1
f 57/16/1 58/17/1 59/14/1 60/11/1
f 61/17/1 62/24/1 63/18/1 64/14/1
f 65/24/1 66/25/1 67/19/1 68/18/1
f 69/1/1 70/2/1 71/3/1 72/4/1
f 73/2/1 74/5/1 75/6/1 76/3/1
f 77/1/1 78/2/1 79/3/1 80/4/1
f 81/2/1 82/5/1 83/6/1 84/3/1
f 85/20/1 86/21/1 87/22/1 88/23/1
f 89/7/1 90/8/1 91/2/1 92/1/1
f 93/8/1 94/9/1 95/5/1 96/2/1
f 97/7/1 98/8/1 99/2/1 100/1/1
f 101/8/1 102/9/1 103/5/1 104/2/1
f 105/19/1 106/26/1 107/27/1 108/9/1
f 109/26/1 110/28/1 111/29/1 112/27/1
f 113/10/1 114/11/1 115/12/1 116/13/1
f 117/11/1 118/14/1 119/7/1 120/12/1
f 121/20/1 122/21/1 123/22/1 124/23/1
f 125/25/1 126/30/1 127/26/1 128/19/1
f 129/30/1 130/31/1 131/28/1 132/26/1
f 133/15/1 134/16/1 135/11/1 136/10/1
f 137/16/1 138/17/1 139/14/1 140/11/1
f 141/14/1 142/18/1 143/8/1 144/7/1
f 145/18/1 146/19/1 147/9/1 148/8/1
f 149/14/1 150/18/1 151/8/1 152/7/1
f 153/18/1 154/19/1 155/9/1 156/8/1
f 157/20/1 158/21/1 159/22/1 160/23/1
f 161/17/1 162/24/1 163/18/1 164/14/1
f 165/24/1 166/25/1 167/19/1 168/18/1
f 169/17/1 170/24/1 171/18/1 172/14/1
f 173/24/1 174/25/1 175/19/1 176/18/1

