# Tiled2Unity generated file. Do not modify by hand.
# Wavefront file for 'icmc_mesh_0193.obj'

# Vertices (Count = 24)
v -32 -112 0
v -48 -112 0
v -48 -96 0
v -32 -96 0
v -112 -112 0
v -128 -112 0
v -128 -96 0
v -112 -96 0
v -176 -112 0
v -192 -112 0
v -192 -96 0
v -176 -96 0
v -176 -160 0
v -192 -160 0
v -192 -144 0
v -176 -144 0
v -176 -176 0
v -192 -176 0
v -192 -160 0
v -176 -160 0
v -144 -240 0
v -160 -240 0
v -160 -224 0
v -144 -224 0

# Texture cooridinates (Count = 10)
vt 0.3833333 0.6833333
vt 0.4 0.6833333
vt 0.4 0.7
vt 0.3833333 0.7
vt 0.4 0.7166667
vt 0.3833333 0.7166667
vt 0.2833333 0.9333333
vt 0.3 0.9333333
vt 0.3 0.95
vt 0.2833333 0.95

# Normal
vn 0 0 -1

# Mesh description
g icmc_mesh_0193

# Faces
f 1/1/1 2/2/1 3/3/1 4/4/1
f 5/1/1 6/2/1 7/3/1 8/4/1
f 9/1/1 10/2/1 11/3/1 12/4/1
f 13/4/1 14/3/1 15/5/1 16/6/1
f 17/1/1 18/2/1 19/3/1 20/4/1
f 21/7/1 22/8/1 23/9/1 24/10/1

