# Tiled2Unity generated file. Do not modify by hand.
# Wavefront file for 'icmc_mesh_0047.obj'

# Vertices (Count = 520)
v -111 -70 0
v -112 -70 0
v -112 -69 0
v -111 -69 0
v -112 -69 0
v -113 -69 0
v -113 -68 0
v -112 -68 0
v -111 -69 0
v -112 -69 0
v -112 -68 0
v -111 -68 0
v -110 -69 0
v -111 -69 0
v -111 -68 0
v -110 -68 0
v -111 -68 0
v -112 -68 0
v -112 -67 0
v -111 -67 0
v -86 -63 0
v -87 -63 0
v -87 -62 0
v -86 -62 0
v -86 -62 0
v -87 -62 0
v -87 -61 0
v -86 -61 0
v -92 -59 0
v -93 -59 0
v -93 -58 0
v -92 -58 0
v -86 -59 0
v -87 -59 0
v -87 -58 0
v -86 -58 0
v -92 -58 0
v -93 -58 0
v -93 -57 0
v -92 -57 0
v -86 -58 0
v -87 -58 0
v -87 -57 0
v -86 -57 0
v -56 -53 0
v -57 -53 0
v -57 -52 0
v -56 -52 0
v -57 -52 0
v -58 -52 0
v -58 -51 0
v -57 -51 0
v -56 -52 0
v -57 -52 0
v -57 -51 0
v -56 -51 0
v -55 -52 0
v -56 -52 0
v -56 -51 0
v -55 -51 0
v -56 -51 0
v -57 -51 0
v -57 -50 0
v -56 -50 0
v -50 -51 0
v -51 -51 0
v -51 -50 0
v -50 -50 0
v -51 -50 0
v -52 -50 0
v -52 -49 0
v -51 -49 0
v -50 -50 0
v -51 -50 0
v -51 -49 0
v -50 -49 0
v -49 -50 0
v -50 -50 0
v -50 -49 0
v -49 -49 0
v -50 -49 0
v -51 -49 0
v -51 -48 0
v -50 -48 0
v -67 -47 0
v -68 -47 0
v -68 -46 0
v -67 -46 0
v -68 -46 0
v -69 -46 0
v -69 -45 0
v -68 -45 0
v -67 -46 0
v -68 -46 0
v -68 -45 0
v -67 -45 0
v -66 -46 0
v -67 -46 0
v -67 -45 0
v -66 -45 0
v -67 -45 0
v -68 -45 0
v -68 -44 0
v -67 -44 0
v -47 -43 0
v -48 -43 0
v -48 -42 0
v -47 -42 0
v -16 -43 0
v -17 -43 0
v -17 -42 0
v -16 -42 0
v -15 -43 0
v -16 -43 0
v -16 -42 0
v -15 -42 0
v -14 -43 0
v -15 -43 0
v -15 -42 0
v -14 -42 0
v -47 -42 0
v -48 -42 0
v -48 -41 0
v -47 -41 0
v -15 -42 0
v -16 -42 0
v -16 -41 0
v -15 -41 0
v -11 -38 0
v -12 -38 0
v -12 -37 0
v -11 -37 0
v -50 -37 0
v -51 -37 0
v -51 -36 0
v -50 -36 0
v -49 -37 0
v -50 -37 0
v -50 -36 0
v -49 -36 0
v -19 -37 0
v -20 -37 0
v -20 -36 0
v -19 -36 0
v -12 -37 0
v -13 -37 0
v -13 -36 0
v -12 -36 0
v -11 -37 0
v -12 -37 0
v -12 -36 0
v -11 -36 0
v -10 -37 0
v -11 -37 0
v -11 -36 0
v -10 -36 0
v -50 -36 0
v -51 -36 0
v -51 -35 0
v -50 -35 0
v -49 -36 0
v -50 -36 0
v -50 -35 0
v -49 -35 0
v -19 -36 0
v -20 -36 0
v -20 -35 0
v -19 -35 0
v -18 -36 0
v -19 -36 0
v -19 -35 0
v -18 -35 0
v -11 -36 0
v -12 -36 0
v -12 -35 0
v -11 -35 0
v -19 -35 0
v -20 -35 0
v -20 -34 0
v -19 -34 0
v -15 -33 0
v -16 -33 0
v -16 -32 0
v -15 -32 0
v -16 -32 0
v -17 -32 0
v -17 -31 0
v -16 -31 0
v -15 -32 0
v -16 -32 0
v -16 -31 0
v -15 -31 0
v -14 -32 0
v -15 -32 0
v -15 -31 0
v -14 -31 0
v -108 -31 0
v -109 -31 0
v -109 -30 0
v -108 -30 0
v -107 -31 0
v -108 -31 0
v -108 -30 0
v -107 -30 0
v -104 -31 0
v -105 -31 0
v -105 -30 0
v -104 -30 0
v -103 -31 0
v -104 -31 0
v -104 -30 0
v -103 -30 0
v -102 -31 0
v -103 -31 0
v -103 -30 0
v -102 -30 0
v -15 -31 0
v -16 -31 0
v -16 -30 0
v -15 -30 0
v -31 -30 0
v -32 -30 0
v -32 -29 0
v -31 -29 0
v -30 -30 0
v -31 -30 0
v -31 -29 0
v -30 -29 0
v -29 -30 0
v -30 -30 0
v -30 -29 0
v -29 -29 0
v -108 -29 0
v -109 -29 0
v -109 -28 0
v -108 -28 0
v -107 -29 0
v -108 -29 0
v -108 -28 0
v -107 -28 0
v -104 -29 0
v -105 -29 0
v -105 -28 0
v -104 -28 0
v -103 -29 0
v -104 -29 0
v -104 -28 0
v -103 -28 0
v -102 -29 0
v -103 -29 0
v -103 -28 0
v -102 -28 0
v -30 -29 0
v -31 -29 0
v -31 -28 0
v -30 -28 0
v -108 -27 0
v -109 -27 0
v -109 -26 0
v -108 -26 0
v -107 -27 0
v -108 -27 0
v -108 -26 0
v -107 -26 0
v -104 -27 0
v -105 -27 0
v -105 -26 0
v -104 -26 0
v -103 -27 0
v -104 -27 0
v -104 -26 0
v -103 -26 0
v -102 -27 0
v -103 -27 0
v -103 -26 0
v -102 -26 0
v -72 -27 0
v -73 -27 0
v -73 -26 0
v -72 -26 0
v -71 -27 0
v -72 -27 0
v -72 -26 0
v -71 -26 0
v -108 -25 0
v -109 -25 0
v -109 -24 0
v -108 -24 0
v -107 -25 0
v -108 -25 0
v -108 -24 0
v -107 -24 0
v -104 -25 0
v -105 -25 0
v -105 -24 0
v -104 -24 0
v -103 -25 0
v -104 -25 0
v -104 -24 0
v -103 -24 0
v -102 -25 0
v -103 -25 0
v -103 -24 0
v -102 -24 0
v -72 -25 0
v -73 -25 0
v -73 -24 0
v -72 -24 0
v -71 -25 0
v -72 -25 0
v -72 -24 0
v -71 -24 0
v -108 -23 0
v -109 -23 0
v -109 -22 0
v -108 -22 0
v -107 -23 0
v -108 -23 0
v -108 -22 0
v -107 -22 0
v -72 -23 0
v -73 -23 0
v -73 -22 0
v -72 -22 0
v -71 -23 0
v -72 -23 0
v -72 -22 0
v -71 -22 0
v -67 -23 0
v -68 -23 0
v -68 -22 0
v -67 -22 0
v -39 -23 0
v -40 -23 0
v -40 -22 0
v -39 -22 0
v -37 -23 0
v -38 -23 0
v -38 -22 0
v -37 -22 0
v -35 -23 0
v -36 -23 0
v -36 -22 0
v -35 -22 0
v -32 -23 0
v -33 -23 0
v -33 -22 0
v -32 -22 0
v -30 -23 0
v -31 -23 0
v -31 -22 0
v -30 -22 0
v -28 -23 0
v -29 -23 0
v -29 -22 0
v -28 -22 0
v -25 -23 0
v -26 -23 0
v -26 -22 0
v -25 -22 0
v -23 -23 0
v -24 -23 0
v -24 -22 0
v -23 -22 0
v -21 -23 0
v -22 -23 0
v -22 -22 0
v -21 -22 0
v -108 -21 0
v -109 -21 0
v -109 -20 0
v -108 -20 0
v -107 -21 0
v -108 -21 0
v -108 -20 0
v -107 -20 0
v -39 -21 0
v -40 -21 0
v -40 -20 0
v -39 -20 0
v -37 -21 0
v -38 -21 0
v -38 -20 0
v -37 -20 0
v -35 -21 0
v -36 -21 0
v -36 -20 0
v -35 -20 0
v -32 -21 0
v -33 -21 0
v -33 -20 0
v -32 -20 0
v -30 -21 0
v -31 -21 0
v -31 -20 0
v -30 -20 0
v -28 -21 0
v -29 -21 0
v -29 -20 0
v -28 -20 0
v -25 -21 0
v -26 -21 0
v -26 -20 0
v -25 -20 0
v -23 -21 0
v -24 -21 0
v -24 -20 0
v -23 -20 0
v -21 -21 0
v -22 -21 0
v -22 -20 0
v -21 -20 0
v -39 -19 0
v -40 -19 0
v -40 -18 0
v -39 -18 0
v -34 -19 0
v -35 -19 0
v -35 -18 0
v -34 -18 0
v -32 -19 0
v -33 -19 0
v -33 -18 0
v -32 -18 0
v -27 -19 0
v -28 -19 0
v -28 -18 0
v -27 -18 0
v -25 -19 0
v -26 -19 0
v -26 -18 0
v -25 -18 0
v -20 -19 0
v -21 -19 0
v -21 -18 0
v -20 -18 0
v -39 -18 0
v -40 -18 0
v -40 -17 0
v -39 -17 0
v -38 -18 0
v -39 -18 0
v -39 -17 0
v -38 -17 0
v -37 -18 0
v -38 -18 0
v -38 -17 0
v -37 -17 0
v -36 -18 0
v -37 -18 0
v -37 -17 0
v -36 -17 0
v -32 -18 0
v -33 -18 0
v -33 -17 0
v -32 -17 0
v -31 -18 0
v -32 -18 0
v -32 -17 0
v -31 -17 0
v -30 -18 0
v -31 -18 0
v -31 -17 0
v -30 -17 0
v -29 -18 0
v -30 -18 0
v -30 -17 0
v -29 -17 0
v -25 -18 0
v -26 -18 0
v -26 -17 0
v -25 -17 0
v -24 -18 0
v -25 -18 0
v -25 -17 0
v -24 -17 0
v -23 -18 0
v -24 -18 0
v -24 -17 0
v -23 -17 0
v -22 -18 0
v -23 -18 0
v -23 -17 0
v -22 -17 0
v -38 -17 0
v -39 -17 0
v -39 -16 0
v -38 -16 0
v -37 -17 0
v -38 -17 0
v -38 -16 0
v -37 -16 0
v -36 -17 0
v -37 -17 0
v -37 -16 0
v -36 -16 0
v -31 -17 0
v -32 -17 0
v -32 -16 0
v -31 -16 0
v -30 -17 0
v -31 -17 0
v -31 -16 0
v -30 -16 0
v -29 -17 0
v -30 -17 0
v -30 -16 0
v -29 -16 0
v -24 -17 0
v -25 -17 0
v -25 -16 0
v -24 -16 0
v -23 -17 0
v -24 -17 0
v -24 -16 0
v -23 -16 0
v -22 -17 0
v -23 -17 0
v -23 -16 0
v -22 -16 0

# Texture cooridinates (Count = 67)
vt 0.75 0.3076923
vt 0.875 0.3076923
vt 0.875 0.3111888
vt 0.75 0.3111888
vt 0.875 0.3146853
vt 0.75 0.3146853
vt 0.375 0.2727273
vt 0.5 0.2727273
vt 0.5 0.2762238
vt 0.375 0.2762238
vt 0.5 0.2797203
vt 0.375 0.2797203
vt 0.375 0.3076923
vt 0.5 0.3076923
vt 0.5 0.3111888
vt 0.375 0.3111888
vt 0.25 0.3076923
vt 0.25 0.3111888
vt 0.5 0.3146853
vt 0.375 0.3146853
vt 0.25 0.3146853
vt 0.375 0.4020979
vt 0.5 0.4020979
vt 0.5 0.4055944
vt 0.375 0.4055944
vt 0.25 0.4020979
vt 0.25 0.4055944
vt 0.125 0.4370629
vt 0.25 0.4370629
vt 0.25 0.4405594
vt 0.125 0.4405594
vt 0.125 0.4020979
vt 0.125 0.4055944
vt 0 0.4020979
vt 0 0.4055944
vt 0.625 0.4020979
vt 0.75 0.4020979
vt 0.75 0.4055944
vt 0.625 0.4055944
vt 0.375 0.4090909
vt 0.5 0.4090909
vt 0.5 0.4125874
vt 0.375 0.4125874
vt 0.25 0.4090909
vt 0.25 0.4125874
vt 0.625 0.3146853
vt 0.625 0.3181818
vt 0.5 0.3181818
vt 0 0.3146853
vt 0.125 0.3146853
vt 0.125 0.3181818
vt 0 0.3181818
vt 0.75 0.3181818
vt 0.75 0.3216783
vt 0.625 0.3216783
vt 0.5 0.4195804
vt 0.625 0.4195804
vt 0.625 0.4230769
vt 0.5 0.4230769
vt 0.375 0.4195804
vt 0.375 0.4230769
vt 0.25 0.4195804
vt 0.25 0.4230769
vt 0.625 0.4265735
vt 0.5 0.4265735
vt 0.375 0.4265735
vt 0.25 0.4265735

# Normal
vn 0 0 -1

# Mesh description
g icmc_mesh_0047

# Faces
f 1/1/1 2/2/1 3/3/1 4/4/1
f 5/1/1 6/2/1 7/3/1 8/4/1
f 9/4/1 10/3/1 11/5/1 12/6/1
f 13/1/1 14/2/1 15/3/1 16/4/1
f 17/1/1 18/2/1 19/3/1 20/4/1
f 21/7/1 22/8/1 23/9/1 24/10/1
f 25/10/1 26/9/1 27/11/1 28/12/1
f 29/7/1 30/8/1 31/9/1 32/10/1
f 33/7/1 34/8/1 35/9/1 36/10/1
f 37/10/1 38/9/1 39/11/1 40/12/1
f 41/10/1 42/9/1 43/11/1 44/12/1
f 45/1/1 46/2/1 47/3/1 48/4/1
f 49/1/1 50/2/1 51/3/1 52/4/1
f 53/4/1 54/3/1 55/5/1 56/6/1
f 57/1/1 58/2/1 59/3/1 60/4/1
f 61/1/1 62/2/1 63/3/1 64/4/1
f 65/1/1 66/2/1 67/3/1 68/4/1
f 69/1/1 70/2/1 71/3/1 72/4/1
f 73/4/1 74/3/1 75/5/1 76/6/1
f 77/1/1 78/2/1 79/3/1 80/4/1
f 81/1/1 82/2/1 83/3/1 84/4/1
f 85/1/1 86/2/1 87/3/1 88/4/1
f 89/1/1 90/2/1 91/3/1 92/4/1
f 93/4/1 94/3/1 95/5/1 96/6/1
f 97/1/1 98/2/1 99/3/1 100/4/1
f 101/1/1 102/2/1 103/3/1 104/4/1
f 105/7/1 106/8/1 107/9/1 108/10/1
f 109/1/1 110/2/1 111/3/1 112/4/1
f 113/4/1 114/3/1 115/5/1 116/6/1
f 117/1/1 118/2/1 119/3/1 120/4/1
f 121/10/1 122/9/1 123/11/1 124/12/1
f 125/1/1 126/2/1 127/3/1 128/4/1
f 129/1/1 130/2/1 131/3/1 132/4/1
f 133/13/1 134/14/1 135/15/1 136/16/1
f 137/17/1 138/13/1 139/16/1 140/18/1
f 141/1/1 142/2/1 143/3/1 144/4/1
f 145/1/1 146/2/1 147/3/1 148/4/1
f 149/4/1 150/3/1 151/5/1 152/6/1
f 153/1/1 154/2/1 155/3/1 156/4/1
f 157/16/1 158/15/1 159/19/1 160/20/1
f 161/18/1 162/16/1 163/20/1 164/21/1
f 165/4/1 166/3/1 167/5/1 168/6/1
f 169/1/1 170/2/1 171/3/1 172/4/1
f 173/1/1 174/2/1 175/3/1 176/4/1
f 177/1/1 178/2/1 179/3/1 180/4/1
f 181/1/1 182/2/1 183/3/1 184/4/1
f 185/1/1 186/2/1 187/3/1 188/4/1
f 189/4/1 190/3/1 191/5/1 192/6/1
f 193/1/1 194/2/1 195/3/1 196/4/1
f 197/22/1 198/23/1 199/24/1 200/25/1
f 201/26/1 202/22/1 203/25/1 204/27/1
f 205/22/1 206/23/1 207/24/1 208/25/1
f 209/26/1 210/22/1 211/25/1 212/27/1
f 213/28/1 214/29/1 215/30/1 216/31/1
f 217/1/1 218/2/1 219/3/1 220/4/1
f 221/1/1 222/2/1 223/3/1 224/4/1
f 225/4/1 226/3/1 227/5/1 228/6/1
f 229/1/1 230/2/1 231/3/1 232/4/1
f 233/32/1 234/26/1 235/27/1 236/33/1
f 237/34/1 238/32/1 239/33/1 240/35/1
f 241/36/1 242/37/1 243/38/1 244/39/1
f 245/23/1 246/36/1 247/39/1 248/24/1
f 249/28/1 250/29/1 251/30/1 252/31/1
f 253/1/1 254/2/1 255/3/1 256/4/1
f 257/40/1 258/41/1 259/42/1 260/43/1
f 261/44/1 262/40/1 263/43/1 264/45/1
f 265/40/1 266/41/1 267/42/1 268/43/1
f 269/44/1 270/40/1 271/43/1 272/45/1
f 273/28/1 274/29/1 275/30/1 276/31/1
f 277/22/1 278/23/1 279/24/1 280/25/1
f 281/26/1 282/22/1 283/25/1 284/27/1
f 285/22/1 286/23/1 287/24/1 288/25/1
f 289/26/1 290/22/1 291/25/1 292/27/1
f 293/32/1 294/26/1 295/27/1 296/33/1
f 297/34/1 298/32/1 299/33/1 300/35/1
f 301/28/1 302/29/1 303/30/1 304/31/1
f 305/36/1 306/37/1 307/38/1 308/39/1
f 309/23/1 310/36/1 311/39/1 312/24/1
f 313/32/1 314/26/1 315/27/1 316/33/1
f 317/34/1 318/32/1 319/33/1 320/35/1
f 321/40/1 322/41/1 323/42/1 324/43/1
f 325/44/1 326/40/1 327/43/1 328/45/1
f 329/10/1 330/9/1 331/11/1 332/12/1
f 333/19/1 334/46/1 335/47/1 336/48/1
f 337/19/1 338/46/1 339/47/1 340/48/1
f 341/49/1 342/50/1 343/51/1 344/52/1
f 345/47/1 346/53/1 347/54/1 348/55/1
f 349/49/1 350/50/1 351/51/1 352/52/1
f 353/19/1 354/46/1 355/47/1 356/48/1
f 357/19/1 358/46/1 359/47/1 360/48/1
f 361/47/1 362/53/1 363/54/1 364/55/1
f 365/19/1 366/46/1 367/47/1 368/48/1
f 369/40/1 370/41/1 371/42/1 372/43/1
f 373/44/1 374/40/1 375/43/1 376/45/1
f 377/19/1 378/46/1 379/47/1 380/48/1
f 381/19/1 382/46/1 383/47/1 384/48/1
f 385/47/1 386/53/1 387/54/1 388/55/1
f 389/47/1 390/53/1 391/54/1 392/55/1
f 393/19/1 394/46/1 395/47/1 396/48/1
f 397/19/1 398/46/1 399/47/1 400/48/1
f 401/19/1 402/46/1 403/47/1 404/48/1
f 405/49/1 406/50/1 407/51/1 408/52/1
f 409/19/1 410/46/1 411/47/1 412/48/1
f 413/7/1 414/8/1 415/9/1 416/10/1
f 417/28/1 418/29/1 419/30/1 420/31/1
f 421/7/1 422/8/1 423/9/1 424/10/1
f 425/28/1 426/29/1 427/30/1 428/31/1
f 429/7/1 430/8/1 431/9/1 432/10/1
f 433/28/1 434/29/1 435/30/1 436/31/1
f 437/10/1 438/9/1 439/11/1 440/12/1
f 441/56/1 442/57/1 443/58/1 444/59/1
f 445/60/1 446/56/1 447/59/1 448/61/1
f 449/62/1 450/60/1 451/61/1 452/63/1
f 453/10/1 454/9/1 455/11/1 456/12/1
f 457/56/1 458/57/1 459/58/1 460/59/1
f 461/60/1 462/56/1 463/59/1 464/61/1
f 465/62/1 466/60/1 467/61/1 468/63/1
f 469/10/1 470/9/1 471/11/1 472/12/1
f 473/56/1 474/57/1 475/58/1 476/59/1
f 477/60/1 478/56/1 479/59/1 480/61/1
f 481/62/1 482/60/1 483/61/1 484/63/1
f 485/59/1 486/58/1 487/64/1 488/65/1
f 489/61/1 490/59/1 491/65/1 492/66/1
f 493/63/1 494/61/1 495/66/1 496/67/1
f 497/59/1 498/58/1 499/64/1 500/65/1
f 501/61/1 502/59/1 503/65/1 504/66/1
f 505/63/1 506/61/1 507/66/1 508/67/1
f 509/59/1 510/58/1 511/64/1 512/65/1
f 513/61/1 514/59/1 515/65/1 516/66/1
f 517/63/1 518/61/1 519/66/1 520/67/1

