# Tiled2Unity generated file. Do not modify by hand.
# Wavefront file for 'icmc_mesh_0285.obj'

# Vertices (Count = 24)
v 0 -80 0
v -16 -80 0
v -16 -64 0
v 0 -64 0
v -16 -80 0
v -32 -80 0
v -32 -64 0
v -16 -64 0
v -32 -80 0
v -48 -80 0
v -48 -64 0
v -32 -64 0
v 0 -96 0
v -16 -96 0
v -16 -80 0
v 0 -80 0
v -16 -96 0
v -32 -96 0
v -32 -80 0
v -16 -80 0
v -32 -96 0
v -48 -96 0
v -48 -80 0
v -32 -80 0

# Texture cooridinates (Count = 12)
vt 0.375 0.7447553
vt 0.5 0.7447553
vt 0.5 0.7482517
vt 0.375 0.7482517
vt 0.625 0.7447553
vt 0.625 0.7482517
vt 0.75 0.7447553
vt 0.75 0.7482517
vt 0.375 0.7412587
vt 0.5 0.7412587
vt 0.625 0.7412587
vt 0.75 0.7412587

# Normal
vn 0 0 -1

# Mesh description
g icmc_mesh_0285

# Faces
f 1/1/1 2/2/1 3/3/1 4/4/1
f 5/2/1 6/5/1 7/6/1 8/3/1
f 9/5/1 10/7/1 11/8/1 12/6/1
f 13/9/1 14/10/1 15/2/1 16/1/1
f 17/10/1 18/11/1 19/5/1 20/2/1
f 21/11/1 22/12/1 23/7/1 24/5/1

