# Tiled2Unity generated file. Do not modify by hand.
# Wavefront file for 'icmc_mesh_0217.obj'

# Vertices (Count = 92)
v 0 -160 0
v -16 -160 0
v -16 -144 0
v 0 -144 0
v -16 -160 0
v -32 -160 0
v -32 -144 0
v -16 -144 0
v -32 -160 0
v -48 -160 0
v -48 -144 0
v -32 -144 0
v -48 -160 0
v -64 -160 0
v -64 -144 0
v -48 -144 0
v -64 -160 0
v -80 -160 0
v -80 -144 0
v -64 -144 0
v -80 -160 0
v -96 -160 0
v -96 -144 0
v -80 -144 0
v -96 -160 0
v -112 -160 0
v -112 -144 0
v -96 -144 0
v -112 -160 0
v -128 -160 0
v -128 -144 0
v -112 -144 0
v -128 -160 0
v -144 -160 0
v -144 -144 0
v -128 -144 0
v 0 -176 0
v -16 -176 0
v -16 -160 0
v 0 -160 0
v -16 -176 0
v -32 -176 0
v -32 -160 0
v -16 -160 0
v -32 -176 0
v -48 -176 0
v -48 -160 0
v -32 -160 0
v -48 -176 0
v -64 -176 0
v -64 -160 0
v -48 -160 0
v -64 -176 0
v -80 -176 0
v -80 -160 0
v -64 -160 0
v -80 -176 0
v -96 -176 0
v -96 -160 0
v -80 -160 0
v -96 -176 0
v -112 -176 0
v -112 -160 0
v -96 -160 0
v -112 -176 0
v -128 -176 0
v -128 -160 0
v -112 -160 0
v -128 -176 0
v -144 -176 0
v -144 -160 0
v -128 -160 0
v -128 -192 0
v -144 -192 0
v -144 -176 0
v -128 -176 0
v -128 -208 0
v -144 -208 0
v -144 -192 0
v -128 -192 0
v -128 -224 0
v -144 -224 0
v -144 -208 0
v -128 -208 0
v -128 -240 0
v -144 -240 0
v -144 -224 0
v -128 -224 0
v -128 -256 0
v -144 -256 0
v -144 -240 0
v -128 -240 0

# Texture cooridinates (Count = 13)
vt 0.3833333 0.7
vt 0.4 0.7
vt 0.4 0.7166667
vt 0.3833333 0.7166667
vt 0.4166667 0.7
vt 0.4166667 0.7166667
vt 0.3833333 0.6833333
vt 0.4 0.6833333
vt 0.4166667 0.6833333
vt 0.4 0.8666667
vt 0.4166667 0.8666667
vt 0.4166667 0.8833333
vt 0.4 0.8833333

# Normal
vn 0 0 -1

# Mesh description
g icmc_mesh_0217

# Faces
f 1/1/1 2/2/1 3/3/1 4/4/1
f 5/1/1 6/2/1 7/3/1 8/4/1
f 9/1/1 10/2/1 11/3/1 12/4/1
f 13/1/1 14/2/1 15/3/1 16/4/1
f 17/1/1 18/2/1 19/3/1 20/4/1
f 21/1/1 22/2/1 23/3/1 24/4/1
f 25/1/1 26/2/1 27/3/1 28/4/1
f 29/1/1 30/2/1 31/3/1 32/4/1
f 33/2/1 34/5/1 35/6/1 36/3/1
f 37/7/1 38/8/1 39/2/1 40/1/1
f 41/7/1 42/8/1 43/2/1 44/1/1
f 45/7/1 46/8/1 47/2/1 48/1/1
f 49/7/1 50/8/1 51/2/1 52/1/1
f 53/7/1 54/8/1 55/2/1 56/1/1
f 57/7/1 58/8/1 59/2/1 60/1/1
f 61/7/1 62/8/1 63/2/1 64/1/1
f 65/7/1 66/8/1 67/2/1 68/1/1
f 69/8/1 70/9/1 71/5/1 72/2/1
f 73/10/1 74/11/1 75/12/1 76/13/1
f 77/10/1 78/11/1 79/12/1 80/13/1
f 81/10/1 82/11/1 83/12/1 84/13/1
f 85/10/1 86/11/1 87/12/1 88/13/1
f 89/10/1 90/11/1 91/12/1 92/13/1

