# Tiled2Unity generated file. Do not modify by hand.
# Wavefront file for 'icmc_mesh_0187.obj'

# Vertices (Count = 72)
v 0 -16 0
v -16 -16 0
v -16 0 0
v 0 0 0
v -32 -16 0
v -48 -16 0
v -48 0 0
v -32 0 0
v -112 -16 0
v -128 -16 0
v -128 0 0
v -112 0 0
v -144 -16 0
v -160 -16 0
v -160 0 0
v -144 0 0
v -176 -16 0
v -192 -16 0
v -192 0 0
v -176 0 0
v -208 -16 0
v -224 -16 0
v -224 0 0
v -208 0 0
v 0 -32 0
v -16 -32 0
v -16 -16 0
v 0 -16 0
v -32 -32 0
v -48 -32 0
v -48 -16 0
v -32 -16 0
v -112 -32 0
v -128 -32 0
v -128 -16 0
v -112 -16 0
v -144 -32 0
v -160 -32 0
v -160 -16 0
v -144 -16 0
v -176 -32 0
v -192 -32 0
v -192 -16 0
v -176 -16 0
v -208 -32 0
v -224 -32 0
v -224 -16 0
v -208 -16 0
v 0 -48 0
v -16 -48 0
v -16 -32 0
v 0 -32 0
v -32 -48 0
v -48 -48 0
v -48 -32 0
v -32 -32 0
v -112 -48 0
v -128 -48 0
v -128 -32 0
v -112 -32 0
v -144 -48 0
v -160 -48 0
v -160 -32 0
v -144 -32 0
v -176 -48 0
v -192 -48 0
v -192 -32 0
v -176 -32 0
v -208 -48 0
v -224 -48 0
v -224 -32 0
v -208 -32 0

# Texture cooridinates (Count = 14)
vt 0.5 0.3146853
vt 0.625 0.3146853
vt 0.625 0.3181818
vt 0.5 0.3181818
vt 0 0.3146853
vt 0.125 0.3146853
vt 0.125 0.3181818
vt 0 0.3181818
vt 0.75 0.3181818
vt 0.75 0.3216783
vt 0.625 0.3216783
vt 0.5 0.3216783
vt 0.125 0.3216783
vt 0 0.3216783

# Normal
vn 0 0 -1

# Mesh description
g icmc_mesh_0187

# Faces
f 1/1/1 2/2/1 3/3/1 4/4/1
f 5/5/1 6/6/1 7/7/1 8/8/1
f 9/5/1 10/6/1 11/7/1 12/8/1
f 13/3/1 14/9/1 15/10/1 16/11/1
f 17/1/1 18/2/1 19/3/1 20/4/1
f 21/3/1 22/9/1 23/10/1 24/11/1
f 25/4/1 26/3/1 27/11/1 28/12/1
f 29/4/1 30/3/1 31/11/1 32/12/1
f 33/4/1 34/3/1 35/11/1 36/12/1
f 37/8/1 38/7/1 39/13/1 40/14/1
f 41/4/1 42/3/1 43/11/1 44/12/1
f 45/8/1 46/7/1 47/13/1 48/14/1
f 49/1/1 50/2/1 51/3/1 52/4/1
f 53/1/1 54/2/1 55/3/1 56/4/1
f 57/1/1 58/2/1 59/3/1 60/4/1
f 61/5/1 62/6/1 63/7/1 64/8/1
f 65/1/1 66/2/1 67/3/1 68/4/1
f 69/5/1 70/6/1 71/7/1 72/8/1

