# Tiled2Unity generated file. Do not modify by hand.
# Wavefront file for 'icmc_mesh_0380.obj'

# Vertices (Count = 16)
v -240 -64 0
v -256 -64 0
v -256 -48 0
v -240 -48 0
v -224 -80 0
v -240 -80 0
v -240 -64 0
v -224 -64 0
v -240 -80 0
v -256 -80 0
v -256 -64 0
v -240 -64 0
v -240 -96 0
v -256 -96 0
v -256 -80 0
v -240 -80 0

# Texture cooridinates (Count = 6)
vt 0.75 0.3076923
vt 0.875 0.3076923
vt 0.875 0.3111888
vt 0.75 0.3111888
vt 0.875 0.3146853
vt 0.75 0.3146853

# Normal
vn 0 0 -1

# Mesh description
g icmc_mesh_0380

# Faces
f 1/1/1 2/2/1 3/3/1 4/4/1
f 5/1/1 6/2/1 7/3/1 8/4/1
f 9/4/1 10/3/1 11/5/1 12/6/1
f 13/1/1 14/2/1 15/3/1 16/4/1

