# Tiled2Unity generated file. Do not modify by hand.
# Wavefront file for 'icmc_mesh_0016.obj'

# Vertices (Count = 48)
v -16 -39 0
v -17 -39 0
v -17 -38 0
v -16 -38 0
v -16 -38 0
v -17 -38 0
v -17 -37 0
v -16 -37 0
v -28 -33 0
v -29 -33 0
v -29 -32 0
v -28 -32 0
v -28 -32 0
v -29 -32 0
v -29 -31 0
v -28 -31 0
v -9 -31 0
v -10 -31 0
v -10 -30 0
v -9 -30 0
v -9 -30 0
v -10 -30 0
v -10 -29 0
v -9 -29 0
v -40 -28 0
v -41 -28 0
v -41 -27 0
v -40 -27 0
v -32 -28 0
v -33 -28 0
v -33 -27 0
v -32 -27 0
v -40 -27 0
v -41 -27 0
v -41 -26 0
v -40 -26 0
v -38 -27 0
v -39 -27 0
v -39 -26 0
v -38 -26 0
v -32 -27 0
v -33 -27 0
v -33 -26 0
v -32 -26 0
v -38 -26 0
v -39 -26 0
v -39 -25 0
v -38 -25 0

# Texture cooridinates (Count = 6)
vt 0.5 0.9888372
vt 0.625 0.9888372
vt 0.625 0.9925581
vt 0.5 0.9925581
vt 0.625 0.9962791
vt 0.5 0.9962791

# Normal
vn 0 0 -1

# Mesh description
g icmc_mesh_0016

# Faces
f 1/1/1 2/2/1 3/3/1 4/4/1
f 5/4/1 6/3/1 7/5/1 8/6/1
f 9/1/1 10/2/1 11/3/1 12/4/1
f 13/4/1 14/3/1 15/5/1 16/6/1
f 17/1/1 18/2/1 19/3/1 20/4/1
f 21/4/1 22/3/1 23/5/1 24/6/1
f 25/1/1 26/2/1 27/3/1 28/4/1
f 29/1/1 30/2/1 31/3/1 32/4/1
f 33/4/1 34/3/1 35/5/1 36/6/1
f 37/1/1 38/2/1 39/3/1 40/4/1
f 41/4/1 42/3/1 43/5/1 44/6/1
f 45/4/1 46/3/1 47/5/1 48/6/1

