# Tiled2Unity generated file. Do not modify by hand.
# Wavefront file for 'icmc_mesh_0216.obj'

# Vertices (Count = 116)
v -80 -16 0
v -96 -16 0
v -96 0 0
v -80 0 0
v -96 -16 0
v -112 -16 0
v -112 0 0
v -96 0 0
v -112 -16 0
v -128 -16 0
v -128 0 0
v -112 0 0
v -128 -16 0
v -144 -16 0
v -144 0 0
v -128 0 0
v -144 -16 0
v -160 -16 0
v -160 0 0
v -144 0 0
v -160 -16 0
v -176 -16 0
v -176 0 0
v -160 0 0
v -176 -16 0
v -192 -16 0
v -192 0 0
v -176 0 0
v -192 -16 0
v -208 -16 0
v -208 0 0
v -192 0 0
v -208 -16 0
v -224 -16 0
v -224 0 0
v -208 0 0
v -80 -32 0
v -96 -32 0
v -96 -16 0
v -80 -16 0
v -96 -32 0
v -112 -32 0
v -112 -16 0
v -96 -16 0
v -112 -32 0
v -128 -32 0
v -128 -16 0
v -112 -16 0
v -128 -32 0
v -144 -32 0
v -144 -16 0
v -128 -16 0
v -144 -32 0
v -160 -32 0
v -160 -16 0
v -144 -16 0
v -160 -32 0
v -176 -32 0
v -176 -16 0
v -160 -16 0
v -176 -32 0
v -192 -32 0
v -192 -16 0
v -176 -16 0
v -192 -32 0
v -208 -32 0
v -208 -16 0
v -192 -16 0
v -208 -32 0
v -224 -32 0
v -224 -16 0
v -208 -16 0
v -208 -160 0
v -224 -160 0
v -224 -144 0
v -208 -144 0
v -224 -160 0
v -240 -160 0
v -240 -144 0
v -224 -144 0
v -240 -160 0
v -256 -160 0
v -256 -144 0
v -240 -144 0
v -208 -176 0
v -224 -176 0
v -224 -160 0
v -208 -160 0
v -224 -176 0
v -240 -176 0
v -240 -160 0
v -224 -160 0
v -240 -176 0
v -256 -176 0
v -256 -160 0
v -240 -160 0
v -208 -192 0
v -224 -192 0
v -224 -176 0
v -208 -176 0
v -208 -208 0
v -224 -208 0
v -224 -192 0
v -208 -192 0
v -208 -224 0
v -224 -224 0
v -224 -208 0
v -208 -208 0
v -208 -240 0
v -224 -240 0
v -224 -224 0
v -208 -224 0
v -208 -256 0
v -224 -256 0
v -224 -240 0
v -208 -240 0

# Texture cooridinates (Count = 25)
vt 0.3666667 0.8333333
vt 0.3833333 0.8333333
vt 0.3833333 0.85
vt 0.3666667 0.85
vt 0.4 0.8333333
vt 0.4 0.85
vt 0.4166667 0.8333333
vt 0.4166667 0.85
vt 0.3666667 0.8166667
vt 0.3833333 0.8166667
vt 0.4 0.8166667
vt 0.4166667 0.8166667
vt 0.3666667 0.7
vt 0.3833333 0.7
vt 0.3833333 0.7166667
vt 0.3666667 0.7166667
vt 0.4 0.7
vt 0.4 0.7166667
vt 0.3666667 0.6833333
vt 0.3833333 0.6833333
vt 0.4 0.6833333
vt 0.3666667 0.8666667
vt 0.3833333 0.8666667
vt 0.3833333 0.8833333
vt 0.3666667 0.8833333

# Normal
vn 0 0 -1

# Mesh description
g icmc_mesh_0216

# Faces
f 1/1/1 2/2/1 3/3/1 4/4/1
f 5/2/1 6/5/1 7/6/1 8/3/1
f 9/2/1 10/5/1 11/6/1 12/3/1
f 13/2/1 14/5/1 15/6/1 16/3/1
f 17/2/1 18/5/1 19/6/1 20/3/1
f 21/2/1 22/5/1 23/6/1 24/3/1
f 25/2/1 26/5/1 27/6/1 28/3/1
f 29/2/1 30/5/1 31/6/1 32/3/1
f 33/5/1 34/7/1 35/8/1 36/6/1
f 37/9/1 38/10/1 39/2/1 40/1/1
f 41/10/1 42/11/1 43/5/1 44/2/1
f 45/10/1 46/11/1 47/5/1 48/2/1
f 49/10/1 50/11/1 51/5/1 52/2/1
f 53/10/1 54/11/1 55/5/1 56/2/1
f 57/10/1 58/11/1 59/5/1 60/2/1
f 61/10/1 62/11/1 63/5/1 64/2/1
f 65/10/1 66/11/1 67/5/1 68/2/1
f 69/11/1 70/12/1 71/7/1 72/5/1
f 73/13/1 74/14/1 75/15/1 76/16/1
f 77/14/1 78/17/1 79/18/1 80/15/1
f 81/14/1 82/17/1 83/18/1 84/15/1
f 85/19/1 86/20/1 87/14/1 88/13/1
f 89/20/1 90/21/1 91/17/1 92/14/1
f 93/20/1 94/21/1 95/17/1 96/14/1
f 97/22/1 98/23/1 99/24/1 100/25/1
f 101/22/1 102/23/1 103/24/1 104/25/1
f 105/22/1 106/23/1 107/24/1 108/25/1
f 109/22/1 110/23/1 111/24/1 112/25/1
f 113/22/1 114/23/1 115/24/1 116/25/1

