# Tiled2Unity generated file. Do not modify by hand.
# Wavefront file for 'icmc_mesh_0136.obj'

# Vertices (Count = 52)
v -208 -32 0
v -224 -32 0
v -224 -16 0
v -208 -16 0
v -208 -80 0
v -224 -80 0
v -224 -64 0
v -208 -64 0
v -208 -96 0
v -224 -96 0
v -224 -80 0
v -208 -80 0
v -208 -112 0
v -224 -112 0
v -224 -96 0
v -208 -96 0
v -208 -128 0
v -224 -128 0
v -224 -112 0
v -208 -112 0
v -208 -144 0
v -224 -144 0
v -224 -128 0
v -208 -128 0
v -208 -160 0
v -224 -160 0
v -224 -144 0
v -208 -144 0
v -208 -176 0
v -224 -176 0
v -224 -160 0
v -208 -160 0
v -144 -192 0
v -160 -192 0
v -160 -176 0
v -144 -176 0
v -160 -192 0
v -176 -192 0
v -176 -176 0
v -160 -176 0
v -176 -192 0
v -192 -192 0
v -192 -176 0
v -176 -176 0
v -192 -192 0
v -208 -192 0
v -208 -176 0
v -192 -176 0
v -208 -192 0
v -224 -192 0
v -224 -176 0
v -208 -176 0

# Texture cooridinates (Count = 12)
vt 0.9166667 0.6166667
vt 0.9333333 0.6166667
vt 0.9333333 0.6333333
vt 0.9166667 0.6333333
vt 0.9333333 0.65
vt 0.9166667 0.65
vt 0.9833333 0.6
vt 1 0.6
vt 1 0.6166667
vt 0.9833333 0.6166667
vt 1 0.6333333
vt 0.9833333 0.6333333

# Normal
vn 0 0 -1

# Mesh description
g icmc_mesh_0136

# Faces
f 1/1/1 2/2/1 3/3/1 4/4/1
f 5/4/1 6/3/1 7/5/1 8/6/1
f 9/4/1 10/3/1 11/5/1 12/6/1
f 13/4/1 14/3/1 15/5/1 16/6/1
f 17/4/1 18/3/1 19/5/1 20/6/1
f 21/4/1 22/3/1 23/5/1 24/6/1
f 25/4/1 26/3/1 27/5/1 28/6/1
f 29/4/1 30/3/1 31/5/1 32/6/1
f 33/7/1 34/8/1 35/9/1 36/10/1
f 37/7/1 38/8/1 39/9/1 40/10/1
f 41/7/1 42/8/1 43/9/1 44/10/1
f 45/7/1 46/8/1 47/9/1 48/10/1
f 49/10/1 50/9/1 51/11/1 52/12/1

