# Tiled2Unity generated file. Do not modify by hand.
# Wavefront file for 'icmc_mesh_0240.obj'

# Vertices (Count = 20)
v -224 -64 0
v -240 -64 0
v -240 -48 0
v -224 -48 0
v -224 -96 0
v -240 -96 0
v -240 -80 0
v -224 -80 0
v -224 -112 0
v -240 -112 0
v -240 -96 0
v -224 -96 0
v -224 -128 0
v -240 -128 0
v -240 -112 0
v -224 -112 0
v -224 -144 0
v -240 -144 0
v -240 -128 0
v -224 -128 0

# Texture cooridinates (Count = 12)
vt 0.9666666 0.6238095
vt 0.975 0.6238095
vt 0.975 0.6285714
vt 0.9666666 0.6285714
vt 0.975 0.6333333
vt 0.9666666 0.6333333
vt 0.975 0.452381
vt 0.9833333 0.452381
vt 0.9833333 0.4571428
vt 0.975 0.4571428
vt 0.975 0.447619
vt 0.9833333 0.447619

# Normal
vn 0 0 -1

# Mesh description
g icmc_mesh_0240

# Faces
f 1/1/1 2/2/1 3/3/1 4/4/1
f 5/4/1 6/3/1 7/5/1 8/6/1
f 9/1/1 10/2/1 11/3/1 12/4/1
f 13/7/1 14/8/1 15/9/1 16/10/1
f 17/11/1 18/12/1 19/8/1 20/7/1

