# Tiled2Unity generated file. Do not modify by hand.
# Wavefront file for 'icmc_mesh_0088.obj'

# Vertices (Count = 40)
v -176 -16 0
v -192 -16 0
v -192 0 0
v -176 0 0
v -192 -16 0
v -208 -16 0
v -208 0 0
v -192 0 0
v -208 -16 0
v -224 -16 0
v -224 0 0
v -208 0 0
v -224 -16 0
v -240 -16 0
v -240 0 0
v -224 0 0
v -240 -16 0
v -256 -16 0
v -256 0 0
v -240 0 0
v -176 -32 0
v -192 -32 0
v -192 -16 0
v -176 -16 0
v -192 -32 0
v -208 -32 0
v -208 -16 0
v -192 -16 0
v -208 -32 0
v -224 -32 0
v -224 -16 0
v -208 -16 0
v -224 -32 0
v -240 -32 0
v -240 -16 0
v -224 -16 0
v -240 -32 0
v -256 -32 0
v -256 -16 0
v -240 -16 0

# Texture cooridinates (Count = 12)
vt 0.343834 0.578125
vt 0.3477412 0.578125
vt 0.3477412 0.5859375
vt 0.343834 0.5859375
vt 0.3516484 0.578125
vt 0.3516484 0.5859375
vt 0.3555556 0.578125
vt 0.3555556 0.5859375
vt 0.4141636 0.984375
vt 0.4180708 0.984375
vt 0.4180708 0.9921875
vt 0.4141636 0.9921875

# Normal
vn 0 0 -1

# Mesh description
g icmc_mesh_0088

# Faces
f 1/1/1 2/2/1 3/3/1 4/4/1
f 5/2/1 6/5/1 7/6/1 8/3/1
f 9/5/1 10/7/1 11/8/1 12/6/1
f 13/9/1 14/10/1 15/11/1 16/12/1
f 17/9/1 18/10/1 19/11/1 20/12/1
f 21/1/1 22/2/1 23/3/1 24/4/1
f 25/2/1 26/5/1 27/6/1 28/3/1
f 29/5/1 30/7/1 31/8/1 32/6/1
f 33/9/1 34/10/1 35/11/1 36/12/1
f 37/9/1 38/10/1 39/11/1 40/12/1

