# Tiled2Unity generated file. Do not modify by hand.
# Wavefront file for 'icmc_mesh_0312.obj'

# Vertices (Count = 16)
v -64 -112 0
v -80 -112 0
v -80 -96 0
v -64 -96 0
v -128 -112 0
v -144 -112 0
v -144 -96 0
v -128 -96 0
v -64 -128 0
v -80 -128 0
v -80 -112 0
v -64 -112 0
v -128 -128 0
v -144 -128 0
v -144 -112 0
v -128 -112 0

# Texture cooridinates (Count = 6)
vt 0.9666666 0.6285714
vt 0.975 0.6285714
vt 0.975 0.6333333
vt 0.9666666 0.6333333
vt 0.9666666 0.6238095
vt 0.975 0.6238095

# Normal
vn 0 0 -1

# Mesh description
g icmc_mesh_0312

# Faces
f 1/1/1 2/2/1 3/3/1 4/4/1
f 5/1/1 6/2/1 7/3/1 8/4/1
f 9/5/1 10/6/1 11/2/1 12/1/1
f 13/5/1 14/6/1 15/2/1 16/1/1

