# Tiled2Unity generated file. Do not modify by hand.
# Wavefront file for 'icmc_mesh_0025.obj'

# Vertices (Count = 104)
v -45 -50 0
v -46 -50 0
v -46 -49 0
v -45 -49 0
v -43 -50 0
v -44 -50 0
v -44 -49 0
v -43 -49 0
v -41 -50 0
v -42 -50 0
v -42 -49 0
v -41 -49 0
v -39 -50 0
v -40 -50 0
v -40 -49 0
v -39 -49 0
v -34 -50 0
v -35 -50 0
v -35 -49 0
v -34 -49 0
v -32 -50 0
v -33 -50 0
v -33 -49 0
v -32 -49 0
v -30 -50 0
v -31 -50 0
v -31 -49 0
v -30 -49 0
v -28 -50 0
v -29 -50 0
v -29 -49 0
v -28 -49 0
v -23 -50 0
v -24 -50 0
v -24 -49 0
v -23 -49 0
v -22 -50 0
v -23 -50 0
v -23 -49 0
v -22 -49 0
v -21 -50 0
v -22 -50 0
v -22 -49 0
v -21 -49 0
v -20 -50 0
v -21 -50 0
v -21 -49 0
v -20 -49 0
v -45 -48 0
v -46 -48 0
v -46 -47 0
v -45 -47 0
v -43 -48 0
v -44 -48 0
v -44 -47 0
v -43 -47 0
v -41 -48 0
v -42 -48 0
v -42 -47 0
v -41 -47 0
v -39 -48 0
v -40 -48 0
v -40 -47 0
v -39 -47 0
v -34 -48 0
v -35 -48 0
v -35 -47 0
v -34 -47 0
v -32 -48 0
v -33 -48 0
v -33 -47 0
v -32 -47 0
v -30 -48 0
v -31 -48 0
v -31 -47 0
v -30 -47 0
v -28 -48 0
v -29 -48 0
v -29 -47 0
v -28 -47 0
v -23 -48 0
v -24 -48 0
v -24 -47 0
v -23 -47 0
v -22 -48 0
v -23 -48 0
v -23 -47 0
v -22 -47 0
v -21 -48 0
v -22 -48 0
v -22 -47 0
v -21 -47 0
v -20 -48 0
v -21 -48 0
v -21 -47 0
v -20 -47 0
v -60 -47 0
v -61 -47 0
v -61 -46 0
v -60 -46 0
v -57 -47 0
v -58 -47 0
v -58 -46 0
v -57 -46 0

# Texture cooridinates (Count = 25)
vt 0 0.3181818
vt 0.125 0.3181818
vt 0.125 0.3216783
vt 0 0.3216783
vt 0.5 0.3181818
vt 0.625 0.3181818
vt 0.625 0.3216783
vt 0.5 0.3216783
vt 0.875 0.4125874
vt 1 0.4125874
vt 1 0.4160839
vt 0.875 0.4160839
vt 0.75 0.4125874
vt 0.75 0.4160839
vt 0.625 0.4125874
vt 0.625 0.4160839
vt 0.5 0.4125874
vt 0.5 0.4160839
vt 0.75 0.3216783
vt 0.75 0.3251748
vt 0.625 0.3251748
vt 0.125 0.458042
vt 0.25 0.458042
vt 0.25 0.4615384
vt 0.125 0.4615384

# Normal
vn 0 0 -1

# Mesh description
g icmc_mesh_0025

# Faces
f 1/1/1 2/2/1 3/3/1 4/4/1
f 5/5/1 6/6/1 7/7/1 8/8/1
f 9/1/1 10/2/1 11/3/1 12/4/1
f 13/5/1 14/6/1 15/7/1 16/8/1
f 17/5/1 18/6/1 19/7/1 20/8/1
f 21/5/1 22/6/1 23/7/1 24/8/1
f 25/1/1 26/2/1 27/3/1 28/4/1
f 29/5/1 30/6/1 31/7/1 32/8/1
f 33/9/1 34/10/1 35/11/1 36/12/1
f 37/13/1 38/9/1 39/12/1 40/14/1
f 41/15/1 42/13/1 43/14/1 44/16/1
f 45/17/1 46/15/1 47/16/1 48/18/1
f 49/7/1 50/19/1 51/20/1 52/21/1
f 53/5/1 54/6/1 55/7/1 56/8/1
f 57/7/1 58/19/1 59/20/1 60/21/1
f 61/1/1 62/2/1 63/3/1 64/4/1
f 65/1/1 66/2/1 67/3/1 68/4/1
f 69/5/1 70/6/1 71/7/1 72/8/1
f 73/5/1 74/6/1 75/7/1 76/8/1
f 77/7/1 78/19/1 79/20/1 80/21/1
f 81/9/1 82/10/1 83/11/1 84/12/1
f 85/13/1 86/9/1 87/12/1 88/14/1
f 89/15/1 90/13/1 91/14/1 92/16/1
f 93/17/1 94/15/1 95/16/1 96/18/1
f 97/22/1 98/23/1 99/24/1 100/25/1
f 101/22/1 102/23/1 103/24/1 104/25/1

