# Tiled2Unity generated file. Do not modify by hand.
# Wavefront file for 'icmc_mesh_0020.obj'

# Vertices (Count = 400)
v -50 -54 0
v -51 -54 0
v -51 -53 0
v -50 -53 0
v -49 -54 0
v -50 -54 0
v -50 -53 0
v -49 -53 0
v -48 -54 0
v -49 -54 0
v -49 -53 0
v -48 -53 0
v -72 -53 0
v -73 -53 0
v -73 -52 0
v -72 -52 0
v -71 -53 0
v -72 -53 0
v -72 -52 0
v -71 -52 0
v -50 -53 0
v -51 -53 0
v -51 -52 0
v -50 -52 0
v -49 -53 0
v -50 -53 0
v -50 -52 0
v -49 -52 0
v -48 -53 0
v -49 -53 0
v -49 -52 0
v -48 -52 0
v -87 -52 0
v -88 -52 0
v -88 -51 0
v -87 -51 0
v -72 -52 0
v -73 -52 0
v -73 -51 0
v -72 -51 0
v -71 -52 0
v -72 -52 0
v -72 -51 0
v -71 -51 0
v -87 -49 0
v -88 -49 0
v -88 -48 0
v -87 -48 0
v -24 -47 0
v -25 -47 0
v -25 -46 0
v -24 -46 0
v -23 -47 0
v -24 -47 0
v -24 -46 0
v -23 -46 0
v -44 -46 0
v -45 -46 0
v -45 -45 0
v -44 -45 0
v -43 -46 0
v -44 -46 0
v -44 -45 0
v -43 -45 0
v -42 -46 0
v -43 -46 0
v -43 -45 0
v -42 -45 0
v -41 -46 0
v -42 -46 0
v -42 -45 0
v -41 -45 0
v -40 -46 0
v -41 -46 0
v -41 -45 0
v -40 -45 0
v -39 -46 0
v -40 -46 0
v -40 -45 0
v -39 -45 0
v -34 -46 0
v -35 -46 0
v -35 -45 0
v -34 -45 0
v -33 -46 0
v -34 -46 0
v -34 -45 0
v -33 -45 0
v -32 -46 0
v -33 -46 0
v -33 -45 0
v -32 -45 0
v -31 -46 0
v -32 -46 0
v -32 -45 0
v -31 -45 0
v -30 -46 0
v -31 -46 0
v -31 -45 0
v -30 -45 0
v -29 -46 0
v -30 -46 0
v -30 -45 0
v -29 -45 0
v -24 -46 0
v -25 -46 0
v -25 -45 0
v -24 -45 0
v -23 -46 0
v -24 -46 0
v -24 -45 0
v -23 -45 0
v -44 -45 0
v -45 -45 0
v -45 -44 0
v -44 -44 0
v -43 -45 0
v -44 -45 0
v -44 -44 0
v -43 -44 0
v -42 -45 0
v -43 -45 0
v -43 -44 0
v -42 -44 0
v -41 -45 0
v -42 -45 0
v -42 -44 0
v -41 -44 0
v -40 -45 0
v -41 -45 0
v -41 -44 0
v -40 -44 0
v -39 -45 0
v -40 -45 0
v -40 -44 0
v -39 -44 0
v -34 -45 0
v -35 -45 0
v -35 -44 0
v -34 -44 0
v -33 -45 0
v -34 -45 0
v -34 -44 0
v -33 -44 0
v -32 -45 0
v -33 -45 0
v -33 -44 0
v -32 -44 0
v -31 -45 0
v -32 -45 0
v -32 -44 0
v -31 -44 0
v -30 -45 0
v -31 -45 0
v -31 -44 0
v -30 -44 0
v -29 -45 0
v -30 -45 0
v -30 -44 0
v -29 -44 0
v -21 -44 0
v -22 -44 0
v -22 -43 0
v -21 -43 0
v -20 -44 0
v -21 -44 0
v -21 -43 0
v -20 -43 0
v -19 -44 0
v -20 -44 0
v -20 -43 0
v -19 -43 0
v -21 -43 0
v -22 -43 0
v -22 -42 0
v -21 -42 0
v -20 -43 0
v -21 -43 0
v -21 -42 0
v -20 -42 0
v -19 -43 0
v -20 -43 0
v -20 -42 0
v -19 -42 0
v -50 -42 0
v -51 -42 0
v -51 -41 0
v -50 -41 0
v -47 -42 0
v -48 -42 0
v -48 -41 0
v -47 -41 0
v -21 -42 0
v -22 -42 0
v -22 -41 0
v -21 -41 0
v -20 -42 0
v -21 -42 0
v -21 -41 0
v -20 -41 0
v -19 -42 0
v -20 -42 0
v -20 -41 0
v -19 -41 0
v -50 -41 0
v -51 -41 0
v -51 -40 0
v -50 -40 0
v -47 -41 0
v -48 -41 0
v -48 -40 0
v -47 -40 0
v -21 -41 0
v -22 -41 0
v -22 -40 0
v -21 -40 0
v -20 -41 0
v -21 -41 0
v -21 -40 0
v -20 -40 0
v -19 -41 0
v -20 -41 0
v -20 -40 0
v -19 -40 0
v -49 -40 0
v -50 -40 0
v -50 -39 0
v -49 -39 0
v -48 -40 0
v -49 -40 0
v -49 -39 0
v -48 -39 0
v -100 -32 0
v -101 -32 0
v -101 -31 0
v -100 -31 0
v -100 -31 0
v -101 -31 0
v -101 -30 0
v -100 -30 0
v -89 -27 0
v -90 -27 0
v -90 -26 0
v -89 -26 0
v -100 -26 0
v -101 -26 0
v -101 -25 0
v -100 -25 0
v -89 -26 0
v -90 -26 0
v -90 -25 0
v -89 -25 0
v -100 -25 0
v -101 -25 0
v -101 -24 0
v -100 -24 0
v -67 -24 0
v -68 -24 0
v -68 -23 0
v -67 -23 0
v -67 -23 0
v -68 -23 0
v -68 -22 0
v -67 -22 0
v -60 -23 0
v -61 -23 0
v -61 -22 0
v -60 -22 0
v -7 -23 0
v -8 -23 0
v -8 -22 0
v -7 -22 0
v -89 -22 0
v -90 -22 0
v -90 -21 0
v -89 -21 0
v -67 -22 0
v -68 -22 0
v -68 -21 0
v -67 -21 0
v -60 -22 0
v -61 -22 0
v -61 -21 0
v -60 -21 0
v -89 -21 0
v -90 -21 0
v -90 -20 0
v -89 -20 0
v -77 -21 0
v -78 -21 0
v -78 -20 0
v -77 -20 0
v -76 -21 0
v -77 -21 0
v -77 -20 0
v -76 -20 0
v -67 -21 0
v -68 -21 0
v -68 -20 0
v -67 -20 0
v -77 -20 0
v -78 -20 0
v -78 -19 0
v -77 -19 0
v -76 -20 0
v -77 -20 0
v -77 -19 0
v -76 -19 0
v -67 -20 0
v -68 -20 0
v -68 -19 0
v -67 -19 0
v -18 -19 0
v -19 -19 0
v -19 -18 0
v -18 -18 0
v -14 -19 0
v -15 -19 0
v -15 -18 0
v -14 -18 0
v -45 -18 0
v -46 -18 0
v -46 -17 0
v -45 -17 0
v -44 -18 0
v -45 -18 0
v -45 -17 0
v -44 -17 0
v -43 -18 0
v -44 -18 0
v -44 -17 0
v -43 -17 0
v -42 -18 0
v -43 -18 0
v -43 -17 0
v -42 -17 0
v -41 -18 0
v -42 -18 0
v -42 -17 0
v -41 -17 0
v -18 -18 0
v -19 -18 0
v -19 -17 0
v -18 -17 0
v -14 -18 0
v -15 -18 0
v -15 -17 0
v -14 -17 0
v -45 -17 0
v -46 -17 0
v -46 -16 0
v -45 -16 0
v -41 -17 0
v -42 -17 0
v -42 -16 0
v -41 -16 0
v -20 -15 0
v -21 -15 0
v -21 -14 0
v -20 -14 0
v -19 -15 0
v -20 -15 0
v -20 -14 0
v -19 -14 0
v -18 -15 0
v -19 -15 0
v -19 -14 0
v -18 -14 0
v -16 -15 0
v -17 -15 0
v -17 -14 0
v -16 -14 0
v -15 -15 0
v -16 -15 0
v -16 -14 0
v -15 -14 0
v -14 -15 0
v -15 -15 0
v -15 -14 0
v -14 -14 0
v -13 -15 0
v -14 -15 0
v -14 -14 0
v -13 -14 0
v -12 -15 0
v -13 -15 0
v -13 -14 0
v -12 -14 0
v -11 -15 0
v -12 -15 0
v -12 -14 0
v -11 -14 0
v -20 -14 0
v -21 -14 0
v -21 -13 0
v -20 -13 0
v -13 -14 0
v -14 -14 0
v -14 -13 0
v -13 -13 0

# Texture cooridinates (Count = 98)
vt 0.625 0.7412587
vt 0.75 0.7412587
vt 0.75 0.7447553
vt 0.625 0.7447553
vt 0.5 0.7412587
vt 0.5 0.7447553
vt 0.375 0.7412587
vt 0.375 0.7447553
vt 0.625 0.6538461
vt 0.75 0.6538461
vt 0.75 0.6573427
vt 0.625 0.6573427
vt 0.5 0.6538461
vt 0.5 0.6573427
vt 0.75 0.7482517
vt 0.625 0.7482517
vt 0.5 0.7482517
vt 0.375 0.7482517
vt 0.375 0.4160839
vt 0.5 0.4160839
vt 0.5 0.4195804
vt 0.375 0.4195804
vt 0.75 0.6608392
vt 0.625 0.6608392
vt 0.5 0.6608392
vt 0.625 0.4160839
vt 0.625 0.4195804
vt 0.375 0.4090909
vt 0.5 0.4090909
vt 0.5 0.4125874
vt 0.375 0.4125874
vt 0.25 0.4090909
vt 0.25 0.4125874
vt 0.625 0.4230769
vt 0.5 0.4230769
vt 0.375 0.4230769
vt 0.25 0.4195804
vt 0.25 0.4230769
vt 0.25 0.4160839
vt 0.625 0.4265735
vt 0.5 0.4265735
vt 0.375 0.4265735
vt 0.25 0.4265735
vt 0.75 0.2447553
vt 0.875 0.2447553
vt 0.875 0.2482517
vt 0.75 0.2482517
vt 0.625 0.1748252
vt 0.75 0.1748252
vt 0.75 0.1783217
vt 0.625 0.1783217
vt 0.5 0.2447553
vt 0.625 0.2447553
vt 0.625 0.2482517
vt 0.5 0.2482517
vt 0.875 0.2517483
vt 0.75 0.2517483
vt 0.75 0.1818182
vt 0.625 0.1818182
vt 0.625 0.2517483
vt 0.5 0.2517483
vt 0.875 0.3006993
vt 1 0.3006993
vt 1 0.3041958
vt 0.875 0.3041958
vt 0.75 0.3006993
vt 0.75 0.3041958
vt 0.75 0.1853147
vt 0.625 0.1853147
vt 1 0.3076923
vt 0.875 0.3076923
vt 0.75 0.3076923
vt 0.75 0.1888112
vt 0.625 0.1888112
vt 0.875 0.3146853
vt 1 0.3146853
vt 1 0.3181818
vt 0.875 0.3181818
vt 0.75 0.3146853
vt 0.75 0.3181818
vt 0.375 0.2727273
vt 0.5 0.2727273
vt 0.5 0.2762238
vt 0.375 0.2762238
vt 0.125 0.4370629
vt 0.25 0.4370629
vt 0.25 0.4405594
vt 0.125 0.4405594
vt 0.5 0.2797203
vt 0.375 0.2797203
vt 0.875 0.8811189
vt 1 0.8811189
vt 1 0.8846154
vt 0.875 0.8846154
vt 0.5 0.3111888
vt 0.625 0.3111888
vt 0.625 0.3146853
vt 0.5 0.3146853

# Normal
vn 0 0 -1

# Mesh description
g icmc_mesh_0020

# Faces
f 1/1/1 2/2/1 3/3/1 4/4/1
f 5/5/1 6/1/1 7/4/1 8/6/1
f 9/7/1 10/5/1 11/6/1 12/8/1
f 13/9/1 14/10/1 15/11/1 16/12/1
f 17/13/1 18/9/1 19/12/1 20/14/1
f 21/4/1 22/3/1 23/15/1 24/16/1
f 25/6/1 26/4/1 27/16/1 28/17/1
f 29/8/1 30/6/1 31/17/1 32/18/1
f 33/19/1 34/20/1 35/21/1 36/22/1
f 37/12/1 38/11/1 39/23/1 40/24/1
f 41/14/1 42/12/1 43/24/1 44/25/1
f 45/20/1 46/26/1 47/27/1 48/21/1
f 49/28/1 50/29/1 51/30/1 52/31/1
f 53/32/1 54/28/1 55/31/1 56/33/1
f 57/21/1 58/27/1 59/34/1 60/35/1
f 61/22/1 62/21/1 63/35/1 64/36/1
f 65/37/1 66/22/1 67/36/1 68/38/1
f 69/21/1 70/27/1 71/34/1 72/35/1
f 73/22/1 74/21/1 75/35/1 76/36/1
f 77/37/1 78/22/1 79/36/1 80/38/1
f 81/21/1 82/27/1 83/34/1 84/35/1
f 85/22/1 86/21/1 87/35/1 88/36/1
f 89/37/1 90/22/1 91/36/1 92/38/1
f 93/21/1 94/27/1 95/34/1 96/35/1
f 97/22/1 98/21/1 99/35/1 100/36/1
f 101/37/1 102/22/1 103/36/1 104/38/1
f 105/31/1 106/30/1 107/20/1 108/19/1
f 109/33/1 110/31/1 111/19/1 112/39/1
f 113/35/1 114/34/1 115/40/1 116/41/1
f 117/36/1 118/35/1 119/41/1 120/42/1
f 121/38/1 122/36/1 123/42/1 124/43/1
f 125/35/1 126/34/1 127/40/1 128/41/1
f 129/36/1 130/35/1 131/41/1 132/42/1
f 133/38/1 134/36/1 135/42/1 136/43/1
f 137/35/1 138/34/1 139/40/1 140/41/1
f 141/36/1 142/35/1 143/41/1 144/42/1
f 145/38/1 146/36/1 147/42/1 148/43/1
f 149/35/1 150/34/1 151/40/1 152/41/1
f 153/36/1 154/35/1 155/41/1 156/42/1
f 157/38/1 158/36/1 159/42/1 160/43/1
f 161/44/1 162/45/1 163/46/1 164/47/1
f 165/48/1 166/49/1 167/50/1 168/51/1
f 169/52/1 170/53/1 171/54/1 172/55/1
f 173/47/1 174/46/1 175/56/1 176/57/1
f 177/51/1 178/50/1 179/58/1 180/59/1
f 181/55/1 182/54/1 183/60/1 184/61/1
f 185/62/1 186/63/1 187/64/1 188/65/1
f 189/66/1 190/62/1 191/65/1 192/67/1
f 193/44/1 194/45/1 195/46/1 196/47/1
f 197/59/1 198/58/1 199/68/1 200/69/1
f 201/52/1 202/53/1 203/54/1 204/55/1
f 205/65/1 206/64/1 207/70/1 208/71/1
f 209/67/1 210/65/1 211/71/1 212/72/1
f 213/47/1 214/46/1 215/56/1 216/57/1
f 217/69/1 218/68/1 219/73/1 220/74/1
f 221/55/1 222/54/1 223/60/1 224/61/1
f 225/75/1 226/76/1 227/77/1 228/78/1
f 229/79/1 230/75/1 231/78/1 232/80/1
f 233/62/1 234/63/1 235/64/1 236/65/1
f 237/65/1 238/64/1 239/70/1 240/71/1
f 241/66/1 242/62/1 243/65/1 244/67/1
f 245/62/1 246/63/1 247/64/1 248/65/1
f 249/67/1 250/65/1 251/71/1 252/72/1
f 253/65/1 254/64/1 255/70/1 256/71/1
f 257/81/1 258/82/1 259/83/1 260/84/1
f 261/62/1 262/63/1 263/64/1 264/65/1
f 265/66/1 266/62/1 267/65/1 268/67/1
f 269/85/1 270/86/1 271/87/1 272/88/1
f 273/66/1 274/62/1 275/65/1 276/67/1
f 277/65/1 278/64/1 279/70/1 280/71/1
f 281/67/1 282/65/1 283/71/1 284/72/1
f 285/67/1 286/65/1 287/71/1 288/72/1
f 289/9/1 290/10/1 291/11/1 292/12/1
f 293/13/1 294/9/1 295/12/1 296/14/1
f 297/81/1 298/82/1 299/83/1 300/84/1
f 301/12/1 302/11/1 303/23/1 304/24/1
f 305/14/1 306/12/1 307/24/1 308/25/1
f 309/84/1 310/83/1 311/89/1 312/90/1
f 313/62/1 314/63/1 315/64/1 316/65/1
f 317/66/1 318/62/1 319/65/1 320/67/1
f 321/91/1 322/92/1 323/93/1 324/94/1
f 325/91/1 326/92/1 327/93/1 328/94/1
f 329/91/1 330/92/1 331/93/1 332/94/1
f 333/91/1 334/92/1 335/93/1 336/94/1
f 337/91/1 338/92/1 339/93/1 340/94/1
f 341/65/1 342/64/1 343/70/1 344/71/1
f 345/67/1 346/65/1 347/71/1 348/72/1
f 349/91/1 350/92/1 351/93/1 352/94/1
f 353/91/1 354/92/1 355/93/1 356/94/1
f 357/81/1 358/82/1 359/83/1 360/84/1
f 361/75/1 362/76/1 363/77/1 364/78/1
f 365/79/1 366/75/1 367/78/1 368/80/1
f 369/75/1 370/76/1 371/77/1 372/78/1
f 373/79/1 374/75/1 375/78/1 376/80/1
f 377/95/1 378/96/1 379/97/1 380/98/1
f 381/81/1 382/82/1 383/83/1 384/84/1
f 385/75/1 386/76/1 387/77/1 388/78/1
f 389/79/1 390/75/1 391/78/1 392/80/1
f 393/84/1 394/83/1 395/89/1 396/90/1
f 397/84/1 398/83/1 399/89/1 400/90/1

