# Tiled2Unity generated file. Do not modify by hand.
# Wavefront file for 'icmc_mesh_0191.obj'

# Vertices (Count = 20)
v -128 -16 0
v -144 -16 0
v -144 0 0
v -128 0 0
v -224 -16 0
v -240 -16 0
v -240 0 0
v -224 0 0
v -16 -48 0
v -32 -48 0
v -32 -32 0
v -16 -32 0
v -32 -48 0
v -48 -48 0
v -48 -32 0
v -32 -32 0
v -128 -48 0
v -144 -48 0
v -144 -32 0
v -128 -32 0

# Texture cooridinates (Count = 8)
vt 0.3833333 0.7
vt 0.4 0.7
vt 0.4 0.7166667
vt 0.3833333 0.7166667
vt 0.2833333 0.9333333
vt 0.3 0.9333333
vt 0.3 0.95
vt 0.2833333 0.95

# Normal
vn 0 0 -1

# Mesh description
g icmc_mesh_0191

# Faces
f 1/1/1 2/2/1 3/3/1 4/4/1
f 5/1/1 6/2/1 7/3/1 8/4/1
f 9/5/1 10/6/1 11/7/1 12/8/1
f 13/5/1 14/6/1 15/7/1 16/8/1
f 17/5/1 18/6/1 19/7/1 20/8/1

