# Tiled2Unity generated file. Do not modify by hand.
# Wavefront file for 'icmc_mesh_0160.obj'

# Vertices (Count = 44)
v -208 -48 0
v -224 -48 0
v -224 -32 0
v -208 -32 0
v -208 -64 0
v -224 -64 0
v -224 -48 0
v -208 -48 0
v -240 -64 0
v -256 -64 0
v -256 -48 0
v -240 -48 0
v -224 -96 0
v -240 -96 0
v -240 -80 0
v -224 -80 0
v -224 -112 0
v -240 -112 0
v -240 -96 0
v -224 -96 0
v -176 -128 0
v -192 -128 0
v -192 -112 0
v -176 -112 0
v -224 -128 0
v -240 -128 0
v -240 -112 0
v -224 -112 0
v -80 -144 0
v -96 -144 0
v -96 -128 0
v -80 -128 0
v -240 -144 0
v -256 -144 0
v -256 -128 0
v -240 -128 0
v -80 -160 0
v -96 -160 0
v -96 -144 0
v -80 -144 0
v -240 -160 0
v -256 -160 0
v -256 -144 0
v -240 -144 0

# Texture cooridinates (Count = 18)
vt 0 0.875
vt 0.003907204 0.875
vt 0.003907204 0.8828125
vt 0 0.8828125
vt 0 0.8671875
vt 0.003907204 0.8671875
vt 0.8752137 0.953125
vt 0.8791209 0.953125
vt 0.8791209 0.9609375
vt 0.8752137 0.9609375
vt 0.8830281 0.953125
vt 0.8869353 0.953125
vt 0.8869353 0.9609375
vt 0.8830281 0.9609375
vt 0.02344322 0.9453125
vt 0.02735043 0.9453125
vt 0.02735043 0.953125
vt 0.02344322 0.953125

# Normal
vn 0 0 -1

# Mesh description
g icmc_mesh_0160

# Faces
f 1/1/1 2/2/1 3/3/1 4/4/1
f 5/5/1 6/6/1 7/2/1 8/1/1
f 9/7/1 10/8/1 11/9/1 12/10/1
f 13/11/1 14/12/1 15/13/1 16/14/1
f 17/1/1 18/2/1 19/3/1 20/4/1
f 21/15/1 22/16/1 23/17/1 24/18/1
f 25/5/1 26/6/1 27/2/1 28/1/1
f 29/1/1 30/2/1 31/3/1 32/4/1
f 33/1/1 34/2/1 35/3/1 36/4/1
f 37/5/1 38/6/1 39/2/1 40/1/1
f 41/5/1 42/6/1 43/2/1 44/1/1

