# Tiled2Unity generated file. Do not modify by hand.
# Wavefront file for 'icmc_mesh_0268.obj'

# Vertices (Count = 8)
v -240 -112 0
v -256 -112 0
v -256 -96 0
v -240 -96 0
v -240 -128 0
v -256 -128 0
v -256 -112 0
v -240 -112 0

# Texture cooridinates (Count = 6)
vt 0.975 0.452381
vt 0.9833333 0.452381
vt 0.9833333 0.4571428
vt 0.975 0.4571428
vt 0.975 0.447619
vt 0.9833333 0.447619

# Normal
vn 0 0 -1

# Mesh description
g icmc_mesh_0268

# Faces
f 1/1/1 2/2/1 3/3/1 4/4/1
f 5/5/1 6/6/1 7/2/1 8/1/1

