# Tiled2Unity generated file. Do not modify by hand.
# Wavefront file for 'icmc_mesh_0105.obj'

# Vertices (Count = 80)
v -32 -144 0
v -48 -144 0
v -48 -128 0
v -32 -128 0
v -48 -144 0
v -64 -144 0
v -64 -128 0
v -48 -128 0
v -64 -144 0
v -80 -144 0
v -80 -128 0
v -64 -128 0
v -160 -144 0
v -176 -144 0
v -176 -128 0
v -160 -128 0
v -32 -160 0
v -48 -160 0
v -48 -144 0
v -32 -144 0
v -48 -160 0
v -64 -160 0
v -64 -144 0
v -48 -144 0
v -64 -160 0
v -80 -160 0
v -80 -144 0
v -64 -144 0
v -144 -160 0
v -160 -160 0
v -160 -144 0
v -144 -144 0
v -32 -176 0
v -48 -176 0
v -48 -160 0
v -32 -160 0
v -48 -176 0
v -64 -176 0
v -64 -160 0
v -48 -160 0
v -64 -176 0
v -80 -176 0
v -80 -160 0
v -64 -160 0
v -112 -176 0
v -128 -176 0
v -128 -160 0
v -112 -160 0
v -32 -192 0
v -48 -192 0
v -48 -176 0
v -32 -176 0
v -48 -192 0
v -64 -192 0
v -64 -176 0
v -48 -176 0
v -64 -192 0
v -80 -192 0
v -80 -176 0
v -64 -176 0
v -96 -192 0
v -112 -192 0
v -112 -176 0
v -96 -176 0
v -160 -208 0
v -176 -208 0
v -176 -192 0
v -160 -192 0
v -192 -208 0
v -208 -208 0
v -208 -192 0
v -192 -192 0
v -160 -240 0
v -176 -240 0
v -176 -224 0
v -160 -224 0
v -192 -240 0
v -208 -240 0
v -208 -224 0
v -192 -224 0

# Texture cooridinates (Count = 29)
vt 0.01172161 0.96875
vt 0.01562882 0.96875
vt 0.01562882 0.9765625
vt 0.01172161 0.9765625
vt 0.01953602 0.96875
vt 0.01953602 0.9765625
vt 0.02344322 0.96875
vt 0.02344322 0.9765625
vt 0.3477412 0.6328125
vt 0.3516484 0.6328125
vt 0.3516484 0.640625
vt 0.3477412 0.640625
vt 0.01172161 0.9609375
vt 0.01562882 0.9609375
vt 0.01953602 0.9609375
vt 0.02344322 0.9609375
vt 0.01172161 0.953125
vt 0.01562882 0.953125
vt 0.01953602 0.953125
vt 0.02344322 0.953125
vt 0.01172161 0.9453125
vt 0.01562882 0.9453125
vt 0.01953602 0.9453125
vt 0.02344322 0.9453125
vt 0.3516484 0.625
vt 0.3555556 0.625
vt 0.3555556 0.6328125
vt 0.3477412 0.625
vt 0.3555556 0.640625

# Normal
vn 0 0 -1

# Mesh description
g icmc_mesh_0105

# Faces
f 1/1/1 2/2/1 3/3/1 4/4/1
f 5/2/1 6/5/1 7/6/1 8/3/1
f 9/5/1 10/7/1 11/8/1 12/6/1
f 13/9/1 14/10/1 15/11/1 16/12/1
f 17/13/1 18/14/1 19/2/1 20/1/1
f 21/14/1 22/15/1 23/5/1 24/2/1
f 25/15/1 26/16/1 27/7/1 28/5/1
f 29/9/1 30/10/1 31/11/1 32/12/1
f 33/17/1 34/18/1 35/14/1 36/13/1
f 37/18/1 38/19/1 39/15/1 40/14/1
f 41/19/1 42/20/1 43/16/1 44/15/1
f 45/9/1 46/10/1 47/11/1 48/12/1
f 49/21/1 50/22/1 51/18/1 52/17/1
f 53/22/1 54/23/1 55/19/1 56/18/1
f 57/23/1 58/24/1 59/20/1 60/19/1
f 61/9/1 62/10/1 63/11/1 64/12/1
f 65/25/1 66/26/1 67/27/1 68/10/1
f 69/28/1 70/25/1 71/10/1 72/9/1
f 73/10/1 74/27/1 75/29/1 76/11/1
f 77/9/1 78/10/1 79/11/1 80/12/1

