# Tiled2Unity generated file. Do not modify by hand.
# Wavefront file for 'icmc_mesh_0041.obj'

# Vertices (Count = 212)
v -98 -69 0
v -99 -69 0
v -99 -68 0
v -98 -68 0
v -97 -69 0
v -98 -69 0
v -98 -68 0
v -97 -68 0
v -96 -69 0
v -97 -69 0
v -97 -68 0
v -96 -68 0
v -94 -69 0
v -95 -69 0
v -95 -68 0
v -94 -68 0
v -93 -69 0
v -94 -69 0
v -94 -68 0
v -93 -68 0
v -38 -48 0
v -39 -48 0
v -39 -47 0
v -38 -47 0
v -31 -47 0
v -32 -47 0
v -32 -46 0
v -31 -46 0
v -29 -47 0
v -30 -47 0
v -30 -46 0
v -29 -46 0
v -28 -47 0
v -29 -47 0
v -29 -46 0
v -28 -46 0
v -26 -47 0
v -27 -47 0
v -27 -46 0
v -26 -46 0
v -24 -47 0
v -25 -47 0
v -25 -46 0
v -24 -46 0
v -23 -47 0
v -24 -47 0
v -24 -46 0
v -23 -46 0
v -14 -47 0
v -15 -47 0
v -15 -46 0
v -14 -46 0
v -31 -46 0
v -32 -46 0
v -32 -45 0
v -31 -45 0
v -29 -46 0
v -30 -46 0
v -30 -45 0
v -29 -45 0
v -28 -46 0
v -29 -46 0
v -29 -45 0
v -28 -45 0
v -26 -46 0
v -27 -46 0
v -27 -45 0
v -26 -45 0
v -24 -46 0
v -25 -46 0
v -25 -45 0
v -24 -45 0
v -23 -46 0
v -24 -46 0
v -24 -45 0
v -23 -45 0
v -88 -25 0
v -89 -25 0
v -89 -24 0
v -88 -24 0
v -87 -25 0
v -88 -25 0
v -88 -24 0
v -87 -24 0
v -85 -25 0
v -86 -25 0
v -86 -24 0
v -85 -24 0
v -84 -25 0
v -85 -25 0
v -85 -24 0
v -84 -24 0
v -83 -25 0
v -84 -25 0
v -84 -24 0
v -83 -24 0
v -80 -25 0
v -81 -25 0
v -81 -24 0
v -80 -24 0
v -79 -25 0
v -80 -25 0
v -80 -24 0
v -79 -24 0
v -77 -25 0
v -78 -25 0
v -78 -24 0
v -77 -24 0
v -76 -25 0
v -77 -25 0
v -77 -24 0
v -76 -24 0
v -75 -25 0
v -76 -25 0
v -76 -24 0
v -75 -24 0
v -72 -25 0
v -73 -25 0
v -73 -24 0
v -72 -24 0
v -71 -25 0
v -72 -25 0
v -72 -24 0
v -71 -24 0
v -69 -25 0
v -70 -25 0
v -70 -24 0
v -69 -24 0
v -68 -25 0
v -69 -25 0
v -69 -24 0
v -68 -24 0
v -65 -25 0
v -66 -25 0
v -66 -24 0
v -65 -24 0
v -64 -25 0
v -65 -25 0
v -65 -24 0
v -64 -24 0
v -61 -25 0
v -62 -25 0
v -62 -24 0
v -61 -24 0
v -60 -25 0
v -61 -25 0
v -61 -24 0
v -60 -24 0
v -59 -25 0
v -60 -25 0
v -60 -24 0
v -59 -24 0
v -57 -25 0
v -58 -25 0
v -58 -24 0
v -57 -24 0
v -56 -25 0
v -57 -25 0
v -57 -24 0
v -56 -24 0
v -88 -24 0
v -89 -24 0
v -89 -23 0
v -88 -23 0
v -87 -24 0
v -88 -24 0
v -88 -23 0
v -87 -23 0
v -85 -24 0
v -86 -24 0
v -86 -23 0
v -85 -23 0
v -84 -24 0
v -85 -24 0
v -85 -23 0
v -84 -23 0
v -83 -24 0
v -84 -24 0
v -84 -23 0
v -83 -23 0
v -77 -24 0
v -78 -24 0
v -78 -23 0
v -77 -23 0
v -76 -24 0
v -77 -24 0
v -77 -23 0
v -76 -23 0
v -75 -24 0
v -76 -24 0
v -76 -23 0
v -75 -23 0
v -69 -24 0
v -70 -24 0
v -70 -23 0
v -69 -23 0
v -68 -24 0
v -69 -24 0
v -69 -23 0
v -68 -23 0
v -61 -24 0
v -62 -24 0
v -62 -23 0
v -61 -23 0
v -60 -24 0
v -61 -24 0
v -61 -23 0
v -60 -23 0
v -59 -24 0
v -60 -24 0
v -60 -23 0
v -59 -23 0

# Texture cooridinates (Count = 53)
vt 0.875 0.3146853
vt 1 0.3146853
vt 1 0.3181818
vt 0.875 0.3181818
vt 0.75 0.3146853
vt 0.75 0.3181818
vt 0.5 0.3111888
vt 0.625 0.3111888
vt 0.625 0.3146853
vt 0.5 0.3146853
vt 0.125 0.4370629
vt 0.25 0.4370629
vt 0.25 0.4405594
vt 0.125 0.4405594
vt 0.5 0.3846154
vt 0.625 0.3846154
vt 0.625 0.3881119
vt 0.5 0.3881119
vt 0.75 0.3846154
vt 0.75 0.3881119
vt 0.625 0.3916084
vt 0.5 0.3916084
vt 0.75 0.3916084
vt 0.875 0.2937063
vt 1 0.2937063
vt 1 0.2972028
vt 0.875 0.2972028
vt 0.75 0.2937063
vt 0.75 0.2972028
vt 0.25 0.2727273
vt 0.375 0.2727273
vt 0.375 0.2762238
vt 0.25 0.2762238
vt 0.125 0.2727273
vt 0.125 0.2762238
vt 0 0.2727273
vt 0 0.2762238
vt 0.125 0.3076923
vt 0.25 0.3076923
vt 0.25 0.3111888
vt 0.125 0.3111888
vt 0 0.3076923
vt 0 0.3111888
vt 1 0.3006993
vt 0.875 0.3006993
vt 0.75 0.3006993
vt 0.375 0.2797203
vt 0.25 0.2797203
vt 0.125 0.2797203
vt 0 0.2797203
vt 0.25 0.3146853
vt 0.125 0.3146853
vt 0 0.3146853

# Normal
vn 0 0 -1

# Mesh description
g icmc_mesh_0041

# Faces
f 1/1/1 2/2/1 3/3/1 4/4/1
f 5/5/1 6/1/1 7/4/1 8/6/1
f 9/7/1 10/8/1 11/9/1 12/10/1
f 13/1/1 14/2/1 15/3/1 16/4/1
f 17/5/1 18/1/1 19/4/1 20/6/1
f 21/11/1 22/12/1 23/13/1 24/14/1
f 25/15/1 26/16/1 27/17/1 28/18/1
f 29/15/1 30/16/1 31/17/1 32/18/1
f 33/16/1 34/19/1 35/20/1 36/17/1
f 37/15/1 38/16/1 39/17/1 40/18/1
f 41/15/1 42/16/1 43/17/1 44/18/1
f 45/16/1 46/19/1 47/20/1 48/17/1
f 49/11/1 50/12/1 51/13/1 52/14/1
f 53/18/1 54/17/1 55/21/1 56/22/1
f 57/18/1 58/17/1 59/21/1 60/22/1
f 61/17/1 62/20/1 63/23/1 64/21/1
f 65/18/1 66/17/1 67/21/1 68/22/1
f 69/18/1 70/17/1 71/21/1 72/22/1
f 73/17/1 74/20/1 75/23/1 76/21/1
f 77/24/1 78/25/1 79/26/1 80/27/1
f 81/28/1 82/24/1 83/27/1 84/29/1
f 85/30/1 86/31/1 87/32/1 88/33/1
f 89/34/1 90/30/1 91/33/1 92/35/1
f 93/36/1 94/34/1 95/35/1 96/37/1
f 97/1/1 98/2/1 99/3/1 100/4/1
f 101/5/1 102/1/1 103/4/1 104/6/1
f 105/30/1 106/31/1 107/32/1 108/33/1
f 109/34/1 110/30/1 111/33/1 112/35/1
f 113/36/1 114/34/1 115/35/1 116/37/1
f 117/1/1 118/2/1 119/3/1 120/4/1
f 121/5/1 122/1/1 123/4/1 124/6/1
f 125/38/1 126/39/1 127/40/1 128/41/1
f 129/42/1 130/38/1 131/41/1 132/43/1
f 133/1/1 134/2/1 135/3/1 136/4/1
f 137/5/1 138/1/1 139/4/1 140/6/1
f 141/30/1 142/31/1 143/32/1 144/33/1
f 145/34/1 146/30/1 147/33/1 148/35/1
f 149/36/1 150/34/1 151/35/1 152/37/1
f 153/1/1 154/2/1 155/3/1 156/4/1
f 157/5/1 158/1/1 159/4/1 160/6/1
f 161/27/1 162/26/1 163/44/1 164/45/1
f 165/29/1 166/27/1 167/45/1 168/46/1
f 169/33/1 170/32/1 171/47/1 172/48/1
f 173/35/1 174/33/1 175/48/1 176/49/1
f 177/37/1 178/35/1 179/49/1 180/50/1
f 181/33/1 182/32/1 183/47/1 184/48/1
f 185/35/1 186/33/1 187/48/1 188/49/1
f 189/37/1 190/35/1 191/49/1 192/50/1
f 193/41/1 194/40/1 195/51/1 196/52/1
f 197/43/1 198/41/1 199/52/1 200/53/1
f 201/33/1 202/32/1 203/47/1 204/48/1
f 205/35/1 206/33/1 207/48/1 208/49/1
f 209/37/1 210/35/1 211/49/1 212/50/1

