# Tiled2Unity generated file. Do not modify by hand.
# Wavefront file for 'icmc_mesh_0006.obj'

# Vertices (Count = 456)
v -109 -79 0
v -110 -79 0
v -110 -78 0
v -109 -78 0
v -107 -79 0
v -108 -79 0
v -108 -78 0
v -107 -78 0
v -104 -79 0
v -105 -79 0
v -105 -78 0
v -104 -78 0
v -103 -79 0
v -104 -79 0
v -104 -78 0
v -103 -78 0
v -109 -76 0
v -110 -76 0
v -110 -75 0
v -109 -75 0
v -98 -68 0
v -99 -68 0
v -99 -67 0
v -98 -67 0
v -96 -67 0
v -97 -67 0
v -97 -66 0
v -96 -66 0
v -89 -65 0
v -90 -65 0
v -90 -64 0
v -89 -64 0
v -98 -64 0
v -99 -64 0
v -99 -63 0
v -98 -63 0
v -95 -63 0
v -96 -63 0
v -96 -62 0
v -95 -62 0
v -97 -61 0
v -98 -61 0
v -98 -60 0
v -97 -60 0
v -93 -59 0
v -94 -59 0
v -94 -58 0
v -93 -58 0
v -100 -58 0
v -101 -58 0
v -101 -57 0
v -100 -57 0
v -96 -57 0
v -97 -57 0
v -97 -56 0
v -96 -56 0
v -99 -54 0
v -100 -54 0
v -100 -53 0
v -99 -53 0
v -95 -51 0
v -96 -51 0
v -96 -50 0
v -95 -50 0
v -93 -51 0
v -94 -51 0
v -94 -50 0
v -93 -50 0
v -89 -51 0
v -90 -51 0
v -90 -50 0
v -89 -50 0
v -99 -50 0
v -100 -50 0
v -100 -49 0
v -99 -49 0
v -95 -50 0
v -96 -50 0
v -96 -49 0
v -95 -49 0
v -61 -48 0
v -62 -48 0
v -62 -47 0
v -61 -47 0
v -92 -47 0
v -93 -47 0
v -93 -46 0
v -92 -46 0
v -90 -47 0
v -91 -47 0
v -91 -46 0
v -90 -46 0
v -92 -45 0
v -93 -45 0
v -93 -44 0
v -92 -44 0
v -90 -45 0
v -91 -45 0
v -91 -44 0
v -90 -44 0
v -21 -45 0
v -22 -45 0
v -22 -44 0
v -21 -44 0
v -20 -45 0
v -21 -45 0
v -21 -44 0
v -20 -44 0
v -19 -45 0
v -20 -45 0
v -20 -44 0
v -19 -44 0
v -86 -44 0
v -87 -44 0
v -87 -43 0
v -86 -43 0
v -84 -44 0
v -85 -44 0
v -85 -43 0
v -84 -43 0
v -83 -44 0
v -84 -44 0
v -84 -43 0
v -83 -43 0
v -82 -44 0
v -83 -44 0
v -83 -43 0
v -82 -43 0
v -64 -44 0
v -65 -44 0
v -65 -43 0
v -64 -43 0
v -63 -44 0
v -64 -44 0
v -64 -43 0
v -63 -43 0
v -62 -44 0
v -63 -44 0
v -63 -43 0
v -62 -43 0
v -21 -44 0
v -22 -44 0
v -22 -43 0
v -21 -43 0
v -20 -44 0
v -21 -44 0
v -21 -43 0
v -20 -43 0
v -19 -44 0
v -20 -44 0
v -20 -43 0
v -19 -43 0
v -87 -43 0
v -88 -43 0
v -88 -42 0
v -87 -42 0
v -84 -43 0
v -85 -43 0
v -85 -42 0
v -84 -42 0
v -83 -43 0
v -84 -43 0
v -84 -42 0
v -83 -42 0
v -82 -43 0
v -83 -43 0
v -83 -42 0
v -82 -42 0
v -64 -43 0
v -65 -43 0
v -65 -42 0
v -64 -42 0
v -63 -43 0
v -64 -43 0
v -64 -42 0
v -63 -42 0
v -62 -43 0
v -63 -43 0
v -63 -42 0
v -62 -42 0
v -21 -43 0
v -22 -43 0
v -22 -42 0
v -21 -42 0
v -20 -43 0
v -21 -43 0
v -21 -42 0
v -20 -42 0
v -19 -43 0
v -20 -43 0
v -20 -42 0
v -19 -42 0
v -89 -42 0
v -90 -42 0
v -90 -41 0
v -89 -41 0
v -84 -42 0
v -85 -42 0
v -85 -41 0
v -84 -41 0
v -83 -42 0
v -84 -42 0
v -84 -41 0
v -83 -41 0
v -82 -42 0
v -83 -42 0
v -83 -41 0
v -82 -41 0
v -64 -42 0
v -65 -42 0
v -65 -41 0
v -64 -41 0
v -63 -42 0
v -64 -42 0
v -64 -41 0
v -63 -41 0
v -62 -42 0
v -63 -42 0
v -63 -41 0
v -62 -41 0
v -21 -42 0
v -22 -42 0
v -22 -41 0
v -21 -41 0
v -20 -42 0
v -21 -42 0
v -21 -41 0
v -20 -41 0
v -19 -42 0
v -20 -42 0
v -20 -41 0
v -19 -41 0
v -90 -41 0
v -91 -41 0
v -91 -40 0
v -90 -40 0
v -84 -41 0
v -85 -41 0
v -85 -40 0
v -84 -40 0
v -83 -41 0
v -84 -41 0
v -84 -40 0
v -83 -40 0
v -82 -41 0
v -83 -41 0
v -83 -40 0
v -82 -40 0
v -56 -41 0
v -57 -41 0
v -57 -40 0
v -56 -40 0
v -55 -41 0
v -56 -41 0
v -56 -40 0
v -55 -40 0
v -54 -41 0
v -55 -41 0
v -55 -40 0
v -54 -40 0
v -21 -41 0
v -22 -41 0
v -22 -40 0
v -21 -40 0
v -20 -41 0
v -21 -41 0
v -21 -40 0
v -20 -40 0
v -19 -41 0
v -20 -41 0
v -20 -40 0
v -19 -40 0
v -56 -40 0
v -57 -40 0
v -57 -39 0
v -56 -39 0
v -55 -40 0
v -56 -40 0
v -56 -39 0
v -55 -39 0
v -54 -40 0
v -55 -40 0
v -55 -39 0
v -54 -39 0
v -21 -40 0
v -22 -40 0
v -22 -39 0
v -21 -39 0
v -20 -40 0
v -21 -40 0
v -21 -39 0
v -20 -39 0
v -19 -40 0
v -20 -40 0
v -20 -39 0
v -19 -39 0
v -59 -39 0
v -60 -39 0
v -60 -38 0
v -59 -38 0
v -58 -39 0
v -59 -39 0
v -59 -38 0
v -58 -38 0
v -57 -39 0
v -58 -39 0
v -58 -38 0
v -57 -38 0
v -56 -39 0
v -57 -39 0
v -57 -38 0
v -56 -38 0
v -55 -39 0
v -56 -39 0
v -56 -38 0
v -55 -38 0
v -54 -39 0
v -55 -39 0
v -55 -38 0
v -54 -38 0
v -21 -39 0
v -22 -39 0
v -22 -38 0
v -21 -38 0
v -20 -39 0
v -21 -39 0
v -21 -38 0
v -20 -38 0
v -19 -39 0
v -20 -39 0
v -20 -38 0
v -19 -38 0
v -59 -38 0
v -60 -38 0
v -60 -37 0
v -59 -37 0
v -58 -38 0
v -59 -38 0
v -59 -37 0
v -58 -37 0
v -57 -38 0
v -58 -38 0
v -58 -37 0
v -57 -37 0
v -56 -38 0
v -57 -38 0
v -57 -37 0
v -56 -37 0
v -55 -38 0
v -56 -38 0
v -56 -37 0
v -55 -37 0
v -51 -38 0
v -52 -38 0
v -52 -37 0
v -51 -37 0
v -21 -38 0
v -22 -38 0
v -22 -37 0
v -21 -37 0
v -20 -38 0
v -21 -38 0
v -21 -37 0
v -20 -37 0
v -19 -38 0
v -20 -38 0
v -20 -37 0
v -19 -37 0
v -59 -37 0
v -60 -37 0
v -60 -36 0
v -59 -36 0
v -58 -37 0
v -59 -37 0
v -59 -36 0
v -58 -36 0
v -57 -37 0
v -58 -37 0
v -58 -36 0
v -57 -36 0
v -53 -37 0
v -54 -37 0
v -54 -36 0
v -53 -36 0
v -21 -37 0
v -22 -37 0
v -22 -36 0
v -21 -36 0
v -20 -37 0
v -21 -37 0
v -21 -36 0
v -20 -36 0
v -19 -37 0
v -20 -37 0
v -20 -36 0
v -19 -36 0
v -59 -36 0
v -60 -36 0
v -60 -35 0
v -59 -35 0
v -58 -36 0
v -59 -36 0
v -59 -35 0
v -58 -35 0
v -57 -36 0
v -58 -36 0
v -58 -35 0
v -57 -35 0
v -54 -36 0
v -55 -36 0
v -55 -35 0
v -54 -35 0
v -21 -36 0
v -22 -36 0
v -22 -35 0
v -21 -35 0
v -20 -36 0
v -21 -36 0
v -21 -35 0
v -20 -35 0
v -19 -36 0
v -20 -36 0
v -20 -35 0
v -19 -35 0
v -55 -35 0
v -56 -35 0
v -56 -34 0
v -55 -34 0
v -50 -35 0
v -51 -35 0
v -51 -34 0
v -50 -34 0
v -21 -35 0
v -22 -35 0
v -22 -34 0
v -21 -34 0
v -20 -35 0
v -21 -35 0
v -21 -34 0
v -20 -34 0
v -19 -35 0
v -20 -35 0
v -20 -34 0
v -19 -34 0
v -51 -34 0
v -52 -34 0
v -52 -33 0
v -51 -33 0
v -52 -33 0
v -53 -33 0
v -53 -32 0
v -52 -32 0
v -53 -32 0
v -54 -32 0
v -54 -31 0
v -53 -31 0

# Texture cooridinates (Count = 91)
vt 0.8869353 0.9453125
vt 0.8908425 0.9453125
vt 0.8908425 0.953125
vt 0.8869353 0.953125
vt 0.8791209 0.9375
vt 0.8830281 0.9375
vt 0.8830281 0.9453125
vt 0.8791209 0.9453125
vt 0.8830281 0.953125
vt 0.8869353 0.9609375
vt 0.8830281 0.9609375
vt 0.8869353 0.96875
vt 0.8908425 0.96875
vt 0.8908425 0.9765625
vt 0.8869353 0.9765625
vt 0.8791209 0.953125
vt 0.8791209 0.9609375
vt 0.8752137 0.9375
vt 0.8752137 0.9453125
vt 0.3477412 0.625
vt 0.3516484 0.625
vt 0.3516484 0.6328125
vt 0.3477412 0.6328125
vt 0.8830281 0.96875
vt 0.8791209 0.96875
vt 0.3555556 0.6328125
vt 0.3555556 0.640625
vt 0.3516484 0.640625
vt 0.3555556 0.625
vt 0.3360195 0.5625
vt 0.3399267 0.5625
vt 0.3399267 0.5703125
vt 0.3360195 0.5703125
vt 0.8947497 0.9453125
vt 0.8947497 0.953125
vt 0.3477412 0.640625
vt 0.9025641 0.8671875
vt 0.9064713 0.8671875
vt 0.9064713 0.875
vt 0.9025641 0.875
vt 0.8986569 0.8671875
vt 0.8986569 0.875
vt 0.8947497 0.8671875
vt 0.8947497 0.875
vt 0.01953602 0.9453125
vt 0.02344322 0.9453125
vt 0.02344322 0.953125
vt 0.01953602 0.953125
vt 0.01562882 0.9453125
vt 0.01562882 0.953125
vt 0.01172161 0.9453125
vt 0.01172161 0.953125
vt 0.01953602 0.9765625
vt 0.02344322 0.9765625
vt 0.02344322 0.984375
vt 0.01953602 0.984375
vt 0.01562882 0.9765625
vt 0.01562882 0.984375
vt 0.01172161 0.9765625
vt 0.01172161 0.984375
vt 0.02344322 0.9609375
vt 0.01953602 0.9609375
vt 0.01562882 0.9609375
vt 0.01172161 0.9609375
vt 0.02344322 0.9921875
vt 0.01953602 0.9921875
vt 0.01562882 0.9921875
vt 0.01172161 0.9921875
vt 0.02344322 0.96875
vt 0.01953602 0.96875
vt 0.01562882 0.96875
vt 0.01172161 0.96875
vt 0.02344322 1
vt 0.01953602 1
vt 0.01562882 1
vt 0.01172161 1
vt 0.007814408 0.9453125
vt 0.007814408 0.953125
vt 0.003907204 0.9453125
vt 0.003907204 0.953125
vt 0 0.9453125
vt 0 0.953125
vt 0.007814408 0.9609375
vt 0.003907204 0.9609375
vt 0 0.9609375
vt 0.007814408 0.96875
vt 0.003907204 0.96875
vt 0 0.96875
vt 0.007814408 0.9765625
vt 0.003907204 0.9765625
vt 0 0.9765625

# Normal
vn 0 0 -1

# Mesh description
g icmc_mesh_0006

# Faces
f 1/1/1 2/2/1 3/3/1 4/4/1
f 5/5/1 6/6/1 7/7/1 8/8/1
f 9/9/1 10/4/1 11/10/1 12/11/1
f 13/5/1 14/6/1 15/7/1 16/8/1
f 17/12/1 18/13/1 19/14/1 20/15/1
f 21/5/1 22/6/1 23/7/1 24/8/1
f 25/16/1 26/9/1 27/11/1 28/17/1
f 29/18/1 30/5/1 31/8/1 32/19/1
f 33/20/1 34/21/1 35/22/1 36/23/1
f 37/17/1 38/11/1 39/24/1 40/25/1
f 41/20/1 42/21/1 43/22/1 44/23/1
f 45/17/1 46/11/1 47/24/1 48/25/1
f 49/22/1 50/26/1 51/27/1 52/28/1
f 53/20/1 54/21/1 55/22/1 56/23/1
f 57/22/1 58/26/1 59/27/1 60/28/1
f 61/20/1 62/21/1 63/22/1 64/23/1
f 65/16/1 66/9/1 67/11/1 68/17/1
f 69/17/1 70/11/1 71/24/1 72/25/1
f 73/21/1 74/29/1 75/26/1 76/22/1
f 77/30/1 78/31/1 79/32/1 80/33/1
f 81/2/1 82/34/1 83/35/1 84/3/1
f 85/23/1 86/22/1 87/28/1 88/36/1
f 89/22/1 90/26/1 91/27/1 92/28/1
f 93/20/1 94/21/1 95/22/1 96/23/1
f 97/21/1 98/29/1 99/26/1 100/22/1
f 101/37/1 102/38/1 103/39/1 104/40/1
f 105/41/1 106/37/1 107/40/1 108/42/1
f 109/43/1 110/41/1 111/42/1 112/44/1
f 113/23/1 114/22/1 115/28/1 116/36/1
f 117/45/1 118/46/1 119/47/1 120/48/1
f 121/49/1 122/45/1 123/48/1 124/50/1
f 125/51/1 126/49/1 127/50/1 128/52/1
f 129/53/1 130/54/1 131/55/1 132/56/1
f 133/57/1 134/53/1 135/56/1 136/58/1
f 137/59/1 138/57/1 139/58/1 140/60/1
f 141/37/1 142/38/1 143/39/1 144/40/1
f 145/41/1 146/37/1 147/40/1 148/42/1
f 149/43/1 150/41/1 151/42/1 152/44/1
f 153/23/1 154/22/1 155/28/1 156/36/1
f 157/48/1 158/47/1 159/61/1 160/62/1
f 161/50/1 162/48/1 163/62/1 164/63/1
f 165/52/1 166/50/1 167/63/1 168/64/1
f 169/56/1 170/55/1 171/65/1 172/66/1
f 173/58/1 174/56/1 175/66/1 176/67/1
f 177/60/1 178/58/1 179/67/1 180/68/1
f 181/37/1 182/38/1 183/39/1 184/40/1
f 185/41/1 186/37/1 187/40/1 188/42/1
f 189/43/1 190/41/1 191/42/1 192/44/1
f 193/23/1 194/22/1 195/28/1 196/36/1
f 197/62/1 198/61/1 199/69/1 200/70/1
f 201/63/1 202/62/1 203/70/1 204/71/1
f 205/64/1 206/63/1 207/71/1 208/72/1
f 209/66/1 210/65/1 211/73/1 212/74/1
f 213/67/1 214/66/1 215/74/1 216/75/1
f 217/68/1 218/67/1 219/75/1 220/76/1
f 221/37/1 222/38/1 223/39/1 224/40/1
f 225/41/1 226/37/1 227/40/1 228/42/1
f 229/43/1 230/41/1 231/42/1 232/44/1
f 233/23/1 234/22/1 235/28/1 236/36/1
f 237/70/1 238/69/1 239/54/1 240/53/1
f 241/71/1 242/70/1 243/53/1 244/57/1
f 245/72/1 246/71/1 247/57/1 248/59/1
f 249/77/1 250/51/1 251/52/1 252/78/1
f 253/79/1 254/77/1 255/78/1 256/80/1
f 257/81/1 258/79/1 259/80/1 260/82/1
f 261/37/1 262/38/1 263/39/1 264/40/1
f 265/41/1 266/37/1 267/40/1 268/42/1
f 269/43/1 270/41/1 271/42/1 272/44/1
f 273/78/1 274/52/1 275/64/1 276/83/1
f 277/80/1 278/78/1 279/83/1 280/84/1
f 281/82/1 282/80/1 283/84/1 284/85/1
f 285/37/1 286/38/1 287/39/1 288/40/1
f 289/41/1 290/37/1 291/40/1 292/42/1
f 293/43/1 294/41/1 295/42/1 296/44/1
f 297/77/1 298/51/1 299/52/1 300/78/1
f 301/79/1 302/77/1 303/78/1 304/80/1
f 305/81/1 306/79/1 307/80/1 308/82/1
f 309/83/1 310/64/1 311/72/1 312/86/1
f 313/84/1 314/83/1 315/86/1 316/87/1
f 317/85/1 318/84/1 319/87/1 320/88/1
f 321/37/1 322/38/1 323/39/1 324/40/1
f 325/41/1 326/37/1 327/40/1 328/42/1
f 329/43/1 330/41/1 331/42/1 332/44/1
f 333/78/1 334/52/1 335/64/1 336/83/1
f 337/80/1 338/78/1 339/83/1 340/84/1
f 341/82/1 342/80/1 343/84/1 344/85/1
f 345/86/1 346/72/1 347/59/1 348/89/1
f 349/87/1 350/86/1 351/89/1 352/90/1
f 353/21/1 354/29/1 355/26/1 356/22/1
f 357/37/1 358/38/1 359/39/1 360/40/1
f 361/41/1 362/37/1 363/40/1 364/42/1
f 365/43/1 366/41/1 367/42/1 368/44/1
f 369/83/1 370/64/1 371/72/1 372/86/1
f 373/84/1 374/83/1 375/86/1 376/87/1
f 377/85/1 378/84/1 379/87/1 380/88/1
f 381/21/1 382/29/1 383/26/1 384/22/1
f 385/37/1 386/38/1 387/39/1 388/40/1
f 389/41/1 390/37/1 391/40/1 392/42/1
f 393/43/1 394/41/1 395/42/1 396/44/1
f 397/86/1 398/72/1 399/59/1 400/89/1
f 401/87/1 402/86/1 403/89/1 404/90/1
f 405/88/1 406/87/1 407/90/1 408/91/1
f 409/21/1 410/29/1 411/26/1 412/22/1
f 413/37/1 414/38/1 415/39/1 416/40/1
f 417/41/1 418/37/1 419/40/1 420/42/1
f 421/43/1 422/41/1 423/42/1 424/44/1
f 425/21/1 426/29/1 427/26/1 428/22/1
f 429/23/1 430/22/1 431/28/1 432/36/1
f 433/37/1 434/38/1 435/39/1 436/40/1
f 437/41/1 438/37/1 439/40/1 440/42/1
f 441/43/1 442/41/1 443/42/1 444/44/1
f 445/23/1 446/22/1 447/28/1 448/36/1
f 449/23/1 450/22/1 451/28/1 452/36/1
f 453/23/1 454/22/1 455/28/1 456/36/1

