# Tiled2Unity generated file. Do not modify by hand.
# Wavefront file for 'icmc_mesh_0194.obj'

# Vertices (Count = 16)
v 0 -160 0
v -16 -160 0
v -16 -144 0
v 0 -144 0
v 0 -176 0
v -16 -176 0
v -16 -160 0
v 0 -160 0
v -48 -240 0
v -64 -240 0
v -64 -224 0
v -48 -224 0
v -224 -240 0
v -240 -240 0
v -240 -224 0
v -224 -224 0

# Texture cooridinates (Count = 10)
vt 0.3833333 0.7
vt 0.4 0.7
vt 0.4 0.7166667
vt 0.3833333 0.7166667
vt 0.3833333 0.6833333
vt 0.4 0.6833333
vt 0.2833333 0.9333333
vt 0.3 0.9333333
vt 0.3 0.95
vt 0.2833333 0.95

# Normal
vn 0 0 -1

# Mesh description
g icmc_mesh_0194

# Faces
f 1/1/1 2/2/1 3/3/1 4/4/1
f 5/5/1 6/6/1 7/2/1 8/1/1
f 9/7/1 10/8/1 11/9/1 12/10/1
f 13/7/1 14/8/1 15/9/1 16/10/1

