# Tiled2Unity generated file. Do not modify by hand.
# Wavefront file for 'icmc_mesh_0154.obj'

# Vertices (Count = 92)
v -96 -16 0
v -112 -16 0
v -112 0 0
v -96 0 0
v -112 -16 0
v -128 -16 0
v -128 0 0
v -112 0 0
v -128 -16 0
v -144 -16 0
v -144 0 0
v -128 0 0
v -144 -16 0
v -160 -16 0
v -160 0 0
v -144 0 0
v -96 -32 0
v -112 -32 0
v -112 -16 0
v -96 -16 0
v -112 -32 0
v -128 -32 0
v -128 -16 0
v -112 -16 0
v -128 -32 0
v -144 -32 0
v -144 -16 0
v -128 -16 0
v -144 -32 0
v -160 -32 0
v -160 -16 0
v -144 -16 0
v -160 -32 0
v -176 -32 0
v -176 -16 0
v -160 -16 0
v -144 -48 0
v -160 -48 0
v -160 -32 0
v -144 -32 0
v -160 -48 0
v -176 -48 0
v -176 -32 0
v -160 -32 0
v -176 -48 0
v -192 -48 0
v -192 -32 0
v -176 -32 0
v -192 -48 0
v -208 -48 0
v -208 -32 0
v -192 -32 0
v -208 -48 0
v -224 -48 0
v -224 -32 0
v -208 -32 0
v -224 -48 0
v -240 -48 0
v -240 -32 0
v -224 -32 0
v -160 -64 0
v -176 -64 0
v -176 -48 0
v -160 -48 0
v -176 -64 0
v -192 -64 0
v -192 -48 0
v -176 -48 0
v -192 -64 0
v -208 -64 0
v -208 -48 0
v -192 -48 0
v -208 -64 0
v -224 -64 0
v -224 -48 0
v -208 -48 0
v -240 -64 0
v -256 -64 0
v -256 -48 0
v -240 -48 0
v -208 -80 0
v -224 -80 0
v -224 -64 0
v -208 -64 0
v -224 -80 0
v -240 -80 0
v -240 -64 0
v -224 -64 0
v -240 -80 0
v -256 -80 0
v -256 -64 0
v -240 -64 0

# Texture cooridinates (Count = 24)
vt 0.3 0.7809524
vt 0.3083333 0.7809524
vt 0.3083333 0.7857143
vt 0.3 0.7857143
vt 0.2916667 0.7761905
vt 0.3 0.7761905
vt 0.2916667 0.7809524
vt 0.275 0.7761905
vt 0.2833333 0.7761905
vt 0.2833333 0.7809524
vt 0.275 0.7809524
vt 0.3083333 0.7761905
vt 0.2916667 0.7714286
vt 0.3 0.7714286
vt 0.275 0.7714286
vt 0.2833333 0.7714286
vt 0.2833333 0.7904762
vt 0.2916667 0.7904762
vt 0.2916667 0.7952381
vt 0.2833333 0.7952381
vt 0.2833333 0.7857143
vt 0.2916667 0.7857143
vt 0.3083333 0.7904762
vt 0.3 0.7904762

# Normal
vn 0 0 -1

# Mesh description
g icmc_mesh_0154

# Faces
f 1/1/1 2/2/1 3/3/1 4/4/1
f 5/5/1 6/6/1 7/1/1 8/7/1
f 9/8/1 10/9/1 11/10/1 12/11/1
f 13/6/1 14/12/1 15/2/1 16/1/1
f 17/1/1 18/2/1 19/3/1 20/4/1
f 21/13/1 22/14/1 23/6/1 24/5/1
f 25/15/1 26/16/1 27/9/1 28/8/1
f 29/16/1 30/13/1 31/5/1 32/9/1
f 33/17/1 34/18/1 35/19/1 36/20/1
f 37/13/1 38/14/1 39/6/1 40/5/1
f 41/21/1 42/22/1 43/18/1 44/17/1
f 45/4/1 46/3/1 47/23/1 48/24/1
f 49/5/1 50/6/1 51/1/1 52/7/1
f 53/8/1 54/9/1 55/10/1 56/11/1
f 57/17/1 58/18/1 59/19/1 60/20/1
f 61/1/1 62/2/1 63/3/1 64/4/1
f 65/1/1 66/2/1 67/3/1 68/4/1
f 69/13/1 70/14/1 71/6/1 72/5/1
f 73/15/1 74/16/1 75/9/1 76/8/1
f 77/8/1 78/9/1 79/10/1 80/11/1
f 81/1/1 82/2/1 83/3/1 84/4/1
f 85/13/1 86/14/1 87/6/1 88/5/1
f 89/15/1 90/16/1 91/9/1 92/8/1

