# Tiled2Unity generated file. Do not modify by hand.
# Wavefront file for 'icmc_mesh_0317.obj'

# Vertices (Count = 24)
v -80 -192 0
v -96 -192 0
v -96 -176 0
v -80 -176 0
v -160 -192 0
v -176 -192 0
v -176 -176 0
v -160 -176 0
v -208 -192 0
v -224 -192 0
v -224 -176 0
v -208 -176 0
v -80 -208 0
v -96 -208 0
v -96 -192 0
v -80 -192 0
v -160 -208 0
v -176 -208 0
v -176 -192 0
v -160 -192 0
v -208 -208 0
v -224 -208 0
v -224 -192 0
v -208 -192 0

# Texture cooridinates (Count = 6)
vt 0.85 0.8166667
vt 0.8666667 0.8166667
vt 0.8666667 0.8333333
vt 0.85 0.8333333
vt 0.85 0.8
vt 0.8666667 0.8

# Normal
vn 0 0 -1

# Mesh description
g icmc_mesh_0317

# Faces
f 1/1/1 2/2/1 3/3/1 4/4/1
f 5/1/1 6/2/1 7/3/1 8/4/1
f 9/1/1 10/2/1 11/3/1 12/4/1
f 13/5/1 14/6/1 15/2/1 16/1/1
f 17/5/1 18/6/1 19/2/1 20/1/1
f 21/5/1 22/6/1 23/2/1 24/1/1

