# Tiled2Unity generated file. Do not modify by hand.
# Wavefront file for 'icmc_mesh_0255.obj'

# Vertices (Count = 8)
v -224 -48 0
v -240 -48 0
v -240 -32 0
v -224 -32 0
v -224 -64 0
v -240 -64 0
v -240 -48 0
v -224 -48 0

# Texture cooridinates (Count = 6)
vt 0.825 0.4428571
vt 0.8333333 0.4428571
vt 0.8333333 0.447619
vt 0.825 0.447619
vt 0.825 0.4380952
vt 0.8333333 0.4380952

# Normal
vn 0 0 -1

# Mesh description
g icmc_mesh_0255

# Faces
f 1/1/1 2/2/1 3/3/1 4/4/1
f 5/5/1 6/6/1 7/2/1 8/1/1

