# Tiled2Unity generated file. Do not modify by hand.
# Wavefront file for 'icmc_mesh_0151.obj'

# Vertices (Count = 24)
v -240 -16 0
v -256 -16 0
v -256 0 0
v -240 0 0
v -32 -48 0
v -48 -48 0
v -48 -32 0
v -32 -32 0
v -32 -64 0
v -48 -64 0
v -48 -48 0
v -32 -48 0
v -224 -192 0
v -240 -192 0
v -240 -176 0
v -224 -176 0
v -224 -208 0
v -240 -208 0
v -240 -192 0
v -224 -192 0
v -224 -256 0
v -240 -256 0
v -240 -240 0
v -224 -240 0

# Texture cooridinates (Count = 6)
vt 0.8583333 0.6523809
vt 0.8666667 0.6523809
vt 0.8666667 0.6571429
vt 0.8583333 0.6571429
vt 0.8666667 0.6619048
vt 0.8583333 0.6619048

# Normal
vn 0 0 -1

# Mesh description
g icmc_mesh_0151

# Faces
f 1/1/1 2/2/1 3/3/1 4/4/1
f 5/4/1 6/3/1 7/5/1 8/6/1
f 9/1/1 10/2/1 11/3/1 12/4/1
f 13/4/1 14/3/1 15/5/1 16/6/1
f 17/1/1 18/2/1 19/3/1 20/4/1
f 21/4/1 22/3/1 23/5/1 24/6/1

