# Tiled2Unity generated file. Do not modify by hand.
# Wavefront file for 'icmc_mesh_0271.obj'

# Vertices (Count = 72)
v -128 -64 0
v -144 -64 0
v -144 -48 0
v -128 -48 0
v -192 -64 0
v -208 -64 0
v -208 -48 0
v -192 -48 0
v -224 -64 0
v -240 -64 0
v -240 -48 0
v -224 -48 0
v -128 -80 0
v -144 -80 0
v -144 -64 0
v -128 -64 0
v -192 -80 0
v -208 -80 0
v -208 -64 0
v -192 -64 0
v -224 -80 0
v -240 -80 0
v -240 -64 0
v -224 -64 0
v -160 -112 0
v -176 -112 0
v -176 -96 0
v -160 -96 0
v -176 -112 0
v -192 -112 0
v -192 -96 0
v -176 -96 0
v -192 -112 0
v -208 -112 0
v -208 -96 0
v -192 -96 0
v -160 -128 0
v -176 -128 0
v -176 -112 0
v -160 -112 0
v -176 -128 0
v -192 -128 0
v -192 -112 0
v -176 -112 0
v -192 -128 0
v -208 -128 0
v -208 -112 0
v -192 -112 0
v -160 -144 0
v -176 -144 0
v -176 -128 0
v -160 -128 0
v -176 -144 0
v -192 -144 0
v -192 -128 0
v -176 -128 0
v -192 -144 0
v -208 -144 0
v -208 -128 0
v -192 -128 0
v -160 -160 0
v -176 -160 0
v -176 -144 0
v -160 -144 0
v -176 -160 0
v -192 -160 0
v -192 -144 0
v -176 -144 0
v -192 -160 0
v -208 -160 0
v -208 -144 0
v -192 -144 0

# Texture cooridinates (Count = 32)
vt 0.5626374 0.8203125
vt 0.5665446 0.8203125
vt 0.5665446 0.828125
vt 0.5626374 0.828125
vt 0.2695971 0.96875
vt 0.2735043 0.96875
vt 0.2735043 0.9765625
vt 0.2695971 0.9765625
vt 0.5626374 0.8125
vt 0.5665446 0.8125
vt 0.2695971 0.9609375
vt 0.2735043 0.9609375
vt 0.2813187 0.78125
vt 0.2852259 0.78125
vt 0.2852259 0.7890625
vt 0.2813187 0.7890625
vt 0.2891331 0.78125
vt 0.2891331 0.7890625
vt 0.2930403 0.78125
vt 0.2930403 0.7890625
vt 0.2813187 0.7734375
vt 0.2852259 0.7734375
vt 0.2891331 0.7734375
vt 0.2930403 0.7734375
vt 0.2813187 0.765625
vt 0.2852259 0.765625
vt 0.2891331 0.765625
vt 0.2930403 0.765625
vt 0.2813187 0.7578125
vt 0.2852259 0.7578125
vt 0.2891331 0.7578125
vt 0.2930403 0.7578125

# Normal
vn 0 0 -1

# Mesh description
g icmc_mesh_0271

# Faces
f 1/1/1 2/2/1 3/3/1 4/4/1
f 5/1/1 6/2/1 7/3/1 8/4/1
f 9/5/1 10/6/1 11/7/1 12/8/1
f 13/9/1 14/10/1 15/2/1 16/1/1
f 17/9/1 18/10/1 19/2/1 20/1/1
f 21/11/1 22/12/1 23/6/1 24/5/1
f 25/13/1 26/14/1 27/15/1 28/16/1
f 29/14/1 30/17/1 31/18/1 32/15/1
f 33/17/1 34/19/1 35/20/1 36/18/1
f 37/21/1 38/22/1 39/14/1 40/13/1
f 41/22/1 42/23/1 43/17/1 44/14/1
f 45/23/1 46/24/1 47/19/1 48/17/1
f 49/25/1 50/26/1 51/22/1 52/21/1
f 53/26/1 54/27/1 55/23/1 56/22/1
f 57/27/1 58/28/1 59/24/1 60/23/1
f 61/29/1 62/30/1 63/26/1 64/25/1
f 65/30/1 66/31/1 67/27/1 68/26/1
f 69/31/1 70/32/1 71/28/1 72/27/1

