# Tiled2Unity generated file. Do not modify by hand.
# Wavefront file for 'icmc_mesh_0375.obj'

# Vertices (Count = 20)
v -16 -64 0
v -32 -64 0
v -32 -48 0
v -16 -48 0
v -80 -64 0
v -96 -64 0
v -96 -48 0
v -80 -48 0
v -128 -64 0
v -144 -64 0
v -144 -48 0
v -128 -48 0
v -160 -64 0
v -176 -64 0
v -176 -48 0
v -160 -48 0
v -192 -64 0
v -208 -64 0
v -208 -48 0
v -192 -48 0

# Texture cooridinates (Count = 4)
vt 0.9333333 0.9666666
vt 0.95 0.9666666
vt 0.95 0.9833333
vt 0.9333333 0.9833333

# Normal
vn 0 0 -1

# Mesh description
g icmc_mesh_0375

# Faces
f 1/1/1 2/2/1 3/3/1 4/4/1
f 5/1/1 6/2/1 7/3/1 8/4/1
f 9/1/1 10/2/1 11/3/1 12/4/1
f 13/1/1 14/2/1 15/3/1 16/4/1
f 17/1/1 18/2/1 19/3/1 20/4/1

