# Tiled2Unity generated file. Do not modify by hand.
# Wavefront file for 'icmc_mesh_0214.obj'

# Vertices (Count = 112)
v -144 -16 0
v -160 -16 0
v -160 0 0
v -144 0 0
v -160 -16 0
v -176 -16 0
v -176 0 0
v -160 0 0
v -176 -16 0
v -192 -16 0
v -192 0 0
v -176 0 0
v -192 -16 0
v -208 -16 0
v -208 0 0
v -192 0 0
v -208 -16 0
v -224 -16 0
v -224 0 0
v -208 0 0
v -224 -16 0
v -240 -16 0
v -240 0 0
v -224 0 0
v -240 -16 0
v -256 -16 0
v -256 0 0
v -240 0 0
v -144 -128 0
v -160 -128 0
v -160 -112 0
v -144 -112 0
v -160 -128 0
v -176 -128 0
v -176 -112 0
v -160 -112 0
v -176 -128 0
v -192 -128 0
v -192 -112 0
v -176 -112 0
v -192 -128 0
v -208 -128 0
v -208 -112 0
v -192 -112 0
v -208 -128 0
v -224 -128 0
v -224 -112 0
v -208 -112 0
v -224 -128 0
v -240 -128 0
v -240 -112 0
v -224 -112 0
v -240 -128 0
v -256 -128 0
v -256 -112 0
v -240 -112 0
v -144 -144 0
v -160 -144 0
v -160 -128 0
v -144 -128 0
v -160 -144 0
v -176 -144 0
v -176 -128 0
v -160 -128 0
v -176 -144 0
v -192 -144 0
v -192 -128 0
v -176 -128 0
v -192 -144 0
v -208 -144 0
v -208 -128 0
v -192 -128 0
v -208 -144 0
v -224 -144 0
v -224 -128 0
v -208 -128 0
v -224 -144 0
v -240 -144 0
v -240 -128 0
v -224 -128 0
v -240 -144 0
v -256 -144 0
v -256 -128 0
v -240 -128 0
v -144 -160 0
v -160 -160 0
v -160 -144 0
v -144 -144 0
v -144 -176 0
v -160 -176 0
v -160 -160 0
v -144 -160 0
v -144 -192 0
v -160 -192 0
v -160 -176 0
v -144 -176 0
v -144 -208 0
v -160 -208 0
v -160 -192 0
v -144 -192 0
v -144 -224 0
v -160 -224 0
v -160 -208 0
v -144 -208 0
v -144 -240 0
v -160 -240 0
v -160 -224 0
v -144 -224 0
v -144 -256 0
v -160 -256 0
v -160 -240 0
v -144 -240 0

# Texture cooridinates (Count = 21)
vt 0.3666667 0.8166667
vt 0.3833333 0.8166667
vt 0.3833333 0.8333333
vt 0.3666667 0.8333333
vt 0.4 0.8166667
vt 0.4 0.8333333
vt 0.4166667 0.8166667
vt 0.4166667 0.8333333
vt 0.3666667 0.7
vt 0.3833333 0.7
vt 0.3833333 0.7166667
vt 0.3666667 0.7166667
vt 0.4 0.7
vt 0.4 0.7166667
vt 0.3666667 0.6833333
vt 0.3833333 0.6833333
vt 0.4 0.6833333
vt 0.3666667 0.8666667
vt 0.3833333 0.8666667
vt 0.3833333 0.8833333
vt 0.3666667 0.8833333

# Normal
vn 0 0 -1

# Mesh description
g icmc_mesh_0214

# Faces
f 1/1/1 2/2/1 3/3/1 4/4/1
f 5/2/1 6/5/1 7/6/1 8/3/1
f 9/2/1 10/5/1 11/6/1 12/3/1
f 13/2/1 14/5/1 15/6/1 16/3/1
f 17/2/1 18/5/1 19/6/1 20/3/1
f 21/2/1 22/5/1 23/6/1 24/3/1
f 25/5/1 26/7/1 27/8/1 28/6/1
f 29/9/1 30/10/1 31/11/1 32/12/1
f 33/10/1 34/13/1 35/14/1 36/11/1
f 37/10/1 38/13/1 39/14/1 40/11/1
f 41/10/1 42/13/1 43/14/1 44/11/1
f 45/10/1 46/13/1 47/14/1 48/11/1
f 49/10/1 50/13/1 51/14/1 52/11/1
f 53/10/1 54/13/1 55/14/1 56/11/1
f 57/15/1 58/16/1 59/10/1 60/9/1
f 61/16/1 62/17/1 63/13/1 64/10/1
f 65/16/1 66/17/1 67/13/1 68/10/1
f 69/16/1 70/17/1 71/13/1 72/10/1
f 73/16/1 74/17/1 75/13/1 76/10/1
f 77/16/1 78/17/1 79/13/1 80/10/1
f 81/16/1 82/17/1 83/13/1 84/10/1
f 85/18/1 86/19/1 87/20/1 88/21/1
f 89/18/1 90/19/1 91/20/1 92/21/1
f 93/18/1 94/19/1 95/20/1 96/21/1
f 97/18/1 98/19/1 99/20/1 100/21/1
f 101/18/1 102/19/1 103/20/1 104/21/1
f 105/18/1 106/19/1 107/20/1 108/21/1
f 109/18/1 110/19/1 111/20/1 112/21/1

