# Tiled2Unity generated file. Do not modify by hand.
# Wavefront file for 'icmc_mesh_0110.obj'

# Vertices (Count = 24)
v -48 -32 0
v -64 -32 0
v -64 -16 0
v -48 -16 0
v -48 -96 0
v -64 -96 0
v -64 -80 0
v -48 -80 0
v 0 -144 0
v -16 -144 0
v -16 -128 0
v 0 -128 0
v -64 -160 0
v -80 -160 0
v -80 -144 0
v -64 -144 0
v -16 -208 0
v -32 -208 0
v -32 -192 0
v -16 -192 0
v -32 -256 0
v -48 -256 0
v -48 -240 0
v -32 -240 0

# Texture cooridinates (Count = 8)
vt 0.3516484 0.625
vt 0.3555556 0.625
vt 0.3555556 0.6328125
vt 0.3516484 0.6328125
vt 0.3555556 0.640625
vt 0.3516484 0.640625
vt 0.3477412 0.625
vt 0.3477412 0.6328125

# Normal
vn 0 0 -1

# Mesh description
g icmc_mesh_0110

# Faces
f 1/1/1 2/2/1 3/3/1 4/4/1
f 5/4/1 6/3/1 7/5/1 8/6/1
f 9/7/1 10/1/1 11/4/1 12/8/1
f 13/4/1 14/3/1 15/5/1 16/6/1
f 17/7/1 18/1/1 19/4/1 20/8/1
f 21/7/1 22/1/1 23/4/1 24/8/1

