# Tiled2Unity generated file. Do not modify by hand.
# Wavefront file for 'icmc_mesh_0181.obj'

# Vertices (Count = 16)
v -144 -240 0
v -160 -240 0
v -160 -224 0
v -144 -224 0
v -192 -240 0
v -208 -240 0
v -208 -224 0
v -192 -224 0
v -144 -256 0
v -160 -256 0
v -160 -240 0
v -144 -240 0
v -192 -256 0
v -208 -256 0
v -208 -240 0
v -192 -240 0

# Texture cooridinates (Count = 6)
vt 0.125 0.458042
vt 0.25 0.458042
vt 0.25 0.4615384
vt 0.125 0.4615384
vt 0.125 0.4545454
vt 0.25 0.4545454

# Normal
vn 0 0 -1

# Mesh description
g icmc_mesh_0181

# Faces
f 1/1/1 2/2/1 3/3/1 4/4/1
f 5/1/1 6/2/1 7/3/1 8/4/1
f 9/5/1 10/6/1 11/2/1 12/1/1
f 13/5/1 14/6/1 15/2/1 16/1/1

