# Tiled2Unity generated file. Do not modify by hand.
# Wavefront file for 'icmc_mesh_0266.obj'

# Vertices (Count = 16)
v -64 -224 0
v -80 -224 0
v -80 -208 0
v -64 -208 0
v -80 -224 0
v -96 -224 0
v -96 -208 0
v -80 -208 0
v -64 -240 0
v -80 -240 0
v -80 -224 0
v -64 -224 0
v -80 -240 0
v -96 -240 0
v -96 -224 0
v -80 -224 0

# Texture cooridinates (Count = 9)
vt 0.9166667 0.7166667
vt 0.9333333 0.7166667
vt 0.9333333 0.7333333
vt 0.9166667 0.7333333
vt 0.95 0.7166667
vt 0.95 0.7333333
vt 0.9166667 0.7
vt 0.9333333 0.7
vt 0.95 0.7

# Normal
vn 0 0 -1

# Mesh description
g icmc_mesh_0266

# Faces
f 1/1/1 2/2/1 3/3/1 4/4/1
f 5/2/1 6/5/1 7/6/1 8/3/1
f 9/7/1 10/8/1 11/2/1 12/1/1
f 13/8/1 14/9/1 15/5/1 16/2/1

