# Tiled2Unity generated file. Do not modify by hand.
# Wavefront file for 'icmc_mesh_0297.obj'

# Vertices (Count = 32)
v 0 -192 0
v -16 -192 0
v -16 -176 0
v 0 -176 0
v -80 -192 0
v -96 -192 0
v -96 -176 0
v -80 -176 0
v -160 -192 0
v -176 -192 0
v -176 -176 0
v -160 -176 0
v -240 -192 0
v -256 -192 0
v -256 -176 0
v -240 -176 0
v 0 -208 0
v -16 -208 0
v -16 -192 0
v 0 -192 0
v -80 -208 0
v -96 -208 0
v -96 -192 0
v -80 -192 0
v -160 -208 0
v -176 -208 0
v -176 -192 0
v -160 -192 0
v -240 -208 0
v -256 -208 0
v -256 -192 0
v -240 -192 0

# Texture cooridinates (Count = 6)
vt 0.5626374 0.8203125
vt 0.5665446 0.8203125
vt 0.5665446 0.828125
vt 0.5626374 0.828125
vt 0.5626374 0.8125
vt 0.5665446 0.8125

# Normal
vn 0 0 -1

# Mesh description
g icmc_mesh_0297

# Faces
f 1/1/1 2/2/1 3/3/1 4/4/1
f 5/1/1 6/2/1 7/3/1 8/4/1
f 9/1/1 10/2/1 11/3/1 12/4/1
f 13/1/1 14/2/1 15/3/1 16/4/1
f 17/5/1 18/6/1 19/2/1 20/1/1
f 21/5/1 22/6/1 23/2/1 24/1/1
f 25/5/1 26/6/1 27/2/1 28/1/1
f 29/5/1 30/6/1 31/2/1 32/1/1

