# Tiled2Unity generated file. Do not modify by hand.
# Wavefront file for 'icmc_mesh_0358.obj'

# Vertices (Count = 44)
v -96 -16 0
v -112 -16 0
v -112 0 0
v -96 0 0
v -96 -32 0
v -112 -32 0
v -112 -16 0
v -96 -16 0
v -96 -48 0
v -112 -48 0
v -112 -32 0
v -96 -32 0
v -96 -64 0
v -112 -64 0
v -112 -48 0
v -96 -48 0
v -96 -80 0
v -112 -80 0
v -112 -64 0
v -96 -64 0
v -96 -96 0
v -112 -96 0
v -112 -80 0
v -96 -80 0
v -96 -112 0
v -112 -112 0
v -112 -96 0
v -96 -96 0
v -96 -128 0
v -112 -128 0
v -112 -112 0
v -96 -112 0
v -96 -144 0
v -112 -144 0
v -112 -128 0
v -96 -128 0
v -96 -160 0
v -112 -160 0
v -112 -144 0
v -96 -144 0
v -96 -176 0
v -112 -176 0
v -112 -160 0
v -96 -160 0

# Texture cooridinates (Count = 4)
vt 0.2666667 0.7809524
vt 0.275 0.7809524
vt 0.275 0.7857143
vt 0.2666667 0.7857143

# Normal
vn 0 0 -1

# Mesh description
g icmc_mesh_0358

# Faces
f 1/1/1 2/2/1 3/3/1 4/4/1
f 5/1/1 6/2/1 7/3/1 8/4/1
f 9/1/1 10/2/1 11/3/1 12/4/1
f 13/1/1 14/2/1 15/3/1 16/4/1
f 17/1/1 18/2/1 19/3/1 20/4/1
f 21/1/1 22/2/1 23/3/1 24/4/1
f 25/1/1 26/2/1 27/3/1 28/4/1
f 29/1/1 30/2/1 31/3/1 32/4/1
f 33/1/1 34/2/1 35/3/1 36/4/1
f 37/1/1 38/2/1 39/3/1 40/4/1
f 41/1/1 42/2/1 43/3/1 44/4/1

