# Tiled2Unity generated file. Do not modify by hand.
# Wavefront file for 'icmc_mesh_0281.obj'

# Vertices (Count = 16)
v -96 -16 0
v -112 -16 0
v -112 0 0
v -96 0 0
v -144 -32 0
v -160 -32 0
v -160 -16 0
v -144 -16 0
v -208 -64 0
v -224 -64 0
v -224 -48 0
v -208 -48 0
v -224 -64 0
v -240 -64 0
v -240 -48 0
v -224 -48 0

# Texture cooridinates (Count = 12)
vt 0.3 0.7857143
vt 0.3083333 0.7857143
vt 0.3083333 0.7904762
vt 0.3 0.7904762
vt 0.2916667 0.7761905
vt 0.3 0.7761905
vt 0.3 0.7809524
vt 0.2916667 0.7809524
vt 0.2666667 0.7761905
vt 0.275 0.7761905
vt 0.275 0.7809524
vt 0.2666667 0.7809524

# Normal
vn 0 0 -1

# Mesh description
g icmc_mesh_0281

# Faces
f 1/1/1 2/2/1 3/3/1 4/4/1
f 5/5/1 6/6/1 7/7/1 8/8/1
f 9/1/1 10/2/1 11/3/1 12/4/1
f 13/9/1 14/10/1 15/11/1 16/12/1

