# Tiled2Unity generated file. Do not modify by hand.
# Wavefront file for 'icmc_mesh_0094.obj'

# Vertices (Count = 448)
v 0 -16 0
v -16 -16 0
v -16 0 0
v 0 0 0
v -16 -16 0
v -32 -16 0
v -32 0 0
v -16 0 0
v -32 -16 0
v -48 -16 0
v -48 0 0
v -32 0 0
v -48 -16 0
v -64 -16 0
v -64 0 0
v -48 0 0
v -64 -16 0
v -80 -16 0
v -80 0 0
v -64 0 0
v 0 -32 0
v -16 -32 0
v -16 -16 0
v 0 -16 0
v -16 -32 0
v -32 -32 0
v -32 -16 0
v -16 -16 0
v -32 -32 0
v -48 -32 0
v -48 -16 0
v -32 -16 0
v -48 -32 0
v -64 -32 0
v -64 -16 0
v -48 -16 0
v -64 -32 0
v -80 -32 0
v -80 -16 0
v -64 -16 0
v -80 -32 0
v -96 -32 0
v -96 -16 0
v -80 -16 0
v -96 -32 0
v -112 -32 0
v -112 -16 0
v -96 -16 0
v -112 -32 0
v -128 -32 0
v -128 -16 0
v -112 -16 0
v 0 -48 0
v -16 -48 0
v -16 -32 0
v 0 -32 0
v -16 -48 0
v -32 -48 0
v -32 -32 0
v -16 -32 0
v -32 -48 0
v -48 -48 0
v -48 -32 0
v -32 -32 0
v -48 -48 0
v -64 -48 0
v -64 -32 0
v -48 -32 0
v -64 -48 0
v -80 -48 0
v -80 -32 0
v -64 -32 0
v -80 -48 0
v -96 -48 0
v -96 -32 0
v -80 -32 0
v -96 -48 0
v -112 -48 0
v -112 -32 0
v -96 -32 0
v -112 -48 0
v -128 -48 0
v -128 -32 0
v -112 -32 0
v 0 -64 0
v -16 -64 0
v -16 -48 0
v 0 -48 0
v -16 -64 0
v -32 -64 0
v -32 -48 0
v -16 -48 0
v -32 -64 0
v -48 -64 0
v -48 -48 0
v -32 -48 0
v -48 -64 0
v -64 -64 0
v -64 -48 0
v -48 -48 0
v -64 -64 0
v -80 -64 0
v -80 -48 0
v -64 -48 0
v -80 -64 0
v -96 -64 0
v -96 -48 0
v -80 -48 0
v -96 -64 0
v -112 -64 0
v -112 -48 0
v -96 -48 0
v -112 -64 0
v -128 -64 0
v -128 -48 0
v -112 -48 0
v 0 -80 0
v -16 -80 0
v -16 -64 0
v 0 -64 0
v -16 -80 0
v -32 -80 0
v -32 -64 0
v -16 -64 0
v -32 -80 0
v -48 -80 0
v -48 -64 0
v -32 -64 0
v -48 -80 0
v -64 -80 0
v -64 -64 0
v -48 -64 0
v -64 -80 0
v -80 -80 0
v -80 -64 0
v -64 -64 0
v -80 -80 0
v -96 -80 0
v -96 -64 0
v -80 -64 0
v -96 -80 0
v -112 -80 0
v -112 -64 0
v -96 -64 0
v -112 -80 0
v -128 -80 0
v -128 -64 0
v -112 -64 0
v 0 -96 0
v -16 -96 0
v -16 -80 0
v 0 -80 0
v -16 -96 0
v -32 -96 0
v -32 -80 0
v -16 -80 0
v -32 -96 0
v -48 -96 0
v -48 -80 0
v -32 -80 0
v -48 -96 0
v -64 -96 0
v -64 -80 0
v -48 -80 0
v -64 -96 0
v -80 -96 0
v -80 -80 0
v -64 -80 0
v -80 -96 0
v -96 -96 0
v -96 -80 0
v -80 -80 0
v -96 -96 0
v -112 -96 0
v -112 -80 0
v -96 -80 0
v -112 -96 0
v -128 -96 0
v -128 -80 0
v -112 -80 0
v 0 -112 0
v -16 -112 0
v -16 -96 0
v 0 -96 0
v -16 -112 0
v -32 -112 0
v -32 -96 0
v -16 -96 0
v -32 -112 0
v -48 -112 0
v -48 -96 0
v -32 -96 0
v -48 -112 0
v -64 -112 0
v -64 -96 0
v -48 -96 0
v -64 -112 0
v -80 -112 0
v -80 -96 0
v -64 -96 0
v -80 -112 0
v -96 -112 0
v -96 -96 0
v -80 -96 0
v -96 -112 0
v -112 -112 0
v -112 -96 0
v -96 -96 0
v -112 -112 0
v -128 -112 0
v -128 -96 0
v -112 -96 0
v -80 -128 0
v -96 -128 0
v -96 -112 0
v -80 -112 0
v -96 -128 0
v -112 -128 0
v -112 -112 0
v -96 -112 0
v -112 -128 0
v -128 -128 0
v -128 -112 0
v -112 -112 0
v -80 -144 0
v -96 -144 0
v -96 -128 0
v -80 -128 0
v -96 -144 0
v -112 -144 0
v -112 -128 0
v -96 -128 0
v -112 -144 0
v -128 -144 0
v -128 -128 0
v -112 -128 0
v -80 -160 0
v -96 -160 0
v -96 -144 0
v -80 -144 0
v -96 -160 0
v -112 -160 0
v -112 -144 0
v -96 -144 0
v -112 -160 0
v -128 -160 0
v -128 -144 0
v -112 -144 0
v -80 -176 0
v -96 -176 0
v -96 -160 0
v -80 -160 0
v -96 -176 0
v -112 -176 0
v -112 -160 0
v -96 -160 0
v -112 -176 0
v -128 -176 0
v -128 -160 0
v -112 -160 0
v -128 -176 0
v -144 -176 0
v -144 -160 0
v -128 -160 0
v -144 -176 0
v -160 -176 0
v -160 -160 0
v -144 -160 0
v -160 -176 0
v -176 -176 0
v -176 -160 0
v -160 -160 0
v -176 -176 0
v -192 -176 0
v -192 -160 0
v -176 -160 0
v -192 -176 0
v -208 -176 0
v -208 -160 0
v -192 -160 0
v -208 -176 0
v -224 -176 0
v -224 -160 0
v -208 -160 0
v -80 -192 0
v -96 -192 0
v -96 -176 0
v -80 -176 0
v -96 -192 0
v -112 -192 0
v -112 -176 0
v -96 -176 0
v -112 -192 0
v -128 -192 0
v -128 -176 0
v -112 -176 0
v -128 -192 0
v -144 -192 0
v -144 -176 0
v -128 -176 0
v -144 -192 0
v -160 -192 0
v -160 -176 0
v -144 -176 0
v -160 -192 0
v -176 -192 0
v -176 -176 0
v -160 -176 0
v -176 -192 0
v -192 -192 0
v -192 -176 0
v -176 -176 0
v -192 -192 0
v -208 -192 0
v -208 -176 0
v -192 -176 0
v -208 -192 0
v -224 -192 0
v -224 -176 0
v -208 -176 0
v -80 -208 0
v -96 -208 0
v -96 -192 0
v -80 -192 0
v -96 -208 0
v -112 -208 0
v -112 -192 0
v -96 -192 0
v -112 -208 0
v -128 -208 0
v -128 -192 0
v -112 -192 0
v -128 -208 0
v -144 -208 0
v -144 -192 0
v -128 -192 0
v -144 -208 0
v -160 -208 0
v -160 -192 0
v -144 -192 0
v -160 -208 0
v -176 -208 0
v -176 -192 0
v -160 -192 0
v -176 -208 0
v -192 -208 0
v -192 -192 0
v -176 -192 0
v -192 -208 0
v -208 -208 0
v -208 -192 0
v -192 -192 0
v -208 -208 0
v -224 -208 0
v -224 -192 0
v -208 -192 0
v -80 -224 0
v -96 -224 0
v -96 -208 0
v -80 -208 0
v -96 -224 0
v -112 -224 0
v -112 -208 0
v -96 -208 0
v -112 -224 0
v -128 -224 0
v -128 -208 0
v -112 -208 0
v -128 -224 0
v -144 -224 0
v -144 -208 0
v -128 -208 0
v -144 -224 0
v -160 -224 0
v -160 -208 0
v -144 -208 0
v -160 -224 0
v -176 -224 0
v -176 -208 0
v -160 -208 0
v -176 -224 0
v -192 -224 0
v -192 -208 0
v -176 -208 0
v -192 -224 0
v -208 -224 0
v -208 -208 0
v -192 -208 0
v -208 -224 0
v -224 -224 0
v -224 -208 0
v -208 -208 0
v 0 -240 0
v -16 -240 0
v -16 -224 0
v 0 -224 0
v -16 -240 0
v -32 -240 0
v -32 -224 0
v -16 -224 0
v -32 -240 0
v -48 -240 0
v -48 -224 0
v -32 -224 0
v -48 -240 0
v -64 -240 0
v -64 -224 0
v -48 -224 0
v -64 -240 0
v -80 -240 0
v -80 -224 0
v -64 -224 0
v -80 -240 0
v -96 -240 0
v -96 -224 0
v -80 -224 0
v -96 -240 0
v -112 -240 0
v -112 -224 0
v -96 -224 0
v -112 -240 0
v -128 -240 0
v -128 -224 0
v -112 -224 0
v -128 -240 0
v -144 -240 0
v -144 -224 0
v -128 -224 0
v -144 -240 0
v -160 -240 0
v -160 -224 0
v -144 -224 0
v -160 -240 0
v -176 -240 0
v -176 -224 0
v -160 -224 0
v -176 -240 0
v -192 -240 0
v -192 -224 0
v -176 -224 0
v -192 -240 0
v -208 -240 0
v -208 -224 0
v -192 -224 0
v -208 -240 0
v -224 -240 0
v -224 -224 0
v -208 -224 0

# Texture cooridinates (Count = 24)
vt 0.4141636 0.984375
vt 0.4180708 0.984375
vt 0.4180708 0.9921875
vt 0.4141636 0.9921875
vt 0.343834 0.578125
vt 0.3477412 0.578125
vt 0.3477412 0.5859375
vt 0.343834 0.5859375
vt 0.3516484 0.578125
vt 0.3516484 0.5859375
vt 0.3555556 0.578125
vt 0.3555556 0.5859375
vt 0.3516484 0.59375
vt 0.3477412 0.59375
vt 0.3360195 0.5703125
vt 0.3399267 0.5703125
vt 0.3399267 0.578125
vt 0.3360195 0.578125
vt 0.343834 0.5703125
vt 0.3399267 0.5625
vt 0.343834 0.5625
vt 0.3477412 0.5703125
vt 0.3516484 0.5703125
vt 0.3555556 0.5703125

# Normal
vn 0 0 -1

# Mesh description
g icmc_mesh_0094

# Faces
f 1/1/1 2/2/1 3/3/1 4/4/1
f 5/1/1 6/2/1 7/3/1 8/4/1
f 9/1/1 10/2/1 11/3/1 12/4/1
f 13/5/1 14/6/1 15/7/1 16/8/1
f 17/6/1 18/9/1 19/10/1 20/7/1
f 21/1/1 22/2/1 23/3/1 24/4/1
f 25/1/1 26/2/1 27/3/1 28/4/1
f 29/1/1 30/2/1 31/3/1 32/4/1
f 33/5/1 34/6/1 35/7/1 36/8/1
f 37/6/1 38/9/1 39/10/1 40/7/1
f 41/6/1 42/9/1 43/10/1 44/7/1
f 45/9/1 46/11/1 47/12/1 48/10/1
f 49/1/1 50/2/1 51/3/1 52/4/1
f 53/1/1 54/2/1 55/3/1 56/4/1
f 57/1/1 58/2/1 59/3/1 60/4/1
f 61/1/1 62/2/1 63/3/1 64/4/1
f 65/5/1 66/6/1 67/7/1 68/8/1
f 69/6/1 70/9/1 71/10/1 72/7/1
f 73/6/1 74/9/1 75/10/1 76/7/1
f 77/9/1 78/11/1 79/12/1 80/10/1
f 81/1/1 82/2/1 83/3/1 84/4/1
f 85/1/1 86/2/1 87/3/1 88/4/1
f 89/1/1 90/2/1 91/3/1 92/4/1
f 93/1/1 94/2/1 95/3/1 96/4/1
f 97/5/1 98/6/1 99/7/1 100/8/1
f 101/6/1 102/9/1 103/10/1 104/7/1
f 105/6/1 106/9/1 107/10/1 108/7/1
f 109/9/1 110/11/1 111/12/1 112/10/1
f 113/1/1 114/2/1 115/3/1 116/4/1
f 117/7/1 118/10/1 119/13/1 120/14/1
f 121/7/1 122/10/1 123/13/1 124/14/1
f 125/7/1 126/10/1 127/13/1 128/14/1
f 129/15/1 130/16/1 131/17/1 132/18/1
f 133/6/1 134/9/1 135/10/1 136/7/1
f 137/6/1 138/9/1 139/10/1 140/7/1
f 141/9/1 142/11/1 143/12/1 144/10/1
f 145/1/1 146/2/1 147/3/1 148/4/1
f 149/6/1 150/9/1 151/10/1 152/7/1
f 153/6/1 154/9/1 155/10/1 156/7/1
f 157/6/1 158/9/1 159/10/1 160/7/1
f 161/6/1 162/9/1 163/10/1 164/7/1
f 165/6/1 166/9/1 167/10/1 168/7/1
f 169/6/1 170/9/1 171/10/1 172/7/1
f 173/9/1 174/11/1 175/12/1 176/10/1
f 177/1/1 178/2/1 179/3/1 180/4/1
f 181/6/1 182/9/1 183/10/1 184/7/1
f 185/6/1 186/9/1 187/10/1 188/7/1
f 189/6/1 190/9/1 191/10/1 192/7/1
f 193/6/1 194/9/1 195/10/1 196/7/1
f 197/6/1 198/9/1 199/10/1 200/7/1
f 201/6/1 202/9/1 203/10/1 204/7/1
f 205/9/1 206/11/1 207/12/1 208/10/1
f 209/1/1 210/2/1 211/3/1 212/4/1
f 213/6/1 214/9/1 215/10/1 216/7/1
f 217/9/1 218/11/1 219/12/1 220/10/1
f 221/1/1 222/2/1 223/3/1 224/4/1
f 225/6/1 226/9/1 227/10/1 228/7/1
f 229/9/1 230/11/1 231/12/1 232/10/1
f 233/1/1 234/2/1 235/3/1 236/4/1
f 237/6/1 238/9/1 239/10/1 240/7/1
f 241/9/1 242/11/1 243/12/1 244/10/1
f 245/1/1 246/2/1 247/3/1 248/4/1
f 249/6/1 250/9/1 251/10/1 252/7/1
f 253/16/1 254/19/1 255/5/1 256/17/1
f 257/7/1 258/10/1 259/13/1 260/14/1
f 261/6/1 262/9/1 263/10/1 264/7/1
f 265/6/1 266/9/1 267/10/1 268/7/1
f 269/6/1 270/9/1 271/10/1 272/7/1
f 273/6/1 274/9/1 275/10/1 276/7/1
f 277/9/1 278/11/1 279/12/1 280/10/1
f 281/1/1 282/2/1 283/3/1 284/4/1
f 285/6/1 286/9/1 287/10/1 288/7/1
f 289/6/1 290/9/1 291/10/1 292/7/1
f 293/6/1 294/9/1 295/10/1 296/7/1
f 297/6/1 298/9/1 299/10/1 300/7/1
f 301/6/1 302/9/1 303/10/1 304/7/1
f 305/6/1 306/9/1 307/10/1 308/7/1
f 309/6/1 310/9/1 311/10/1 312/7/1
f 313/9/1 314/11/1 315/12/1 316/10/1
f 317/1/1 318/2/1 319/3/1 320/4/1
f 321/6/1 322/9/1 323/10/1 324/7/1
f 325/6/1 326/9/1 327/10/1 328/7/1
f 329/6/1 330/9/1 331/10/1 332/7/1
f 333/6/1 334/9/1 335/10/1 336/7/1
f 337/6/1 338/9/1 339/10/1 340/7/1
f 341/6/1 342/9/1 343/10/1 344/7/1
f 345/6/1 346/9/1 347/10/1 348/7/1
f 349/9/1 350/11/1 351/12/1 352/10/1
f 353/1/1 354/2/1 355/3/1 356/4/1
f 357/6/1 358/9/1 359/10/1 360/7/1
f 361/20/1 362/21/1 363/19/1 364/16/1
f 365/22/1 366/23/1 367/9/1 368/6/1
f 369/22/1 370/23/1 371/9/1 372/6/1
f 373/22/1 374/23/1 375/9/1 376/6/1
f 377/22/1 378/23/1 379/9/1 380/6/1
f 381/22/1 382/23/1 383/9/1 384/6/1
f 385/23/1 386/24/1 387/11/1 388/9/1
f 389/1/1 390/2/1 391/3/1 392/4/1
f 393/1/1 394/2/1 395/3/1 396/4/1
f 397/1/1 398/2/1 399/3/1 400/4/1
f 401/1/1 402/2/1 403/3/1 404/4/1
f 405/1/1 406/2/1 407/3/1 408/4/1
f 409/1/1 410/2/1 411/3/1 412/4/1
f 413/6/1 414/9/1 415/10/1 416/7/1
f 417/9/1 418/11/1 419/12/1 420/10/1
f 421/1/1 422/2/1 423/3/1 424/4/1
f 425/1/1 426/2/1 427/3/1 428/4/1
f 429/1/1 430/2/1 431/3/1 432/4/1
f 433/1/1 434/2/1 435/3/1 436/4/1
f 437/1/1 438/2/1 439/3/1 440/4/1
f 441/1/1 442/2/1 443/3/1 444/4/1
f 445/1/1 446/2/1 447/3/1 448/4/1

