# Tiled2Unity generated file. Do not modify by hand.
# Wavefront file for 'icmc_mesh_0261.obj'

# Vertices (Count = 36)
v -176 -16 0
v -192 -16 0
v -192 0 0
v -176 0 0
v -192 -16 0
v -208 -16 0
v -208 0 0
v -192 0 0
v -208 -16 0
v -224 -16 0
v -224 0 0
v -208 0 0
v -176 -32 0
v -192 -32 0
v -192 -16 0
v -176 -16 0
v -192 -32 0
v -208 -32 0
v -208 -16 0
v -192 -16 0
v -208 -32 0
v -224 -32 0
v -224 -16 0
v -208 -16 0
v -176 -48 0
v -192 -48 0
v -192 -32 0
v -176 -32 0
v -192 -48 0
v -208 -48 0
v -208 -32 0
v -192 -32 0
v -208 -48 0
v -224 -48 0
v -224 -32 0
v -208 -32 0

# Texture cooridinates (Count = 16)
vt 0 0.9609375
vt 0.003907204 0.9609375
vt 0.003907204 0.96875
vt 0 0.96875
vt 0.007814408 0.9609375
vt 0.007814408 0.96875
vt 0.01172161 0.9609375
vt 0.01172161 0.96875
vt 0 0.953125
vt 0.003907204 0.953125
vt 0.007814408 0.953125
vt 0.01172161 0.953125
vt 0 0.9453125
vt 0.003907204 0.9453125
vt 0.007814408 0.9453125
vt 0.01172161 0.9453125

# Normal
vn 0 0 -1

# Mesh description
g icmc_mesh_0261

# Faces
f 1/1/1 2/2/1 3/3/1 4/4/1
f 5/2/1 6/5/1 7/6/1 8/3/1
f 9/5/1 10/7/1 11/8/1 12/6/1
f 13/9/1 14/10/1 15/2/1 16/1/1
f 17/10/1 18/11/1 19/5/1 20/2/1
f 21/11/1 22/12/1 23/7/1 24/5/1
f 25/13/1 26/14/1 27/10/1 28/9/1
f 29/14/1 30/15/1 31/11/1 32/10/1
f 33/15/1 34/16/1 35/12/1 36/11/1

