# Tiled2Unity generated file. Do not modify by hand.
# Wavefront file for 'icmc_mesh_0236.obj'

# Vertices (Count = 12)
v -48 -256 0
v -64 -256 0
v -64 -240 0
v -48 -240 0
v -112 -256 0
v -128 -256 0
v -128 -240 0
v -112 -240 0
v -176 -256 0
v -192 -256 0
v -192 -240 0
v -176 -240 0

# Texture cooridinates (Count = 4)
vt 0.5626374 0.8203125
vt 0.5665446 0.8203125
vt 0.5665446 0.828125
vt 0.5626374 0.828125

# Normal
vn 0 0 -1

# Mesh description
g icmc_mesh_0236

# Faces
f 1/1/1 2/2/1 3/3/1 4/4/1
f 5/1/1 6/2/1 7/3/1 8/4/1
f 9/1/1 10/2/1 11/3/1 12/4/1

