# Tiled2Unity generated file. Do not modify by hand.
# Wavefront file for 'icmc_mesh_0307.obj'

# Vertices (Count = 8)
v 0 -192 0
v -16 -192 0
v -16 -176 0
v 0 -176 0
v 0 -208 0
v -16 -208 0
v -16 -192 0
v 0 -192 0

# Texture cooridinates (Count = 6)
vt 0.5626374 0.8203125
vt 0.5665446 0.8203125
vt 0.5665446 0.828125
vt 0.5626374 0.828125
vt 0.5626374 0.8125
vt 0.5665446 0.8125

# Normal
vn 0 0 -1

# Mesh description
g icmc_mesh_0307

# Faces
f 1/1/1 2/2/1 3/3/1 4/4/1
f 5/5/1 6/6/1 7/2/1 8/1/1

