# Tiled2Unity generated file. Do not modify by hand.
# Wavefront file for 'icmc_mesh_0065.obj'

# Vertices (Count = 208)
v 0 -64 0
v -16 -64 0
v -16 -48 0
v 0 -48 0
v -16 -64 0
v -32 -64 0
v -32 -48 0
v -16 -48 0
v -32 -64 0
v -48 -64 0
v -48 -48 0
v -32 -48 0
v -48 -64 0
v -64 -64 0
v -64 -48 0
v -48 -48 0
v 0 -80 0
v -16 -80 0
v -16 -64 0
v 0 -64 0
v -16 -80 0
v -32 -80 0
v -32 -64 0
v -16 -64 0
v -32 -80 0
v -48 -80 0
v -48 -64 0
v -32 -64 0
v -48 -80 0
v -64 -80 0
v -64 -64 0
v -48 -64 0
v 0 -96 0
v -16 -96 0
v -16 -80 0
v 0 -80 0
v -16 -96 0
v -32 -96 0
v -32 -80 0
v -16 -80 0
v -32 -96 0
v -48 -96 0
v -48 -80 0
v -32 -80 0
v -48 -96 0
v -64 -96 0
v -64 -80 0
v -48 -80 0
v 0 -112 0
v -16 -112 0
v -16 -96 0
v 0 -96 0
v -16 -112 0
v -32 -112 0
v -32 -96 0
v -16 -96 0
v -32 -112 0
v -48 -112 0
v -48 -96 0
v -32 -96 0
v -48 -112 0
v -64 -112 0
v -64 -96 0
v -48 -96 0
v 0 -128 0
v -16 -128 0
v -16 -112 0
v 0 -112 0
v -16 -128 0
v -32 -128 0
v -32 -112 0
v -16 -112 0
v -32 -128 0
v -48 -128 0
v -48 -112 0
v -32 -112 0
v -48 -128 0
v -64 -128 0
v -64 -112 0
v -48 -112 0
v 0 -144 0
v -16 -144 0
v -16 -128 0
v 0 -128 0
v -16 -144 0
v -32 -144 0
v -32 -128 0
v -16 -128 0
v -32 -144 0
v -48 -144 0
v -48 -128 0
v -32 -128 0
v -48 -144 0
v -64 -144 0
v -64 -128 0
v -48 -128 0
v 0 -160 0
v -16 -160 0
v -16 -144 0
v 0 -144 0
v -16 -160 0
v -32 -160 0
v -32 -144 0
v -16 -144 0
v -32 -160 0
v -48 -160 0
v -48 -144 0
v -32 -144 0
v -48 -160 0
v -64 -160 0
v -64 -144 0
v -48 -144 0
v 0 -176 0
v -16 -176 0
v -16 -160 0
v 0 -160 0
v -16 -176 0
v -32 -176 0
v -32 -160 0
v -16 -160 0
v -32 -176 0
v -48 -176 0
v -48 -160 0
v -32 -160 0
v -48 -176 0
v -64 -176 0
v -64 -160 0
v -48 -160 0
v 0 -192 0
v -16 -192 0
v -16 -176 0
v 0 -176 0
v -16 -192 0
v -32 -192 0
v -32 -176 0
v -16 -176 0
v -32 -192 0
v -48 -192 0
v -48 -176 0
v -32 -176 0
v -48 -192 0
v -64 -192 0
v -64 -176 0
v -48 -176 0
v 0 -208 0
v -16 -208 0
v -16 -192 0
v 0 -192 0
v -16 -208 0
v -32 -208 0
v -32 -192 0
v -16 -192 0
v -32 -208 0
v -48 -208 0
v -48 -192 0
v -32 -192 0
v -48 -208 0
v -64 -208 0
v -64 -192 0
v -48 -192 0
v 0 -224 0
v -16 -224 0
v -16 -208 0
v 0 -208 0
v -16 -224 0
v -32 -224 0
v -32 -208 0
v -16 -208 0
v -32 -224 0
v -48 -224 0
v -48 -208 0
v -32 -208 0
v -48 -224 0
v -64 -224 0
v -64 -208 0
v -48 -208 0
v 0 -240 0
v -16 -240 0
v -16 -224 0
v 0 -224 0
v -16 -240 0
v -32 -240 0
v -32 -224 0
v -16 -224 0
v -32 -240 0
v -48 -240 0
v -48 -224 0
v -32 -224 0
v -48 -240 0
v -64 -240 0
v -64 -224 0
v -48 -224 0
v 0 -256 0
v -16 -256 0
v -16 -240 0
v 0 -240 0
v -16 -256 0
v -32 -256 0
v -32 -240 0
v -16 -240 0
v -32 -256 0
v -48 -256 0
v -48 -240 0
v -32 -240 0
v -48 -256 0
v -64 -256 0
v -64 -240 0
v -48 -240 0

# Texture cooridinates (Count = 10)
vt 0.4141636 0.984375
vt 0.4180708 0.984375
vt 0.4180708 0.9921875
vt 0.4141636 0.9921875
vt 0.3477412 0.5859375
vt 0.3516484 0.5859375
vt 0.3516484 0.59375
vt 0.3477412 0.59375
vt 0.3477412 0.578125
vt 0.3516484 0.578125

# Normal
vn 0 0 -1

# Mesh description
g icmc_mesh_0065

# Faces
f 1/1/1 2/2/1 3/3/1 4/4/1
f 5/1/1 6/2/1 7/3/1 8/4/1
f 9/1/1 10/2/1 11/3/1 12/4/1
f 13/1/1 14/2/1 15/3/1 16/4/1
f 17/1/1 18/2/1 19/3/1 20/4/1
f 21/1/1 22/2/1 23/3/1 24/4/1
f 25/1/1 26/2/1 27/3/1 28/4/1
f 29/1/1 30/2/1 31/3/1 32/4/1
f 33/1/1 34/2/1 35/3/1 36/4/1
f 37/1/1 38/2/1 39/3/1 40/4/1
f 41/1/1 42/2/1 43/3/1 44/4/1
f 45/1/1 46/2/1 47/3/1 48/4/1
f 49/1/1 50/2/1 51/3/1 52/4/1
f 53/1/1 54/2/1 55/3/1 56/4/1
f 57/1/1 58/2/1 59/3/1 60/4/1
f 61/1/1 62/2/1 63/3/1 64/4/1
f 65/1/1 66/2/1 67/3/1 68/4/1
f 69/1/1 70/2/1 71/3/1 72/4/1
f 73/1/1 74/2/1 75/3/1 76/4/1
f 77/1/1 78/2/1 79/3/1 80/4/1
f 81/1/1 82/2/1 83/3/1 84/4/1
f 85/1/1 86/2/1 87/3/1 88/4/1
f 89/1/1 90/2/1 91/3/1 92/4/1
f 93/1/1 94/2/1 95/3/1 96/4/1
f 97/1/1 98/2/1 99/3/1 100/4/1
f 101/1/1 102/2/1 103/3/1 104/4/1
f 105/1/1 106/2/1 107/3/1 108/4/1
f 109/1/1 110/2/1 111/3/1 112/4/1
f 113/1/1 114/2/1 115/3/1 116/4/1
f 117/1/1 118/2/1 119/3/1 120/4/1
f 121/1/1 122/2/1 123/3/1 124/4/1
f 125/1/1 126/2/1 127/3/1 128/4/1
f 129/1/1 130/2/1 131/3/1 132/4/1
f 133/1/1 134/2/1 135/3/1 136/4/1
f 137/1/1 138/2/1 139/3/1 140/4/1
f 141/1/1 142/2/1 143/3/1 144/4/1
f 145/5/1 146/6/1 147/7/1 148/8/1
f 149/5/1 150/6/1 151/7/1 152/8/1
f 153/5/1 154/6/1 155/7/1 156/8/1
f 157/5/1 158/6/1 159/7/1 160/8/1
f 161/9/1 162/10/1 163/6/1 164/5/1
f 165/9/1 166/10/1 167/6/1 168/5/1
f 169/9/1 170/10/1 171/6/1 172/5/1
f 173/9/1 174/10/1 175/6/1 176/5/1
f 177/9/1 178/10/1 179/6/1 180/5/1
f 181/9/1 182/10/1 183/6/1 184/5/1
f 185/9/1 186/10/1 187/6/1 188/5/1
f 189/9/1 190/10/1 191/6/1 192/5/1
f 193/9/1 194/10/1 195/6/1 196/5/1
f 197/9/1 198/10/1 199/6/1 200/5/1
f 201/9/1 202/10/1 203/6/1 204/5/1
f 205/9/1 206/10/1 207/6/1 208/5/1

