# Tiled2Unity generated file. Do not modify by hand.
# Wavefront file for 'icmc_mesh_0220.obj'

# Vertices (Count = 24)
v -128 -16 0
v -144 -16 0
v -144 0 0
v -128 0 0
v -144 -16 0
v -160 -16 0
v -160 0 0
v -144 0 0
v -160 -16 0
v -176 -16 0
v -176 0 0
v -160 0 0
v -176 -16 0
v -192 -16 0
v -192 0 0
v -176 0 0
v -192 -16 0
v -208 -16 0
v -208 0 0
v -192 0 0
v -208 -16 0
v -224 -16 0
v -224 0 0
v -208 0 0

# Texture cooridinates (Count = 6)
vt 0.3666667 0.8166667
vt 0.3833333 0.8166667
vt 0.3833333 0.8333333
vt 0.3666667 0.8333333
vt 0.4 0.8166667
vt 0.4 0.8333333

# Normal
vn 0 0 -1

# Mesh description
g icmc_mesh_0220

# Faces
f 1/1/1 2/2/1 3/3/1 4/4/1
f 5/2/1 6/5/1 7/6/1 8/3/1
f 9/2/1 10/5/1 11/6/1 12/3/1
f 13/2/1 14/5/1 15/6/1 16/3/1
f 17/2/1 18/5/1 19/6/1 20/3/1
f 21/2/1 22/5/1 23/6/1 24/3/1

