# Tiled2Unity generated file. Do not modify by hand.
# Wavefront file for 'icmc_mesh_0048.obj'

# Vertices (Count = 316)
v -44 -52 0
v -45 -52 0
v -45 -51 0
v -44 -51 0
v -42 -52 0
v -43 -52 0
v -43 -51 0
v -42 -51 0
v -40 -52 0
v -41 -52 0
v -41 -51 0
v -40 -51 0
v -37 -52 0
v -38 -52 0
v -38 -51 0
v -37 -51 0
v -33 -52 0
v -34 -52 0
v -34 -51 0
v -33 -51 0
v -31 -52 0
v -32 -52 0
v -32 -51 0
v -31 -51 0
v -30 -52 0
v -31 -52 0
v -31 -51 0
v -30 -51 0
v -29 -52 0
v -30 -52 0
v -30 -51 0
v -29 -51 0
v -27 -52 0
v -28 -52 0
v -28 -51 0
v -27 -51 0
v -23 -52 0
v -24 -52 0
v -24 -51 0
v -23 -51 0
v -22 -52 0
v -23 -52 0
v -23 -51 0
v -22 -51 0
v -21 -52 0
v -22 -52 0
v -22 -51 0
v -21 -51 0
v -19 -52 0
v -20 -52 0
v -20 -51 0
v -19 -51 0
v -92 -43 0
v -93 -43 0
v -93 -42 0
v -92 -42 0
v -91 -43 0
v -92 -43 0
v -92 -42 0
v -91 -42 0
v -89 -43 0
v -90 -43 0
v -90 -42 0
v -89 -42 0
v -87 -43 0
v -88 -43 0
v -88 -42 0
v -87 -42 0
v -86 -43 0
v -87 -43 0
v -87 -42 0
v -86 -42 0
v -44 -41 0
v -45 -41 0
v -45 -40 0
v -44 -40 0
v -44 -40 0
v -45 -40 0
v -45 -39 0
v -44 -39 0
v -45 -35 0
v -46 -35 0
v -46 -34 0
v -45 -34 0
v -108 -34 0
v -109 -34 0
v -109 -33 0
v -108 -33 0
v -106 -34 0
v -107 -34 0
v -107 -33 0
v -106 -33 0
v -104 -34 0
v -105 -34 0
v -105 -33 0
v -104 -33 0
v -102 -34 0
v -103 -34 0
v -103 -33 0
v -102 -33 0
v -45 -34 0
v -46 -34 0
v -46 -33 0
v -45 -33 0
v -31 -34 0
v -32 -34 0
v -32 -33 0
v -31 -33 0
v -52 -31 0
v -53 -31 0
v -53 -30 0
v -52 -30 0
v -50 -31 0
v -51 -31 0
v -51 -30 0
v -50 -30 0
v -48 -31 0
v -49 -31 0
v -49 -30 0
v -48 -30 0
v -47 -31 0
v -48 -31 0
v -48 -30 0
v -47 -30 0
v -38 -30 0
v -39 -30 0
v -39 -29 0
v -38 -29 0
v -35 -30 0
v -36 -30 0
v -36 -29 0
v -35 -29 0
v -52 -27 0
v -53 -27 0
v -53 -26 0
v -52 -26 0
v -50 -27 0
v -51 -27 0
v -51 -26 0
v -50 -26 0
v -49 -27 0
v -50 -27 0
v -50 -26 0
v -49 -26 0
v -47 -27 0
v -48 -27 0
v -48 -26 0
v -47 -26 0
v -43 -22 0
v -44 -22 0
v -44 -21 0
v -43 -21 0
v -42 -22 0
v -43 -22 0
v -43 -21 0
v -42 -21 0
v -41 -22 0
v -42 -22 0
v -42 -21 0
v -41 -21 0
v -87 -21 0
v -88 -21 0
v -88 -20 0
v -87 -20 0
v -86 -21 0
v -87 -21 0
v -87 -20 0
v -86 -20 0
v -84 -21 0
v -85 -21 0
v -85 -20 0
v -84 -20 0
v -83 -21 0
v -84 -21 0
v -84 -20 0
v -83 -20 0
v -81 -21 0
v -82 -21 0
v -82 -20 0
v -81 -20 0
v -80 -21 0
v -81 -21 0
v -81 -20 0
v -80 -20 0
v -43 -21 0
v -44 -21 0
v -44 -20 0
v -43 -20 0
v -42 -21 0
v -43 -21 0
v -43 -20 0
v -42 -20 0
v -41 -21 0
v -42 -21 0
v -42 -20 0
v -41 -20 0
v -43 -20 0
v -44 -20 0
v -44 -19 0
v -43 -19 0
v -42 -20 0
v -43 -20 0
v -43 -19 0
v -42 -19 0
v -41 -20 0
v -42 -20 0
v -42 -19 0
v -41 -19 0
v -11 -20 0
v -12 -20 0
v -12 -19 0
v -11 -19 0
v -45 -19 0
v -46 -19 0
v -46 -18 0
v -45 -18 0
v -44 -19 0
v -45 -19 0
v -45 -18 0
v -44 -18 0
v -43 -19 0
v -44 -19 0
v -44 -18 0
v -43 -18 0
v -42 -19 0
v -43 -19 0
v -43 -18 0
v -42 -18 0
v -41 -19 0
v -42 -19 0
v -42 -18 0
v -41 -18 0
v -11 -19 0
v -12 -19 0
v -12 -18 0
v -11 -18 0
v -52 -18 0
v -53 -18 0
v -53 -17 0
v -52 -17 0
v -50 -18 0
v -51 -18 0
v -51 -17 0
v -50 -17 0
v -49 -18 0
v -50 -18 0
v -50 -17 0
v -49 -17 0
v -47 -18 0
v -48 -18 0
v -48 -17 0
v -47 -17 0
v -45 -18 0
v -46 -18 0
v -46 -17 0
v -45 -17 0
v -44 -18 0
v -45 -18 0
v -45 -17 0
v -44 -17 0
v -43 -18 0
v -44 -18 0
v -44 -17 0
v -43 -17 0
v -34 -18 0
v -35 -18 0
v -35 -17 0
v -34 -17 0
v -27 -18 0
v -28 -18 0
v -28 -17 0
v -27 -17 0
v -20 -18 0
v -21 -18 0
v -21 -17 0
v -20 -17 0
v -120 -17 0
v -121 -17 0
v -121 -16 0
v -120 -16 0
v -119 -17 0
v -120 -17 0
v -120 -16 0
v -119 -16 0
v -116 -17 0
v -117 -17 0
v -117 -16 0
v -116 -16 0
v -115 -17 0
v -116 -17 0
v -116 -16 0
v -115 -16 0
v -112 -17 0
v -113 -17 0
v -113 -16 0
v -112 -16 0
v -111 -17 0
v -112 -17 0
v -112 -16 0
v -111 -16 0
v -108 -17 0
v -109 -17 0
v -109 -16 0
v -108 -16 0
v -106 -17 0
v -107 -17 0
v -107 -16 0
v -106 -16 0
v -104 -17 0
v -105 -17 0
v -105 -16 0
v -104 -16 0
v -102 -17 0
v -103 -17 0
v -103 -16 0
v -102 -16 0

# Texture cooridinates (Count = 43)
vt 0.9333333 0.9666666
vt 0.95 0.9666666
vt 0.95 0.9833333
vt 0.9333333 0.9833333
vt 0.7833334 0.9166667
vt 0.8 0.9166667
vt 0.8 0.9333333
vt 0.7833334 0.9333333
vt 0.8 0.95
vt 0.7833334 0.95
vt 0.9666666 0.9166667
vt 0.9833333 0.9166667
vt 0.9833333 0.9333333
vt 0.9666666 0.9333333
vt 0.9833333 0.95
vt 0.9666666 0.95
vt 0.4666667 0.7666667
vt 0.4833333 0.7666667
vt 0.4833333 0.7833333
vt 0.4666667 0.7833333
vt 0.45 0.7666667
vt 0.45 0.7833333
vt 0.4833333 0.8
vt 0.4666667 0.8
vt 0.45 0.8
vt 0.4833333 0.8166667
vt 0.4666667 0.8166667
vt 0.45 0.8166667
vt 0.5666667 0.8333333
vt 0.5833333 0.8333333
vt 0.5833333 0.85
vt 0.5666667 0.85
vt 0.55 0.8333333
vt 0.55 0.85
vt 0.4666667 0.8333333
vt 0.45 0.8333333
vt 0.5833333 0.8666667
vt 0.5666667 0.8666667
vt 0.55 0.8666667
vt 0.9166667 0.9
vt 0.9333333 0.9
vt 0.9333333 0.9166667
vt 0.9166667 0.9166667

# Normal
vn 0 0 -1

# Mesh description
g icmc_mesh_0048

# Faces
f 1/1/1 2/2/1 3/3/1 4/4/1
f 5/1/1 6/2/1 7/3/1 8/4/1
f 9/1/1 10/2/1 11/3/1 12/4/1
f 13/1/1 14/2/1 15/3/1 16/4/1
f 17/1/1 18/2/1 19/3/1 20/4/1
f 21/1/1 22/2/1 23/3/1 24/4/1
f 25/1/1 26/2/1 27/3/1 28/4/1
f 29/1/1 30/2/1 31/3/1 32/4/1
f 33/1/1 34/2/1 35/3/1 36/4/1
f 37/1/1 38/2/1 39/3/1 40/4/1
f 41/1/1 42/2/1 43/3/1 44/4/1
f 45/1/1 46/2/1 47/3/1 48/4/1
f 49/1/1 50/2/1 51/3/1 52/4/1
f 53/1/1 54/2/1 55/3/1 56/4/1
f 57/1/1 58/2/1 59/3/1 60/4/1
f 61/1/1 62/2/1 63/3/1 64/4/1
f 65/1/1 66/2/1 67/3/1 68/4/1
f 69/1/1 70/2/1 71/3/1 72/4/1
f 73/5/1 74/6/1 75/7/1 76/8/1
f 77/8/1 78/7/1 79/9/1 80/10/1
f 81/11/1 82/12/1 83/13/1 84/14/1
f 85/1/1 86/2/1 87/3/1 88/4/1
f 89/1/1 90/2/1 91/3/1 92/4/1
f 93/1/1 94/2/1 95/3/1 96/4/1
f 97/1/1 98/2/1 99/3/1 100/4/1
f 101/14/1 102/13/1 103/15/1 104/16/1
f 105/1/1 106/2/1 107/3/1 108/4/1
f 109/1/1 110/2/1 111/3/1 112/4/1
f 113/1/1 114/2/1 115/3/1 116/4/1
f 117/1/1 118/2/1 119/3/1 120/4/1
f 121/1/1 122/2/1 123/3/1 124/4/1
f 125/1/1 126/2/1 127/3/1 128/4/1
f 129/1/1 130/2/1 131/3/1 132/4/1
f 133/1/1 134/2/1 135/3/1 136/4/1
f 137/1/1 138/2/1 139/3/1 140/4/1
f 141/1/1 142/2/1 143/3/1 144/4/1
f 145/1/1 146/2/1 147/3/1 148/4/1
f 149/17/1 150/18/1 151/19/1 152/20/1
f 153/21/1 154/17/1 155/20/1 156/22/1
f 157/21/1 158/17/1 159/20/1 160/22/1
f 161/1/1 162/2/1 163/3/1 164/4/1
f 165/1/1 166/2/1 167/3/1 168/4/1
f 169/1/1 170/2/1 171/3/1 172/4/1
f 173/1/1 174/2/1 175/3/1 176/4/1
f 177/1/1 178/2/1 179/3/1 180/4/1
f 181/1/1 182/2/1 183/3/1 184/4/1
f 185/20/1 186/19/1 187/23/1 188/24/1
f 189/22/1 190/20/1 191/24/1 192/25/1
f 193/22/1 194/20/1 195/24/1 196/25/1
f 197/24/1 198/23/1 199/26/1 200/27/1
f 201/25/1 202/24/1 203/27/1 204/28/1
f 205/25/1 206/24/1 207/27/1 208/28/1
f 209/5/1 210/6/1 211/7/1 212/8/1
f 213/29/1 214/30/1 215/31/1 216/32/1
f 217/29/1 218/30/1 219/31/1 220/32/1
f 221/33/1 222/29/1 223/32/1 224/34/1
f 225/28/1 226/27/1 227/35/1 228/36/1
f 229/28/1 230/27/1 231/35/1 232/36/1
f 233/8/1 234/7/1 235/9/1 236/10/1
f 237/1/1 238/2/1 239/3/1 240/4/1
f 241/1/1 242/2/1 243/3/1 244/4/1
f 245/1/1 246/2/1 247/3/1 248/4/1
f 249/1/1 250/2/1 251/3/1 252/4/1
f 253/32/1 254/31/1 255/37/1 256/38/1
f 257/32/1 258/31/1 259/37/1 260/38/1
f 261/34/1 262/32/1 263/38/1 264/39/1
f 265/40/1 266/41/1 267/42/1 268/43/1
f 269/40/1 270/41/1 271/42/1 272/43/1
f 273/40/1 274/41/1 275/42/1 276/43/1
f 277/1/1 278/2/1 279/3/1 280/4/1
f 281/1/1 282/2/1 283/3/1 284/4/1
f 285/1/1 286/2/1 287/3/1 288/4/1
f 289/1/1 290/2/1 291/3/1 292/4/1
f 293/1/1 294/2/1 295/3/1 296/4/1
f 297/1/1 298/2/1 299/3/1 300/4/1
f 301/1/1 302/2/1 303/3/1 304/4/1
f 305/1/1 306/2/1 307/3/1 308/4/1
f 309/1/1 310/2/1 311/3/1 312/4/1
f 313/1/1 314/2/1 315/3/1 316/4/1

