# Tiled2Unity generated file. Do not modify by hand.
# Wavefront file for 'icmc_mesh_0238.obj'

# Vertices (Count = 60)
v -112 -32 0
v -128 -32 0
v -128 -16 0
v -112 -16 0
v -176 -32 0
v -192 -32 0
v -192 -16 0
v -176 -16 0
v -192 -32 0
v -208 -32 0
v -208 -16 0
v -192 -16 0
v -112 -48 0
v -128 -48 0
v -128 -32 0
v -112 -32 0
v -128 -48 0
v -144 -48 0
v -144 -32 0
v -128 -32 0
v -144 -48 0
v -160 -48 0
v -160 -32 0
v -144 -32 0
v -160 -48 0
v -176 -48 0
v -176 -32 0
v -160 -32 0
v -176 -48 0
v -192 -48 0
v -192 -32 0
v -176 -32 0
v -192 -48 0
v -208 -48 0
v -208 -32 0
v -192 -32 0
v -112 -64 0
v -128 -64 0
v -128 -48 0
v -112 -48 0
v -128 -144 0
v -144 -144 0
v -144 -128 0
v -128 -128 0
v -144 -144 0
v -160 -144 0
v -160 -128 0
v -144 -128 0
v -160 -144 0
v -176 -144 0
v -176 -128 0
v -160 -128 0
v -176 -144 0
v -192 -144 0
v -192 -128 0
v -176 -128 0
v -192 -144 0
v -208 -144 0
v -208 -128 0
v -192 -128 0

# Texture cooridinates (Count = 31)
vt 0.7 0.7666667
vt 0.7166666 0.7666667
vt 0.7166666 0.7833333
vt 0.7 0.7833333
vt 0.7833334 0.6833333
vt 0.8 0.6833333
vt 0.8 0.7
vt 0.7833334 0.7
vt 0.8166667 0.6833333
vt 0.8166667 0.7
vt 0.7 0.75
vt 0.7166666 0.75
vt 0.6666667 0.95
vt 0.6833333 0.95
vt 0.6833333 0.9666666
vt 0.6666667 0.9666666
vt 0.7 0.95
vt 0.7 0.9666666
vt 0.9 0.7
vt 0.9166667 0.7
vt 0.9166667 0.7166667
vt 0.9 0.7166667
vt 0.7833334 0.6666666
vt 0.8 0.6666666
vt 0.8166667 0.6666666
vt 0.7 0.7333333
vt 0.7166666 0.7333333
vt 0.9333333 0.9666666
vt 0.95 0.9666666
vt 0.95 0.9833333
vt 0.9333333 0.9833333

# Normal
vn 0 0 -1

# Mesh description
g icmc_mesh_0238

# Faces
f 1/1/1 2/2/1 3/3/1 4/4/1
f 5/5/1 6/6/1 7/7/1 8/8/1
f 9/6/1 10/9/1 11/10/1 12/7/1
f 13/11/1 14/12/1 15/2/1 16/1/1
f 17/13/1 18/14/1 19/15/1 20/16/1
f 21/14/1 22/17/1 23/18/1 24/15/1
f 25/19/1 26/20/1 27/21/1 28/22/1
f 29/23/1 30/24/1 31/6/1 32/5/1
f 33/24/1 34/25/1 35/9/1 36/6/1
f 37/26/1 38/27/1 39/12/1 40/11/1
f 41/28/1 42/29/1 43/30/1 44/31/1
f 45/28/1 46/29/1 47/30/1 48/31/1
f 49/28/1 50/29/1 51/30/1 52/31/1
f 53/28/1 54/29/1 55/30/1 56/31/1
f 57/28/1 58/29/1 59/30/1 60/31/1

