# Tiled2Unity generated file. Do not modify by hand.
# Wavefront file for 'icmc_mesh_0206.obj'

# Vertices (Count = 176)
v 0 -16 0
v -16 -16 0
v -16 0 0
v 0 0 0
v -16 -16 0
v -32 -16 0
v -32 0 0
v -16 0 0
v -32 -16 0
v -48 -16 0
v -48 0 0
v -32 0 0
v -48 -16 0
v -64 -16 0
v -64 0 0
v -48 0 0
v -64 -16 0
v -80 -16 0
v -80 0 0
v -64 0 0
v -80 -16 0
v -96 -16 0
v -96 0 0
v -80 0 0
v 0 -32 0
v -16 -32 0
v -16 -16 0
v 0 -16 0
v -16 -32 0
v -32 -32 0
v -32 -16 0
v -16 -16 0
v -32 -32 0
v -48 -32 0
v -48 -16 0
v -32 -16 0
v -48 -32 0
v -64 -32 0
v -64 -16 0
v -48 -16 0
v -64 -32 0
v -80 -32 0
v -80 -16 0
v -64 -16 0
v -80 -32 0
v -96 -32 0
v -96 -16 0
v -80 -16 0
v -80 -48 0
v -96 -48 0
v -96 -32 0
v -80 -32 0
v -80 -64 0
v -96 -64 0
v -96 -48 0
v -80 -48 0
v -80 -80 0
v -96 -80 0
v -96 -64 0
v -80 -64 0
v -80 -96 0
v -96 -96 0
v -96 -80 0
v -80 -80 0
v -80 -112 0
v -96 -112 0
v -96 -96 0
v -80 -96 0
v -80 -128 0
v -96 -128 0
v -96 -112 0
v -80 -112 0
v -80 -144 0
v -96 -144 0
v -96 -128 0
v -80 -128 0
v 0 -160 0
v -16 -160 0
v -16 -144 0
v 0 -144 0
v -16 -160 0
v -32 -160 0
v -32 -144 0
v -16 -144 0
v -32 -160 0
v -48 -160 0
v -48 -144 0
v -32 -144 0
v -48 -160 0
v -64 -160 0
v -64 -144 0
v -48 -144 0
v -64 -160 0
v -80 -160 0
v -80 -144 0
v -64 -144 0
v -80 -160 0
v -96 -160 0
v -96 -144 0
v -80 -144 0
v 0 -176 0
v -16 -176 0
v -16 -160 0
v 0 -160 0
v -16 -176 0
v -32 -176 0
v -32 -160 0
v -16 -160 0
v -32 -176 0
v -48 -176 0
v -48 -160 0
v -32 -160 0
v -48 -176 0
v -64 -176 0
v -64 -160 0
v -48 -160 0
v -64 -176 0
v -80 -176 0
v -80 -160 0
v -64 -160 0
v -80 -176 0
v -96 -176 0
v -96 -160 0
v -80 -160 0
v 0 -224 0
v -16 -224 0
v -16 -208 0
v 0 -208 0
v -16 -224 0
v -32 -224 0
v -32 -208 0
v -16 -208 0
v -32 -224 0
v -48 -224 0
v -48 -208 0
v -32 -208 0
v -48 -224 0
v -64 -224 0
v -64 -208 0
v -48 -208 0
v -64 -224 0
v -80 -224 0
v -80 -208 0
v -64 -208 0
v -80 -224 0
v -96 -224 0
v -96 -208 0
v -80 -208 0
v 0 -240 0
v -16 -240 0
v -16 -224 0
v 0 -224 0
v -16 -240 0
v -32 -240 0
v -32 -224 0
v -16 -224 0
v -32 -240 0
v -48 -240 0
v -48 -224 0
v -32 -224 0
v -48 -240 0
v -64 -240 0
v -64 -224 0
v -48 -224 0
v -64 -240 0
v -80 -240 0
v -80 -224 0
v -64 -224 0
v -80 -240 0
v -96 -240 0
v -96 -224 0
v -80 -224 0
v -80 -256 0
v -96 -256 0
v -96 -240 0
v -80 -240 0

# Texture cooridinates (Count = 22)
vt 0.3833333 0.7
vt 0.4 0.7
vt 0.4 0.7166667
vt 0.3833333 0.7166667
vt 0.4166667 0.7
vt 0.4166667 0.7166667
vt 0.3833333 0.6833333
vt 0.4 0.6833333
vt 0.4166667 0.6833333
vt 0.4 0.85
vt 0.4166667 0.85
vt 0.4166667 0.8666667
vt 0.4 0.8666667
vt 0.4166667 0.8833333
vt 0.4 0.8833333
vt 0.3833333 0.8333333
vt 0.4 0.8333333
vt 0.3833333 0.85
vt 0.4166667 0.8333333
vt 0.3833333 0.8166667
vt 0.4 0.8166667
vt 0.4166667 0.8166667

# Normal
vn 0 0 -1

# Mesh description
g icmc_mesh_0206

# Faces
f 1/1/1 2/2/1 3/3/1 4/4/1
f 5/1/1 6/2/1 7/3/1 8/4/1
f 9/1/1 10/2/1 11/3/1 12/4/1
f 13/1/1 14/2/1 15/3/1 16/4/1
f 17/1/1 18/2/1 19/3/1 20/4/1
f 21/2/1 22/5/1 23/6/1 24/3/1
f 25/7/1 26/8/1 27/2/1 28/1/1
f 29/7/1 30/8/1 31/2/1 32/1/1
f 33/7/1 34/8/1 35/2/1 36/1/1
f 37/7/1 38/8/1 39/2/1 40/1/1
f 41/7/1 42/8/1 43/2/1 44/1/1
f 45/8/1 46/9/1 47/5/1 48/2/1
f 49/10/1 50/11/1 51/12/1 52/13/1
f 53/13/1 54/12/1 55/14/1 56/15/1
f 57/10/1 58/11/1 59/12/1 60/13/1
f 61/13/1 62/12/1 63/14/1 64/15/1
f 65/10/1 66/11/1 67/12/1 68/13/1
f 69/13/1 70/12/1 71/14/1 72/15/1
f 73/10/1 74/11/1 75/12/1 76/13/1
f 77/16/1 78/17/1 79/10/1 80/18/1
f 81/16/1 82/17/1 83/10/1 84/18/1
f 85/16/1 86/17/1 87/10/1 88/18/1
f 89/16/1 90/17/1 91/10/1 92/18/1
f 93/16/1 94/17/1 95/10/1 96/18/1
f 97/17/1 98/19/1 99/11/1 100/10/1
f 101/20/1 102/21/1 103/17/1 104/16/1
f 105/20/1 106/21/1 107/17/1 108/16/1
f 109/20/1 110/21/1 111/17/1 112/16/1
f 113/20/1 114/21/1 115/17/1 116/16/1
f 117/20/1 118/21/1 119/17/1 120/16/1
f 121/21/1 122/22/1 123/19/1 124/17/1
f 125/1/1 126/2/1 127/3/1 128/4/1
f 129/1/1 130/2/1 131/3/1 132/4/1
f 133/1/1 134/2/1 135/3/1 136/4/1
f 137/1/1 138/2/1 139/3/1 140/4/1
f 141/1/1 142/2/1 143/3/1 144/4/1
f 145/2/1 146/5/1 147/6/1 148/3/1
f 149/7/1 150/8/1 151/2/1 152/1/1
f 153/7/1 154/8/1 155/2/1 156/1/1
f 157/7/1 158/8/1 159/2/1 160/1/1
f 161/7/1 162/8/1 163/2/1 164/1/1
f 165/7/1 166/8/1 167/2/1 168/1/1
f 169/8/1 170/9/1 171/5/1 172/2/1
f 173/13/1 174/12/1 175/14/1 176/15/1

