# Tiled2Unity generated file. Do not modify by hand.
# Wavefront file for 'icmc_mesh_0047.obj'

# Vertices (Count = 172)
v -47 -52 0
v -48 -52 0
v -48 -51 0
v -47 -51 0
v -6 -43 0
v -7 -43 0
v -7 -42 0
v -6 -42 0
v -6 -42 0
v -7 -42 0
v -7 -41 0
v -6 -41 0
v -6 -41 0
v -7 -41 0
v -7 -40 0
v -6 -40 0
v -6 -40 0
v -7 -40 0
v -7 -39 0
v -6 -39 0
v -6 -39 0
v -7 -39 0
v -7 -38 0
v -6 -38 0
v -6 -38 0
v -7 -38 0
v -7 -37 0
v -6 -37 0
v -53 -37 0
v -54 -37 0
v -54 -36 0
v -53 -36 0
v -52 -37 0
v -53 -37 0
v -53 -36 0
v -52 -36 0
v -51 -37 0
v -52 -37 0
v -52 -36 0
v -51 -36 0
v -48 -37 0
v -49 -37 0
v -49 -36 0
v -48 -36 0
v -47 -37 0
v -48 -37 0
v -48 -36 0
v -47 -36 0
v -46 -37 0
v -47 -37 0
v -47 -36 0
v -46 -36 0
v -6 -37 0
v -7 -37 0
v -7 -36 0
v -6 -36 0
v -53 -36 0
v -54 -36 0
v -54 -35 0
v -53 -35 0
v -52 -36 0
v -53 -36 0
v -53 -35 0
v -52 -35 0
v -51 -36 0
v -52 -36 0
v -52 -35 0
v -51 -35 0
v -48 -36 0
v -49 -36 0
v -49 -35 0
v -48 -35 0
v -47 -36 0
v -48 -36 0
v -48 -35 0
v -47 -35 0
v -46 -36 0
v -47 -36 0
v -47 -35 0
v -46 -35 0
v -6 -36 0
v -7 -36 0
v -7 -35 0
v -6 -35 0
v -6 -35 0
v -7 -35 0
v -7 -34 0
v -6 -34 0
v -6 -34 0
v -7 -34 0
v -7 -33 0
v -6 -33 0
v -6 -33 0
v -7 -33 0
v -7 -32 0
v -6 -32 0
v -6 -32 0
v -7 -32 0
v -7 -31 0
v -6 -31 0
v -6 -31 0
v -7 -31 0
v -7 -30 0
v -6 -30 0
v -6 -30 0
v -7 -30 0
v -7 -29 0
v -6 -29 0
v -6 -29 0
v -7 -29 0
v -7 -28 0
v -6 -28 0
v -89 -28 0
v -90 -28 0
v -90 -27 0
v -89 -27 0
v -55 -28 0
v -56 -28 0
v -56 -27 0
v -55 -27 0
v -54 -28 0
v -55 -28 0
v -55 -27 0
v -54 -27 0
v -53 -28 0
v -54 -28 0
v -54 -27 0
v -53 -27 0
v -52 -28 0
v -53 -28 0
v -53 -27 0
v -52 -27 0
v -51 -28 0
v -52 -28 0
v -52 -27 0
v -51 -27 0
v -50 -28 0
v -51 -28 0
v -51 -27 0
v -50 -27 0
v -6 -28 0
v -7 -28 0
v -7 -27 0
v -6 -27 0
v -100 -27 0
v -101 -27 0
v -101 -26 0
v -100 -26 0
v -89 -27 0
v -90 -27 0
v -90 -26 0
v -89 -26 0
v -6 -27 0
v -7 -27 0
v -7 -26 0
v -6 -26 0
v -100 -26 0
v -101 -26 0
v -101 -25 0
v -100 -25 0
v -6 -26 0
v -7 -26 0
v -7 -25 0
v -6 -25 0
v -6 -25 0
v -7 -25 0
v -7 -24 0
v -6 -24 0
v -21 -15 0
v -22 -15 0
v -22 -14 0
v -21 -14 0

# Texture cooridinates (Count = 36)
vt 0.975 0.447619
vt 0.9833333 0.447619
vt 0.9833333 0.452381
vt 0.975 0.452381
vt 0.2666667 0.7809524
vt 0.275 0.7809524
vt 0.275 0.7857143
vt 0.2666667 0.7857143
vt 0.8416666 0.6523809
vt 0.85 0.6523809
vt 0.85 0.6571429
vt 0.8416666 0.6571429
vt 0.8333333 0.6523809
vt 0.8333333 0.6571429
vt 0.825 0.6523809
vt 0.825 0.6571429
vt 0.85 0.6619048
vt 0.8416666 0.6619048
vt 0.8333333 0.6619048
vt 0.825 0.6619048
vt 0.3083333 0.8047619
vt 0.3166667 0.8047619
vt 0.3166667 0.8095238
vt 0.3083333 0.8095238
vt 0.3 0.8047619
vt 0.3 0.8095238
vt 0.9666666 0.6238095
vt 0.975 0.6238095
vt 0.975 0.6285714
vt 0.9666666 0.6285714
vt 0.9833333 0.4571428
vt 0.975 0.4571428
vt 0.975 0.6333333
vt 0.9666666 0.6333333
vt 0.9583333 0.6238095
vt 0.9583333 0.6285714

# Normal
vn 0 0 -1

# Mesh description
g icmc_mesh_0047

# Faces
f 1/1/1 2/2/1 3/3/1 4/4/1
f 5/5/1 6/6/1 7/7/1 8/8/1
f 9/5/1 10/6/1 11/7/1 12/8/1
f 13/5/1 14/6/1 15/7/1 16/8/1
f 17/5/1 18/6/1 19/7/1 20/8/1
f 21/5/1 22/6/1 23/7/1 24/8/1
f 25/5/1 26/6/1 27/7/1 28/8/1
f 29/9/1 30/10/1 31/11/1 32/12/1
f 33/13/1 34/9/1 35/12/1 36/14/1
f 37/15/1 38/13/1 39/14/1 40/16/1
f 41/9/1 42/10/1 43/11/1 44/12/1
f 45/13/1 46/9/1 47/12/1 48/14/1
f 49/15/1 50/13/1 51/14/1 52/16/1
f 53/5/1 54/6/1 55/7/1 56/8/1
f 57/12/1 58/11/1 59/17/1 60/18/1
f 61/14/1 62/12/1 63/18/1 64/19/1
f 65/16/1 66/14/1 67/19/1 68/20/1
f 69/12/1 70/11/1 71/17/1 72/18/1
f 73/14/1 74/12/1 75/18/1 76/19/1
f 77/16/1 78/14/1 79/19/1 80/20/1
f 81/5/1 82/6/1 83/7/1 84/8/1
f 85/5/1 86/6/1 87/7/1 88/8/1
f 89/5/1 90/6/1 91/7/1 92/8/1
f 93/5/1 94/6/1 95/7/1 96/8/1
f 97/5/1 98/6/1 99/7/1 100/8/1
f 101/5/1 102/6/1 103/7/1 104/8/1
f 105/5/1 106/6/1 107/7/1 108/8/1
f 109/5/1 110/6/1 111/7/1 112/8/1
f 113/1/1 114/2/1 115/3/1 116/4/1
f 117/21/1 118/22/1 119/23/1 120/24/1
f 121/25/1 122/21/1 123/24/1 124/26/1
f 125/21/1 126/22/1 127/23/1 128/24/1
f 129/25/1 130/21/1 131/24/1 132/26/1
f 133/21/1 134/22/1 135/23/1 136/24/1
f 137/25/1 138/21/1 139/24/1 140/26/1
f 141/5/1 142/6/1 143/7/1 144/8/1
f 145/27/1 146/28/1 147/29/1 148/30/1
f 149/4/1 150/3/1 151/31/1 152/32/1
f 153/5/1 154/6/1 155/7/1 156/8/1
f 157/30/1 158/29/1 159/33/1 160/34/1
f 161/5/1 162/6/1 163/7/1 164/8/1
f 165/5/1 166/6/1 167/7/1 168/8/1
f 169/35/1 170/27/1 171/30/1 172/36/1

