# Tiled2Unity generated file. Do not modify by hand.
# Wavefront file for 'icmc_mesh_0377.obj'

# Vertices (Count = 16)
v -192 -48 0
v -208 -48 0
v -208 -32 0
v -192 -32 0
v -96 -176 0
v -112 -176 0
v -112 -160 0
v -96 -160 0
v -112 -176 0
v -128 -176 0
v -128 -160 0
v -112 -160 0
v -240 -176 0
v -256 -176 0
v -256 -160 0
v -240 -160 0

# Texture cooridinates (Count = 8)
vt 0.04688645 0.9453125
vt 0.05079365 0.9453125
vt 0.05079365 0.953125
vt 0.04688645 0.953125
vt 0.04688645 0.9375
vt 0.05079365 0.9375
vt 0.05470086 0.9375
vt 0.05470086 0.9453125

# Normal
vn 0 0 -1

# Mesh description
g icmc_mesh_0377

# Faces
f 1/1/1 2/2/1 3/3/1 4/4/1
f 5/5/1 6/6/1 7/2/1 8/1/1
f 9/6/1 10/7/1 11/8/1 12/2/1
f 13/6/1 14/7/1 15/8/1 16/2/1

