# Tiled2Unity generated file. Do not modify by hand.
# Wavefront file for 'icmc_mesh_0314.obj'

# Vertices (Count = 28)
v -176 -128 0
v -192 -128 0
v -192 -112 0
v -176 -112 0
v -192 -128 0
v -208 -128 0
v -208 -112 0
v -192 -112 0
v -128 -144 0
v -144 -144 0
v -144 -128 0
v -128 -128 0
v -144 -144 0
v -160 -144 0
v -160 -128 0
v -144 -128 0
v -176 -144 0
v -192 -144 0
v -192 -128 0
v -176 -128 0
v -192 -144 0
v -208 -144 0
v -208 -128 0
v -192 -128 0
v -208 -144 0
v -224 -144 0
v -224 -128 0
v -208 -128 0

# Texture cooridinates (Count = 17)
vt 0 0.2762238
vt 0.125 0.2762238
vt 0.125 0.2797203
vt 0 0.2797203
vt 0.25 0.2762238
vt 0.25 0.2797203
vt 0.75 0.3146853
vt 0.875 0.3146853
vt 0.875 0.3181818
vt 0.75 0.3181818
vt 1 0.3146853
vt 1 0.3181818
vt 0 0.2727273
vt 0.125 0.2727273
vt 0.25 0.2727273
vt 0.375 0.2727273
vt 0.375 0.2762238

# Normal
vn 0 0 -1

# Mesh description
g icmc_mesh_0314

# Faces
f 1/1/1 2/2/1 3/3/1 4/4/1
f 5/2/1 6/5/1 7/6/1 8/3/1
f 9/7/1 10/8/1 11/9/1 12/10/1
f 13/8/1 14/11/1 15/12/1 16/9/1
f 17/13/1 18/14/1 19/2/1 20/1/1
f 21/14/1 22/15/1 23/5/1 24/2/1
f 25/15/1 26/16/1 27/17/1 28/5/1

