# Tiled2Unity generated file. Do not modify by hand.
# Wavefront file for 'icmc_mesh_0346.obj'

# Vertices (Count = 92)
v -32 -32 0
v -48 -32 0
v -48 -16 0
v -32 -16 0
v -176 -32 0
v -192 -32 0
v -192 -16 0
v -176 -16 0
v -192 -32 0
v -208 -32 0
v -208 -16 0
v -192 -16 0
v -208 -32 0
v -224 -32 0
v -224 -16 0
v -208 -16 0
v -240 -32 0
v -256 -32 0
v -256 -16 0
v -240 -16 0
v -144 -48 0
v -160 -48 0
v -160 -32 0
v -144 -32 0
v -160 -48 0
v -176 -48 0
v -176 -32 0
v -160 -32 0
v -176 -48 0
v -192 -48 0
v -192 -32 0
v -176 -32 0
v -192 -48 0
v -208 -48 0
v -208 -32 0
v -192 -32 0
v -208 -48 0
v -224 -48 0
v -224 -32 0
v -208 -32 0
v -144 -64 0
v -160 -64 0
v -160 -48 0
v -144 -48 0
v -160 -64 0
v -176 -64 0
v -176 -48 0
v -160 -48 0
v -176 -64 0
v -192 -64 0
v -192 -48 0
v -176 -48 0
v -144 -80 0
v -160 -80 0
v -160 -64 0
v -144 -64 0
v -160 -80 0
v -176 -80 0
v -176 -64 0
v -160 -64 0
v -176 -80 0
v -192 -80 0
v -192 -64 0
v -176 -64 0
v -144 -96 0
v -160 -96 0
v -160 -80 0
v -144 -80 0
v -160 -96 0
v -176 -96 0
v -176 -80 0
v -160 -80 0
v -176 -96 0
v -192 -96 0
v -192 -80 0
v -176 -80 0
v -240 -176 0
v -256 -176 0
v -256 -160 0
v -240 -160 0
v -48 -224 0
v -64 -224 0
v -64 -208 0
v -48 -208 0
v -96 -224 0
v -112 -224 0
v -112 -208 0
v -96 -208 0
v -240 -240 0
v -256 -240 0
v -256 -224 0
v -240 -224 0

# Texture cooridinates (Count = 31)
vt 0.9166667 0.9
vt 0.9333333 0.9
vt 0.9333333 0.9166667
vt 0.9166667 0.9166667
vt 0.55 0.85
vt 0.5666667 0.85
vt 0.5666667 0.8666667
vt 0.55 0.8666667
vt 0.5833333 0.85
vt 0.5833333 0.8666667
vt 0.9333333 0.9666666
vt 0.95 0.9666666
vt 0.95 0.9833333
vt 0.9333333 0.9833333
vt 0.45 0.8166667
vt 0.4666667 0.8166667
vt 0.4666667 0.8333333
vt 0.45 0.8333333
vt 0.55 0.8333333
vt 0.5666667 0.8333333
vt 0.5833333 0.8333333
vt 0.45 0.8
vt 0.4666667 0.8
vt 0.4833333 0.8
vt 0.4833333 0.8166667
vt 0.45 0.7833333
vt 0.4666667 0.7833333
vt 0.4833333 0.7833333
vt 0.45 0.7666667
vt 0.4666667 0.7666667
vt 0.4833333 0.7666667

# Normal
vn 0 0 -1

# Mesh description
g icmc_mesh_0346

# Faces
f 1/1/1 2/2/1 3/3/1 4/4/1
f 5/5/1 6/6/1 7/7/1 8/8/1
f 9/6/1 10/9/1 11/10/1 12/7/1
f 13/6/1 14/9/1 15/10/1 16/7/1
f 17/11/1 18/12/1 19/13/1 20/14/1
f 21/15/1 22/16/1 23/17/1 24/18/1
f 25/15/1 26/16/1 27/17/1 28/18/1
f 29/19/1 30/20/1 31/6/1 32/5/1
f 33/20/1 34/21/1 35/9/1 36/6/1
f 37/20/1 38/21/1 39/9/1 40/6/1
f 41/22/1 42/23/1 43/16/1 44/15/1
f 45/22/1 46/23/1 47/16/1 48/15/1
f 49/23/1 50/24/1 51/25/1 52/16/1
f 53/26/1 54/27/1 55/23/1 56/22/1
f 57/26/1 58/27/1 59/23/1 60/22/1
f 61/27/1 62/28/1 63/24/1 64/23/1
f 65/29/1 66/30/1 67/27/1 68/26/1
f 69/29/1 70/30/1 71/27/1 72/26/1
f 73/30/1 74/31/1 75/28/1 76/27/1
f 77/11/1 78/12/1 79/13/1 80/14/1
f 81/11/1 82/12/1 83/13/1 84/14/1
f 85/11/1 86/12/1 87/13/1 88/14/1
f 89/11/1 90/12/1 91/13/1 92/14/1

