# Tiled2Unity generated file. Do not modify by hand.
# Wavefront file for 'icmc_mesh_0241.obj'

# Vertices (Count = 12)
v -176 -256 0
v -192 -256 0
v -192 -240 0
v -176 -240 0
v -192 -256 0
v -208 -256 0
v -208 -240 0
v -192 -240 0
v -208 -256 0
v -224 -256 0
v -224 -240 0
v -208 -240 0

# Texture cooridinates (Count = 8)
vt 0 0.96875
vt 0.003907204 0.96875
vt 0.003907204 0.9765625
vt 0 0.9765625
vt 0.007814408 0.96875
vt 0.007814408 0.9765625
vt 0.01172161 0.96875
vt 0.01172161 0.9765625

# Normal
vn 0 0 -1

# Mesh description
g icmc_mesh_0241

# Faces
f 1/1/1 2/2/1 3/3/1 4/4/1
f 5/2/1 6/5/1 7/6/1 8/3/1
f 9/5/1 10/7/1 11/8/1 12/6/1

