# Tiled2Unity generated file. Do not modify by hand.
# Wavefront file for 'icmc_mesh_0288.obj'

# Vertices (Count = 16)
v -112 -64 0
v -128 -64 0
v -128 -48 0
v -112 -48 0
v -128 -64 0
v -144 -64 0
v -144 -48 0
v -128 -48 0
v -112 -80 0
v -128 -80 0
v -128 -64 0
v -112 -64 0
v -128 -80 0
v -144 -80 0
v -144 -64 0
v -128 -64 0

# Texture cooridinates (Count = 9)
vt 0.5 0.6573427
vt 0.625 0.6573427
vt 0.625 0.6608392
vt 0.5 0.6608392
vt 0.75 0.6573427
vt 0.75 0.6608392
vt 0.5 0.6538461
vt 0.625 0.6538461
vt 0.75 0.6538461

# Normal
vn 0 0 -1

# Mesh description
g icmc_mesh_0288

# Faces
f 1/1/1 2/2/1 3/3/1 4/4/1
f 5/2/1 6/5/1 7/6/1 8/3/1
f 9/7/1 10/8/1 11/2/1 12/1/1
f 13/8/1 14/9/1 15/5/1 16/2/1

