# Tiled2Unity generated file. Do not modify by hand.
# Wavefront file for 'icmc_mesh_0126.obj'

# Vertices (Count = 152)
v -96 -16 0
v -112 -16 0
v -112 0 0
v -96 0 0
v -96 -32 0
v -112 -32 0
v -112 -16 0
v -96 -16 0
v -176 -160 0
v -192 -160 0
v -192 -144 0
v -176 -144 0
v -192 -160 0
v -208 -160 0
v -208 -144 0
v -192 -144 0
v -208 -160 0
v -224 -160 0
v -224 -144 0
v -208 -144 0
v -176 -176 0
v -192 -176 0
v -192 -160 0
v -176 -160 0
v -192 -176 0
v -208 -176 0
v -208 -160 0
v -192 -160 0
v -208 -176 0
v -224 -176 0
v -224 -160 0
v -208 -160 0
v 0 -192 0
v -16 -192 0
v -16 -176 0
v 0 -176 0
v -32 -192 0
v -48 -192 0
v -48 -176 0
v -32 -176 0
v -112 -192 0
v -128 -192 0
v -128 -176 0
v -112 -176 0
v -176 -192 0
v -192 -192 0
v -192 -176 0
v -176 -176 0
v -192 -192 0
v -208 -192 0
v -208 -176 0
v -192 -176 0
v -208 -192 0
v -224 -192 0
v -224 -176 0
v -208 -176 0
v 0 -208 0
v -16 -208 0
v -16 -192 0
v 0 -192 0
v -96 -208 0
v -112 -208 0
v -112 -192 0
v -96 -192 0
v -176 -208 0
v -192 -208 0
v -192 -192 0
v -176 -192 0
v -192 -208 0
v -208 -208 0
v -208 -192 0
v -192 -192 0
v -208 -208 0
v -224 -208 0
v -224 -192 0
v -208 -192 0
v -224 -208 0
v -240 -208 0
v -240 -192 0
v -224 -192 0
v 0 -224 0
v -16 -224 0
v -16 -208 0
v 0 -208 0
v -64 -224 0
v -80 -224 0
v -80 -208 0
v -64 -208 0
v -80 -224 0
v -96 -224 0
v -96 -208 0
v -80 -208 0
v -96 -224 0
v -112 -224 0
v -112 -208 0
v -96 -208 0
v -176 -224 0
v -192 -224 0
v -192 -208 0
v -176 -208 0
v -224 -224 0
v -240 -224 0
v -240 -208 0
v -224 -208 0
v -240 -224 0
v -256 -224 0
v -256 -208 0
v -240 -208 0
v -64 -240 0
v -80 -240 0
v -80 -224 0
v -64 -224 0
v -80 -240 0
v -96 -240 0
v -96 -224 0
v -80 -224 0
v -96 -240 0
v -112 -240 0
v -112 -224 0
v -96 -224 0
v -224 -240 0
v -240 -240 0
v -240 -224 0
v -224 -224 0
v -240 -240 0
v -256 -240 0
v -256 -224 0
v -240 -224 0
v -32 -256 0
v -48 -256 0
v -48 -240 0
v -32 -240 0
v -64 -256 0
v -80 -256 0
v -80 -240 0
v -64 -240 0
v -80 -256 0
v -96 -256 0
v -96 -240 0
v -80 -240 0
v -96 -256 0
v -112 -256 0
v -112 -240 0
v -96 -240 0
v -224 -256 0
v -240 -256 0
v -240 -240 0
v -224 -240 0
v -240 -256 0
v -256 -256 0
v -256 -240 0
v -240 -240 0

# Texture cooridinates (Count = 58)
vt 0.9025641 0.8671875
vt 0.9064713 0.8671875
vt 0.9064713 0.875
vt 0.9025641 0.875
vt 0 0.96875
vt 0.003907204 0.96875
vt 0.003907204 0.9765625
vt 0 0.9765625
vt 0.007814408 0.96875
vt 0.007814408 0.9765625
vt 0.01172161 0.96875
vt 0.01172161 0.9765625
vt 0 0.9609375
vt 0.003907204 0.9609375
vt 0.007814408 0.9609375
vt 0.01172161 0.9609375
vt 0.007814408 0.9921875
vt 0.01172161 0.9921875
vt 0.01172161 1
vt 0.007814408 1
vt 0.8791209 0.953125
vt 0.8830281 0.953125
vt 0.8830281 0.9609375
vt 0.8791209 0.9609375
vt 0.613431 0.96875
vt 0.6173382 0.96875
vt 0.6173382 0.9765625
vt 0.613431 0.9765625
vt 0 0.953125
vt 0.003907204 0.953125
vt 0.007814408 0.953125
vt 0.01172161 0.953125
vt 0.007814408 0.984375
vt 0.01172161 0.984375
vt 0.8752137 0.9609375
vt 0.8791209 0.96875
vt 0.8752137 0.96875
vt 0 0.9453125
vt 0.003907204 0.9453125
vt 0.007814408 0.9453125
vt 0.01172161 0.9453125
vt 0.8908425 0.9296875
vt 0.8947497 0.9296875
vt 0.8947497 0.9375
vt 0.8908425 0.9375
vt 0.01562882 0.96875
vt 0.01562882 0.9765625
vt 0.01953602 0.96875
vt 0.01953602 0.9765625
vt 0.02344322 0.96875
vt 0.02344322 0.9765625
vt 0.01562882 0.9609375
vt 0.01953602 0.9609375
vt 0.02344322 0.9609375
vt 0.8752137 0.953125
vt 0.01562882 0.953125
vt 0.01953602 0.953125
vt 0.02344322 0.953125

# Normal
vn 0 0 -1

# Mesh description
g icmc_mesh_0126

# Faces
f 1/1/1 2/2/1 3/3/1 4/4/1
f 5/1/1 6/2/1 7/3/1 8/4/1
f 9/5/1 10/6/1 11/7/1 12/8/1
f 13/6/1 14/9/1 15/10/1 16/7/1
f 17/9/1 18/11/1 19/12/1 20/10/1
f 21/13/1 22/14/1 23/6/1 24/5/1
f 25/14/1 26/15/1 27/9/1 28/6/1
f 29/15/1 30/16/1 31/11/1 32/9/1
f 33/17/1 34/18/1 35/19/1 36/20/1
f 37/21/1 38/22/1 39/23/1 40/24/1
f 41/25/1 42/26/1 43/27/1 44/28/1
f 45/29/1 46/30/1 47/14/1 48/13/1
f 49/30/1 50/31/1 51/15/1 52/14/1
f 53/31/1 54/32/1 55/16/1 56/15/1
f 57/33/1 58/34/1 59/18/1 60/17/1
f 61/35/1 62/24/1 63/36/1 64/37/1
f 65/38/1 66/39/1 67/30/1 68/29/1
f 69/39/1 70/40/1 71/31/1 72/30/1
f 73/40/1 74/41/1 75/32/1 76/31/1
f 77/42/1 78/43/1 79/44/1 80/45/1
f 81/10/1 82/12/1 83/34/1 84/33/1
f 85/11/1 86/46/1 87/47/1 88/12/1
f 89/46/1 90/48/1 91/49/1 92/47/1
f 93/48/1 94/50/1 95/51/1 96/49/1
f 97/25/1 98/26/1 99/27/1 100/28/1
f 101/5/1 102/6/1 103/7/1 104/8/1
f 105/6/1 106/9/1 107/10/1 108/7/1
f 109/16/1 110/52/1 111/46/1 112/11/1
f 113/52/1 114/53/1 115/48/1 116/46/1
f 117/53/1 118/54/1 119/50/1 120/48/1
f 121/13/1 122/14/1 123/6/1 124/5/1
f 125/14/1 126/15/1 127/9/1 128/6/1
f 129/55/1 130/21/1 131/24/1 132/35/1
f 133/32/1 134/56/1 135/52/1 136/16/1
f 137/56/1 138/57/1 139/53/1 140/52/1
f 141/57/1 142/58/1 143/54/1 144/53/1
f 145/29/1 146/30/1 147/14/1 148/13/1
f 149/30/1 150/31/1 151/15/1 152/14/1

