# Tiled2Unity generated file. Do not modify by hand.
# Wavefront file for 'icmc_mesh_0147.obj'

# Vertices (Count = 56)
v -96 -112 0
v -112 -112 0
v -112 -96 0
v -96 -96 0
v -112 -112 0
v -128 -112 0
v -128 -96 0
v -112 -96 0
v -96 -128 0
v -112 -128 0
v -112 -112 0
v -96 -112 0
v -112 -128 0
v -128 -128 0
v -128 -112 0
v -112 -112 0
v -112 -144 0
v -128 -144 0
v -128 -128 0
v -112 -128 0
v -112 -160 0
v -128 -160 0
v -128 -144 0
v -112 -144 0
v -96 -176 0
v -112 -176 0
v -112 -160 0
v -96 -160 0
v -112 -176 0
v -128 -176 0
v -128 -160 0
v -112 -160 0
v -96 -192 0
v -112 -192 0
v -112 -176 0
v -96 -176 0
v -112 -192 0
v -128 -192 0
v -128 -176 0
v -112 -176 0
v -96 -224 0
v -112 -224 0
v -112 -208 0
v -96 -208 0
v -96 -240 0
v -112 -240 0
v -112 -224 0
v -96 -224 0
v -112 -240 0
v -128 -240 0
v -128 -224 0
v -112 -224 0
v -112 -256 0
v -128 -256 0
v -128 -240 0
v -112 -240 0

# Texture cooridinates (Count = 24)
vt 0.8583333 0.6666666
vt 0.8666667 0.6666666
vt 0.8666667 0.6714286
vt 0.8583333 0.6714286
vt 0.9083334 0.6761905
vt 0.9166667 0.6761905
vt 0.9166667 0.6809524
vt 0.9083334 0.6809524
vt 0.8583333 0.6619048
vt 0.8666667 0.6619048
vt 0.9083334 0.6714286
vt 0.9166667 0.6714286
vt 0.9083334 0.6666666
vt 0.9166667 0.6666666
vt 0.8583333 0.6761905
vt 0.8666667 0.6761905
vt 0.8666667 0.6809524
vt 0.8583333 0.6809524
vt 0.9083334 0.6619048
vt 0.9166667 0.6619048
vt 0.8583333 0.6571429
vt 0.8666667 0.6571429
vt 0.8583333 0.6523809
vt 0.8666667 0.6523809

# Normal
vn 0 0 -1

# Mesh description
g icmc_mesh_0147

# Faces
f 1/1/1 2/2/1 3/3/1 4/4/1
f 5/5/1 6/6/1 7/7/1 8/8/1
f 9/9/1 10/10/1 11/2/1 12/1/1
f 13/11/1 14/12/1 15/6/1 16/5/1
f 17/1/1 18/2/1 19/3/1 20/4/1
f 21/9/1 22/10/1 23/2/1 24/1/1
f 25/13/1 26/14/1 27/12/1 28/11/1
f 29/15/1 30/16/1 31/17/1 32/18/1
f 33/19/1 34/20/1 35/14/1 36/13/1
f 37/4/1 38/3/1 39/16/1 40/15/1
f 41/21/1 42/22/1 43/10/1 44/9/1
f 45/23/1 46/24/1 47/22/1 48/21/1
f 49/21/1 50/22/1 51/10/1 52/9/1
f 53/23/1 54/24/1 55/22/1 56/21/1

